<svg width="520" height="520" viewBox="0 0 520 520" fill="none" xmlns="http://www.w3.org/2000/svg">
<path d="M0 260C0 403.594 116.406 520 260 520C403.594 520 520 403.594 520 260C520 116.406 403.594 0 260 0C116.406 0 0 116.406 0 260Z" fill="#C7E477"/>
<path d="M146.094 267.851C136.772 257.328 133.621 247.823 132.379 241.814C131.102 235.632 131.259 228.423 131.574 214.005C131.819 202.812 132.37 202.677 132.099 196.109C131.525 182.342 129.026 181.397 129.738 172.583C130.56 162.428 134.588 154.899 136.59 151.247C140.594 143.939 143.951 144.378 148.685 135.883C150.962 131.631 152.843 127.179 154.305 122.582C157.388 113.618 156.099 113.659 158.212 108.738C159.889 104.828 163.97 99.9084 172.062 90.2294C175.864 85.6824 177.766 83.4089 179.163 82.0845C185.566 76.0199 192.135 72.9171 196.625 71.0011C209.787 65.3866 215.533 65.5161 228.265 61.509C249.822 54.7265 249.982 49.1229 267.203 45.9002C274.218 44.5878 282.862 43.0616 293.608 45.5409C308.379 48.9512 320.463 58.3915 323.06 62.46C323.679 63.4674 324.484 64.3475 325.433 65.053C328.141 67.0474 331.349 66.9906 332.755 66.9474C342.195 66.6558 344.634 64.5158 349.602 65.5832C351.808 66.0567 353.711 67.364 357.427 69.9598C366.578 76.3495 371.153 79.545 373.729 84.2921C378.349 92.8042 375.803 102.205 374.229 108.203C372.021 116.431 367.608 123.899 361.467 129.802L146.094 267.851Z" fill="#705654"/>
<path d="M159.727 260.121C156.909 239.304 156.86 218.206 159.582 197.376C161.279 184.417 163.15 170.84 169.87 154.236C175.405 140.555 184.932 117.011 209.135 100.768C220.271 93.4021 232.826 88.4497 245.992 86.2303C256.236 84.499 264.357 84.9032 273.688 85.367C288.222 86.0889 298.867 86.6174 310.821 90.6456C349.884 103.805 366.269 141.956 367.442 144.788C369.27 149.209 370.737 153.771 371.826 158.429C371.73 159.417 371.852 160.413 372.184 161.348C373.29 164.384 376.141 164.78 377.413 167.351C377.952 168.444 378.347 170.217 377.413 173.082C381.584 176.962 384.818 181.74 386.871 187.055C394.21 206.416 381.778 224.859 380.228 227.084C384.882 252.831 385.161 279.18 381.053 305.02C376.751 331.737 372.758 356.529 352.577 378.955C334.066 399.527 311.767 407.182 304.627 409.369C291.05 413.534 276.777 414.943 262.647 413.514C252.353 412.442 224.901 408.033 202.502 386.377C193.914 378.075 188.962 370.035 185.125 363.712C177.015 350.308 171.265 335.612 168.126 320.262C151.881 320.952 137.857 308.845 136.15 293.124C134.512 278.07 144.602 263.728 159.727 260.121Z" fill="#E6BC9A"/>
<path d="M174.575 319.039C177.064 328.204 185.584 354.838 211.755 375.111C240.979 397.749 272.869 397.475 284.118 396.75C312.721 394.907 332.279 382.135 337.426 378.593C367.323 358.013 376.858 328.158 379.365 319.168C376.311 334.644 369.784 355.377 355.249 375.164C349.548 382.925 342.439 392.401 329.683 399.862C320.258 405.375 311.647 407.507 302.132 409.865C294.495 411.758 284.285 414.215 270.634 414.024C260.566 413.901 250.566 412.356 240.93 409.434C233.906 407.265 218.324 402.267 203.706 388.722C191.963 377.841 186.473 366.661 179.545 352.552C174.56 342.401 170.512 331.816 167.451 320.929C164.008 320.946 160.591 320.344 157.361 319.152C146.66 315.17 141.748 305.805 139.828 302.146C136.83 296.432 135.103 289.894 136.049 289.438C137.215 288.876 141.062 298.232 149.076 305.963C157.4 313.993 167.261 317.411 174.575 319.039Z" fill="#D69B7B"/>
<path d="M371.797 112.974C372.768 111.272 378.826 100.224 374.314 87.4041C369.961 75.0349 359.014 70.2389 356.751 69.2454C355.353 68.6327 345.198 64.1817 335.566 66.7974C334.239 67.2584 332.844 67.4928 331.44 67.4908C325.144 67.3072 320.842 61.3988 318.651 58.8212C309.286 47.7895 292.676 43.6073 282.843 43.4863C276.794 43.4124 271.239 45.2659 260.131 48.974C251.515 51.85 246.71 54.3004 241.147 56.7404C212.589 69.2693 205.58 63.3172 189.122 74.6899C184.027 78.211 179.574 82.8047 170.665 91.9914C163.041 99.8539 159.109 104.898 156.883 111.032C155.499 114.847 154.605 118.439 154.605 118.439C153.083 124.556 153.463 126.51 152.178 130.099C150.737 134.119 148.607 136.275 146.233 139.13C140.947 145.49 136.145 153.276 133.785 158.945C130.672 166.416 130.755 172.693 130.918 184.984C131.06 195.742 132.381 194.849 132.71 206.116C133.153 221.301 130.773 223.542 132.355 235.643C133.069 241.416 134.459 247.086 136.496 252.535C138.595 258.007 141.378 263.192 144.778 267.966L147.312 266.348C144.474 261.555 142.182 256.458 140.479 251.154C138.743 245.657 137.613 239.987 137.109 234.245C136.601 229.389 136.864 228.433 136.794 213.726C136.751 204.628 136.729 200.08 136.557 195.206C136.113 182.656 135.447 182.176 135.977 177.235C136.656 171.071 138.371 165.066 141.05 159.474C144.509 152.308 146.447 152.483 153.8 140.067C156.918 134.802 158.136 132.126 159.081 129.514C161.278 123.443 161.348 119.528 161.971 116.148C163.636 107.095 169.391 101.124 176.998 93.2323C184.199 85.8494 192.679 79.8336 202.026 75.4771C215.276 69.2431 217.015 72.4385 235.348 65.5145C249.622 60.1239 250.301 57.5321 262.371 54.3355C269.031 52.5736 277.105 50.5115 287.698 51.5505C296.173 52.3843 304.176 53.1715 310.744 58.9303C313.444 61.2971 315.856 64.4647 321.775 68.6543C325.435 71.2438 327.809 72.3658 330.576 72.6852C333.826 73.0604 335.351 72.0668 338.912 71.4973C343.328 70.9636 347.805 71.3039 352.089 72.4988C362.31 75.401 367.88 84.4559 369.143 86.6516C376.032 98.6154 372.468 110.815 371.797 112.974Z" fill="#AA8785"/>
<path d="M165.967 259.022C164.135 241.406 164.027 223.653 165.644 206.016C167.761 182.923 169.281 166.33 178.846 147.258C183.778 137.421 196.208 113.476 224.013 99.4685C249.385 86.6867 273.357 89.3349 285.255 90.649C293.027 91.5072 308.348 93.3482 325.742 102.54C340.62 110.452 353.423 121.759 363.113 135.545C359.005 128.297 354.005 121.592 348.229 115.587C343.537 110.714 325.409 92.3501 299.203 87.6632C291.44 86.2752 281.033 85.7409 274.156 85.3897C266.546 84.9986 262.741 84.8032 258.071 85.0237C246.715 85.5897 235.554 88.1988 225.124 92.7258C210.277 99.2576 201.097 108.123 196.398 112.746C176.034 132.778 168.986 155.765 165.876 166.356C161.446 181.437 160.814 193.846 159.55 218.665C158.674 235.864 158.886 250.193 159.265 260.24L165.967 259.022Z" fill="#D69B7B"/>
<path d="M294.707 271.929C298.653 271.884 302.702 271.768 306.855 271.58C313.706 271.265 320.278 270.763 326.551 270.121C328.018 268.865 329.053 267.18 329.512 265.304C330.512 261.041 327.908 257.695 327.554 257.256C326.653 259.11 325.434 260.79 323.951 262.222C320.532 265.498 316.683 266.397 312.921 267.307C308.427 268.395 302.685 269.831 294.707 271.929Z" fill="#D69B7B"/>
<path d="M216.679 199.688C241.076 193.831 266.526 193.939 290.873 200.002C291.133 202.799 292.06 215.948 282.78 226.82C270.884 240.756 252.549 238.846 248.929 238.367C243.87 237.7 228.759 234.703 220.872 220.844C215.862 212.039 216.293 203.289 216.679 199.688Z" fill="white"/>
<path d="M315.675 200.256C327.447 195.678 340.008 193.472 352.635 193.764C365.263 194.056 377.708 196.84 389.256 201.956C387.848 207.909 385.441 213.581 382.137 218.731C379.714 222.498 377.114 226.541 372.324 229.803C364.286 235.276 355.518 234.85 351.744 234.666C348.413 234.505 334.731 233.84 324.697 222.523C316.945 213.782 315.881 203.774 315.675 200.256Z" fill="white"/>
<path d="M220.146 175.969C220.11 176.544 234.88 179.366 253.875 177.085C266.69 175.545 276.561 174.213 282.8 166.269C286.665 161.35 287.66 155.773 287.943 152.25C286.859 155.256 285.253 158.047 283.198 160.495C278.226 166.376 271.843 168.601 268.053 169.736C247.865 175.786 220.195 175.187 220.146 175.969Z" fill="#D69B7B"/>
<path d="M328.629 162.688C328.38 163.137 334.938 168.144 344.322 171.825C348.609 173.508 354.266 175.668 361.79 175.651C364.813 175.644 375.426 175.62 377.055 170.819C377.995 168.048 375.634 164.598 375.293 164.097C374.118 162.399 372.478 161.075 370.569 160.284C370.938 160.679 372.691 162.633 372.307 165.008C371.921 167.395 369.631 168.645 368.166 169.441C365.733 170.725 362.997 171.321 360.251 171.167C348.945 170.562 329.033 161.958 328.629 162.688Z" fill="#D69B7B"/>
<path d="M237.34 322.921C236.055 321.3 225.465 307.945 229.567 302.022C231.858 298.716 237.785 299.081 242.052 299.395C252.647 300.174 258.141 304.357 267.654 308.746C278.415 313.713 288.925 318.563 301.87 318.441C314.25 318.328 322.42 313.724 327.43 318.782C330.469 321.852 330.433 326.542 330.426 326.865C330.313 332.151 326.317 335.7 324.468 337.342C321.868 339.608 318.794 341.262 315.471 342.184C289.865 349.694 269.218 343.351 269.218 343.351C263.269 341.523 248.269 336.702 237.34 322.921Z" fill="#530F0E"/>
<path d="M237.826 324.618C249.778 323.004 261.944 324.791 272.928 329.774C274.818 329.101 285.743 325.391 295.469 330.456C299.041 332.176 302.071 334.845 304.226 338.173C305.397 340.044 306.256 342.093 306.767 344.24C301.586 345.108 296.347 345.583 291.095 345.661C282.548 345.789 272.099 345.945 260.682 341.32C255.629 339.272 246.484 334.709 237.826 324.618Z" fill="#EB7B7F"/>
<path d="M294.826 282.048C303.251 281.894 313.195 281.628 323.075 280.835L323.574 280.797C326.319 280.589 330.465 280.274 334.119 277.365C336.83 275.175 338.671 272.089 339.308 268.662C340.502 262.414 338.209 256.633 336.534 252.413L336.289 251.796C334.697 247.761 332.982 243.767 331.324 239.905C330.029 236.887 328.69 233.766 327.447 230.71C324.669 223.886 321.996 216.751 319.504 209.51C318.834 207.523 317.562 205.794 315.864 204.562C314.167 203.331 312.128 202.659 310.032 202.639C308.392 202.601 306.768 202.958 305.296 203.68C303.823 204.403 302.547 205.469 301.573 206.788C300.639 208.073 300.033 209.566 299.807 211.139C299.582 212.711 299.744 214.315 300.279 215.811C302.998 223.717 306.03 231.759 309.29 239.715C310.446 242.537 311.66 245.351 312.833 248.07C314.405 251.716 316.03 255.486 317.472 259.178C317.692 259.74 317.913 260.315 318.125 260.892L317.568 260.925C309.952 261.371 302.222 261.668 294.589 261.807C291.921 261.846 289.376 262.941 287.514 264.853C285.651 266.764 284.622 269.336 284.652 272.004C284.625 274.634 285.642 277.168 287.479 279.05C289.316 280.932 291.825 282.009 294.454 282.045L294.826 282.048Z" fill="#F9FFE9"/>
<path d="M328.971 270.902C327.162 272.344 324.617 272.424 322.413 272.6C313.196 273.339 303.919 273.619 294.676 273.788C292.282 273.832 292.349 270.115 294.74 270.07C302.516 269.928 310.287 269.629 318.053 269.173C319.914 269.064 321.781 268.976 323.634 268.78C324.551 268.726 325.456 268.543 326.323 268.238C325.941 268.395 326.64 267.972 326.598 268.051C326.755 267.895 326.977 267.643 327.002 267.636C327.145 267.432 327.275 267.218 327.389 266.996C327.397 266.965 327.408 266.927 327.422 266.874C327.466 266.719 327.509 266.562 327.555 266.408C327.565 266.375 327.587 266.258 327.603 266.173C327.612 266.078 327.635 265.872 327.638 265.811C327.657 265.434 327.656 265.056 327.634 264.679C327.575 263.963 327.455 263.253 327.277 262.557C326.726 260.383 326.021 258.251 325.168 256.176C322.593 249.578 319.62 243.136 316.935 236.582C313.766 228.847 310.818 221.026 308.091 213.121C307.311 210.855 310.918 209.946 311.692 212.194C314.197 219.475 316.898 226.685 319.794 233.825C322.656 240.857 325.819 247.767 328.604 254.829C330.082 258.569 331.981 262.996 331.194 267.106C330.924 268.594 330.136 269.938 328.971 270.902Z" fill="black"/>
<path d="M267.427 423.748C274.973 423.848 282.514 423.32 289.972 422.171C304.446 420.021 319.756 417.246 333.805 409.177C341.638 404.684 348.708 398.977 354.751 392.268C359.326 387.19 363.544 381.358 368.024 373.909C376.715 359.472 382.761 346.143 386.508 333.164C388.372 326.559 389.69 319.813 390.45 312.992C392.225 298.031 392.377 283.182 392.31 271.917C392.225 257.506 391.475 242.749 390.081 227.995C394.934 222.544 398.184 215.855 399.471 208.67C401.568 196.166 397.344 182.183 388.354 171.174C388.657 167.52 387.713 163.871 385.676 160.822C384.536 159.132 383.2 157.583 381.697 156.207C381.284 154.485 380.834 152.792 380.352 151.148C378.441 144.632 375.905 138.315 372.78 132.286C373.83 130.988 374.812 129.663 375.726 128.312C378.348 124.334 380.543 120.091 382.273 115.652C384.273 110.864 385.538 105.801 386.024 100.634C386.499 94.8269 385.68 88.9866 383.626 83.534C381.572 78.0815 378.334 73.1524 374.145 69.102C369.924 64.9744 364.7 61.5926 358.174 58.7626C353.443 56.6253 348.338 55.4389 343.149 55.271C342.588 55.2615 342.027 55.2671 341.465 55.2875C339.343 55.4067 337.237 55.7209 335.173 56.2259C334.027 56.525 332.854 56.7136 331.672 56.7892C331.516 56.798 331.359 56.7746 331.213 56.7204C330.505 56.4283 329.313 55.1857 328.263 54.0933C327.414 53.2089 326.45 52.2063 325.348 51.2412C321.576 47.9839 317.466 45.1395 313.088 42.7564C303.887 37.683 295.184 34.882 286.478 34.1937C285.202 34.0919 283.896 34.0294 282.595 34.0073C276.182 33.9146 269.786 34.7103 263.591 36.3717C259.385 37.4898 255.691 39.3472 252.429 40.9847C251.362 41.5213 250.295 42.0601 249.212 42.5671C243.591 45.2055 237.774 47.4064 231.814 49.1501C223.947 51.4447 216.733 53.6449 209.761 55.8775L207.051 56.7403C200.725 58.749 194.182 60.8258 187.84 63.6876C181.752 66.4357 175.967 70.6895 170.645 76.3313C167.558 79.6052 164.812 83.065 162.036 86.6191L161.143 87.7621C158.222 91.5003 155.2 95.3653 152.342 99.3508C149.921 102.729 147.468 106.468 145.92 110.93C145.086 113.551 144.605 116.272 144.49 119.02C144.416 119.976 144.348 120.88 144.228 121.667C143.74 124.563 142.543 127.293 140.745 129.615C140 130.616 139.253 131.614 138.502 132.609C136.262 135.589 133.946 138.671 131.754 141.883C128.864 145.996 126.42 150.403 124.462 155.032C122.342 160.279 120.969 165.796 120.381 171.423C120.009 174.845 119.909 178.29 120.083 181.727C120.261 184.418 120.599 187.096 121.094 189.747C121.342 191.216 121.575 192.601 121.732 193.934C122.149 197.465 122.263 201.025 122.073 204.575C121.995 205.991 121.888 207.407 121.783 208.822C121.618 211.027 121.447 213.306 121.372 215.642C121.009 226.875 121.791 236.594 123.764 245.355C125.572 253.349 128.626 261.009 132.813 268.055C124.845 280.234 123.725 295.783 130.33 308.484C136.236 319.843 147.329 327.821 160.124 330.229C160.368 331.032 160.615 331.818 160.862 332.585C163.478 340.516 166.553 348.287 170.07 355.861C173.143 362.619 176.581 369.801 180.889 376.55C187.063 386.238 194.906 394.756 204.053 401.706C215.985 410.746 229.637 417.254 244.173 420.833C251.791 422.663 259.589 423.642 267.423 423.752L267.427 423.748ZM370.918 241.651C371.807 254.414 372.188 267.228 372.051 279.804C371.931 290.764 371.56 303.59 369.705 315.612C368.733 321.688 367.224 327.666 365.194 333.475C361.069 345.543 354.821 357.785 346.625 369.857C338.44 381.907 327.627 390.834 315.352 395.669C310.109 397.735 304.041 399.325 296.262 400.678C290.932 401.604 285.261 402.553 279.711 403.104C275.961 403.476 272.193 403.632 268.425 403.571C247.717 403.291 227.769 395.725 212.085 382.2C204.722 375.797 198.297 367.287 192.987 356.907C188.211 347.659 184.129 338.068 180.775 328.215C182.047 327.195 183.044 325.873 183.676 324.37C184.308 322.867 184.555 321.23 184.395 319.608C184.199 317.087 183.073 314.729 181.235 312.992C179.397 311.255 176.979 310.263 174.451 310.209C173.738 310.197 173.026 310.259 172.325 310.394C166.9 311.433 161.282 310.466 156.518 307.671C152.538 305.347 149.4 301.82 147.554 297.598C145.906 293.59 145.699 289.136 146.968 284.993C149.603 276.107 157.999 269.558 167.387 269.068C170.036 268.929 172.527 267.762 174.33 265.815C176.132 263.868 177.103 261.295 177.037 258.642C177.013 256.356 176.2 254.149 174.736 252.393C173.271 250.638 171.245 249.442 169 249.009C168.288 236.809 168.422 224.575 169.401 212.394C170.419 199.732 171.575 185.383 174.878 171.968C177.347 161.941 181.414 151.927 187.309 141.355C191.817 133.27 196.472 126.599 201.538 120.961C208.554 113.011 217.134 106.594 226.743 102.111C237.139 97.3473 249.384 95.1914 265.279 95.3267L265.828 95.3306C268.201 95.3511 270.584 95.371 272.969 95.4119C282.285 95.5711 292.18 96.0434 301.452 98.3993C313.255 101.459 324.221 107.126 333.544 114.984C344.007 123.739 352.238 134.856 357.558 147.419C356.039 148.337 354.789 149.641 353.936 151.197C353.082 152.753 352.654 154.507 352.696 156.282C352.738 158.057 353.247 159.789 354.173 161.303C355.099 162.818 356.408 164.061 357.969 164.907C348.348 164.075 339.379 159.7 332.802 152.63C331.893 151.652 330.796 150.868 329.577 150.323C328.358 149.779 327.041 149.486 325.706 149.462C323.697 149.452 321.728 150.028 320.041 151.119C318.353 152.21 317.02 153.769 316.205 155.606C315.408 157.415 315.164 159.42 315.503 161.368C315.842 163.316 316.75 165.121 318.112 166.554C318.467 166.929 318.827 167.301 319.192 167.669C315.966 171.096 313.112 174.856 310.68 178.886C305.741 187.15 303.796 196.204 305.053 205.069C306.581 215.829 313.104 226.265 323.422 234.454C331.728 241.116 341.988 244.873 352.632 245.148C357.757 245.239 362.86 244.457 367.723 242.838C368.793 242.482 369.859 242.086 370.918 241.651ZM149.032 253.53C148.743 253.676 148.456 253.826 148.171 253.98C144.552 246.702 142.502 238.52 141.906 228.969C141.585 223.811 141.494 219.884 141.61 216.234C141.673 214.237 141.824 212.217 141.984 210.079C142.089 208.676 142.193 207.274 142.275 205.868C142.521 201.578 142.418 197.275 141.967 193.001C141.756 191.004 141.437 189.111 141.13 187.281C140.802 185.324 140.492 183.478 140.356 181.746C139.852 175.481 140.736 169.182 142.946 163.297C145.395 156.875 149.864 151.02 154.594 144.82C155.361 143.816 156.121 142.814 156.875 141.816C160.037 137.702 162.319 132.981 163.582 127.948C164.164 125.499 164.516 123 164.634 120.486C164.647 119.726 164.72 118.97 164.85 118.222C165.3 116.417 166.458 114.5 168.056 112.177C170.234 109.015 172.598 105.975 175.102 102.757L176.915 100.421C181.391 94.6344 185.621 89.1671 190.854 85.2737C194.103 82.8558 198.003 81.212 202.86 79.4864C211.701 76.3466 220.739 73.5451 228.414 71.2181C230.006 70.735 231.61 70.2775 233.213 69.8199C236.424 68.9014 239.744 67.9522 243.061 66.7939C249.998 64.3725 256.765 61.4885 263.316 58.1613C266.443 56.5937 269.796 55.5231 273.254 54.988C276.245 54.4534 279.281 54.2059 282.32 54.2491C286.381 54.292 290.409 54.9768 294.256 56.2782C296.841 57.1994 299.35 58.323 301.759 59.6385C304.865 61.2179 307.814 63.0886 310.566 65.2257C311.592 66.0893 312.567 67.0117 313.486 67.988C315.19 69.812 317.055 71.4776 319.06 72.9642C322.693 75.553 327.035 76.9624 331.495 77.0015C333.911 77.0271 336.319 76.7335 338.657 76.1284C340.073 75.7587 341.532 75.58 342.995 75.5969C344.57 75.6324 346.131 75.8982 347.63 76.3859C349.863 77.1328 352.02 78.0906 354.071 79.2465C358.247 81.5036 361.514 84.5672 363.521 88.1088C367.304 94.785 365.744 102.311 363.768 107.45C362.917 109.677 361.907 111.84 360.747 113.923C354.587 106.333 347.404 99.6337 339.405 94.0154C326.58 85.0155 311.839 79.1198 296.345 76.7934C289.682 75.8922 282.97 75.3955 276.247 75.3059L275.471 75.2855C273.105 75.223 270.74 75.1604 268.374 75.1195C263.384 75.0343 259.341 75.0712 255.649 75.2366C238.556 76.0045 223.239 80.285 210.122 87.9581C199.705 94.0529 190.249 102.395 182.017 112.756C176.989 119.085 172.418 126.207 167.632 135.168C160.729 148.071 155.881 161.972 153.263 176.369C152.132 182.592 151.246 189.24 150.391 197.926C149.667 205.28 148.93 213.13 148.576 221.147C148.108 231.941 148.26 242.753 149.032 253.529V253.53ZM378.596 208.521C375.559 216.26 367.062 222.81 357.656 224.579C356.086 224.872 354.49 225.005 352.893 224.976C346.292 224.863 339.677 222.086 334.266 217.157C331.223 214.475 328.708 211.248 326.849 207.642C328.003 207.335 329.15 207.053 330.291 206.796C335.845 205.551 341.5 204.812 347.187 204.59C347.316 204.831 347.453 205.068 347.595 205.303C349.027 207.617 351.025 209.529 353.4 210.856C355.776 212.184 358.451 212.885 361.172 212.892C362.564 212.917 363.953 212.766 365.307 212.444C368.634 211.647 371.627 209.828 373.867 207.242C375.453 207.628 377.03 208.054 378.596 208.52V208.521ZM350.381 184.275C343.58 184.324 336.798 184.97 330.111 186.207L330.121 186.194C331.855 183.839 333.781 181.633 335.881 179.597C336.737 180.014 337.598 180.408 338.465 180.778C342.287 182.404 346.286 183.576 350.381 184.273V184.275ZM373.403 184.874C373.837 185.449 374.253 186.038 374.649 186.641C372.156 186.128 369.643 185.698 367.112 185.35C369.217 185.32 371.318 185.161 373.403 184.873V184.874Z" fill="#F9FFE9"/>
<path d="M128.597 172.327C129.1 167.468 130.281 162.703 132.107 158.171C133.853 154.078 136.023 150.178 138.582 146.537C141.378 142.44 144.419 138.523 147.377 134.545C149.984 131.136 151.709 127.136 152.4 122.901C152.873 119.775 152.674 116.676 153.728 113.637C154.922 110.193 156.95 107.106 159.06 104.164C162.1 99.9233 165.34 95.815 168.552 91.7028C171.144 88.3828 173.766 85.0669 176.658 81.9999C180.832 77.5745 185.676 73.73 191.24 71.2194C198.017 68.1615 205.218 66.0096 212.285 63.7463C219.541 61.4227 226.824 59.2013 234.132 57.082C240.501 55.2193 246.716 52.8681 252.723 50.0494C257.02 48.0356 261.096 45.5848 265.717 44.3576C272.266 42.5924 279.066 41.9403 285.832 42.4285C294.158 43.0879 301.846 45.9889 309.103 49.9909C312.963 52.085 316.586 54.5879 319.911 57.4565C322.571 59.7869 324.696 62.9636 328.061 64.3556C332.623 66.2426 337.132 63.711 341.77 63.5428C346.281 63.3797 350.78 64.5608 354.892 66.3432C359.837 68.4854 364.498 71.2199 368.372 75.0076C371.682 78.2127 374.244 82.1095 375.873 86.4196C377.502 90.7296 378.159 95.3463 377.797 99.9397C377.381 104.275 376.312 108.522 374.624 112.537C373.102 116.441 371.179 120.177 368.883 123.682C367.062 126.359 364.996 128.862 362.712 131.157C366.866 138.161 370.129 145.656 372.424 153.469C373.075 155.692 373.646 157.935 374.136 160.2C374.167 160.346 374.183 160.496 374.182 160.645C375.962 161.983 377.521 163.59 378.803 165.411C380.375 167.764 380.685 170.997 379.185 173.308C387.694 181.998 393.362 195.134 391.321 207.305C390.171 214.16 386.477 220.227 381.488 225.063C383.076 240.647 383.928 256.282 384.045 271.968C384.125 285.32 383.818 298.749 382.243 312.02C381.534 318.395 380.304 324.7 378.567 330.874C374.592 344.642 368.313 357.405 360.943 369.651C357.387 375.728 353.257 381.449 348.609 386.737C343.145 392.794 336.758 397.95 329.685 402.013C317.078 409.252 302.949 411.89 288.752 414C274.502 416.117 260.203 416.241 246.13 412.807C232.692 409.506 220.073 403.489 209.049 395.126C200.676 388.766 193.497 380.97 187.848 372.102C183.86 365.859 180.648 359.176 177.587 352.443C174.206 345.155 171.247 337.68 168.725 330.053C167.939 327.615 167.219 325.157 166.538 322.687C154.646 322.109 143.307 315.538 137.658 304.675C131.437 292.711 134.071 278.266 142.891 268.469C137.63 260.95 133.872 252.486 131.822 243.542C129.808 234.595 129.333 225.058 129.628 215.91C129.745 212.273 130.121 208.658 130.32 205.028C130.537 201.005 130.408 196.971 129.933 192.971C129.475 189.078 128.527 185.241 128.33 181.319C128.179 178.319 128.268 175.313 128.597 172.327ZM377.662 177.077C377.21 176.581 376.724 176.118 376.249 175.645C375.07 176.131 373.834 176.467 372.57 176.644C369.226 177.076 365.851 177.221 362.482 177.076C355.332 176.962 348.338 176.016 341.718 173.181C339.352 172.164 337.063 170.975 334.871 169.623C330.534 172.932 326.701 176.853 323.49 181.262C319.795 186.234 317.01 191.965 316.665 198.23C336.059 191.669 356.918 190.754 376.812 195.592C380.543 196.509 384.222 197.628 387.832 198.945C386.955 190.853 382.918 182.854 377.662 177.077ZM386.643 210.577C387.48 208.125 387.934 205.557 387.988 202.966C382.029 200.725 375.878 199.031 369.611 197.904C369.274 199.458 368.514 200.887 367.415 202.035C366.316 203.184 364.921 204.005 363.385 204.41C360.308 205.146 356.507 204.069 354.659 201.021C353.819 199.593 353.469 197.93 353.66 196.285C345.196 196.064 336.738 196.888 328.476 198.737C324.507 199.637 320.593 200.765 316.754 202.114C317.612 210.409 322.573 217.682 328.701 223.265C336.912 230.744 348.105 234.779 359.182 232.697C370.972 230.48 382.595 222.174 386.643 210.577ZM139.95 300.825C142.481 306.675 146.812 311.564 152.313 314.782C158.81 318.604 166.478 319.928 173.881 318.506C176.223 318.056 177.16 321.656 174.808 322.107C173.353 322.377 171.882 322.553 170.404 322.635C174.214 335.783 179.315 348.523 185.632 360.668C190.972 371.103 197.787 380.711 206.662 388.431C215.345 395.92 225.293 401.801 236.04 405.8C250.297 411.137 265.411 412.818 280.524 411.324C286.27 410.755 291.991 409.805 297.677 408.817C304.72 407.593 311.716 405.98 318.38 403.355C332.888 397.64 344.758 387.312 353.459 374.497C361.512 362.637 368.372 349.721 373.011 336.145C375.196 329.877 376.821 323.427 377.869 316.872C379.715 304.91 380.178 292.168 380.313 279.894C380.467 265.764 379.997 251.646 378.903 237.54C378.659 234.373 378.374 231.21 378.07 228.047C374.174 231.076 369.794 233.425 365.115 234.997C352.44 239.209 338.903 236.196 328.557 227.982C321.049 222.021 314.607 213.595 313.231 203.904C312.193 196.596 314.009 189.411 317.769 183.12C321.055 177.692 325.198 172.83 330.036 168.724C330.555 168.285 331.087 167.863 331.623 167.445C328.922 165.498 326.41 163.299 324.121 160.88C322.477 159.139 325.148 156.553 326.792 158.297C334.998 167.107 346.265 172.443 358.28 173.208C361.225 173.385 364.197 173.436 367.147 173.375C369.547 173.409 371.938 173.096 374.248 172.444C374.711 172.292 375.154 172.085 375.568 171.828C375.651 171.778 375.692 171.757 375.717 171.744C375.712 171.738 375.742 171.699 375.908 171.557C375.965 171.507 376.012 171.447 376.067 171.396C376.075 171.388 376.077 171.388 376.083 171.383L376.092 171.366C376.413 170.728 376.533 170.008 376.437 169.3C376.422 169.191 376.397 169.005 376.376 168.93C376.345 168.82 376.166 168.314 376.181 168.313C375.172 166.086 372.986 164.357 371.091 162.935C368.369 160.892 365.413 159.18 362.287 157.835C361.823 157.682 361.435 157.359 361.201 156.93C360.967 156.501 360.905 156 361.028 155.527C361.276 154.649 362.415 153.872 363.337 154.268C365.522 155.199 367.64 156.282 369.675 157.508C364.747 138.407 353.971 121.325 338.855 108.651C328.581 99.9923 316.494 93.7507 303.486 90.3864C291.076 87.2318 278.079 87.1659 265.347 87.0585C250.91 86.9369 236.565 88.5181 223.303 94.5924C212.672 99.5548 203.173 106.648 195.396 115.432C189.496 122.137 184.364 129.48 180.096 137.325C174.322 147.679 169.699 158.448 166.858 169.987C163.497 183.634 162.292 197.748 161.167 211.724C160.074 225.303 160.001 238.944 160.949 252.534C161.073 254.307 161.237 256.076 161.396 257.845C163.249 257.447 165.13 257.197 167.023 257.096C169.41 256.971 169.339 260.689 166.959 260.813C154.177 261.48 142.703 270.322 139.051 282.639C137.241 288.623 137.558 295.049 139.95 300.825ZM132.121 182.392C132.422 186.234 133.347 190.028 133.752 193.868C134.158 197.694 134.251 201.547 134.029 205.389C133.824 208.919 133.467 212.437 133.354 215.971C133.209 220.473 133.382 224.987 133.662 229.482C134.276 239.323 136.404 248.908 140.831 257.768C142.231 260.555 143.812 263.246 145.566 265.826C149.106 262.68 153.256 260.297 157.758 258.825C156.6 246.423 156.291 233.955 156.834 221.511C157.17 213.902 157.871 206.312 158.617 198.734C159.305 191.743 160.139 184.76 161.396 177.846C163.85 164.29 168.415 151.202 174.923 139.06C178.797 131.61 183.338 124.526 188.49 117.896C195.684 108.842 204.291 100.944 214.295 95.0892C227.032 87.6377 241.356 84.1478 256.019 83.4896C262.685 83.1906 269.362 83.3879 276.029 83.5641C282.42 83.6457 288.8 84.1137 295.134 84.9657C309.358 87.088 322.891 92.502 334.654 100.776C344.995 108.061 353.836 117.27 360.693 127.9C365.405 122.839 369.071 116.897 371.481 110.415C374.802 101.776 375.402 92.3234 370.709 84.037C367.776 78.8601 363.203 74.7917 358 71.9805C355.488 70.5749 352.847 69.4118 350.115 68.507C345.751 67.0887 341.073 66.9542 336.635 68.1194C332.149 69.2522 327.712 68.972 323.836 66.2244C320.824 64.0907 318.592 61.047 315.697 58.7525C312.535 56.2928 309.148 54.1376 305.58 52.3156C302.81 50.8106 299.926 49.5249 296.955 48.4704C288.902 45.6854 280.173 45.379 271.822 46.85C267.56 47.5259 263.428 48.8571 259.573 50.7963C253.353 53.9579 246.927 56.6965 240.338 58.9935C235.63 60.6373 230.789 61.8655 226.018 63.3132C217.335 65.9454 208.645 68.6656 200.094 71.7031C195.085 73.4827 190.214 75.4544 185.924 78.6459C179.703 83.2742 174.914 89.5082 170.208 95.591C167.173 99.5129 164.066 103.406 161.253 107.493C159.399 110.185 157.631 113.024 156.834 116.228C156.56 117.489 156.409 118.775 156.384 120.066C156.292 122.067 156.013 124.056 155.552 126.006C154.551 129.943 152.754 133.634 150.272 136.85C144.733 144.212 138.544 151.651 135.225 160.354C132.581 167.382 131.52 174.907 132.119 182.392H132.121Z" fill="black"/>
<path d="M254.737 249.639C260.216 249.76 265.671 248.88 270.835 247.042C275.289 245.413 279.463 243.099 283.205 240.184C295.403 230.863 302.435 216.422 302.019 201.547C301.994 200.71 301.935 199.93 301.871 199.206C301.86 198.962 301.84 198.717 301.811 198.472C300.821 189.016 296.674 180.17 290.04 173.359C296.388 167.454 299.057 158.496 297.202 149.095C296.778 146.861 295.595 144.842 293.853 143.38C292.112 141.918 289.919 141.103 287.645 141.073C286.103 141.051 284.576 141.372 283.172 142.011C281.769 142.651 280.525 143.593 279.529 144.771C278.562 145.93 277.867 147.292 277.497 148.755C277.127 150.219 277.09 151.748 277.391 153.227C277.717 154.554 277.658 155.947 277.22 157.242C276.865 158.089 275.867 159.009 274.167 160.054C272.527 161.052 270.81 161.92 269.033 162.648C268.052 162.857 267.109 163.216 266.237 163.712C260.855 165.573 254.954 166.65 249.349 167.593L248.775 167.69C244.269 168.447 240.013 169.165 235.975 169.095C235.452 169.086 234.928 169.065 234.405 169.026C230.111 168.616 225.959 167.27 222.242 165.083C220.891 164.313 219.381 163.865 217.83 163.773C216.278 163.681 214.726 163.949 213.294 164.555C211.863 165.16 210.59 166.088 209.575 167.265C208.56 168.443 207.831 169.839 207.443 171.344C206.927 173.167 206.95 175.1 207.509 176.911C208.068 178.721 209.139 180.331 210.593 181.546C208.322 186.546 206.738 191.831 205.883 197.255C205.867 197.346 205.844 197.488 205.822 197.668C205.708 198.393 205.602 199.117 205.518 199.843C204.247 210.194 207.001 220.638 213.21 229.017C219.644 237.62 230.052 244.437 241.766 247.716C245.989 248.908 250.347 249.554 254.734 249.638L254.737 249.639ZM281.24 208.068C279.76 215.141 275.285 221.474 268.731 225.668C264.634 228.239 259.859 229.522 255.025 229.35C251.173 229.254 247.367 228.483 243.782 227.071C236.286 224.155 230.388 219.398 227.599 214.023C226.561 211.992 225.905 209.788 225.662 207.521C228.576 207.055 231.424 206.676 234.179 206.389C239.11 205.877 244.121 205.578 249.139 205.505C250.582 208.033 252.655 210.145 255.157 211.636C257.658 213.126 260.503 213.943 263.413 214.009C264.074 214.021 264.734 213.991 265.391 213.921C267.638 213.657 269.807 212.939 271.767 211.809C273.727 210.679 275.436 209.162 276.79 207.35C278.276 207.57 279.759 207.81 281.24 208.07V208.068ZM270.568 183.52C272.103 184.407 273.536 185.46 274.841 186.66C270.904 186.178 266.934 185.818 262.958 185.584C265.451 185.007 267.825 184.369 270.119 183.66C270.267 183.615 270.417 183.568 270.568 183.52Z" fill="#F9FFE9"/>
<path d="M278.189 233.621C275.118 236.021 271.692 237.926 268.034 239.27C260.324 242.048 251.835 241.959 243.996 239.762C234.772 237.178 225.605 231.794 219.828 224.069C214.888 217.379 212.704 209.048 213.726 200.795C213.805 200.109 213.912 199.424 214.017 198.74C214.023 198.676 214.032 198.612 214.044 198.549C215.057 191.96 217.351 185.632 220.795 179.924C221.159 179.33 221.537 178.746 221.929 178.171C219.975 177.394 218.077 176.487 216.245 175.456C214.161 174.278 216.091 171.099 218.177 172.278C222.957 175.068 228.291 176.772 233.803 177.269C239.475 177.685 245.15 176.68 250.722 175.743C257.157 174.663 263.799 173.42 270.001 171.145C270.148 170.99 270.328 170.87 270.528 170.794C270.728 170.717 270.942 170.687 271.155 170.704C273.705 169.721 276.161 168.514 278.497 167.095C281.168 165.452 283.598 163.401 284.84 160.441C285.925 157.632 286.152 154.565 285.494 151.627C285.032 149.285 288.631 148.35 289.096 150.7C290.35 157.042 288.864 163.677 283.72 167.922C281.295 169.873 278.624 171.497 275.776 172.753C280.681 175.422 284.866 179.241 287.971 183.883C291.075 188.524 293.008 193.85 293.602 199.402C293.616 199.499 293.623 199.596 293.622 199.694C293.684 200.386 293.741 201.08 293.76 201.782C294.11 214.248 288.033 226.101 278.189 233.621ZM272.221 175.062C272.032 174.972 271.842 174.885 271.653 174.799C271.586 174.769 271.804 174.86 271.451 174.712C271.36 174.673 271.268 174.637 271.177 174.598C270.012 175.014 268.842 175.405 267.676 175.766C263.349 177.079 258.943 178.112 254.484 178.859C248.197 179.944 241.759 181.24 235.349 181.064C232.034 180.958 228.747 180.417 225.573 179.454C222.124 184.481 219.662 190.117 218.318 196.063C218.27 196.267 218.229 196.473 218.183 196.678C237.899 192.949 258.098 192.522 277.954 195.414C281.849 195.985 285.723 196.674 289.575 197.481C288.856 193.247 287.237 189.215 284.827 185.659C281.633 181.076 277.284 177.42 272.221 175.062ZM290.003 201.368C284.05 200.072 278.036 199.078 271.982 198.389C271.233 202.323 268.139 205.317 264.511 205.706C262.737 205.868 260.956 205.469 259.421 204.564C257.886 203.659 256.675 202.294 255.958 200.663C255.52 199.586 255.329 198.424 255.399 197.264C248.029 197.107 240.657 197.411 233.325 198.173C228.021 198.726 222.747 199.556 217.516 200.592C216.809 206.48 217.473 212.444 220.267 217.83C224.473 225.939 232.669 231.613 240.786 234.772C251.338 238.879 263.464 238.852 273.187 232.628C282.084 226.933 288.44 217.679 289.777 207.088C290.018 205.191 290.093 203.277 290.003 201.368Z" fill="black"/>
<path d="M286.625 356.329C287.729 356.348 288.834 356.352 289.94 356.341C295.502 356.288 302.039 356.066 308.508 354.84C309.008 354.776 309.502 354.676 309.986 354.539C313.366 353.834 316.671 352.806 319.854 351.47C323.181 350.035 326.337 348.232 329.263 346.096C335.507 341.61 339.132 336.674 340.346 331.003C341.791 324.272 339.987 317.275 335.636 312.746C333.409 310.426 329.355 307.637 322.691 307.523C322.485 307.519 322.279 307.518 322.072 307.519C319.598 307.537 317.268 307.753 315.015 307.962C313.332 308.117 311.741 308.266 310.223 308.316C309.175 308.351 308.113 308.359 307.071 308.341C303.384 308.281 299.71 307.882 296.096 307.152C285.403 304.975 276.395 302.284 268.557 298.927C266.788 298.169 265.039 297.371 263.288 296.573C261.537 295.776 259.77 294.972 257.996 294.207C255.403 293.091 252.74 292.005 250.082 290.981C246.958 289.671 243.675 288.78 240.318 288.331C239.711 288.265 239.09 288.226 238.473 288.217C235.578 288.15 232.701 288.688 230.026 289.795C227.35 290.903 224.935 292.556 222.934 294.649C220.116 297.719 216.042 304.443 220.415 315.023L220.472 315.154C221.549 317.64 222.794 320.049 224.199 322.364C231.705 334.711 243.488 344.977 256.524 350.528C265.23 354.233 275.075 356.131 286.625 356.329ZM319.648 327.867C319.453 328.071 319.231 328.281 318.986 328.493C316.912 330.267 314.576 331.709 312.06 332.768C310.916 331.278 309.662 329.876 308.309 328.574C311.003 328.558 313.849 328.414 316.953 328.14C317.513 328.09 318.096 328.027 318.692 327.965C319.007 327.933 319.329 327.899 319.646 327.867H319.648ZM247.445 313.325C245.797 313.298 244.14 313.325 242.493 313.412C241.515 311.932 240.626 310.395 239.831 308.808C240.285 308.943 240.698 309.086 240.961 309.177C243.321 309.99 245.774 311.006 247.939 311.905C249.197 312.426 250.469 312.973 251.737 313.527C250.294 313.417 248.863 313.35 247.444 313.325H247.445Z" fill="#F9FFE9"/>
<path d="M239.431 296.544C242.076 296.922 244.66 297.644 247.117 298.691C249.674 299.676 252.211 300.71 254.729 301.793C258.277 303.322 261.758 305 265.309 306.521C274.592 310.499 284.566 313.234 294.454 315.246C299.734 316.314 305.12 316.759 310.503 316.572C314.384 316.443 318.25 315.807 322.132 315.781C324.93 315.763 327.681 316.384 329.681 318.466C332.367 321.263 333.067 325.571 332.274 329.27C331.336 333.637 327.933 336.879 324.446 339.387C322.015 341.164 319.395 342.666 316.633 343.864C313.817 345.04 310.893 345.934 307.901 346.536C307.714 346.607 307.516 346.647 307.316 346.655C301.601 347.776 295.71 348.023 289.862 348.078C279.563 348.175 269.312 346.992 259.76 342.925C247.938 337.754 237.989 329.078 231.257 318.07C230.048 316.078 228.976 314.005 228.051 311.866C226.408 307.893 225.907 303.625 229.017 300.238C231.567 297.466 235.75 296.144 239.431 296.544ZM324.411 334.724C326.999 332.468 328.958 329.642 328.859 326.096C328.877 324.28 328.246 322.518 327.08 321.126C326.477 320.427 325.663 319.944 324.761 319.749C322.325 319.103 318.954 319.67 316.222 319.912C311.558 320.372 306.863 320.433 302.189 320.093C297.189 319.609 292.238 318.715 287.384 317.422C283.109 316.347 278.826 315.265 274.621 313.936C266.493 311.369 258.951 307.527 251.101 304.274C248.642 303.255 246.17 302.236 243.655 301.369C241.572 300.651 239.349 299.99 237.119 300.225C234.525 300.499 231.223 302.037 230.51 304.993C230.128 306.575 230.654 308.496 231.295 310.048C233.183 314.347 235.624 318.382 238.556 322.049C245.134 321.257 251.794 321.476 258.306 322.697C262.737 323.494 266.977 325.122 270.802 327.496C277.248 325.647 284.083 325.653 290.525 327.513C294.404 328.653 298.004 330.583 301.1 333.183C304.195 335.783 306.719 338.995 308.512 342.618C314.304 341.217 319.891 338.663 324.411 334.724ZM256.767 337.421C264.142 341.457 272.59 343.516 280.933 344.124C285.093 344.427 289.265 344.393 293.433 344.303C297.208 344.258 300.976 343.951 304.709 343.382C303.072 340.383 300.852 337.741 298.179 335.611C295.507 333.482 292.435 331.909 289.145 330.984C284.461 329.686 279.542 329.48 274.765 330.382C275.692 331.149 276.579 331.962 277.422 332.82C279.091 334.538 276.418 337.122 274.751 335.404C270.032 330.585 263.908 327.385 257.258 326.262C252.057 325.297 246.75 325.022 241.476 325.443C245.896 330.232 251.059 334.276 256.767 337.421Z" fill="black"/>
<path d="M340.684 354.51C343.153 354.546 345.549 353.679 347.423 352.072C352.225 347.913 355.718 342.452 357.479 336.348C359.24 330.245 359.194 323.762 357.346 317.685C356.713 315.649 355.453 313.864 353.746 312.586C352.039 311.308 349.972 310.602 347.84 310.569C346.221 310.534 344.618 310.883 343.16 311.588C341.702 312.292 340.432 313.331 339.453 314.621C338.51 315.879 337.884 317.346 337.626 318.897C337.368 320.448 337.487 322.038 337.972 323.534C338.704 325.883 338.73 328.395 338.045 330.758C337.36 333.121 335.995 335.231 334.12 336.823C332.576 338.115 331.465 339.849 330.939 341.793C330.413 343.736 330.497 345.794 331.179 347.688C331.889 349.652 333.177 351.354 334.873 352.571C336.569 353.789 338.594 354.464 340.681 354.509L340.684 354.51Z" fill="#F9FFE9"/>
<path d="M345.859 321.07C345.144 318.781 348.749 317.866 349.46 320.143C350.842 324.674 350.88 329.509 349.567 334.061C348.254 338.612 345.648 342.685 342.065 345.784C340.25 347.331 337.656 344.666 339.481 343.113C342.588 340.468 344.848 336.968 345.982 333.05C347.116 329.131 347.073 324.965 345.859 321.07Z" fill="black"/>
<path d="M208.787 317.606C211.191 317.669 213.538 316.869 215.403 315.351C217.268 313.832 218.527 311.696 218.953 309.329C220.092 302.211 224.085 296.453 229.907 293.528C231.914 292.554 233.529 290.925 234.485 288.909C235.44 286.893 235.68 284.611 235.164 282.44C234.839 280.923 234.17 279.501 233.209 278.283C232.247 277.066 231.019 276.085 229.619 275.416C228.219 274.748 226.684 274.41 225.133 274.428C223.581 274.446 222.055 274.82 220.671 275.52C209.249 281.255 201.175 292.523 199.069 305.662C198.622 308.121 199.098 310.659 200.405 312.789C201.713 314.919 203.76 316.491 206.155 317.206C207.01 317.455 207.895 317.589 208.786 317.603L208.787 317.606Z" fill="#F9FFE9"/>
<path d="M224.378 282.905C226.514 281.833 228.34 285.072 226.196 286.145C217.604 290.46 212.292 298.656 210.793 308.019C210.634 309.011 209.36 309.535 208.485 309.278C207.421 308.966 207.064 307.965 207.225 306.97C208.868 296.732 215.025 287.603 224.378 282.905Z" fill="black"/>
<path opacity="0.14" d="M216.646 213.839C219.192 219.495 222.976 224.506 227.72 228.503C237.363 236.587 247.823 237.688 251.457 238.019C257.482 238.569 268.639 239.586 278.107 231.912C286.934 224.758 288.789 214.51 289.233 211.337C285.721 215.123 276.606 223.883 262.129 226.839C237.61 231.846 218.937 215.867 216.646 213.839Z" fill="#080000"/>
<path opacity="0.14" d="M316.831 210.084C315.979 210.813 321.045 221.121 330.782 227.931C333.409 229.769 343.53 236.616 357.301 234.859C371.317 233.07 379.457 223.6 381.983 220.661C384.889 217.27 387.249 213.448 388.978 209.331C386.435 212.281 376.376 223.242 359.42 225.564C357.913 225.77 341.883 227.738 327.509 218.553C320.909 214.338 317.449 209.553 316.831 210.084Z" fill="#080000"/>
<path d="M146.094 267.851C136.772 257.328 133.621 247.823 132.379 241.814C131.102 235.632 131.259 228.423 131.574 214.005C131.819 202.812 132.37 202.677 132.099 196.109C131.525 182.341 129.026 181.397 129.738 172.583C130.56 162.428 134.588 154.899 136.59 151.247C140.594 143.939 143.951 144.378 148.685 135.882C150.962 131.631 152.843 127.178 154.305 122.582C157.388 113.618 156.099 113.659 158.212 108.738C159.889 104.828 163.97 99.9083 172.062 90.2293C175.864 85.6822 177.766 83.4087 179.163 82.0844C185.566 76.0198 192.135 72.917 196.625 71.0009C209.787 65.3865 215.533 65.516 228.265 61.5089C249.822 54.7264 249.982 49.1228 267.203 45.9C274.218 44.5876 282.862 43.0615 293.608 45.5408C308.379 48.9511 320.463 58.3914 323.06 62.4599C323.679 63.4673 324.484 64.3474 325.433 65.0528C328.141 67.0473 331.349 66.9905 332.755 66.9473C342.195 66.6557 344.634 64.5157 349.602 65.5831C351.808 66.0566 353.711 67.3638 357.427 69.9596C366.578 76.3494 371.153 79.5449 373.729 84.292C378.349 92.8041 375.803 102.205 374.229 108.203C372.021 116.431 367.608 123.899 361.467 129.802L146.094 267.851Z" fill="#705654"/>
<path d="M159.727 260.121C156.909 239.304 156.86 218.206 159.582 197.376C161.279 184.417 163.15 170.84 169.87 154.236C175.405 140.555 184.932 117.011 209.135 100.768C220.271 93.4019 232.826 88.4496 245.992 86.2302C256.236 84.4989 264.357 84.9031 273.688 85.3669C288.222 86.0887 298.867 86.6173 310.821 90.6454C349.884 103.805 366.269 141.956 367.442 144.788C369.27 149.209 370.737 153.771 371.826 158.429C371.73 159.417 371.852 160.413 372.184 161.348C373.29 164.383 376.141 164.78 377.413 167.351C377.952 168.444 378.347 170.217 377.413 173.081C381.584 176.962 384.818 181.74 386.871 187.054C394.21 206.416 381.778 224.859 380.228 227.083C384.882 252.831 385.161 279.18 381.053 305.02C376.751 331.737 372.758 356.529 352.577 378.955C334.066 399.527 311.767 407.182 304.627 409.369C291.05 413.534 276.777 414.943 262.647 413.513C252.353 412.442 224.901 408.033 202.502 386.377C193.914 378.075 188.962 370.034 185.125 363.712C177.015 350.308 171.265 335.611 168.126 320.262C151.881 320.952 137.857 308.845 136.15 293.124C134.512 278.07 144.602 263.728 159.727 260.121Z" fill="#E6BC9A"/>
<path d="M174.575 319.039C177.064 328.204 185.584 354.838 211.755 375.111C240.979 397.749 272.869 397.475 284.118 396.75C312.721 394.907 332.279 382.135 337.426 378.592C367.323 358.013 376.858 328.158 379.365 319.168C376.311 334.643 369.784 355.377 355.249 375.163C349.548 382.925 342.439 392.401 329.683 399.861C320.258 405.375 311.647 407.507 302.132 409.865C294.495 411.758 284.285 414.215 270.634 414.024C260.566 413.901 250.566 412.356 240.93 409.434C233.906 407.265 218.324 402.267 203.706 388.722C191.963 377.841 186.473 366.661 179.545 352.552C174.56 342.401 170.512 331.816 167.451 320.928C164.008 320.946 160.591 320.344 157.361 319.152C146.66 315.17 141.748 305.805 139.828 302.146C136.83 296.432 135.103 289.894 136.049 289.438C137.215 288.876 141.062 298.232 149.076 305.963C157.4 313.992 167.261 317.411 174.575 319.039Z" fill="#D69B7B"/>
<path d="M371.797 112.974C372.768 111.272 378.826 100.224 374.314 87.404C369.961 75.0348 359.014 70.2388 356.751 69.2453C355.353 68.6326 345.198 64.1815 335.566 66.7972C334.239 67.2583 332.844 67.4927 331.44 67.4907C325.144 67.3071 320.842 61.3987 318.651 58.8211C309.286 47.7893 292.676 43.6072 282.843 43.4861C276.794 43.4122 271.239 45.2658 260.131 48.9739C251.515 51.8499 246.71 54.3002 241.147 56.7403C212.589 69.2692 205.58 63.317 189.122 74.6898C184.027 78.2109 179.574 82.8046 170.665 91.9913C163.041 99.8538 159.109 104.898 156.883 111.032C155.499 114.847 154.605 118.439 154.605 118.439C153.083 124.556 153.463 126.51 152.178 130.099C150.737 134.119 148.607 136.275 146.233 139.13C140.947 145.49 136.145 153.275 133.785 158.945C130.672 166.416 130.755 172.693 130.918 184.984C131.06 195.742 132.381 194.849 132.71 206.116C133.153 221.301 130.773 223.542 132.355 235.643C133.069 241.416 134.459 247.086 136.496 252.535C138.595 258.007 141.378 263.192 144.778 267.965L147.312 266.348C144.474 261.555 142.182 256.458 140.479 251.154C138.743 245.657 137.613 239.987 137.109 234.244C136.601 229.389 136.864 228.433 136.794 213.726C136.751 204.628 136.729 200.08 136.557 195.206C136.113 182.656 135.447 182.176 135.977 177.235C136.656 171.071 138.371 165.066 141.05 159.474C144.509 152.308 146.447 152.483 153.8 140.067C156.918 134.802 158.136 132.126 159.081 129.514C161.278 123.443 161.348 119.528 161.971 116.148C163.636 107.095 169.391 101.124 176.998 93.2322C184.199 85.8493 192.679 79.8335 202.026 75.477C215.276 69.243 217.015 72.4384 235.348 65.5144C249.622 60.1238 250.301 57.532 262.371 54.3354C269.031 52.5734 277.105 50.5113 287.698 51.5503C296.173 52.3842 304.176 53.1714 310.744 58.9302C313.444 61.297 315.856 64.4646 321.775 68.6541C325.435 71.2437 327.809 72.3657 330.576 72.6851C333.826 73.0603 335.351 72.0667 338.912 71.4972C343.328 70.9634 347.805 71.3038 352.089 72.4987C362.31 75.4009 367.88 84.4558 369.143 86.6514C376.032 98.6153 372.468 110.815 371.797 112.974Z" fill="#AA8785"/>
<path d="M165.967 259.022C164.135 241.406 164.027 223.653 165.644 206.016C167.761 182.923 169.281 166.33 178.846 147.258C183.778 137.42 196.208 113.476 224.013 99.4684C249.385 86.6866 273.357 89.3347 285.255 90.6488C293.027 91.5071 308.348 93.3481 325.742 102.54C340.62 110.452 353.423 121.759 363.113 135.545C359.005 128.297 354.005 121.592 348.229 115.587C343.537 110.714 325.409 92.35 299.203 87.6631C291.44 86.2751 281.033 85.7408 274.156 85.3896C266.546 84.9985 262.741 84.803 258.071 85.0236C246.715 85.5896 235.554 88.1987 225.124 92.7257C210.277 99.2575 201.097 108.123 196.398 112.746C176.034 132.778 168.986 155.764 165.876 166.356C161.446 181.437 160.814 193.846 159.55 218.665C158.674 235.864 158.886 250.193 159.265 260.239L165.967 259.022Z" fill="#D69B7B"/>
<path d="M294.707 271.929C298.653 271.884 302.702 271.768 306.855 271.58C313.706 271.265 320.278 270.763 326.551 270.121C328.018 268.865 329.053 267.18 329.512 265.304C330.512 261.041 327.908 257.695 327.554 257.256C326.653 259.11 325.434 260.79 323.951 262.222C320.532 265.498 316.683 266.397 312.921 267.307C308.427 268.395 302.685 269.831 294.707 271.929Z" fill="#D69B7B"/>
<path d="M174.342 320.306C156.207 323.896 139.074 311.629 136.391 295.07C133.566 277.63 147.494 259.863 166.986 258.955" stroke="black" stroke-width="2" stroke-miterlimit="10"/>
<path d="M167.983 320.931C170.471 330.242 173.712 339.334 177.673 348.119C183.68 361.44 189.369 374.056 201.448 386.116C204.497 389.161 218.898 403.094 242.753 409.98C263.509 415.971 280.458 413.462 292.053 411.617C304.948 409.564 319.633 407.226 334.657 396.644C349.269 386.351 356.582 373.624 363.489 361.609C369.636 350.929 374.364 339.493 377.552 327.59C378.789 322.944 381.784 310.757 382.161 280.722C382.385 262.082 381.537 243.445 379.622 224.903" stroke="black" stroke-width="2" stroke-miterlimit="10"/>
<path d="M309.891 212.658C311.689 217.892 314.377 225.379 317.98 234.261C326.345 254.885 332.171 264.613 328.276 269.014C327.073 270.375 325.515 270.579 319.043 270.971C309.626 271.539 301.409 271.808 294.708 271.929" stroke="black" stroke-width="2" stroke-miterlimit="10"/>
<path d="M159.727 260.121C158.081 243.345 157.997 226.453 159.477 209.661C161.615 185.418 163.448 164.64 175.656 141.631C181.719 130.203 195.358 104.498 224.296 92.1324C241.969 84.5808 258.369 84.9861 273.689 85.3646C287.018 85.6937 300.788 86.0336 317.121 93.0861C331.026 99.1629 343.285 108.461 352.887 120.212C362.489 131.963 369.157 145.83 372.34 160.667" stroke="black" stroke-width="2" stroke-miterlimit="10"/>
<path d="M360.416 130.835C364.932 126.554 368.588 121.448 371.185 115.794C373.71 110.262 378.696 99.3383 374.314 87.4039C370.215 76.2398 360.482 71.1749 358.223 69.9989C354.74 68.1863 346.701 64.0025 338.098 65.8497C335.443 66.4181 332.74 67.5617 329.096 66.6455C325.114 65.6463 322.684 62.8617 321.673 61.7573C314.609 54.0677 304.076 49.4297 300.761 47.9707C286.673 41.7679 272.764 44.707 268.445 45.6198C259.062 47.6024 259.569 50.006 242.143 56.3782C233.835 59.4162 233.811 58.8365 219.181 63.4927C201.369 69.1617 192.463 71.9962 187.147 75.527C179.291 80.7459 174.837 86.5337 165.931 98.1094C158.599 107.642 154.922 112.537 154.579 118.851C154.548 122.047 153.994 125.217 152.938 128.234C151.928 130.989 150.492 133.569 148.683 135.88C142.676 143.841 138.05 149.973 135.123 155.95C129.871 166.671 130.057 176.959 130.157 180.396C130.282 184.683 130.839 185.733 131.56 191.099C133.496 205.483 130.938 208.618 131.53 223.772C131.866 232.374 132.322 241.996 136.737 253.151C138.921 258.655 141.789 263.863 145.273 268.652" stroke="black" stroke-width="2" stroke-miterlimit="10"/>
<path d="M216.679 199.688C241.076 193.831 266.526 193.939 290.873 200.002C291.133 202.799 292.06 215.948 282.78 226.82C270.884 240.756 252.549 238.846 248.929 238.367C243.87 237.7 228.759 234.703 220.872 220.844C215.862 212.039 216.293 203.289 216.679 199.688Z" fill="white"/>
<path d="M315.675 200.256C327.447 195.678 340.008 193.472 352.635 193.764C365.263 194.055 377.708 196.839 389.256 201.956C387.848 207.909 385.441 213.581 382.137 218.73C379.714 222.498 377.114 226.541 372.324 229.802C364.286 235.276 355.518 234.85 351.744 234.666C348.413 234.505 334.731 233.84 324.697 222.523C316.945 213.782 315.881 203.773 315.675 200.256Z" fill="white"/>
<path d="M220.146 175.969C220.11 176.544 234.88 179.366 253.875 177.085C266.69 175.545 276.561 174.213 282.8 166.269C286.665 161.35 287.66 155.773 287.943 152.25C286.859 155.256 285.253 158.047 283.198 160.495C278.226 166.376 271.843 168.601 268.053 169.736C247.865 175.786 220.195 175.187 220.146 175.969Z" fill="#D69B7B"/>
<path d="M328.629 162.688C328.38 163.137 334.938 168.144 344.322 171.825C348.609 173.508 354.266 175.667 361.79 175.65C364.813 175.644 375.426 175.62 377.055 170.819C377.995 168.048 375.634 164.598 375.293 164.097C374.118 162.398 372.478 161.075 370.569 160.284C370.938 160.679 372.691 162.633 372.307 165.007C371.921 167.395 369.631 168.645 368.166 169.441C365.733 170.724 362.997 171.321 360.251 171.166C348.945 170.562 329.033 161.958 328.629 162.688Z" fill="#D69B7B"/>
<path d="M287.294 151.161C287.738 153.352 288.374 158.169 285.802 162.655C284.793 164.375 283.445 165.871 281.838 167.051C273.301 173.581 258.435 176.305 253.874 177.084C241.528 179.195 235.186 180.204 226.932 177.919C223.536 176.975 220.271 175.613 217.21 173.865" stroke="black" stroke-width="2" stroke-miterlimit="10"/>
<path d="M362.809 156.053C366.269 157.508 369.528 159.403 372.504 161.691C377.579 165.608 378.161 167.901 378.28 169.134C378.419 170.057 378.304 171 377.946 171.862C377.239 173.36 375.047 175.324 365.214 175.245C357.996 175.188 350.943 175.131 342.24 171.395C335.891 168.656 330.175 164.637 325.451 159.588" stroke="black" stroke-width="2" stroke-miterlimit="10"/>
<path d="M224.834 177.278C221.238 182.066 218.609 187.509 217.094 193.303C216.014 197.471 213.958 205.383 216.737 214.14C220.83 227.042 232.613 232.947 236.042 234.666C239.091 236.194 254.321 243.828 270.574 236.229C271.985 235.569 286.653 228.411 290.757 211.735C291.549 208.519 293.817 198.644 288.461 188.152C283.089 177.628 273.67 173.583 271.2 172.61" stroke="black" stroke-width="2" stroke-miterlimit="10"/>
<path d="M215.836 199.024C223.4 197.465 231.057 196.399 238.759 195.833C256.538 194.548 274.41 195.904 291.793 199.855" stroke="black" stroke-width="2" stroke-miterlimit="10"/>
<path d="M255.686 195.4C255.202 197.137 255.296 198.985 255.956 200.663C256.673 202.294 257.884 203.659 259.419 204.564C260.954 205.469 262.734 205.868 264.509 205.706C268.693 205.257 272.172 201.347 272.157 196.521L255.686 195.4Z" fill="#080000"/>
<path d="M334.769 167.396C331.533 169.682 328.581 172.346 325.975 175.33C322.035 179.85 314.804 188.145 314.761 199.544C314.715 211.732 322.912 220.102 325.701 222.951C328.522 225.832 338.915 235.558 354.112 235.1C371.189 234.589 387.306 221.425 389.594 206.44C390.924 197.721 387.391 189.549 386.36 187.161C384.091 181.94 380.771 177.241 376.607 173.359" stroke="black" stroke-width="2" stroke-miterlimit="10"/>
<path d="M314.785 200.837C339.073 191.907 365.796 192.21 389.875 201.69" stroke="black" stroke-width="2" stroke-miterlimit="10"/>
<path d="M354.052 194.391C353.881 194.902 352.877 198.082 354.659 201.021C356.507 204.068 360.309 205.146 363.385 204.41C367.027 203.539 369.747 200.102 369.865 196.016L354.052 194.391Z" fill="#080000"/>
<path d="M237.34 322.921C236.055 321.3 225.465 307.945 229.567 302.022C231.858 298.715 237.785 299.081 242.052 299.395C252.647 300.174 258.141 304.357 267.654 308.746C278.415 313.713 288.925 318.563 301.87 318.441C314.25 318.327 322.42 313.724 327.43 318.782C330.469 321.851 330.433 326.542 330.426 326.865C330.313 332.151 326.317 335.699 324.468 337.342C321.868 339.608 318.794 341.262 315.471 342.184C289.865 349.694 269.218 343.351 269.218 343.351C263.269 341.523 248.269 336.702 237.34 322.921Z" fill="#530F0E"/>
<path d="M237.826 324.618C249.778 323.004 261.944 324.791 272.928 329.774C274.818 329.101 285.743 325.391 295.469 330.456C299.041 332.175 302.071 334.845 304.226 338.173C305.397 340.043 306.256 342.093 306.767 344.24C301.586 345.108 296.347 345.583 291.095 345.661C282.548 345.789 272.099 345.945 260.682 341.32C255.629 339.272 246.484 334.709 237.826 324.618Z" fill="#EB7B7F"/>
<path d="M229.672 310.956C228.003 307.064 228.518 304.805 228.999 303.624C230.306 300.421 233.8 299.187 234.536 298.927C238.548 297.51 242.308 298.799 247.283 300.742C256.551 304.361 260.344 306.464 265.914 308.781C271.673 311.143 277.602 313.069 283.651 314.542C291.294 316.524 296.695 317.925 303.817 318.35C317.779 319.179 324.311 315.417 328.417 319.836C331.074 322.695 330.732 326.849 330.682 327.461C330.194 333.381 324.642 337.105 321.295 339.28C316.354 342.492 308.718 345.822 294.424 346.141C283.696 346.381 270.694 346.671 256.208 339.231C256.208 339.229 237.726 329.736 229.672 310.956Z" stroke="black" stroke-width="2" stroke-miterlimit="10"/>
<path d="M237.795 323.996C243.13 323.194 248.552 323.156 253.898 323.882C258.322 324.489 263.213 325.207 268.641 328.305C271.387 329.876 273.894 331.832 276.087 334.112" stroke="black" stroke-width="2" stroke-miterlimit="10"/>
<path d="M270.551 329.486C274.263 328.311 278.156 327.809 282.046 328.002C284.99 328.154 293.612 328.725 300.821 335.335C303.678 337.975 305.945 341.189 307.472 344.766" stroke="black" stroke-width="2" stroke-miterlimit="10"/>
<path d="M347.659 320.607C348.997 324.816 349.057 329.328 347.831 333.571C346.606 337.815 344.149 341.6 340.773 344.447" stroke="black" stroke-width="2" stroke-miterlimit="10"/>
<path d="M225.288 284.526C222.765 285.771 220.436 287.375 218.374 289.288C211.37 295.801 209.556 304.047 209.011 307.496" stroke="black" stroke-width="2" stroke-miterlimit="10"/>
<path opacity="0.14" d="M216.646 213.839C219.192 219.495 222.976 224.506 227.72 228.503C237.363 236.587 247.823 237.688 251.457 238.019C257.482 238.569 268.639 239.586 278.107 231.912C286.934 224.758 288.789 214.51 289.233 211.337C285.721 215.123 276.606 223.883 262.129 226.839C237.61 231.846 218.937 215.867 216.646 213.839Z" fill="#080000"/>
<path opacity="0.14" d="M316.831 210.084C315.979 210.813 321.045 221.121 330.782 227.931C333.409 229.768 343.53 236.616 357.301 234.859C371.317 233.07 379.457 223.6 381.983 220.661C384.889 217.27 387.249 213.448 388.978 209.331C386.435 212.28 376.376 223.242 359.42 225.564C357.913 225.77 341.883 227.738 327.509 218.553C320.909 214.338 317.449 209.553 316.831 210.084Z" fill="#080000"/>
<path opacity="0.11" d="M273.091 485.245C330.718 485.245 377.434 478.046 377.434 469.166C377.434 460.286 330.718 453.087 273.091 453.087C215.464 453.087 168.748 460.286 168.748 469.166C168.748 478.046 215.464 485.245 273.091 485.245Z" fill="#080000"/>
</svg>
