<svg width="790" height="1079" viewBox="0 0 790 1079" fill="none" xmlns="http://www.w3.org/2000/svg">
<path d="M789.62 0.130859H-1.59595V1078.94H789.62V0.130859Z" fill="#C7E477"/>
<path d="M243.808 530.676C227.408 512.163 221.863 495.44 219.678 484.867C217.432 473.992 217.709 461.308 218.263 435.941C218.693 416.249 219.663 416.011 219.186 404.456C218.177 380.233 213.779 378.572 215.033 363.065C216.478 345.197 223.566 331.952 227.087 325.526C234.132 312.669 240.038 313.441 248.367 298.494C252.373 291.014 255.683 283.181 258.255 275.094C263.679 259.323 261.411 259.394 265.128 250.737C268.08 243.857 275.259 235.202 289.497 218.173C296.186 210.173 299.531 206.173 301.989 203.843C313.255 193.173 324.813 187.714 332.712 184.343C355.869 174.465 365.978 174.693 388.379 167.643C426.305 155.71 426.587 145.851 456.886 140.181C469.228 137.872 484.436 135.187 503.341 139.549C529.329 145.549 550.59 162.158 555.158 169.316C556.247 171.088 557.665 172.637 559.334 173.878C564.099 177.387 569.743 177.287 572.216 177.211C588.824 176.698 593.116 172.933 601.856 174.811C605.738 175.644 609.086 177.944 615.623 182.511C631.723 193.753 639.772 199.375 644.305 207.727C652.433 222.703 647.953 239.242 645.184 249.796C641.3 264.271 633.536 277.41 622.731 287.796L243.808 530.676Z" fill="#705654"/>
<path d="M267.794 517.077C262.836 480.452 262.751 443.331 267.54 406.684C270.525 383.884 273.817 359.997 285.64 330.784C295.378 306.714 312.14 265.292 354.722 236.715C374.314 223.755 396.403 215.042 419.567 211.137C437.59 208.091 451.878 208.802 468.295 209.618C493.865 210.888 512.595 211.818 533.626 218.905C602.352 242.057 631.18 309.179 633.243 314.162C636.461 321.94 639.041 329.966 640.957 338.162C640.789 339.899 641.004 341.652 641.586 343.298C643.533 348.638 648.549 349.335 650.786 353.859C651.735 355.782 652.43 358.902 650.786 363.941C658.124 370.768 663.814 379.175 667.426 388.525C680.338 422.589 658.467 455.037 655.739 458.951C663.928 504.251 664.419 550.608 657.191 596.071C649.621 643.076 642.597 686.695 607.091 726.151C574.523 762.344 535.291 775.813 522.729 779.661C498.841 786.988 473.73 789.467 448.87 786.952C430.759 785.067 382.461 777.31 343.051 739.208C327.942 724.602 319.23 710.456 312.479 699.333C298.21 675.75 288.094 649.893 282.571 622.888C253.991 624.102 229.317 602.801 226.313 575.142C223.432 548.656 241.184 523.422 267.794 517.077Z" fill="#E6BC9A"/>
<path d="M293.917 620.735C298.296 636.861 313.286 683.719 359.332 719.388C410.748 759.217 466.854 758.735 486.645 757.459C536.968 754.217 571.379 731.746 580.435 725.513C633.035 689.306 649.81 636.779 654.22 620.962C648.847 648.19 637.364 684.668 611.792 719.48C601.761 733.136 589.254 749.807 566.811 762.933C550.23 772.633 535.08 776.384 518.339 780.533C504.902 783.863 486.939 788.186 462.921 787.85C445.208 787.634 427.614 784.916 410.662 779.775C398.304 775.958 370.888 767.166 345.17 743.335C324.51 724.191 314.851 704.521 302.662 679.698C293.891 661.838 286.769 643.215 281.384 624.06C275.327 624.09 269.314 623.031 263.632 620.934C244.805 613.928 236.162 597.452 232.785 591.014C227.51 580.961 224.471 569.459 226.135 568.656C228.188 567.667 234.955 584.129 249.055 597.73C263.7 611.857 281.05 617.871 293.917 620.735Z" fill="#D69B7B"/>
<path d="M640.906 258.189C642.614 255.195 653.272 235.757 645.334 213.202C637.676 191.44 618.415 183.002 614.434 181.254C611.975 180.176 594.108 172.345 577.161 176.947C574.827 177.758 572.373 178.17 569.902 178.167C558.825 177.844 551.256 167.449 547.402 162.914C530.926 143.505 501.702 136.147 484.402 135.934C473.76 135.804 463.987 139.065 444.443 145.589C429.284 150.649 420.831 154.96 411.043 159.253C360.798 181.296 348.467 170.824 319.512 190.833C310.548 197.028 302.712 205.11 287.038 221.273C273.625 235.106 266.707 243.981 262.79 254.773C260.355 261.485 258.783 267.805 258.783 267.805C256.105 278.566 256.773 282.005 254.512 288.318C251.978 295.392 248.23 299.184 244.053 304.208C234.753 315.397 226.305 329.095 222.153 339.069C216.675 352.214 216.821 363.258 217.108 384.882C217.359 403.809 219.682 402.239 220.261 422.061C221.04 448.777 216.853 452.72 219.637 474.01C220.892 484.168 223.338 494.143 226.923 503.73C230.615 513.358 235.511 522.48 241.494 530.878L245.952 528.033C240.958 519.599 236.926 510.632 233.93 501.3C230.876 491.629 228.888 481.653 228 471.55C227.107 463.007 227.57 461.325 227.447 435.45C227.371 419.444 227.333 411.441 227.029 402.866C226.248 380.786 225.076 379.941 226.01 371.248C227.204 360.404 230.222 349.839 234.935 340C241.021 327.393 244.429 327.7 257.367 305.856C262.852 296.593 264.995 291.885 266.658 287.289C270.523 276.608 270.647 269.721 271.742 263.773C274.672 247.846 284.797 237.341 298.181 223.456C310.85 210.467 325.769 199.883 342.215 192.218C365.526 181.25 368.586 186.872 400.841 174.69C425.953 165.206 427.148 160.646 448.384 155.022C460.101 151.922 474.307 148.294 492.943 150.122C507.854 151.589 521.934 152.974 533.49 163.106C538.24 167.27 542.484 172.843 552.899 180.214C559.338 184.77 563.515 186.744 568.383 187.306C574.1 187.966 576.783 186.218 583.049 185.216C590.818 184.277 598.695 184.876 606.232 186.978C624.215 192.084 634.014 208.015 636.237 211.878C648.356 232.927 642.086 254.391 640.906 258.189Z" fill="#AA8785"/>
<path d="M278.773 515.143C275.549 484.15 275.359 452.916 278.204 421.886C281.929 381.256 284.604 352.063 301.431 318.508C310.109 301.2 331.978 259.072 380.897 234.428C425.536 211.94 467.712 216.599 488.645 218.911C502.32 220.421 529.275 223.66 559.877 239.832C586.053 253.752 608.579 273.646 625.627 297.9C618.399 285.148 609.602 273.352 599.441 262.787C591.185 254.213 559.292 221.904 513.185 213.658C499.528 211.216 481.218 210.276 469.119 209.658C455.73 208.97 449.035 208.626 440.819 209.014C420.839 210.01 401.203 214.6 382.852 222.565C356.73 234.057 340.579 249.655 332.312 257.788C296.485 293.032 284.085 333.474 278.612 352.108C270.818 378.641 269.706 400.473 267.482 444.139C265.941 474.399 266.315 499.61 266.982 517.285L278.773 515.143Z" fill="#D69B7B"/>
<path d="M505.276 537.851C512.218 537.772 519.342 537.568 526.649 537.237C538.702 536.683 550.265 535.8 561.301 534.671C563.882 532.46 565.703 529.496 566.51 526.195C568.269 518.695 563.689 512.809 563.066 512.036C561.481 515.297 559.336 518.254 556.727 520.773C550.712 526.537 543.94 528.118 537.32 529.72C529.414 531.634 519.311 534.161 505.276 537.851Z" fill="#D69B7B"/>
<path d="M367.994 410.752C410.918 400.448 455.694 400.637 498.529 411.305C498.987 416.226 500.618 439.36 484.291 458.488C463.362 483.007 431.104 479.646 424.734 478.804C415.834 477.629 389.247 472.357 375.371 447.973C366.556 432.483 367.316 417.088 367.994 410.752Z" fill="white"/>
<path d="M542.165 411.751C562.877 403.697 584.976 399.816 607.193 400.329C629.409 400.842 651.305 405.74 671.623 414.742C669.145 425.216 664.91 435.195 659.098 444.255C654.835 450.883 650.26 457.996 641.833 463.735C627.691 473.365 612.264 472.615 605.625 472.292C599.765 472.008 575.693 470.838 558.038 450.927C544.4 435.549 542.529 417.94 542.165 411.751Z" fill="white"/>
<path d="M374.094 369.022C374.03 370.033 400.017 374.998 433.436 370.984C455.982 368.276 473.349 365.932 484.326 351.956C491.126 343.301 492.877 333.489 493.375 327.29C491.467 332.579 488.641 337.489 485.027 341.796C476.278 352.144 465.049 356.059 458.381 358.056C422.863 368.7 374.181 367.646 374.094 369.022Z" fill="#D69B7B"/>
<path d="M564.956 345.655C564.519 346.445 576.056 355.255 592.567 361.731C600.11 364.692 610.062 368.491 623.3 368.461C628.619 368.449 647.291 368.407 650.157 359.961C651.811 355.086 647.657 349.015 647.057 348.134C644.989 345.146 642.103 342.817 638.746 341.426C639.394 342.121 642.478 345.558 641.803 349.736C641.124 353.936 637.094 356.136 634.517 357.536C630.237 359.794 625.423 360.844 620.592 360.572C600.7 359.509 565.667 344.371 564.956 345.655Z" fill="#D69B7B"/>
<path d="M404.345 627.565C402.085 624.714 383.452 601.217 390.67 590.796C394.7 584.979 405.128 585.622 412.636 586.174C431.276 587.545 440.942 594.904 457.678 602.627C476.612 611.365 495.102 619.898 517.878 619.684C539.659 619.484 554.032 611.384 562.847 620.284C568.194 625.684 568.131 633.937 568.119 634.505C567.919 643.805 560.89 650.048 557.636 652.938C553.062 656.924 547.654 659.835 541.807 661.456C496.756 674.67 460.43 663.51 460.43 663.51C449.964 660.294 423.573 651.812 404.345 627.565Z" fill="#530F0E"/>
<path d="M405.2 630.552C426.229 627.711 447.633 630.855 466.957 639.622C470.283 638.439 489.504 631.912 506.616 640.822C512.9 643.848 518.231 648.545 522.023 654.399C524.084 657.691 525.594 661.296 526.494 665.074C517.379 666.6 508.161 667.436 498.92 667.574C483.883 667.799 465.5 668.074 445.412 659.937C436.522 656.334 420.432 648.305 405.2 630.552Z" fill="#EB7B7F"/>
<path d="M505.485 555.655C520.308 555.383 537.803 554.916 555.185 553.52L556.064 553.454C560.892 553.088 568.188 552.533 574.616 547.415C579.386 543.562 582.624 538.132 583.746 532.104C585.846 521.111 581.812 510.94 578.864 503.515L578.433 502.43C575.633 495.33 572.616 488.304 569.698 481.509C567.42 476.2 565.065 470.709 562.877 465.332C557.989 453.325 553.287 440.773 548.903 428.032C547.724 424.536 545.486 421.494 542.499 419.328C539.513 417.162 535.926 415.979 532.237 415.944C529.353 415.877 526.495 416.505 523.905 417.776C521.315 419.047 519.068 420.922 517.356 423.244C515.712 425.504 514.646 428.132 514.249 430.898C513.852 433.665 514.137 436.487 515.079 439.118C519.863 453.028 525.197 467.177 530.933 481.174C532.966 486.14 535.102 491.091 537.165 495.874C539.932 502.289 542.791 508.922 545.328 515.418C545.714 516.407 546.103 517.418 546.476 518.433L545.497 518.491C532.097 519.276 518.497 519.799 505.068 520.043C500.373 520.112 495.897 522.038 492.62 525.401C489.343 528.764 487.532 533.289 487.585 537.984C487.537 542.611 489.326 547.068 492.558 550.38C495.791 553.691 500.204 555.586 504.831 555.65L505.485 555.655Z" fill="#F9FFE9"/>
<path d="M565.558 536.044C562.375 538.582 557.898 538.722 554.021 539.032C537.805 540.332 521.483 540.824 505.221 541.122C501.009 541.199 501.127 534.659 505.333 534.581C519.014 534.331 532.686 533.805 546.35 533.003C549.623 532.811 552.908 532.656 556.169 532.311C557.782 532.215 559.374 531.894 560.899 531.358C560.227 531.634 561.458 530.89 561.384 531.028C561.659 530.753 562.051 530.311 562.094 530.299C562.346 529.939 562.574 529.563 562.775 529.172C562.789 529.118 562.808 529.051 562.834 528.958C562.91 528.684 562.987 528.408 563.067 528.137C563.084 528.079 563.123 527.873 563.152 527.725C563.168 527.557 563.208 527.194 563.213 527.088C563.247 526.424 563.245 525.759 563.207 525.096C563.102 523.836 562.892 522.587 562.579 521.362C561.609 517.537 560.368 513.786 558.868 510.136C554.337 498.528 549.106 487.194 544.382 475.663C538.807 462.053 533.621 448.294 528.822 434.386C527.45 430.399 533.797 428.8 535.158 432.755C539.565 445.565 544.317 458.25 549.413 470.811C554.448 483.183 560.013 495.341 564.913 507.765C567.513 514.345 570.854 522.134 569.47 529.365C568.995 531.983 567.609 534.349 565.558 536.044Z" fill="black"/>
<path d="M457.28 804.959C470.556 805.134 483.823 804.205 496.945 802.184C522.409 798.402 549.345 793.519 574.064 779.322C587.845 771.418 600.283 761.377 610.915 749.573C618.965 740.639 626.385 730.378 634.268 717.273C649.558 691.873 660.195 668.422 666.788 645.587C670.067 633.966 672.386 622.097 673.724 610.097C676.847 583.775 677.113 557.65 676.996 537.83C676.846 512.475 675.526 486.513 673.074 460.555C681.613 450.963 687.331 439.196 689.594 426.555C693.285 404.555 685.852 379.955 670.035 360.585C670.568 354.156 668.908 347.736 665.324 342.372C663.318 339.399 660.968 336.674 658.324 334.252C657.597 331.223 656.806 328.244 655.958 325.352C652.595 313.887 648.133 302.774 642.636 292.166C644.482 289.882 646.21 287.551 647.819 285.174C652.432 278.176 656.293 270.71 659.337 262.901C662.856 254.476 665.081 245.568 665.937 236.479C666.773 226.262 665.331 215.986 661.717 206.393C658.103 196.8 652.406 188.128 645.037 181.002C637.61 173.74 628.42 167.79 616.937 162.811C608.613 159.051 599.632 156.963 590.503 156.668C589.516 156.651 588.529 156.661 587.54 156.697C583.808 156.907 580.102 157.459 576.471 158.348C574.454 158.874 572.391 159.206 570.31 159.339C570.036 159.354 569.761 159.313 569.503 159.218C568.257 158.704 566.161 156.518 564.313 154.596C562.819 153.04 561.124 151.276 559.185 149.578C552.548 143.847 545.317 138.843 537.615 134.65C521.427 125.724 506.115 120.796 490.797 119.585C488.553 119.406 486.255 119.296 483.966 119.257C472.682 119.094 461.431 120.494 450.531 123.417C443.131 125.384 436.631 128.652 430.893 131.533C429.015 132.477 427.137 133.425 425.232 134.317C415.342 138.959 405.109 142.831 394.623 145.899C380.781 149.936 368.09 153.807 355.823 157.735L351.055 159.253C339.925 162.787 328.414 166.441 317.255 171.476C306.544 176.311 296.367 183.795 287.003 193.721C281.572 199.481 276.74 205.568 271.857 211.821L270.286 213.832C265.146 220.409 259.83 227.209 254.802 234.221C250.542 240.164 246.226 246.743 243.502 254.593C242.035 259.205 241.189 263.991 240.987 268.827C240.857 270.509 240.736 272.099 240.526 273.483C239.667 278.578 237.561 283.382 234.397 287.468C233.087 289.229 231.772 290.984 230.452 292.735C226.51 297.977 222.435 303.4 218.579 309.052C213.495 316.287 209.194 324.042 205.749 332.186C202.021 341.416 199.604 351.123 198.57 361.024C197.915 367.043 197.74 373.105 198.045 379.152C198.358 383.887 198.953 388.599 199.825 393.263C200.26 395.846 200.671 398.284 200.947 400.628C201.681 406.84 201.881 413.104 201.547 419.351C201.41 421.842 201.222 424.332 201.036 426.822C200.746 430.702 200.446 434.711 200.314 438.822C199.674 458.585 201.051 475.684 204.521 491.097C207.703 505.162 213.076 518.639 220.443 531.036C206.424 552.463 204.453 579.819 216.074 602.166C226.464 622.15 245.982 636.186 268.492 640.424C268.923 641.836 269.356 643.218 269.792 644.569C274.394 658.521 279.804 672.194 285.992 685.519C291.398 697.409 297.447 710.045 305.027 721.919C315.889 738.965 329.687 753.95 345.781 766.179C366.774 782.083 390.793 793.533 416.366 799.83C429.77 803.05 443.489 804.772 457.273 804.965L457.28 804.959ZM639.36 484.581C640.924 507.035 641.594 529.581 641.352 551.707C641.142 570.99 640.488 593.555 637.225 614.707C635.515 625.397 632.86 635.914 629.289 646.134C622.031 667.367 611.038 688.904 596.618 710.144C582.218 731.344 563.194 747.051 541.598 755.556C532.374 759.191 521.698 761.989 508.011 764.369C498.633 765.999 488.657 767.669 478.891 768.637C472.294 769.292 465.664 769.567 459.035 769.46C422.601 768.967 387.506 755.655 359.911 731.86C346.958 720.595 335.653 705.623 326.311 687.36C317.909 671.089 310.727 654.216 304.826 636.88C307.064 635.085 308.818 632.759 309.93 630.115C311.042 627.471 311.477 624.591 311.195 621.736C310.85 617.3 308.868 613.152 305.635 610.096C302.402 607.04 298.148 605.295 293.7 605.2C292.445 605.179 291.192 605.288 289.959 605.525C280.415 607.354 270.531 605.652 262.148 600.735C255.147 596.647 249.625 590.441 246.378 583.012C243.478 575.962 243.114 568.124 245.347 560.836C249.982 545.202 264.754 533.68 281.271 532.818C285.933 532.574 290.315 530.52 293.486 527.095C296.657 523.669 298.366 519.141 298.25 514.475C298.208 510.453 296.777 506.569 294.2 503.48C291.623 500.392 288.059 498.289 284.109 497.527C282.857 476.063 283.092 454.537 284.814 433.106C286.606 410.83 288.639 385.584 294.45 361.982C298.794 344.34 305.95 326.722 316.322 308.123C324.253 293.897 332.442 282.161 341.356 272.241C353.699 258.254 368.795 246.964 385.7 239.077C403.992 230.696 425.535 226.903 453.5 227.141L454.467 227.148C458.642 227.184 462.833 227.219 467.03 227.291C483.421 227.571 500.83 228.402 517.142 232.547C537.908 237.93 557.202 247.901 573.605 261.726C592.013 277.129 606.495 296.688 615.854 318.791C613.181 320.407 610.983 322.7 609.481 325.438C607.979 328.176 607.226 331.262 607.3 334.384C607.373 337.507 608.27 340.554 609.899 343.219C611.528 345.883 613.831 348.07 616.577 349.559C599.651 348.095 583.871 340.398 572.298 327.959C570.699 326.238 568.769 324.858 566.624 323.901C564.479 322.943 562.164 322.427 559.815 322.385C556.28 322.367 552.816 323.38 549.847 325.3C546.878 327.22 544.533 329.963 543.098 333.195C541.696 336.379 541.266 339.906 541.863 343.333C542.461 346.761 544.058 349.935 546.454 352.457C547.078 353.117 547.711 353.771 548.354 354.419C542.678 360.449 537.658 367.064 533.377 374.153C524.688 388.693 521.266 404.623 523.477 420.219C526.166 439.15 537.642 457.511 555.795 471.919C570.409 483.64 588.461 490.249 607.188 490.734C616.204 490.893 625.182 489.518 633.738 486.669C635.621 486.043 637.495 485.347 639.36 484.581ZM248.978 505.481C248.47 505.737 247.965 506.001 247.463 506.273C241.095 493.467 237.489 479.073 236.44 462.268C235.875 453.193 235.715 446.284 235.919 439.863C236.03 436.35 236.297 432.796 236.578 429.034C236.762 426.565 236.946 424.098 237.09 421.625C237.523 414.077 237.341 406.506 236.547 398.987C236.176 395.473 235.616 392.143 235.076 388.923C234.498 385.481 233.952 382.233 233.713 379.186C232.826 368.163 234.382 357.08 238.27 346.727C242.579 335.427 250.441 325.127 258.764 314.219C260.113 312.451 261.45 310.69 262.776 308.934C268.339 301.694 272.355 293.39 274.576 284.534C275.6 280.225 276.22 275.829 276.428 271.405C276.451 270.069 276.578 268.738 276.808 267.422C277.599 264.247 279.636 260.874 282.449 256.788C286.28 251.224 290.439 245.876 294.844 240.214L298.034 236.104C305.91 225.923 313.351 216.304 322.559 209.454C328.275 205.2 335.136 202.308 343.681 199.272C359.236 193.748 375.137 188.819 388.641 184.725C391.441 183.875 394.264 183.07 397.084 182.265C402.733 180.649 408.574 178.979 414.411 176.941C426.616 172.681 438.521 167.607 450.046 161.753C455.549 158.995 461.448 157.111 467.531 156.17C472.794 155.229 478.136 154.794 483.482 154.87C490.626 154.945 497.714 156.15 504.482 158.44C509.031 160.06 513.444 162.037 517.682 164.352C523.147 167.131 528.335 170.422 533.177 174.182C534.982 175.701 536.697 177.324 538.314 179.042C541.312 182.251 544.595 185.181 548.122 187.797C554.514 192.351 562.152 194.831 570 194.9C574.249 194.945 578.486 194.428 582.6 193.364C585.091 192.713 587.658 192.399 590.232 192.429C593.003 192.491 595.75 192.959 598.386 193.817C602.315 195.131 606.11 196.816 609.719 198.85C617.066 202.821 622.814 208.211 626.345 214.442C633.001 226.188 630.256 239.43 626.779 248.47C625.282 252.388 623.506 256.194 621.465 259.859C610.626 246.506 597.99 234.719 583.916 224.834C561.352 209 535.417 198.627 508.157 194.534C496.434 192.948 484.626 192.074 472.797 191.917L471.431 191.881C467.27 191.771 463.108 191.661 458.945 191.589C450.166 191.439 443.053 191.504 436.558 191.795C406.484 193.146 379.536 200.677 356.458 214.177C338.13 224.9 321.494 239.577 307.011 257.806C298.164 268.941 290.122 281.471 281.702 297.237C269.557 319.938 261.028 344.395 256.422 369.726C254.432 380.674 252.873 392.37 251.369 407.652C250.095 420.59 248.799 434.402 248.176 448.507C247.351 467.497 247.619 486.519 248.978 505.479V505.481ZM652.868 426.293C647.524 439.909 632.575 451.432 616.027 454.544C613.265 455.06 610.457 455.294 607.647 455.244C596.033 455.044 584.395 450.159 574.875 441.487C569.521 436.767 565.096 431.09 561.826 424.746C563.856 424.206 565.874 423.71 567.881 423.258C577.652 421.067 587.602 419.768 597.608 419.376C597.835 419.801 598.075 420.218 598.325 420.631C600.844 424.703 604.359 428.065 608.539 430.401C612.719 432.737 617.425 433.97 622.213 433.982C624.662 434.026 627.106 433.761 629.488 433.194C635.341 431.792 640.607 428.592 644.548 424.043C647.339 424.721 650.112 425.471 652.868 426.291V426.293ZM603.226 383.634C591.262 383.72 579.329 384.858 567.564 387.034L567.581 387.011C570.632 382.868 574.022 378.986 577.715 375.405C579.222 376.138 580.737 376.831 582.262 377.483C588.987 380.342 596.022 382.406 603.226 383.632V383.634ZM643.731 384.688C644.495 385.7 645.226 386.736 645.924 387.797C641.537 386.895 637.116 386.138 632.663 385.527C636.366 385.474 640.062 385.193 643.731 384.686V384.688Z" fill="#F9FFE9"/>
<path d="M213.025 362.614C213.91 354.064 215.988 345.681 219.2 337.708C222.272 330.506 226.09 323.646 230.592 317.24C235.511 310.031 240.861 303.14 246.066 296.14C250.652 290.142 253.688 283.106 254.904 275.655C255.736 270.155 255.385 264.703 257.24 259.355C259.34 253.296 262.908 247.866 266.62 242.689C271.97 235.228 277.67 228 283.32 220.765C287.881 214.924 292.494 209.09 297.583 203.694C304.926 195.908 313.448 189.144 323.237 184.727C335.161 179.347 347.83 175.561 360.264 171.579C373.031 167.491 385.843 163.583 398.701 159.854C409.906 156.577 420.841 152.44 431.41 147.481C438.969 143.938 446.14 139.626 454.27 137.467C465.794 134.361 477.757 133.214 489.661 134.073C504.31 135.233 517.836 140.337 530.604 147.378C537.394 151.062 543.769 155.466 549.618 160.513C554.298 164.613 558.038 170.202 563.958 172.651C571.983 175.971 579.917 171.517 588.077 171.221C596.014 170.934 603.928 173.012 611.164 176.148C619.864 179.917 628.064 184.728 634.88 191.392C640.704 197.031 645.211 203.887 648.077 211.47C650.944 219.053 652.099 227.175 651.462 235.257C650.731 242.884 648.849 250.357 645.879 257.42C643.203 264.289 639.818 270.861 635.779 277.029C632.574 281.739 628.939 286.142 624.921 290.18C632.231 302.502 637.971 315.69 642.008 329.436C643.154 333.346 644.158 337.293 645.02 341.278C645.076 341.535 645.103 341.798 645.102 342.061C648.233 344.414 650.977 347.243 653.232 350.445C655.997 354.585 656.543 360.273 653.904 364.339C668.875 379.628 678.847 402.739 675.255 424.153C673.232 436.214 666.734 446.888 657.955 455.397C660.749 482.815 662.249 510.322 662.455 537.919C662.595 561.411 662.055 585.038 659.284 608.387C658.036 619.602 655.873 630.696 652.817 641.558C645.824 665.781 634.776 688.235 621.809 709.781C615.554 720.472 608.287 730.539 600.109 739.842C590.496 750.498 579.259 759.569 566.815 766.718C544.634 779.454 519.776 784.096 494.798 787.808C469.727 791.532 444.569 791.75 419.81 785.708C396.168 779.901 373.966 769.315 354.57 754.602C339.838 743.412 327.209 729.696 317.27 714.093C310.254 703.109 304.603 691.351 299.216 679.505C293.268 666.684 288.062 653.532 283.625 640.113C282.242 635.824 280.975 631.499 279.777 627.154C258.855 626.137 238.905 614.576 228.966 595.463C218.021 574.415 222.656 549 238.174 531.763C228.918 518.535 222.305 503.644 218.699 487.907C215.155 472.167 214.319 455.387 214.838 439.293C215.044 432.893 215.706 426.534 216.056 420.147C216.438 413.069 216.211 405.972 215.375 398.934C214.569 392.085 212.901 385.334 212.556 378.434C212.29 373.156 212.447 367.866 213.025 362.614ZM651.225 370.971C650.43 370.098 649.574 369.284 648.739 368.451C646.664 369.307 644.489 369.897 642.266 370.208C636.382 370.969 630.444 371.223 624.517 370.969C611.938 370.769 599.633 369.104 587.986 364.116C583.823 362.327 579.796 360.235 575.939 357.857C568.309 363.678 561.564 370.576 555.915 378.334C549.415 387.082 544.515 397.164 543.908 408.186C578.029 396.643 614.728 395.034 649.729 403.545C656.294 405.158 662.766 407.128 669.117 409.445C667.574 395.207 660.472 381.134 651.225 370.971ZM667.025 429.91C668.498 425.595 669.296 421.078 669.392 416.52C658.907 412.576 648.085 409.595 637.06 407.614C636.467 410.346 635.13 412.862 633.197 414.882C631.263 416.902 628.809 418.348 626.105 419.06C620.692 420.355 614.005 418.46 610.753 413.097C609.276 410.584 608.659 407.659 608.995 404.764C594.104 404.376 579.223 405.825 564.687 409.079C557.704 410.662 550.819 412.646 544.064 415.021C545.573 429.615 554.302 442.41 565.084 452.233C579.529 465.392 599.223 472.491 618.712 468.827C639.454 464.927 659.904 450.313 667.025 429.91ZM233 588.691C237.452 598.982 245.072 607.584 254.75 613.245C266.182 619.97 279.671 622.299 292.696 619.797C296.817 619.006 298.465 625.339 294.327 626.133C291.767 626.608 289.179 626.919 286.579 627.062C293.283 650.195 302.258 672.608 313.371 693.976C322.766 712.335 334.757 729.24 350.371 742.822C365.648 755.997 383.15 766.345 402.057 773.381C427.142 782.771 453.732 785.729 480.322 783.099C490.431 782.099 500.496 780.427 510.501 778.689C522.892 776.536 535.201 773.698 546.925 769.079C572.45 759.025 593.333 740.853 608.642 718.307C622.81 697.441 634.879 674.716 643.042 650.832C646.886 639.803 649.746 628.456 651.589 616.923C654.837 595.877 655.651 573.459 655.889 551.865C656.16 527.005 655.332 502.166 653.407 477.347C652.978 471.776 652.477 466.211 651.943 460.647C645.087 465.975 637.381 470.109 629.15 472.873C606.85 480.285 583.033 474.984 564.83 460.532C551.62 450.045 540.287 435.219 537.866 418.17C536.04 405.312 539.235 392.67 545.85 381.603C551.632 372.052 558.92 363.499 567.432 356.274C568.345 355.502 569.282 354.76 570.225 354.025C565.472 350.598 561.052 346.731 557.025 342.474C554.134 339.411 558.833 334.861 561.725 337.929C576.162 353.43 595.985 362.817 617.125 364.164C622.305 364.475 627.535 364.564 632.725 364.457C636.947 364.518 641.155 363.966 645.218 362.82C646.032 362.552 646.812 362.188 647.54 361.735C647.687 361.648 647.758 361.61 647.802 361.588C647.793 361.577 647.846 361.509 648.138 361.258C648.238 361.171 648.322 361.066 648.419 360.975C648.433 360.962 648.436 360.962 648.447 360.952L648.463 360.922C649.027 359.8 649.239 358.533 649.069 357.288C649.043 357.097 648.999 356.769 648.962 356.637C648.908 356.444 648.593 355.554 648.618 355.552C646.843 351.634 642.998 348.592 639.663 346.089C634.874 342.495 629.674 339.483 624.174 337.117C623.358 336.848 622.675 336.279 622.264 335.524C621.852 334.77 621.743 333.888 621.959 333.056C622.395 331.511 624.4 330.145 626.021 330.841C629.866 332.479 633.592 334.384 637.172 336.541C628.502 302.936 609.543 272.881 582.948 250.583C564.872 235.349 543.606 224.368 520.72 218.449C498.887 212.899 476.02 212.783 453.62 212.594C428.22 212.38 402.981 215.162 379.649 225.849C360.944 234.58 344.232 247.059 330.549 262.514C320.17 274.311 311.141 287.23 303.631 301.032C293.473 319.249 285.339 338.195 280.34 358.496C274.427 382.506 272.308 407.339 270.328 431.928C268.404 455.818 268.276 479.819 269.945 503.728C270.163 506.847 270.451 509.959 270.73 513.072C273.99 512.372 277.3 511.931 280.63 511.754C284.83 511.535 284.705 518.076 280.518 518.294C258.03 519.468 237.842 535.024 231.418 556.694C228.233 567.222 228.792 578.528 233 588.691ZM219.225 380.321C219.755 387.081 221.382 393.757 222.094 400.512C222.808 407.244 222.972 414.023 222.582 420.782C222.222 426.992 221.593 433.182 221.394 439.399C221.14 447.321 221.443 455.263 221.936 463.171C223.017 480.485 226.76 497.349 234.549 512.936C237.012 517.839 239.794 522.575 242.879 527.113C249.108 521.578 256.41 517.385 264.33 514.797C262.292 492.976 261.749 471.041 262.704 449.146C263.295 435.76 264.529 422.406 265.841 409.074C267.052 396.774 268.52 384.488 270.73 372.323C275.048 348.473 283.079 325.447 294.53 304.084C301.347 290.977 309.336 278.514 318.4 266.848C331.056 250.919 346.2 237.023 363.8 226.723C386.21 213.613 411.41 207.473 437.208 206.315C448.937 205.789 460.684 206.136 472.414 206.446C483.658 206.59 494.882 207.413 506.026 208.912C531.052 212.646 554.861 222.171 575.557 236.729C593.752 249.545 609.306 265.747 621.37 284.449C629.66 275.545 636.11 265.091 640.349 253.687C646.192 238.487 647.249 221.857 638.992 207.278C633.831 198.17 625.785 191.012 616.631 186.066C612.211 183.593 607.566 181.547 602.758 179.955C595.082 177.46 586.85 177.223 579.043 179.273C571.15 181.266 563.343 180.773 556.525 175.939C551.225 172.185 547.298 166.83 542.205 162.793C536.642 158.465 530.682 154.674 524.405 151.468C519.531 148.82 514.457 146.558 509.23 144.703C495.062 139.803 479.705 139.264 465.012 141.852C457.514 143.041 450.244 145.383 443.462 148.795C432.518 154.357 421.212 159.176 409.62 163.217C401.336 166.109 392.82 168.27 384.426 170.817C369.149 175.448 353.86 180.234 338.816 185.578C330.003 188.709 321.433 192.178 313.884 197.793C302.939 205.936 294.514 216.904 286.235 227.606C280.895 234.506 275.429 241.355 270.479 248.546C267.218 253.282 264.107 258.278 262.705 263.914C262.222 266.133 261.957 268.395 261.912 270.666C261.751 274.188 261.261 277.686 260.449 281.117C258.688 288.044 255.527 294.537 251.16 300.196C241.415 313.149 230.525 326.236 224.686 341.548C220.034 353.913 218.168 367.152 219.222 380.321H219.225Z" fill="black"/>
<path d="M434.952 498.635C444.592 498.848 454.191 497.3 463.275 494.066C471.112 491.199 478.455 487.128 485.039 482C506.499 465.6 518.872 440.193 518.139 414.023C518.095 412.55 517.992 411.178 517.879 409.904C517.86 409.474 517.824 409.044 517.773 408.613C516.032 391.976 508.737 376.412 497.064 364.43C508.232 354.041 512.929 338.28 509.664 321.739C508.918 317.809 506.837 314.257 503.774 311.685C500.71 309.113 496.851 307.679 492.851 307.626C490.138 307.588 487.451 308.152 484.982 309.277C482.513 310.402 480.324 312.06 478.572 314.132C476.87 316.171 475.647 318.567 474.996 321.142C474.345 323.718 474.281 326.406 474.809 329.01C475.384 331.345 475.28 333.795 474.509 336.073C473.884 337.563 472.128 339.182 469.138 341.021C466.251 342.777 463.231 344.303 460.105 345.585C458.379 345.953 456.72 346.584 455.186 347.456C445.716 350.73 435.335 352.625 425.474 354.284L424.463 354.455C416.535 355.788 409.047 357.05 401.944 356.928C401.023 356.912 400.101 356.874 399.181 356.806C391.627 356.084 384.322 353.716 377.781 349.869C375.405 348.514 372.749 347.725 370.019 347.564C367.289 347.403 364.558 347.873 362.04 348.939C359.521 350.004 357.282 351.637 355.496 353.708C353.711 355.78 352.427 358.235 351.745 360.884C350.837 364.091 350.878 367.493 351.861 370.678C352.844 373.863 354.729 376.695 357.287 378.833C353.292 387.63 350.505 396.928 349 406.472C348.972 406.631 348.931 406.882 348.892 407.199C348.692 408.473 348.505 409.748 348.358 411.025C346.122 429.236 350.967 447.611 361.892 462.352C373.211 477.488 391.522 489.482 412.132 495.252C419.561 497.348 427.229 498.485 434.947 498.633L434.952 498.635ZM481.582 425.496C478.977 437.939 471.104 449.081 459.574 456.461C452.365 460.984 443.965 463.241 435.46 462.939C428.682 462.77 421.987 461.413 415.678 458.929C402.49 453.798 392.114 445.429 387.207 435.973C385.381 432.4 384.226 428.522 383.799 424.533C388.925 423.714 393.936 423.047 398.784 422.541C407.459 421.641 416.275 421.115 425.103 420.986C427.643 425.435 431.29 429.151 435.691 431.772C440.092 434.394 445.097 435.833 450.218 435.948C451.38 435.968 452.542 435.917 453.697 435.793C457.65 435.329 461.467 434.065 464.915 432.077C468.363 430.089 471.37 427.42 473.753 424.232C476.367 424.619 478.977 425.042 481.582 425.5V425.496ZM462.806 382.306C465.507 383.866 468.028 385.719 470.324 387.831C463.397 386.982 456.412 386.349 449.416 385.938C453.803 384.922 457.98 383.801 462.016 382.553C462.276 382.473 462.54 382.39 462.806 382.306Z" fill="#F9FFE9"/>
<path d="M476.214 470.454C470.811 474.675 464.783 478.028 458.347 480.391C444.782 485.279 429.847 485.122 416.056 481.258C399.827 476.712 383.699 467.238 373.535 453.647C364.843 441.877 361.001 427.22 362.8 412.7C362.939 411.492 363.126 410.288 363.312 409.084C363.322 408.972 363.338 408.86 363.359 408.749C365.141 397.155 369.177 386.023 375.237 375.98C375.877 374.935 376.542 373.907 377.231 372.895C373.794 371.529 370.453 369.933 367.231 368.119C363.565 366.046 366.96 360.454 370.631 362.528C379.039 367.437 388.425 370.435 398.122 371.309C408.101 372.04 418.086 370.273 427.889 368.624C439.21 366.724 450.897 364.537 461.808 360.535C462.067 360.262 462.384 360.051 462.735 359.916C463.087 359.782 463.464 359.728 463.839 359.758C468.324 358.029 472.647 355.904 476.755 353.409C481.455 350.518 485.73 346.909 487.916 341.701C489.824 336.759 490.225 331.363 489.067 326.194C488.253 322.075 494.586 320.429 495.403 324.564C497.609 335.721 494.996 347.396 485.945 354.864C481.678 358.296 476.979 361.154 471.969 363.364C480.599 368.059 487.961 374.778 493.424 382.944C498.886 391.111 502.286 400.48 503.331 410.249C503.356 410.419 503.368 410.591 503.366 410.763C503.476 411.981 503.576 413.201 503.61 414.436C504.225 436.369 493.533 457.223 476.214 470.454ZM465.714 367.425C465.381 367.268 465.047 367.114 464.714 366.963C464.597 366.91 464.981 367.071 464.36 366.81C464.199 366.742 464.037 366.678 463.877 366.61C461.827 367.341 459.769 368.03 457.717 368.664C450.106 370.975 442.353 372.792 434.508 374.106C423.447 376.015 412.12 378.296 400.842 377.985C395.009 377.799 389.227 376.846 383.642 375.153C377.575 383.997 373.243 393.913 370.878 404.374C370.793 404.733 370.721 405.096 370.641 405.457C405.329 398.896 440.866 398.144 475.801 403.232C482.653 404.237 489.468 405.45 496.247 406.87C494.981 399.419 492.133 392.326 487.893 386.07C482.274 378.007 474.623 371.575 465.714 367.425ZM497 413.707C486.526 411.428 475.944 409.679 465.294 408.466C463.976 415.388 458.532 420.655 452.149 421.34C449.027 421.625 445.895 420.922 443.195 419.33C440.494 417.738 438.363 415.338 437.101 412.468C436.33 410.573 435.994 408.529 436.118 406.487C423.152 406.211 410.181 406.746 397.281 408.087C387.949 409.06 378.671 410.519 369.468 412.343C368.223 422.701 369.392 433.195 374.308 442.67C381.708 456.938 396.127 466.92 410.408 472.478C428.973 479.704 450.308 479.657 467.413 468.706C483.067 458.686 494.249 442.406 496.601 423.772C497.025 420.435 497.158 417.067 497 413.707Z" fill="black"/>
<path d="M491.055 686.343C492.998 686.376 494.942 686.382 496.888 686.363C506.673 686.271 518.174 685.88 529.557 683.722C530.436 683.611 531.305 683.434 532.157 683.193C538.104 681.953 543.917 680.145 549.518 677.793C555.372 675.269 560.924 672.098 566.072 668.338C577.057 660.446 583.436 651.762 585.572 641.785C588.114 629.942 584.939 617.632 577.285 609.663C573.367 605.582 566.234 600.675 554.509 600.475C554.147 600.468 553.785 600.466 553.421 600.468C549.067 600.499 544.969 600.879 541.005 601.246C538.044 601.52 535.245 601.781 532.574 601.869C530.729 601.931 528.862 601.945 527.028 601.914C520.541 601.807 514.078 601.107 507.719 599.821C488.906 595.991 473.058 591.257 459.268 585.351C456.155 584.018 453.077 582.613 449.997 581.21C446.917 579.807 443.808 578.392 440.686 577.047C436.124 575.083 431.439 573.173 426.762 571.371C421.267 569.066 415.491 567.498 409.584 566.708C408.516 566.592 407.424 566.524 406.338 566.508C401.245 566.39 396.183 567.336 391.476 569.284C386.769 571.233 382.52 574.142 379 577.825C374.042 583.225 366.874 595.056 374.568 613.669L374.668 613.901C376.562 618.274 378.753 622.512 381.225 626.586C394.43 648.308 415.161 666.37 438.097 676.136C453.414 682.655 470.735 685.995 491.055 686.343ZM549.155 636.268C548.812 636.626 548.422 636.995 547.991 637.368C544.342 640.489 540.232 643.027 535.806 644.89C533.793 642.269 531.587 639.802 529.206 637.511C533.945 637.483 538.953 637.229 544.415 636.748C545.4 636.66 546.425 636.548 547.474 636.44C548.028 636.383 548.594 636.324 549.152 636.268H549.155ZM422.124 610.683C419.224 610.634 416.308 610.683 413.41 610.836C411.69 608.231 410.126 605.526 408.727 602.736C409.527 602.973 410.252 603.224 410.715 603.384C414.867 604.815 419.184 606.603 422.993 608.184C425.205 609.1 427.444 610.063 429.674 611.038C427.136 610.845 424.618 610.726 422.121 610.683H422.124Z" fill="#F9FFE9"/>
<path d="M408.024 581.158C412.677 581.823 417.223 583.093 421.547 584.935C426.045 586.668 430.509 588.488 434.939 590.394C441.181 593.084 447.306 596.035 453.553 598.711C469.886 605.711 487.434 610.522 504.83 614.062C514.119 615.94 523.596 616.724 533.067 616.395C539.895 616.168 546.697 615.049 553.526 615.004C558.449 614.971 563.289 616.065 566.808 619.728C571.533 624.648 572.765 632.228 571.369 638.735C569.72 646.419 563.732 652.123 557.597 656.535C553.321 659.662 548.71 662.304 543.851 664.413C538.897 666.48 533.752 668.055 528.489 669.113C528.159 669.238 527.811 669.308 527.459 669.322C517.404 671.294 507.039 671.73 496.751 671.827C478.631 671.997 460.595 669.916 443.79 662.761C422.991 653.662 405.487 638.398 393.642 619.031C391.515 615.526 389.63 611.879 388.002 608.116C385.111 601.125 384.23 593.616 389.702 587.658C394.188 582.78 401.548 580.455 408.024 581.158ZM557.535 648.332C562.089 644.363 565.535 639.391 565.362 633.152C565.394 629.957 564.283 626.856 562.231 624.407C561.171 623.178 559.739 622.327 558.152 621.985C553.866 620.849 547.935 621.846 543.128 622.271C534.922 623.081 526.662 623.188 518.438 622.59C509.642 621.738 500.931 620.166 492.392 617.89C484.87 616 477.334 614.096 469.936 611.758C455.636 607.241 442.367 600.482 428.556 594.758C424.23 592.965 419.881 591.173 415.456 589.647C411.79 588.384 407.879 587.221 403.956 587.635C399.392 588.116 393.583 590.823 392.328 596.024C391.657 598.807 392.581 602.186 393.71 604.917C397.031 612.481 401.326 619.579 406.485 626.031C418.058 624.638 429.775 625.022 441.232 627.171C449.028 628.573 456.488 631.438 463.218 635.615C474.557 632.362 486.584 632.372 497.918 635.644C504.741 637.65 511.076 641.046 516.522 645.62C521.969 650.194 526.409 655.846 529.564 662.22C539.753 659.756 549.583 655.262 557.535 648.332ZM438.524 653.077C451.499 660.177 466.363 663.8 481.041 664.869C488.361 665.402 495.7 665.342 503.033 665.185C509.676 665.106 516.305 664.565 522.873 663.565C519.993 658.287 516.087 653.639 511.384 649.893C506.682 646.147 501.278 643.378 495.49 641.751C487.249 639.468 478.593 639.105 470.19 640.692C471.821 642.041 473.381 643.473 474.865 644.982C477.801 648.005 473.098 652.551 470.165 649.527C461.862 641.05 451.089 635.419 439.389 633.443C430.237 631.745 420.901 631.261 411.622 632.003C419.399 640.427 428.483 647.543 438.524 653.077Z" fill="black"/>
<path d="M586.166 683.143C590.509 683.206 594.726 681.681 598.023 678.853C606.471 671.536 612.617 661.927 615.715 651.189C618.813 640.451 618.732 629.045 615.48 618.353C614.367 614.77 612.15 611.631 609.147 609.383C606.144 607.134 602.507 605.892 598.756 605.833C595.908 605.772 593.087 606.387 590.522 607.626C587.957 608.865 585.722 610.693 584 612.962C582.342 615.176 581.239 617.756 580.786 620.485C580.332 623.214 580.541 626.012 581.394 628.644C582.683 632.776 582.728 637.196 581.523 641.354C580.318 645.511 577.917 649.222 574.618 652.025C571.901 654.297 569.947 657.349 569.021 660.768C568.096 664.187 568.243 667.807 569.443 671.14C570.692 674.594 572.958 677.59 575.942 679.732C578.926 681.873 582.489 683.062 586.161 683.14L586.166 683.143Z" fill="#F9FFE9"/>
<path d="M595.27 624.309C594.013 620.281 600.356 618.672 601.606 622.678C604.039 630.65 604.104 639.156 601.795 647.164C599.485 655.172 594.9 662.338 588.596 667.79C585.403 670.512 580.839 665.824 584.05 663.09C589.515 658.437 593.492 652.28 595.487 645.385C597.482 638.49 597.406 631.161 595.27 624.309Z" fill="black"/>
<path d="M354.11 618.215C358.34 618.326 362.469 616.918 365.75 614.247C369.031 611.575 371.246 607.817 371.995 603.653C374 591.129 381.025 580.999 391.267 575.853C394.798 574.139 397.64 571.272 399.321 567.725C401.003 564.178 401.425 560.164 400.517 556.345C399.945 553.676 398.768 551.174 397.076 549.031C395.385 546.889 393.224 545.163 390.761 543.987C388.298 542.81 385.597 542.215 382.868 542.247C380.138 542.279 377.452 542.937 375.017 544.17C354.923 554.259 340.717 574.084 337.012 597.201C336.225 601.527 337.062 605.992 339.363 609.739C341.663 613.486 345.265 616.253 349.479 617.51C350.983 617.949 352.54 618.185 354.107 618.21L354.11 618.215Z" fill="#F9FFE9"/>
<path d="M381.539 557.163C385.297 555.276 388.511 560.975 384.739 562.863C369.621 570.454 360.276 584.875 357.639 601.348C357.359 603.093 355.118 604.014 353.578 603.563C351.706 603.014 351.078 601.252 351.362 599.501C354.252 581.49 365.085 565.427 381.539 557.163Z" fill="black"/>
<path opacity="0.14" d="M367.936 435.649C372.416 445.6 379.074 454.417 387.419 461.449C404.386 475.672 422.788 477.608 429.183 478.191C439.783 479.158 459.412 480.947 476.069 467.447C491.6 454.859 494.863 436.83 495.645 431.247C489.466 437.908 473.428 453.321 447.959 458.521C404.82 467.33 371.967 439.217 367.936 435.649Z" fill="#080000"/>
<path opacity="0.14" d="M544.2 429.042C542.7 430.325 551.614 448.461 568.745 460.442C573.367 463.675 591.174 475.723 615.402 472.631C640.062 469.484 654.383 452.822 658.827 447.651C663.94 441.686 668.092 434.961 671.134 427.718C666.66 432.907 648.961 452.192 619.129 456.278C616.478 456.641 588.275 460.103 562.986 443.943C551.374 436.527 545.287 428.109 544.2 429.042Z" fill="#080000"/>
<path d="M243.808 530.676C227.408 512.163 221.863 495.44 219.678 484.867C217.432 473.992 217.709 461.308 218.263 435.941C218.693 416.249 219.663 416.011 219.186 404.456C218.177 380.233 213.779 378.572 215.033 363.065C216.478 345.197 223.566 331.952 227.087 325.526C234.132 312.669 240.038 313.441 248.367 298.494C252.373 291.014 255.683 283.181 258.255 275.094C263.679 259.323 261.411 259.394 265.128 250.737C268.08 243.857 275.259 235.202 289.497 218.173C296.186 210.173 299.531 206.173 301.989 203.843C313.255 193.173 324.813 187.714 332.712 184.343C355.869 174.465 365.978 174.693 388.379 167.643C426.305 155.71 426.587 145.851 456.886 140.181C469.228 137.872 484.436 135.187 503.341 139.549C529.329 145.549 550.59 162.158 555.158 169.316C556.247 171.088 557.665 172.637 559.334 173.878C564.099 177.387 569.743 177.287 572.216 177.211C588.824 176.698 593.116 172.933 601.856 174.811C605.738 175.644 609.086 177.944 615.623 182.511C631.723 193.753 639.772 199.375 644.305 207.727C652.433 222.703 647.953 239.242 645.184 249.796C641.3 264.271 633.536 277.41 622.731 287.796L243.808 530.676Z" fill="#705654"/>
<path d="M267.794 517.077C262.836 480.452 262.751 443.331 267.54 406.684C270.525 383.884 273.817 359.997 285.64 330.784C295.378 306.714 312.14 265.292 354.722 236.715C374.314 223.755 396.403 215.042 419.567 211.137C437.59 208.091 451.878 208.802 468.295 209.618C493.865 210.888 512.595 211.818 533.626 218.905C602.352 242.057 631.18 309.179 633.243 314.162C636.461 321.94 639.041 329.966 640.957 338.162C640.789 339.899 641.004 341.652 641.586 343.298C643.533 348.638 648.549 349.335 650.786 353.859C651.735 355.782 652.43 358.902 650.786 363.941C658.124 370.768 663.814 379.175 667.426 388.525C680.338 422.589 658.467 455.037 655.739 458.951C663.928 504.251 664.419 550.608 657.191 596.071C649.621 643.076 642.597 686.695 607.091 726.151C574.523 762.344 535.291 775.813 522.729 779.661C498.841 786.988 473.73 789.467 448.87 786.952C430.759 785.067 382.461 777.31 343.051 739.208C327.942 724.602 319.23 710.456 312.479 699.333C298.21 675.75 288.094 649.893 282.571 622.888C253.991 624.102 229.317 602.801 226.313 575.142C223.432 548.656 241.184 523.422 267.794 517.077Z" fill="#E6BC9A"/>
<path d="M293.917 620.735C298.296 636.861 313.286 683.719 359.332 719.388C410.748 759.217 466.854 758.735 486.645 757.459C536.968 754.217 571.379 731.746 580.435 725.513C633.035 689.306 649.81 636.779 654.22 620.962C648.847 648.19 637.364 684.668 611.792 719.48C601.761 733.136 589.254 749.807 566.811 762.933C550.23 772.633 535.08 776.384 518.339 780.533C504.902 783.863 486.939 788.186 462.921 787.85C445.208 787.634 427.614 784.916 410.662 779.775C398.304 775.958 370.888 767.166 345.17 743.335C324.51 724.191 314.851 704.521 302.662 679.698C293.891 661.838 286.769 643.215 281.384 624.06C275.327 624.09 269.314 623.031 263.632 620.934C244.805 613.928 236.162 597.452 232.785 591.014C227.51 580.961 224.471 569.459 226.135 568.656C228.188 567.667 234.955 584.129 249.055 597.73C263.7 611.857 281.05 617.871 293.917 620.735Z" fill="#D69B7B"/>
<path d="M640.906 258.189C642.614 255.195 653.272 235.757 645.334 213.202C637.676 191.44 618.415 183.002 614.434 181.254C611.975 180.176 594.108 172.345 577.161 176.947C574.827 177.758 572.373 178.17 569.902 178.167C558.825 177.844 551.256 167.449 547.402 162.914C530.926 143.505 501.702 136.147 484.402 135.934C473.76 135.804 463.987 139.065 444.443 145.589C429.284 150.649 420.831 154.96 411.043 159.253C360.798 181.296 348.467 170.824 319.512 190.833C310.548 197.028 302.712 205.11 287.038 221.273C273.625 235.106 266.707 243.981 262.79 254.773C260.355 261.485 258.783 267.805 258.783 267.805C256.105 278.566 256.773 282.005 254.512 288.318C251.978 295.392 248.23 299.184 244.053 304.208C234.753 315.397 226.305 329.095 222.153 339.069C216.675 352.214 216.821 363.258 217.108 384.882C217.359 403.809 219.682 402.239 220.261 422.061C221.04 448.777 216.853 452.72 219.637 474.01C220.892 484.168 223.338 494.143 226.923 503.73C230.615 513.358 235.511 522.48 241.494 530.878L245.952 528.033C240.958 519.599 236.926 510.632 233.93 501.3C230.876 491.629 228.888 481.653 228 471.55C227.107 463.007 227.57 461.325 227.447 435.45C227.371 419.444 227.333 411.441 227.029 402.866C226.248 380.786 225.076 379.941 226.01 371.248C227.204 360.404 230.222 349.839 234.935 340C241.021 327.393 244.429 327.7 257.367 305.856C262.852 296.593 264.995 291.885 266.658 287.289C270.523 276.608 270.647 269.721 271.742 263.773C274.672 247.846 284.797 237.341 298.181 223.456C310.85 210.467 325.769 199.883 342.215 192.218C365.526 181.25 368.586 186.872 400.841 174.69C425.953 165.206 427.148 160.646 448.384 155.022C460.101 151.922 474.307 148.294 492.943 150.122C507.854 151.589 521.934 152.974 533.49 163.106C538.24 167.27 542.484 172.843 552.899 180.214C559.338 184.77 563.515 186.744 568.383 187.306C574.1 187.966 576.783 186.218 583.049 185.216C590.818 184.277 598.695 184.876 606.232 186.978C624.215 192.084 634.014 208.015 636.237 211.878C648.356 232.927 642.086 254.391 640.906 258.189Z" fill="#AA8785"/>
<path d="M278.773 515.143C275.549 484.15 275.359 452.916 278.204 421.886C281.929 381.256 284.604 352.063 301.431 318.508C310.109 301.2 331.978 259.072 380.897 234.428C425.536 211.94 467.712 216.599 488.645 218.911C502.32 220.421 529.275 223.66 559.877 239.832C586.053 253.752 608.579 273.646 625.627 297.9C618.399 285.148 609.602 273.352 599.441 262.787C591.185 254.213 559.292 221.904 513.185 213.658C499.528 211.216 481.218 210.276 469.119 209.658C455.73 208.97 449.035 208.626 440.819 209.014C420.839 210.01 401.203 214.6 382.852 222.565C356.73 234.057 340.579 249.655 332.312 257.788C296.485 293.032 284.085 333.474 278.612 352.108C270.818 378.641 269.706 400.473 267.482 444.139C265.941 474.399 266.315 499.61 266.982 517.285L278.773 515.143Z" fill="#D69B7B"/>
<path d="M505.276 537.851C512.218 537.772 519.342 537.568 526.649 537.237C538.702 536.683 550.265 535.8 561.301 534.671C563.882 532.46 565.703 529.496 566.51 526.195C568.269 518.695 563.689 512.809 563.066 512.036C561.481 515.297 559.336 518.254 556.727 520.773C550.712 526.537 543.94 528.118 537.32 529.72C529.414 531.634 519.311 534.161 505.276 537.851Z" fill="#D69B7B"/>
<path d="M293.508 622.965C261.601 629.282 231.457 607.699 226.738 578.565C221.767 547.881 246.271 516.622 280.566 515.025" stroke="black" stroke-width="2" stroke-miterlimit="10"/>
<path d="M282.32 624.065C286.697 640.445 292.399 656.442 299.368 671.899C309.936 695.335 319.945 717.532 341.198 738.75C346.562 744.106 371.898 768.62 413.869 780.735C450.386 791.275 480.205 786.862 500.605 783.615C523.293 780.003 549.129 775.89 575.562 757.272C601.271 739.163 614.137 716.772 626.288 695.632C637.104 676.843 645.422 656.723 651.031 635.781C653.207 627.606 658.477 606.164 659.14 553.321C659.534 520.527 658.043 487.737 654.672 455.115" stroke="black" stroke-width="2" stroke-miterlimit="10"/>
<path d="M531.989 433.572C535.153 442.78 539.882 455.953 546.221 471.58C560.939 507.865 571.189 524.98 564.336 532.723C562.219 535.117 559.478 535.476 548.092 536.166C531.524 537.166 517.066 537.639 505.276 537.851" stroke="black" stroke-width="2" stroke-miterlimit="10"/>
<path d="M267.794 517.077C264.897 487.562 264.75 457.841 267.354 428.299C271.116 385.646 274.34 349.09 295.819 308.608C306.487 288.502 330.483 243.276 381.396 221.521C412.489 208.235 441.343 208.948 468.296 209.614C491.748 210.193 515.973 210.791 544.709 223.199C569.173 233.89 590.743 250.249 607.636 270.923C624.528 291.598 636.26 315.995 641.861 342.099" stroke="black" stroke-width="2" stroke-miterlimit="10"/>
<path d="M620.882 289.613C628.828 282.081 635.259 273.099 639.829 263.15C644.271 253.418 653.044 234.199 645.334 213.202C638.122 193.56 620.999 184.649 617.023 182.58C610.896 179.391 596.752 172.03 581.616 175.28C576.946 176.28 572.189 178.292 565.779 176.68C558.772 174.922 554.498 170.023 552.718 168.08C540.29 154.551 521.758 146.391 515.926 143.824C491.141 132.911 466.669 138.082 459.07 139.688C442.563 143.176 443.454 147.405 412.796 158.616C398.178 163.961 398.136 162.941 372.396 171.133C341.059 181.107 325.39 186.094 316.037 192.306C302.214 201.488 294.379 211.671 278.709 232.037C265.809 248.808 259.341 257.42 258.737 268.529C258.682 274.152 257.707 279.729 255.85 285.037C254.073 289.884 251.547 294.423 248.364 298.489C237.796 312.496 229.656 323.284 224.506 333.8C215.267 352.663 215.594 370.764 215.77 376.81C215.99 384.353 216.97 386.2 218.238 395.641C221.644 420.947 217.144 426.463 218.185 453.125C218.776 468.259 219.579 485.188 227.346 504.813C231.189 514.497 236.235 523.66 242.364 532.086" stroke="black" stroke-width="2" stroke-miterlimit="10"/>
<path d="M367.994 410.752C410.918 400.448 455.694 400.637 498.529 411.305C498.987 416.226 500.618 439.36 484.291 458.488C463.362 483.007 431.104 479.646 424.734 478.804C415.834 477.629 389.247 472.357 375.371 447.973C366.556 432.483 367.316 417.088 367.994 410.752Z" fill="white"/>
<path d="M542.165 411.751C562.877 403.697 584.976 399.816 607.193 400.329C629.409 400.842 651.305 405.74 671.623 414.742C669.145 425.216 664.91 435.195 659.098 444.255C654.835 450.883 650.26 457.996 641.833 463.735C627.691 473.365 612.264 472.615 605.625 472.292C599.765 472.008 575.693 470.838 558.038 450.927C544.4 435.549 542.529 417.94 542.165 411.751Z" fill="white"/>
<path d="M374.094 369.022C374.03 370.033 400.017 374.998 433.436 370.984C455.982 368.276 473.349 365.932 484.326 351.956C491.126 343.301 492.877 333.489 493.375 327.29C491.467 332.579 488.641 337.489 485.027 341.796C476.278 352.144 465.049 356.059 458.381 358.056C422.863 368.7 374.181 367.646 374.094 369.022Z" fill="#D69B7B"/>
<path d="M564.956 345.655C564.519 346.445 576.056 355.255 592.567 361.731C600.11 364.692 610.062 368.491 623.3 368.461C628.619 368.449 647.291 368.407 650.157 359.961C651.811 355.086 647.657 349.015 647.057 348.134C644.989 345.146 642.103 342.817 638.746 341.426C639.394 342.121 642.478 345.558 641.803 349.736C641.124 353.936 637.094 356.136 634.517 357.536C630.237 359.794 625.423 360.844 620.592 360.572C600.7 359.509 565.667 344.371 564.956 345.655Z" fill="#D69B7B"/>
<path d="M492.233 325.375C493.014 329.229 494.133 337.705 489.607 345.597C487.833 348.623 485.461 351.255 482.634 353.332C467.613 364.82 441.459 369.612 433.434 370.984C411.713 374.698 400.555 376.473 386.034 372.453C380.059 370.792 374.313 368.396 368.928 365.32" stroke="black" stroke-width="2" stroke-miterlimit="10"/>
<path d="M625.092 333.982C631.18 336.542 636.913 339.875 642.149 343.901C651.078 350.792 652.102 354.826 652.312 356.996C652.557 358.62 652.354 360.279 651.724 361.796C650.48 364.431 646.624 367.886 629.324 367.747C616.624 367.647 604.216 367.547 588.904 360.974C577.733 356.156 567.677 349.084 559.365 340.201" stroke="black" stroke-width="2" stroke-miterlimit="10"/>
<path d="M382.343 371.324C376.015 379.748 371.39 389.324 368.725 399.518C366.825 406.852 363.208 420.772 368.097 436.179C375.297 458.879 396.029 469.268 402.061 472.292C407.425 474.98 434.221 488.411 462.817 475.042C465.299 473.881 491.105 461.287 498.326 431.947C499.719 426.289 503.709 408.916 494.286 390.456C484.834 371.94 468.263 364.823 463.918 363.111" stroke="black" stroke-width="2" stroke-miterlimit="10"/>
<path d="M366.511 409.584C379.819 406.841 393.29 404.966 406.841 403.97C438.122 401.71 469.566 404.094 500.148 411.046" stroke="black" stroke-width="2" stroke-miterlimit="10"/>
<path d="M436.622 403.208C435.77 406.264 435.937 409.515 437.097 412.468C438.359 415.338 440.49 417.738 443.191 419.33C445.891 420.922 449.023 421.625 452.145 421.34C459.507 420.55 465.627 413.671 465.601 405.181L436.622 403.208Z" fill="#080000"/>
<path d="M575.76 353.939C570.066 357.96 564.872 362.646 560.288 367.898C553.356 375.85 540.634 390.443 540.558 410.498C540.477 431.942 554.898 446.668 559.805 451.68C564.769 456.749 583.054 473.861 609.791 473.056C639.835 472.156 668.191 448.996 672.217 422.632C674.557 407.291 668.342 392.914 666.527 388.713C662.536 379.526 656.695 371.26 649.368 364.43" stroke="black" stroke-width="2" stroke-miterlimit="10"/>
<path d="M540.6 412.774C583.332 397.062 630.348 397.595 672.712 414.274" stroke="black" stroke-width="2" stroke-miterlimit="10"/>
<path d="M609.685 401.432C609.385 402.332 607.618 407.926 610.754 413.097C614.004 418.458 620.693 420.355 626.106 419.06C632.514 417.527 637.298 411.481 637.506 404.291L609.685 401.432Z" fill="#080000"/>
<path d="M404.345 627.565C402.085 624.714 383.452 601.217 390.67 590.796C394.7 584.979 405.128 585.622 412.636 586.174C431.276 587.545 440.942 594.904 457.678 602.627C476.612 611.365 495.102 619.898 517.878 619.684C539.659 619.484 554.032 611.384 562.847 620.284C568.194 625.684 568.131 633.937 568.119 634.505C567.919 643.805 560.89 650.048 557.636 652.938C553.062 656.924 547.654 659.835 541.807 661.456C496.756 674.67 460.43 663.51 460.43 663.51C449.964 660.294 423.573 651.812 404.345 627.565Z" fill="#530F0E"/>
<path d="M405.2 630.552C426.229 627.711 447.633 630.855 466.957 639.622C470.283 638.439 489.504 631.912 506.616 640.822C512.9 643.848 518.231 648.545 522.023 654.399C524.084 657.691 525.594 661.296 526.494 665.074C517.379 666.6 508.161 667.436 498.92 667.574C483.883 667.799 465.5 668.074 445.412 659.937C436.522 656.334 420.432 648.305 405.2 630.552Z" fill="#EB7B7F"/>
<path d="M390.854 606.515C387.918 599.668 388.823 595.693 389.67 593.615C391.97 587.98 398.116 585.809 399.412 585.351C406.47 582.858 413.086 585.126 421.839 588.545C438.145 594.912 444.818 598.612 454.617 602.688C464.75 606.844 475.182 610.232 485.823 612.824C499.27 616.311 508.772 618.776 521.304 619.524C545.868 620.982 557.359 614.364 564.583 622.138C569.259 627.169 568.657 634.476 568.568 635.554C567.71 645.969 557.942 652.521 552.054 656.348C543.361 661.998 529.926 667.857 504.777 668.419C485.902 668.84 463.027 669.351 437.541 656.262C437.541 656.258 405.024 639.556 390.854 606.515Z" stroke="black" stroke-width="2" stroke-miterlimit="10"/>
<path d="M405.145 629.457C414.531 628.047 424.071 627.979 433.476 629.257C441.261 630.324 449.865 631.588 459.415 637.039C464.246 639.802 468.658 643.243 472.515 647.255" stroke="black" stroke-width="2" stroke-miterlimit="10"/>
<path d="M462.775 639.117C469.307 637.049 476.157 636.165 483 636.506C488.179 636.772 503.348 637.777 516.033 649.406C521.059 654.051 525.047 659.706 527.733 666" stroke="black" stroke-width="2" stroke-miterlimit="10"/>
<path d="M598.438 623.494C600.792 630.9 600.897 638.838 598.741 646.303C596.585 653.769 592.263 660.428 586.323 665.439" stroke="black" stroke-width="2" stroke-miterlimit="10"/>
<path d="M383.141 560.015C378.703 562.205 374.605 565.027 370.976 568.393C358.654 579.851 355.463 594.359 354.504 600.428" stroke="black" stroke-width="2" stroke-miterlimit="10"/>
<path opacity="0.14" d="M367.936 435.649C372.416 445.6 379.074 454.417 387.419 461.449C404.386 475.672 422.788 477.608 429.183 478.191C439.783 479.158 459.412 480.947 476.069 467.447C491.6 454.859 494.863 436.83 495.645 431.247C489.466 437.908 473.428 453.321 447.959 458.521C404.82 467.33 371.967 439.217 367.936 435.649Z" fill="#080000"/>
<path opacity="0.14" d="M544.2 429.042C542.7 430.325 551.614 448.461 568.745 460.442C573.367 463.675 591.174 475.723 615.402 472.631C640.062 469.484 654.383 452.822 658.827 447.651C663.94 441.686 668.092 434.961 671.134 427.718C666.66 432.907 648.961 452.192 619.129 456.278C616.478 456.641 588.275 460.103 562.986 443.943C551.374 436.527 545.287 428.109 544.2 429.042Z" fill="#080000"/>
<path opacity="0.11" d="M467.244 913.155C568.632 913.155 650.823 900.489 650.823 884.866C650.823 869.242 568.632 856.577 467.244 856.577C365.856 856.577 283.665 869.242 283.665 884.866C283.665 900.489 365.856 913.155 467.244 913.155Z" fill="#080000"/>
</svg>
