<svg width="509" height="134" viewBox="0 0 509 134" fill="none" xmlns="http://www.w3.org/2000/svg">
<path d="M348.669 75.2999L346.969 61.7999C346.84 60.7729 346.792 60.2209 346.775 60.0099L346.892 57.4929L347.027 55.9749C347.327 52.0069 347.356 51.1198 347.356 50.4968C347.356 49.6668 347.309 48.5539 346.708 42.5369L345.63 31.7289H331.384C331.113 31.7289 330.776 31.7109 330.323 31.6799C329.819 31.6473 329.321 31.6309 328.828 31.6309C327.959 31.6308 327.091 31.6815 326.228 31.7828L323.67 31.9669V2.42493L309.889 4.49292C308.579 4.69378 307.256 4.79703 305.931 4.80188C305.423 4.80188 304.231 4.77193 301.825 4.57593L300.843 4.43689L300.538 4.40894C297.981 4.17794 295.799 4.06482 293.865 4.06482C291.931 4.06482 289.745 4.17794 287.19 4.40894L276.33 5.39392L276.197 30.9299L273.35 31.1898C271.585 31.3518 269.725 31.4338 267.821 31.4338C265.395 31.4338 264.654 31.3668 264.593 31.3608L264.225 31.3198L263.856 31.3019C262.877 31.2529 261.916 31.2289 260.999 31.2289C259.55 31.2289 258.153 31.2898 256.843 31.4128C254.078 31.7217 251.344 32.2598 248.668 33.0219L248.554 33.0538L248.446 31.4338H230.511C229.365 31.3952 228.224 31.3755 227.087 31.3749C222.244 31.3732 217.408 31.7329 212.619 32.4509L203.259 33.8639C202.234 33.3799 201.167 32.9345 200.059 32.5278C196.001 31.0577 191.757 30.1641 187.451 29.8729C186.193 29.7239 184.927 29.657 183.661 29.6729C181.776 29.6729 180.411 29.7169 179.307 29.8179C177.669 29.8179 176.812 29.7929 176.397 29.7769L175.871 29.6769H174.686C168.225 29.6088 161.794 30.5491 155.623 32.4639C151.202 33.7543 147.17 36.1194 143.886 39.3479C141.529 37.2336 138.822 35.546 135.886 34.3608L135.572 34.2399C129.745 32.2419 123.609 31.2939 117.451 31.4398C117.219 31.4398 116.988 31.4398 116.758 31.4398C116.722 28.9888 116.658 26.3989 116.569 23.6929C116.409 18.8219 116.297 16.7418 116.209 15.6478V14.5979C116.209 10.1729 113.577 4.34792 106.16 2.49792C104.78 2.17337 103.382 1.92362 101.975 1.74988C98.666 1.32302 95.3324 1.1156 91.996 1.12891C87.5539 1.10026 83.1208 1.53292 78.7681 2.41992L69.2541 4.43494V7.81091L67.4261 0.648926L57.3361 1.46289C51.6131 1.92489 45.6511 2.16284 39.6141 2.16284H38.7321C36.2981 2.13241 33.8649 2.27081 31.4501 2.5769L23.829 3.66089L21.6371 11.0409C17.8291 23.8639 14.699 36.2349 12.337 47.8109C10.008 59.2049 7.53708 72.7108 4.98907 87.8768L1.75006 106.432C1.31906 108.918 0.987071 111.224 0.760071 113.3C0.554735 114.874 0.433525 116.457 0.397034 118.044L0.469055 129.952L12.3771 130.044C12.7261 130.044 14.7391 130.096 25.9951 130.615C30.1681 130.891 31.5791 130.928 32.4081 130.928C34.6718 130.973 36.9344 130.797 39.1641 130.403L44.1281 129.414L46.2191 126.196L46.9821 128.269L53.47 129.639C58.9255 130.835 64.4902 131.464 70.0751 131.516C73.5789 131.521 77.0768 131.226 80.5301 130.633H84.3301L94.608 130.923L94.946 130.928C98.5816 130.951 102.214 130.712 105.815 130.211L109.298 129.699C111.488 130.23 113.734 130.495 115.987 130.486C117.345 130.503 118.703 130.406 120.045 130.198C129.928 129.117 137.821 125.536 143.517 119.546C143.748 119.303 143.958 119.046 144.183 118.797C145.037 119.856 145.953 120.863 146.927 121.813L147.142 122.02L147.366 122.22C152.852 127.044 159.545 130.288 166.731 131.606L167.831 131.814H168.953C169.939 131.814 171.858 131.861 175.46 132.088C179.073 132.3 181.854 132.403 183.96 132.403C189.448 132.475 194.919 131.768 200.208 130.303C204.598 129.081 208.622 126.8 211.926 123.661C217.494 127.898 224.653 130.051 233.252 130.051C237.137 130.05 241.005 129.528 244.752 128.5C246.346 129.526 248.123 130.235 249.985 130.589C252.038 130.957 254.121 131.121 256.206 131.081C259.637 131.081 263.013 130.922 266.246 130.608C267.628 130.535 269.166 130.497 270.823 130.493L286.323 131.14L286.569 120.048C290.417 123.339 294.914 125.782 299.769 127.22C308.551 129.817 317.676 131.069 326.833 130.935C329.754 130.935 332.686 130.824 335.546 130.605L343.396 130.005L345.971 122.567C347.321 118.553 347.992 114.342 347.955 110.107C347.92 105.844 347.586 101.589 346.955 97.3729H346.93V84.6998L331.572 85.4279C329.056 85.4177 326.546 85.1798 324.072 84.7169C324.089 82.1169 324.102 78.9752 324.112 75.2919L348.669 75.2999Z" fill="#6BCC5A"/>
<path d="M508.771 67.8579C508.899 60.6608 507.322 53.5356 504.171 47.0638C500.692 40.1927 494.844 34.8123 487.708 31.9159L486.808 31.5399L485.858 31.3138C478.578 29.6663 471.132 28.867 463.668 28.9319C455.742 28.9319 449.639 29.5558 444.951 30.8558C442.921 31.4313 440.941 32.1708 439.03 33.0669V29.9929L425.938 31.1929C424.173 31.3549 422.313 31.4369 420.409 31.4369C417.983 31.4369 417.242 31.3699 417.181 31.3639L416.813 31.3229L416.444 31.3049C415.465 31.2559 414.504 31.2319 413.587 31.2319C412.138 31.2319 410.741 31.2929 409.429 31.4159C406.665 31.7249 403.931 32.2631 401.256 33.0249L401.142 33.0569L401.034 31.4369H383.099C381.953 31.3982 380.812 31.3786 379.675 31.3779C374.832 31.3762 369.996 31.7358 365.207 32.4538L354.498 34.0698L355.011 44.8889C355.197 48.8269 355.292 52.3988 355.292 55.5018C355.292 58.3708 355.192 63.3579 355.001 70.3699C354.801 78.6139 354.701 84.8999 354.701 89.0499C354.701 107.75 356.982 117.065 362.846 122.295C368.622 127.433 376.355 130.037 385.829 130.037C389.714 130.036 393.582 129.515 397.329 128.486C398.923 129.511 400.7 130.221 402.562 130.575C404.615 130.943 406.698 131.107 408.783 131.067C412.214 131.067 415.59 130.908 418.823 130.594C420.206 130.521 421.743 130.483 423.401 130.479L438.901 131.126L438.965 128.272C445.744 131.526 453.699 133.172 462.719 133.172C463.558 133.172 464.41 133.158 465.275 133.13C465.496 133.13 465.717 133.13 465.94 133.13C473.338 133.233 480.675 131.773 487.469 128.844C494.886 125.675 500.891 119.909 504.359 112.627L504.634 112.053L504.847 111.453C506.74 106.501 507.77 101.261 507.892 95.9609C507.837 89.8099 506.202 83.7762 503.142 78.4398L508.776 76.6788L508.771 67.8579Z" fill="#6BCC5A"/>
<path d="M70.0671 119.505C65.3154 119.455 60.5817 118.913 55.9421 117.886C55.2547 116.024 54.1757 112.1 52.7051 106.115C51.8317 102.01 50.6514 97.9775 49.1741 94.0499L46.2311 93.9019L43.7311 94.0499C43.3377 95.2273 42.6997 98.1208 41.8171 102.731C41.1311 106.557 40.4444 109.671 39.7571 112.074C39.1097 114.391 38.1179 116.599 36.8151 118.622C35.3558 118.855 33.8784 118.955 32.4011 118.922C31.5184 118.922 29.6054 118.822 26.662 118.622C18.1287 118.229 13.3714 118.033 12.3901 118.033C12.3901 117.544 12.4877 116.391 12.683 114.576C12.8784 112.761 13.1731 110.725 13.5671 108.469L16.8041 89.9288C19.3534 74.7248 21.781 61.4826 24.087 50.2019C26.393 38.9212 29.4094 27.0026 33.136 14.4459C34.9914 14.2229 36.8596 14.1246 38.7281 14.1519H39.61C45.986 14.1519 52.2154 13.9069 58.298 13.4169C59.4754 18.0275 60.5544 22.5642 61.535 27.0269C62.5157 31.4895 63.3988 35.4869 64.1841 39.0189C67.3214 52.6549 69.4301 61.7285 70.5101 66.2399L80.2211 118.475C76.8831 119.181 73.4789 119.526 70.0671 119.505ZM46.3781 45.7869L46.2311 44.3159L45.9371 47.8469C45.6424 55.2036 45.2007 61.0403 44.6121 65.3569L43.2881 75.2158H49.4681C47.3094 55.5972 46.2794 45.7875 46.3781 45.7869Z" fill="white"/>
<path d="M104.571 24.0838C104.718 28.5505 104.792 32.6458 104.792 36.3698L104.644 45.0508C108.814 43.915 113.123 43.3703 117.444 43.4328C122.188 43.3024 126.918 43.9995 131.422 45.4929C135.837 47.2589 139.172 50.9619 141.428 56.6019C143.789 62.8268 144.938 69.4456 144.813 76.1019C144.658 83.0505 143.87 89.9704 142.458 96.7758C141.287 102.218 138.64 107.232 134.806 111.268C130.981 115.292 125.389 117.647 118.032 118.332H118.179C117.449 118.446 116.711 118.496 115.972 118.479C113.805 118.553 111.653 118.096 109.704 117.147C107.755 116.198 106.068 114.786 104.79 113.035V116.714C104.784 117.019 104.715 117.32 104.589 117.599C104.462 117.877 104.28 118.126 104.054 118.332C101.031 118.748 97.9823 118.945 94.9311 118.921L84.4841 118.621H80.3641C80.2661 114.795 80.217 108.615 80.217 100.081C80.217 88.7029 80.3644 76.9318 80.6591 64.7678C81.0497 48.2878 81.2457 34.7505 81.2471 24.1558V14.1508C84.7822 13.4352 88.3823 13.0899 91.9891 13.1208C94.7927 13.1067 97.5942 13.2788 100.375 13.6358C102.926 13.9798 104.201 14.2988 104.202 14.5928V16.2109C104.299 16.9976 104.422 19.6218 104.571 24.0838ZM118.844 64.4738C116.552 62.7153 113.71 61.8292 110.825 61.9738C108.567 61.9738 106.997 62.3172 106.116 63.0039C105.235 63.6905 104.671 65.0642 104.424 67.1248C104.116 70.7946 103.993 74.4777 104.056 78.1599C104.056 85.3219 104.547 90.5451 105.528 93.8298C106.509 97.1144 108.814 98.7578 112.443 98.7598C115.776 98.7598 118.474 96.9204 120.536 93.2418C122.675 89.2413 123.739 84.7546 123.625 80.2198C123.625 76.2978 123.331 73.5511 122.743 71.9798L123.479 72.4218L122.596 71.8338C122.313 68.9965 120.974 66.3694 118.844 64.4738Z" fill="white"/>
<path d="M179.978 41.8138C181.2 41.6867 182.429 41.638 183.657 41.6678C184.493 41.6459 185.329 41.6948 186.157 41.8138C189.498 41.993 192.795 42.6626 195.941 43.8009C198.716 44.7366 201.252 46.2684 203.372 48.2888C206.215 50.5461 208.079 54.0776 208.963 58.8829C209.906 64.4233 210.349 70.0371 210.287 75.6568V80.5128C209.993 88.8508 209.503 95.8645 208.816 101.554C208.129 107.243 206.952 111.069 205.284 113.031C203.207 115.858 200.22 117.884 196.825 118.769C192.631 119.914 188.297 120.459 183.95 120.387C182.083 120.387 179.483 120.289 176.15 120.094C173.011 119.894 170.608 119.794 168.941 119.794C163.863 118.872 159.132 116.583 155.257 113.173C152.157 110.129 149.966 106.282 148.93 102.063C147.697 97.1325 147.103 92.0639 147.164 86.9819L147.016 70.2079C146.723 67.5585 147.042 63.7325 147.973 58.7298C148.904 53.7272 149.861 50.8829 150.843 50.1969C151.921 47.4509 154.741 45.3419 159.303 43.8699C164.282 42.3366 169.471 41.5919 174.68 41.6628C176.442 41.8099 178.211 41.8603 179.978 41.8138ZM171.297 75.4359C171.199 77.1539 171.15 78.4539 171.15 79.3359L171.003 82.2789C171.003 84.7323 170.905 87.4298 170.708 90.3718C170.728 91.3814 170.962 92.3754 171.392 93.2887C171.823 94.202 172.442 95.0141 173.208 95.6719C174.654 96.9989 176.546 97.7338 178.508 97.7308C180.542 97.715 182.549 97.2639 184.394 96.4078C184.983 96.1125 185.719 94.4939 186.601 91.5519L186.748 90.8169C187.233 87.2544 187.528 83.6686 187.631 80.0748C187.652 77.9512 187.455 75.8311 187.042 73.7479C186.696 71.4996 185.699 69.4019 184.173 67.7148C183.481 66.9923 182.646 66.4227 181.721 66.0426C180.796 65.6625 179.802 65.4804 178.802 65.5079C178.012 65.5542 177.225 65.6524 176.448 65.8019C173.995 66.5885 172.572 67.6675 172.181 69.0388L171.593 71.3939C171.492 72.3719 171.395 73.7192 171.3 75.4359H171.297Z" fill="white"/>
<path d="M250.753 112.736L250.459 112.883H250.606C248.106 114.521 245.379 115.785 242.513 116.635C239.51 117.563 236.386 118.035 233.243 118.035C226.769 118.035 221.766 116.466 218.235 113.327C215.488 110.876 214.115 102.783 214.116 89.0479C214.116 85.0272 214.214 78.8965 214.409 70.6559C214.605 63.5926 214.703 58.5405 214.704 55.4999C214.704 52.1665 214.606 48.4392 214.409 44.3179C219.667 43.5302 224.988 43.2346 230.301 43.4349H237.216C237.411 46.3776 237.511 52.0672 237.516 60.5039C237.516 65.9986 237.614 70.9032 237.809 75.2179C237.907 76.4939 237.956 78.1606 237.957 80.2179C238.348 86.7919 239.525 90.9119 241.488 92.5779C242.508 93.0171 243.615 93.2185 244.725 93.1669C245.586 93.1722 246.44 93.0058 247.236 92.6771C248.032 92.3485 248.754 91.8643 249.361 91.2529C250.684 89.9796 251.444 87.8709 251.641 84.9269C251.837 82.1822 251.937 80.1713 251.941 78.8939C251.941 75.5606 251.794 72.1272 251.499 68.5939C251.4 67.4165 251.3 65.6755 251.199 63.3708C251.098 61.0662 251.049 59.0309 251.053 57.2649C250.999 53.0345 251.244 48.8055 251.788 44.6099C253.811 44.0274 255.878 43.6094 257.968 43.3599C259.731 43.21 261.502 43.1853 263.268 43.2859C264.151 43.3839 265.671 43.4329 267.83 43.4329C270.085 43.4329 272.292 43.3349 274.451 43.1389C274.451 54.9096 274.5 63.6398 274.598 69.3298C274.793 82.0832 274.891 91.7456 274.892 98.3169C274.892 103.025 274.794 109.791 274.598 118.617L271.067 118.47C269.007 118.47 267.094 118.519 265.328 118.617C262.385 118.912 259.344 119.059 256.205 119.058C252.77 119.058 251.053 118.715 251.056 118.028C250.832 116.321 250.733 114.6 250.761 112.878L250.753 112.736Z" fill="white"/>
<path d="M311.816 44.6099C316.915 44.4139 321.427 44.1689 325.353 43.8749L327.413 43.7279C328.12 43.6297 328.835 43.6045 329.547 43.6529C330.28 43.7042 330.893 43.7293 331.386 43.7279H334.77C335.161 47.6519 335.357 49.9079 335.358 50.4959C335.358 50.9879 335.26 52.5086 335.065 55.0579L334.918 56.6759L334.77 59.9129C334.806 61.0455 334.904 62.1752 335.065 63.2969H312.11C312.11 78.8969 312.061 88.4612 311.963 91.9899C313.435 93.8566 316.084 95.2296 319.909 96.1089C323.819 97.0014 327.817 97.4459 331.827 97.4339L334.918 97.2869V98.6109L335.065 99.1989V99.0519C335.617 102.705 335.911 106.393 335.947 110.087C335.985 112.986 335.538 115.871 334.623 118.622C332.071 118.817 329.471 118.917 326.823 118.922C318.885 119.06 310.971 117.993 303.353 115.758C296.633 113.649 292.195 110.044 290.038 104.943C289.162 99.7066 288.572 94.4264 288.271 89.1259C287.978 83.8792 287.831 77.8706 287.83 71.0999V63.7439C286.68 63.8404 285.525 63.8647 284.372 63.8169C283.342 63.7689 282.435 63.7446 281.65 63.7439H277.236L277.678 44.321C280.326 44.419 283.808 44.4679 288.124 44.4679L288.271 16.368C290.428 16.1726 292.292 16.0726 293.863 16.0679C295.434 16.0632 297.297 16.1633 299.454 16.368L300.484 16.5149C302.838 16.7149 304.653 16.8149 305.929 16.8149C307.85 16.8105 309.768 16.6629 311.667 16.373V43.1529L311.816 44.6099Z" fill="white"/>
<path d="M403.336 112.736L403.042 112.883H403.189C400.689 114.521 397.962 115.785 395.096 116.635C392.093 117.563 388.969 118.035 385.826 118.035C379.352 118.035 374.349 116.466 370.818 113.327C368.071 110.876 366.698 102.783 366.698 89.0479C366.698 85.0272 366.796 78.8965 366.992 70.6559C367.187 63.5926 367.287 58.5405 367.292 55.4999C367.292 52.1665 367.192 48.4392 366.992 44.3179C372.25 43.5302 377.571 43.2346 382.884 43.4349H389.799C389.994 46.3776 390.092 52.0672 390.093 60.5039C390.093 65.9986 390.191 70.9032 390.387 75.2179C390.484 76.4939 390.534 78.1606 390.535 80.2179C390.926 86.7919 392.103 90.9119 394.066 92.5779C395.086 93.0172 396.193 93.2186 397.303 93.1669C398.164 93.1722 399.018 93.0057 399.813 92.677C400.609 92.3483 401.332 91.8642 401.938 91.2529C403.262 89.9796 404.022 87.8709 404.219 84.9269C404.414 82.1822 404.514 80.1713 404.519 78.8939C404.519 75.5606 404.372 72.1272 404.077 68.5939C403.978 67.4165 403.878 65.6755 403.777 63.3708C403.676 61.0662 403.627 59.0309 403.63 57.2649C403.576 53.0345 403.822 48.8055 404.366 44.6099C406.389 44.0274 408.456 43.6094 410.546 43.3599C412.309 43.2099 414.08 43.1852 415.846 43.2859C416.73 43.3839 418.251 43.4329 420.408 43.4329C422.664 43.4329 424.871 43.3349 427.029 43.1389C427.029 54.9096 427.078 63.6398 427.176 69.3298C427.372 82.0832 427.472 91.7456 427.476 98.3169C427.476 103.025 427.376 109.791 427.176 118.617L423.645 118.47C421.585 118.47 419.672 118.519 417.907 118.617C414.964 118.912 411.923 119.059 408.784 119.058C405.349 119.058 403.632 118.715 403.634 118.028C403.411 116.321 403.313 114.599 403.34 112.878L403.336 112.736Z" fill="white"/>
<path d="M486.176 69.1829C481.132 69.1376 476.105 68.5953 471.167 67.5638C471.286 66.9335 471.335 66.292 471.315 65.6509C471.374 63.7506 470.687 61.9026 469.402 60.5018C468.125 59.1278 466.262 58.5389 463.811 58.7349C462.402 59.1845 461.151 60.0272 460.205 61.1638C459.303 62.2061 458.807 63.5378 458.805 64.9159C458.808 66.5391 459.302 68.1236 460.22 69.4618C461.139 70.8 462.44 71.8296 463.954 72.4159H463.808C469.836 73.2041 475.789 74.4837 481.608 76.2418C485.649 77.3993 489.242 79.7601 491.908 83.0099C494.418 86.869 495.794 91.3552 495.88 95.9579C495.743 99.8883 494.947 103.768 493.526 107.435C491.272 112.141 487.372 115.858 482.563 117.882C477.058 120.223 471.106 121.329 465.127 121.12C454.435 121.511 445.877 119.352 439.452 114.645C433.027 109.938 429.815 103.218 429.814 94.4858C433.817 93.9915 437.846 93.746 441.879 93.7509L456.005 94.0509C456.029 95.1634 456.291 96.2579 456.774 97.2604C457.257 98.2628 457.95 99.15 458.805 99.8619C460.417 101.325 462.514 102.138 464.69 102.144C465.467 102.143 466.236 101.979 466.946 101.662C467.656 101.345 468.291 100.882 468.81 100.304C469.411 99.6421 469.866 98.8612 470.145 98.012C470.424 97.1627 470.521 96.2641 470.429 95.3749C470.723 92.8249 469.938 91.0346 468.075 90.0039C465.42 88.709 462.597 87.7927 459.687 87.2819L457.48 86.8398C454.367 86.2279 451.314 85.3418 448.357 84.1919C443.415 82.4574 439.058 79.3744 435.777 75.2919C432.95 71.8706 431.368 67.5906 431.29 63.1528C431.326 58.5386 432.934 54.0747 435.851 50.4989C438.973 46.5202 443.316 43.6769 448.211 42.4059C451.744 41.4259 456.894 40.9352 463.66 40.9338C470.192 40.8663 476.71 41.5576 483.082 42.9939C487.59 44.7736 491.284 48.1527 493.457 52.4849C495.759 57.277 496.893 62.5461 496.767 67.8608L494.412 68.5969C491.686 69.0092 488.933 69.2051 486.176 69.1829Z" fill="white"/>
</svg>
