<svg width="456" height="168" viewBox="0 0 456 168" fill="none" xmlns="http://www.w3.org/2000/svg">
<path d="M455.38 90.1079C455.191 82.0524 454.269 74.0311 452.624 66.1431C451 58.6864 447.363 51.8175 442.109 46.283C436.496 40.383 428.569 36.9001 418.541 35.9231C416.193 35.5823 413.824 35.4031 411.451 35.387C409.949 35.3824 408.451 35.5346 406.98 35.8411L406.913 35.7729L385.327 35.384L381.119 35.5459H368.063L367.941 40.23C365.454 38.4586 362.734 37.0392 359.858 36.012C355.787 34.5384 351.528 33.6482 347.207 33.3679C345.983 33.2169 344.75 33.1501 343.517 33.168C341.204 33.168 339.875 33.2369 338.999 33.3259C336.623 33.3259 335.611 33.2861 335.218 33.2661L334.734 33.166H333.834C327.276 33.0934 320.746 34.0434 314.48 35.9819C312.509 36.6044 310.601 37.4099 308.78 38.3879C306.881 37.048 304.649 36.2592 302.33 36.1089C300.714 35.9449 298.506 35.864 295.582 35.864C290.135 35.7836 284.695 36.2831 279.353 37.354C278.008 36.2994 276.417 35.602 274.73 35.3269C273.543 35.1367 272.341 35.0509 271.139 35.0701C268.286 35.0742 265.437 35.2549 262.606 35.6111C260.275 35.8876 257.93 36.025 255.583 36.0229C253.475 35.9761 251.372 35.8091 249.283 35.5229C249.231 30.8779 249.204 26.7879 249.204 23.2959V5.19604L242.055 3.68311C237.628 2.78319 233.119 2.34505 228.601 2.37598C225.173 2.36161 221.748 2.57437 218.348 3.01294C216.978 3.1808 215.618 3.42261 214.274 3.73706C206.79 5.60606 206.411 11.764 206.411 12.98V14.425C205.877 22.439 205.617 27.4719 205.617 29.8049C205.617 31.7659 205.628 33.5479 205.651 35.1699C204.223 35.1033 202.72 35.0701 201.142 35.0701C194.959 34.9136 188.797 35.854 182.942 37.8479L182.709 37.938C181.267 38.5164 179.88 39.225 178.566 40.0549C177.151 38.2139 174.695 36.5449 170.427 36.1089C168.811 35.9449 166.603 35.864 163.679 35.864C158.232 35.7836 152.792 36.2831 147.45 37.354C146.105 36.2994 144.514 35.602 142.827 35.3269C141.64 35.1367 140.438 35.0509 139.235 35.0701C136.383 35.0742 133.533 35.2549 130.703 35.6111C128.372 35.8876 126.027 36.025 123.68 36.0229C122.057 35.9948 120.437 35.8828 118.825 35.687L118.402 22.1699L118.387 21.9629C118.125 18.5839 118.097 17.3291 118.097 16.9451V16.6931L118.082 16.4409C117.982 14.7259 117.937 12.492 117.937 9.80298V0.947998L73.8251 0.147949L73.561 9.05688C73.447 12.8719 73.5031 17.2669 73.7241 22.1169L73.889 24.772C74.089 28.189 74.1891 30.9479 74.1891 32.9719V38.5559C74.0951 38.1459 74.003 37.7481 73.907 37.3301C73.063 33.5361 72.1147 29.2417 71.0621 24.447C69.9811 19.535 68.783 14.4969 67.501 9.4729L65.6191 2.10205L58.0381 2.71509C51.7661 3.22309 45.2281 3.47998 38.6061 3.47998H37.6541C35.2143 3.44756 32.7751 3.58354 30.3541 3.88696L24.6271 4.7019L22.98 10.2471C18.903 23.9791 15.5551 37.2119 13.0291 49.5779C10.5291 61.7969 7.87008 76.312 5.11908 92.718L1.63007 112.7C1.17707 115.315 0.830046 117.721 0.597046 119.861C0.394829 121.419 0.271714 122.985 0.228088 124.555L0.245056 133.555L9.24506 133.574C9.68806 133.574 12.0281 133.637 24.1371 134.195C28.5621 134.488 30.037 134.526 30.837 134.526C33.0217 134.573 35.2059 134.409 37.3591 134.036L41.0891 133.293L43.1611 130.104C44.508 128.022 45.6258 125.8 46.4951 123.478C47.1041 125.614 47.495 126.765 47.774 127.52L49.4971 132.191L54.368 133.22C59.9858 134.455 65.7164 135.106 71.4681 135.161C71.7801 135.161 72.0891 135.154 72.4001 135.149L72.1381 138.667L84.6671 134.947C86.4611 134.475 88.3126 134.258 90.1671 134.303C90.7521 134.303 91.3671 134.319 91.9991 134.35C93.5571 134.468 95.983 134.526 99.399 134.526C101.901 134.555 104.403 134.418 106.887 134.115V135.868L116.729 134.968C118.75 134.782 120.929 134.688 123.205 134.688C125.962 134.688 127.043 134.767 127.379 134.801L127.66 134.829L127.942 134.84C129.154 134.886 130.304 134.909 131.36 134.909C133.06 134.909 134.548 134.852 135.902 134.732C138.733 134.432 141.534 133.89 144.272 133.11L150.951 131.317V124.4C150.951 109.091 150.736 94.681 150.313 81.615C150.298 81.1685 150.307 80.7215 150.339 80.2759C150.557 80.2569 150.822 80.2439 151.139 80.2439C152.884 80.259 154.626 80.375 156.358 80.5911L162.69 82.1189C162.908 89.2755 163.778 96.3975 165.29 103.396C166.938 110.96 170.644 117.922 176 123.512C181.591 129.318 189.359 132.777 199.1 133.797V133.805C200.622 133.993 202.155 134.076 203.688 134.052C206.147 134.069 208.594 133.704 210.94 132.968L211.705 133.731L215.194 133.884C222.483 134.206 228.331 134.369 232.576 134.369H232.749L236.875 134.211H238.796V135.871L248.637 134.971C250.658 134.785 252.837 134.691 255.113 134.691C257.87 134.691 258.951 134.77 259.288 134.804L259.568 134.832L259.85 134.843C261.063 134.889 262.213 134.912 263.269 134.912C264.969 134.912 266.456 134.855 267.81 134.735C270.642 134.435 273.442 133.892 276.181 133.113L282.86 131.32V124.4C282.86 109.091 282.644 94.681 282.221 81.615C282.207 81.1685 282.215 80.7215 282.247 80.2759C282.465 80.2569 282.73 80.2439 283.047 80.2439C284.792 80.259 286.534 80.3751 288.265 80.5911L295.065 82.231L295.143 91.1089C295.082 97.3529 295.821 103.579 297.343 109.635C298.88 115.777 302.09 121.373 306.617 125.8L306.778 125.956L306.946 126.103C312.338 130.842 318.914 134.029 325.975 135.323L326.804 135.479H327.648C328.769 135.479 330.93 135.532 334.898 135.779C338.715 136.002 341.639 136.111 343.837 136.111C349.385 136.187 354.915 135.477 360.263 134.001C363.271 133.14 366.109 131.769 368.653 129.947C368.742 136.454 368.788 141.98 368.788 146.459V164.214L375.329 166.081C378.429 166.967 382.497 167.381 388.121 167.381C391.528 167.391 394.933 167.213 398.321 166.85C403.021 166.327 405.521 165.633 407.548 164.29L411.448 161.704L411.579 157.03C411.679 153.579 411.82 150.93 412.008 149.157L412.04 148.862L412.052 148.562C412.27 143.074 412.376 139.426 412.376 137.41C412.376 136.416 412.371 135.474 412.361 134.585C413.783 134.652 415.28 134.685 416.851 134.685C423.033 134.841 429.193 133.9 435.046 131.907L435.279 131.818C442.397 128.971 447.717 123.25 451.095 114.811C454.065 107.032 455.524 98.757 455.395 90.4309V90.269L455.38 90.1079ZM205.839 93.688C205.787 93.601 205.733 93.5089 205.677 93.4089C204.125 90.4387 203.373 87.1161 203.493 83.7671C203.396 81.8224 203.533 79.873 203.9 77.9609L203.872 78.042L199.103 76.2561L204.355 76.6289C204.406 75.5931 204.779 74.5994 205.424 73.7871C205.719 73.5564 206.06 73.3924 206.424 73.3069C206.504 75.0249 206.57 77.6289 206.57 81.5449C206.647 85.6055 206.403 89.666 205.839 93.688ZM414.328 88.6819C414.18 89.8709 413.95 91.505 413.647 93.5229C413.585 94.4218 413.24 95.2779 412.661 95.968C412.336 96.2149 411.961 96.3857 411.561 96.468C411.48 94.716 411.418 92.1051 411.418 88.2141C411.34 84.1535 411.585 80.093 412.149 76.071C412.201 76.158 412.256 76.2511 412.312 76.3511C413.863 79.3211 414.616 82.6433 414.495 85.9919C414.495 86.8912 414.439 87.7895 414.328 88.6819Z" fill="#1F9606"/>
<path d="M71.47 126.146C66.344 126.093 61.2373 125.508 56.2321 124.401C55.4914 122.391 54.3278 118.158 52.7411 111.701C51.1531 105.142 49.8831 100.804 48.9311 98.686L45.756 98.5271L43.0561 98.686C42.6308 99.956 41.9427 103.078 40.9921 108.051C40.2501 112.178 39.5094 115.537 38.7701 118.13C38.0703 120.63 37 123.01 35.595 125.193C34.0205 125.442 32.4267 125.548 30.8331 125.51C29.8811 125.51 27.8177 125.404 24.6431 125.193C15.4371 124.769 10.3037 124.557 9.24304 124.558C9.24304 124.03 9.34904 122.787 9.56104 120.828C9.77304 118.869 10.0904 116.674 10.5131 114.241L14.0051 94.241C16.7551 77.841 19.3741 63.5557 21.8621 51.385C24.3501 39.2143 27.6037 26.3579 31.623 12.8159C33.6243 12.5746 35.6396 12.4685 37.6551 12.498H38.6071C45.4844 12.498 52.2037 12.2334 58.7651 11.7041C60.0351 16.6788 61.1991 21.5727 62.2571 26.386C63.3151 31.1993 64.2674 35.5117 65.1141 39.323C68.4994 54.031 70.7744 63.8187 71.9391 68.686L82.415 125.033C78.8171 125.795 75.1477 126.168 71.47 126.146ZM45.9161 46.626L45.756 45.0391L45.4401 48.8479C45.1221 56.7812 44.6457 63.0774 44.011 67.7361L42.5831 78.3701H49.2491C46.9198 57.2081 45.8087 46.6266 45.9161 46.626Z" fill="#F9FFE9"/>
<path d="M109.245 68.8469L109.086 77.7361C108.872 87.4694 108.766 94.7693 108.768 99.636C108.768 108.739 108.98 116.729 109.403 123.604C108.553 124.507 107.387 125.046 106.149 125.111C103.914 125.414 101.659 125.547 99.4041 125.511C96.1227 125.511 93.8477 125.458 92.579 125.353C89.0584 125.081 85.517 125.402 82.1031 126.305C82.6311 119.217 82.8957 112.074 82.897 104.877C82.897 100.433 82.791 93.8724 82.579 85.1951C82.3664 78.0011 82.2604 71.7581 82.261 66.4661C82.261 58.6367 82.5787 51.0701 83.2141 43.7661C84.4749 43.5724 85.7476 43.466 87.0231 43.448C87.767 43.4328 88.5108 43.486 89.2451 43.6069C95.8051 43.9236 100.938 44.0294 104.645 43.9241L109.565 44.718C109.563 50.2234 109.456 58.2663 109.245 68.8469ZM109.086 16.947C109.086 18.0057 109.192 19.9102 109.403 22.6609L109.721 32.8201C109.396 33.1592 108.999 33.4206 108.56 33.5854C108.12 33.7502 107.649 33.814 107.181 33.772C106.172 33.752 105.165 33.6725 104.165 33.5339C103.113 33.3908 102.053 33.3113 100.991 33.2959C99.7211 33.2959 97.7107 33.1903 94.9601 32.979C93.9007 32.8743 92.1007 32.8214 89.5601 32.8201C86.8074 32.8201 84.6911 32.873 83.2111 32.979C83.2111 30.7557 83.1054 27.8457 82.894 24.249L82.735 21.709C82.521 17.0537 82.468 12.9271 82.576 9.3291L108.924 9.80493C108.926 12.6596 108.98 15.0394 109.086 16.9441V16.947Z" fill="#F9FFE9"/>
<path d="M144.082 47.8159C144.825 47.4662 145.594 47.1746 146.382 46.9431C150.826 45.5691 156.593 44.8812 163.682 44.8799C168.865 44.8799 171.457 45.1444 171.459 45.6731L171.3 53.927L171.459 75.355L167.174 73.926L157.967 71.7041C155.704 71.4056 153.425 71.2466 151.142 71.228C147.862 71.228 145.376 72.0216 143.683 73.6089C141.99 75.1962 141.197 77.9474 141.302 81.8621C141.723 94.8781 141.935 109.058 141.937 124.401C139.704 125.04 137.421 125.492 135.112 125.75C132.841 125.914 130.562 125.941 128.287 125.829C127.228 125.722 125.535 125.669 123.207 125.67C120.668 125.67 118.234 125.776 115.907 125.988C115.907 113.29 115.854 103.872 115.748 97.7351C115.535 83.9798 115.429 73.5567 115.431 66.4661C115.431 61.2827 115.537 53.9287 115.748 44.4041C121.059 45.1986 126.454 45.252 131.779 44.563C134.253 44.2492 136.745 44.0898 139.239 44.0859C141.039 44.0859 141.939 44.245 141.939 44.563L142.097 48.3721V48.53C142.784 48.3707 143.451 48.1309 144.082 47.8159Z" fill="#F9FFE9"/>
<path d="M219.555 11.9451C222.555 11.559 225.577 11.3731 228.602 11.3889C232.492 11.3563 236.376 11.7287 240.189 12.5V23.293C240.189 33.3477 240.401 48.0034 240.824 67.26C241.142 79.112 241.301 91.7571 241.3 105.195C241.3 114.401 241.247 121.068 241.142 125.195H236.7L232.574 125.354C228.446 125.354 222.785 125.195 215.59 124.878C215.346 124.656 215.149 124.387 215.012 124.087C214.876 123.786 214.802 123.461 214.796 123.131L214.638 119.481L214.32 119.957C213.042 121.592 211.415 122.92 209.558 123.846C207.712 124.671 205.707 125.077 203.686 125.036C202.573 125.055 201.46 125.002 200.353 124.878H200.511C192.679 124.139 186.674 121.599 182.496 117.259C178.277 112.849 175.364 107.354 174.083 101.387C172.538 94.1317 171.714 86.7414 171.623 79.324C171.488 72.145 172.727 65.0064 175.274 58.293C177.707 52.209 181.304 48.2144 186.067 46.3091C190.926 44.6981 196.029 43.946 201.146 44.0869C205.792 43.9565 210.435 44.4371 214.955 45.5161L214.796 39.96C214.69 37.316 214.637 33.93 214.638 29.802C214.638 27.686 214.902 22.6596 215.431 14.7229V12.9771C215.429 12.6591 216.804 12.3151 219.555 11.9451ZM194.477 83.7671C194.355 88.6589 195.503 93.4987 197.81 97.814C200.032 101.782 202.942 103.766 206.54 103.766C210.453 103.766 212.94 101.994 214 98.449C215.06 94.9043 215.589 89.2711 215.587 81.5491C215.653 77.5782 215.519 73.6064 215.187 69.6489C214.92 67.4256 214.312 65.9444 213.362 65.2051C212.412 64.4658 210.719 64.095 208.282 64.093C205.121 63.9466 202.016 64.9629 199.553 66.95C197.331 68.8553 195.955 71.6597 195.426 75.3631V74.887C194.793 76.575 194.477 79.5351 194.477 83.7671Z" fill="#F9FFE9"/>
<path d="M275.981 47.8159C276.724 47.4661 277.493 47.1744 278.281 46.9431C282.726 45.5691 288.493 44.8812 295.581 44.8799C300.765 44.8799 303.358 45.1444 303.359 45.6731L303.199 53.927L303.359 75.355L299.073 73.926L289.867 71.7041C287.604 71.4057 285.325 71.2467 283.042 71.228C279.761 71.228 277.274 72.0216 275.582 73.6089C273.89 75.1962 273.096 77.9474 273.201 81.8621C273.622 94.8781 273.834 109.058 273.836 124.401C271.603 125.04 269.32 125.492 267.011 125.75C264.74 125.914 262.461 125.941 260.186 125.829C259.127 125.722 257.434 125.669 255.106 125.67C252.567 125.67 250.133 125.776 247.806 125.988C247.806 113.29 247.753 103.872 247.648 97.7351C247.434 83.9798 247.328 73.5567 247.33 66.4661C247.33 61.2827 247.436 53.9287 247.648 44.4041C252.958 45.1986 258.353 45.252 263.678 44.563C266.153 44.2491 268.645 44.0898 271.139 44.0859C272.939 44.0859 273.839 44.245 273.839 44.563L273.998 48.3721V48.53C274.685 48.3702 275.35 48.1305 275.981 47.8159Z" fill="#F9FFE9"/>
<path d="M339.549 42.34C340.867 42.2024 342.192 42.1494 343.517 42.1818C344.42 42.1577 345.323 42.2107 346.217 42.34C349.821 42.5332 353.378 43.2551 356.772 44.4829C359.765 45.4927 362.501 47.1451 364.788 49.3239C367.855 51.7592 369.865 55.5686 370.819 60.7519C371.837 66.7285 372.315 72.7846 372.248 78.8469V84.0849C371.931 93.0802 371.402 100.647 370.661 106.785C369.92 112.923 368.65 117.05 366.851 119.166C364.609 122.215 361.387 124.401 357.725 125.356C353.201 126.592 348.525 127.18 343.836 127.102C341.825 127.102 339.021 126.996 335.424 126.785C332.036 126.571 329.444 126.465 327.647 126.467C322.169 125.473 317.065 123.003 312.886 119.324C309.541 116.041 307.178 111.891 306.06 107.34C304.731 102.021 304.093 96.553 304.16 91.071L304.001 72.977C303.684 70.1197 304.027 65.9926 305.032 60.5959C306.037 55.1992 307.07 52.1305 308.132 51.3898C309.295 48.4292 312.337 46.1545 317.258 44.5659C322.629 42.9119 328.226 42.1086 333.845 42.185C335.742 42.341 337.646 42.3928 339.549 42.34ZM330.185 78.6088C330.078 80.4608 330.024 81.8629 330.025 82.8149L329.867 85.989C329.867 88.635 329.761 91.5449 329.549 94.7189C329.571 95.8078 329.823 96.8797 330.289 97.8644C330.754 98.8492 331.422 99.7245 332.249 100.433C333.808 101.864 335.847 102.657 337.963 102.655C340.157 102.637 342.322 102.151 344.312 101.227C344.946 100.909 345.739 99.163 346.692 95.989L346.851 95.195C347.374 91.3524 347.692 87.4844 347.803 83.6079C347.826 81.3171 347.613 79.0302 347.169 76.7829C346.796 74.3577 345.72 72.0951 344.074 70.2748C343.328 69.4954 342.427 68.881 341.429 68.4709C340.431 68.0608 339.359 67.8642 338.28 67.894C337.427 67.9446 336.579 68.0507 335.74 68.2119C333.094 69.0599 331.561 70.224 331.14 71.704L330.505 74.2438C330.396 75.3032 330.29 76.7582 330.185 78.6088Z" fill="#F9FFE9"/>
<path d="M377.8 146.463C377.8 136.515 377.588 121.912 377.165 102.655C376.848 90.5923 376.689 77.8943 376.689 64.561C376.689 55.355 376.742 48.6883 376.848 44.561H381.292L385.419 44.402L403.037 44.7189C403.215 45.8738 403.269 47.0445 403.196 48.2109C404.171 46.9662 405.428 45.9716 406.863 45.3093C408.298 44.6469 409.871 44.3359 411.45 44.402C413.469 44.4192 415.484 44.5781 417.481 44.8779C425.414 45.6199 431.446 48.1594 435.576 52.496C439.711 56.851 442.566 62.2604 443.829 68.131C445.352 75.4716 446.202 82.9357 446.369 90.4308C446.503 97.6101 445.264 104.749 442.718 111.463C440.283 117.547 436.686 121.542 431.925 123.446C427.066 125.057 421.963 125.809 416.846 125.668C412.2 125.799 407.558 125.319 403.037 124.24L403.196 129.795C403.3 131.7 403.353 134.239 403.355 137.414C403.355 139.319 403.249 142.917 403.037 148.207C402.824 150.216 402.665 153.073 402.561 156.778C401.926 157.2 400.18 157.57 397.323 157.889C394.265 158.216 391.192 158.375 388.117 158.365C384.652 158.488 381.185 158.168 377.8 157.413V146.463ZM420.179 71.9418C417.957 67.9738 415.047 65.9899 411.45 65.9899C407.534 65.9899 405.047 67.7621 403.989 71.3068C402.931 74.8515 402.402 80.485 402.402 88.207C402.335 92.1778 402.469 96.1494 402.802 100.107C403.065 102.33 403.673 103.811 404.628 104.552C405.583 105.293 407.275 105.663 409.706 105.663C412.855 105.811 415.952 104.825 418.436 102.885C420.769 100.826 422.242 97.9649 422.563 94.87C422.881 92.7554 423.119 91.0623 423.278 89.7909C423.436 88.5271 423.515 87.2546 423.516 85.9809C423.636 81.0915 422.487 76.2544 420.18 71.9418H420.179Z" fill="#F9FFE9"/>
</svg>
