<svg width="976" height="960" viewBox="0 0 976 960" fill="none" xmlns="http://www.w3.org/2000/svg">
<path d="M329.115 119.57C323.019 118.612 317.298 116.011 312.569 112.046C302.41 103.37 301.14 91.167 300.63 86.264C300.22 82.321 299.201 70.9211 306.217 59.6861C309.532 54.2422 314.19 49.7417 319.745 46.617C328.673 41.717 332.362 44.9391 346.915 40.4261C353.05 38.549 358.934 35.9341 364.439 32.639C372.498 27.75 375.967 23.4631 380.62 19.3321C382.501 17.6621 398.797 3.54006 420.035 1.49106C431.804 0.356057 441.642 3.26102 456.857 7.75302C465.205 10.218 465.08 10.9072 474.188 13.6532C489.746 18.3462 497.805 18.6532 508.903 20.9452C519.844 23.2002 535.009 26.326 549.603 35.609C569.858 48.494 581.29 68.327 584.569 74.014C589.514 82.594 591.481 88.6031 599.22 98.0921C603.61 103.475 609.386 109.399 615 115.158C624.229 124.624 625.91 125.596 628.309 129.643C631.625 135.238 632.917 140.98 633.636 151.627C634.764 168.35 633.123 177.111 632.336 192.897C631.176 216.247 633.836 215.837 632.244 228.897C630.995 239.153 627.591 253.903 617.528 271.297L602.907 264.782C602.848 251.79 602.045 238.811 600.501 225.911C598.085 205.697 595.229 181.8 583.301 154.375C577.866 141.875 570.157 124.556 553.608 106.683C546.664 99.1832 528.708 80.2331 498.808 69.6541C481.341 63.4731 467.008 62.6991 455.229 62.0641C437.052 61.1208 418.833 62.7889 401.129 67.0172C385.306 70.7752 373.819 73.5041 361.119 81.9171C342.922 93.9941 333.535 110.255 329.115 119.57Z" fill="#705654"/>
<path d="M329.8 118.727C322.96 132.531 318.694 147.466 317.211 162.8C314.09 205.583 313.704 241.771 314.145 269.288C314.838 312.411 317.571 334.739 322.363 356.409C329.893 390.458 339.163 407.784 341.715 412.409C349.008 425.633 360.859 446.54 385.308 462.32C396.975 469.817 409.881 475.184 423.424 478.17L457.83 551.908L518.097 473.758C531.165 468.55 543.179 461.011 553.552 451.508C567.545 438.663 574.612 425.75 579.232 417.134C590.396 396.01 596.829 372.71 598.085 348.85C602.216 348.77 606.318 348.147 610.285 346.995C614.759 345.695 624.408 342.744 631.88 333.471C637.299 326.606 640.301 318.144 640.42 309.398C640.68 294.006 631.882 283.705 629.292 280.767C622.62 273.306 613.693 268.23 603.87 266.312C603.509 256.383 602.661 242.454 600.507 225.919C596.378 194.232 593.525 172.209 582.088 148.001C576.328 135.809 562.759 107.992 531.863 86.901C510.945 72.7413 486.677 64.3202 461.484 62.4791C448.811 61.9546 436.117 62.2349 423.479 63.3182C415.669 63.9552 411.401 64.303 406.104 65.223C396.926 66.818 373.961 71.0992 353.214 88.9132C343.56 97.2483 335.609 107.372 329.8 118.727Z" fill="#E6BC9A"/>
<path d="M347.374 158.011C341.515 157.102 323.574 155.343 307.784 167.641C287.618 183.341 288.557 208.241 288.677 210.441C289.901 232.711 305.826 249.076 321.847 256.141C326.266 258.091 345.33 265.791 365.564 256.441C369.834 254.469 384.887 246.782 391.397 229.08C396.921 214.057 392.948 200.915 391.549 196.522C385.719 178.216 369.24 161.4 347.374 158.011Z" fill="white"/>
<path d="M487.766 142.386C481.907 141.477 463.966 139.718 448.176 152.015C428.01 167.715 428.949 192.615 429.069 194.815C430.293 217.086 446.218 233.451 462.239 240.515C466.658 242.465 485.722 250.166 505.956 240.821C510.226 238.849 525.279 231.162 531.789 213.46C537.313 198.436 533.34 185.294 531.941 180.901C526.111 162.59 509.632 145.777 487.766 142.386Z" fill="white"/>
<path d="M445.813 360.163C438.984 360.779 437.413 360.313 426.324 361.08C413.173 361.99 410.024 363.017 408.593 363.526C404.749 364.897 398.068 367.278 394.072 373.003C386.217 384.255 394.065 400.781 394.912 402.503C402.269 417.473 417.612 422.989 429.076 427.112C443.896 432.378 459.832 433.695 475.315 430.934C485.509 429.122 500.739 426.415 513.987 413.585C522.32 405.352 528.172 394.945 530.878 383.548C533.032 375.265 537.178 359.334 528.509 347.321C527.175 345.472 522.909 339.557 515.898 338.226C509.937 337.095 506.74 340.179 494.269 346.026C485.449 350.276 476.266 353.729 466.831 356.344C459.951 358.232 452.918 359.51 445.813 360.163Z" fill="#B41301"/>
<path d="M475.315 430.936C474.536 424.664 475.324 418.296 477.608 412.402C484.57 394.872 503.033 389.119 507.415 387.754C514.944 385.441 522.889 384.814 530.687 385.92C528.099 392.477 524.502 398.588 520.025 404.033C511.425 414.456 501.79 419.633 495.033 423.178C488.759 426.467 482.148 429.069 475.315 430.936Z" fill="#F67579"/>
<path d="M408.02 364.2L411.287 380.193C414.965 381.713 418.971 382.264 422.923 381.793C425.798 381.438 428.58 380.543 431.123 379.156C435.293 381.216 439.993 381.956 444.594 381.277C448.183 380.718 451.585 379.302 454.51 377.149C458.239 378.659 462.329 379.04 466.273 378.245C470.217 377.45 473.84 375.515 476.693 372.678C481.668 373.233 486.698 372.358 491.193 370.156C493.583 368.959 495.769 367.392 497.67 365.513C501.989 364.927 506.13 363.415 509.81 361.08C513.49 358.745 516.623 355.643 518.993 351.986L516.185 337.942C511.949 339.656 505.853 342.083 498.472 344.878C487.204 349.145 471.802 354.978 460.297 358.234C448.613 361.541 431.157 364.965 408.02 364.2Z" fill="white"/>
<path d="M292.823 641.61C285.901 661.403 278.979 681.2 272.056 701C259.465 685.353 249.2 672.129 241.823 662.5C217.877 631.231 193.334 597.286 184.404 584.265C179.164 576.624 176.775 573.353 171.997 566.81C171.602 566.269 168.997 562.71 165.417 558.049C162.2 553.864 160.592 551.772 159.444 550.531C155.762 546.625 151.311 543.524 146.371 541.424C135.435 537.744 128.813 532.44 124.834 528.351C117.534 520.851 106.749 504.721 105.159 498.399C104.739 496.25 103.585 494.314 101.893 492.923C101.153 492.386 100.321 491.989 99.437 491.754C95.9722 496.515 93.6288 501.998 92.5821 507.792C88.9741 528.47 104.368 544.463 106.416 546.524C107.36 548.117 107.634 550.02 107.179 551.815C105.772 555.998 98.869 557.05 95.486 557.604C75.707 560.844 83.892 562.192 61.419 565.344C43.795 567.815 34.998 569.144 28.477 568.094C22.982 567.206 17.269 568.113 11.813 567.011C10.482 566.742 8.33203 566.253 6.58103 567.411C4.16803 569 3.50203 573.052 4.41203 575.952C5.62303 579.813 9.72301 581.931 14.147 583.461C32.818 589.919 52.326 584.203 52.769 585.903C52.903 586.418 51.2781 587.567 44.2281 590.259C36.0106 593.202 27.3465 594.703 18.618 594.696C12.001 594.644 5.83805 593.641 2.96305 597.365C2.13448 598.522 1.641 599.884 1.53691 601.303C1.43281 602.722 1.72211 604.143 2.37303 605.408C4.28903 608.882 9.24302 609.664 14.613 609.88C29.087 610.463 45.2931 606.863 56.4131 603.787C50.9669 607.254 45.2264 610.234 39.258 612.695C34.419 614.68 31.717 615.766 27.695 616.369C23.71 616.969 22.712 616.447 19.195 617.395C16.182 618.208 11.821 619.395 9.56504 623.242C9.05004 624.122 7.41506 627.242 8.63206 630.277C9.45303 632.038 10.8931 633.436 12.678 634.204C19.919 637.823 32.565 633.39 35.589 632.299C48.362 627.69 58.321 624.086 68.436 620.382L70.211 620.835C63.6815 626.56 56.2979 631.229 48.3271 634.675C45.0041 636.075 39.8741 637.929 39.1271 641.791C38.9954 642.935 39.1356 644.094 39.5363 645.174C39.937 646.254 40.5868 647.224 41.433 648.005C44.548 651.051 49.514 650.626 52.427 650.274C77.515 647.242 108.155 632.074 108.155 632.074C113.492 629.431 123.228 624.613 139.223 616.711C140.281 616.862 141.319 617.131 142.318 617.511C149.118 620.111 152.144 627.323 153.009 629.288C160.049 645.276 171.074 659.195 179.921 674.259C185.127 683.123 188.58 688.584 190.145 691.036C195.645 699.651 195.545 698.891 202.085 708.945C210.271 721.545 215.274 730.137 218.097 735.245C220.168 738.996 229.941 756.799 243.433 779.726C248.923 789.056 256.44 801.514 270.544 810.019C279.161 815.219 285.173 815.883 289.176 815.749C297.506 815.47 303.519 811.506 306.601 809.418C316.07 803.002 320.787 794.218 323.101 789.473C331.023 773.218 346.615 730.687 364.151 673.108C342.416 658.493 318.269 647.833 292.824 641.62L292.823 641.61Z" fill="#E6BC9A"/>
<path d="M615.624 650.006C622.534 642.396 630.238 635.546 638.604 629.573C657.091 616.504 678.316 607.825 700.663 604.198L720.382 688.575C723.789 683.525 728.987 675.836 735.392 666.431C743.171 655.01 745.741 651.32 750.243 644.437C763.975 623.437 766.013 618.087 766.886 615.637C769.947 607.037 768.892 605.337 772.2 598.393C775.84 591.031 780.962 584.5 787.245 579.21C798.586 568.949 814.365 553.203 835.068 532.088C838.291 527.214 842.831 523.355 848.16 520.958C851.372 519.571 855.241 517.9 858.411 519.672C862.734 522.087 862.561 529.117 862.538 530.066C862.366 537.082 857.899 542.116 855.425 545.097C848.359 553.765 842.523 563.367 838.081 573.63C842.292 577.631 847.364 580.612 852.908 582.343C859.03 584.204 865.608 584.385 877.794 581.574C891.458 578.421 899.714 574.374 911.116 569.621C918.963 566.347 930.616 561.768 945.383 557.034C947.996 558.357 952.033 560.924 952.562 564.777C952.945 567.571 951.578 571.449 940.9 579.153C931.215 586.076 920.556 591.523 909.271 595.317C918.195 594.444 927.013 592.71 935.603 590.139C943.654 587.71 952.209 587.079 960.144 584.296C962.357 583.52 967.137 581.758 970.46 584.014C971.795 584.998 972.762 586.401 973.206 587.999C974.669 592.721 971.22 596.817 970.913 597.17C974.262 601.823 974.302 605.455 974.155 607.095C973.383 615.684 962.589 623.85 947.104 624.881C947.159 626.789 946.763 628.683 945.948 630.409C943.377 635.696 937.176 637.515 934.735 638.242C901.482 648.142 899.935 653.742 876.154 655.81C854.944 657.602 833.588 655.18 813.318 648.683C798.788 683.735 786.098 712.898 776.174 735.199C745.061 805.12 757.719 770.336 748.66 791.599C744.675 800.292 739.887 808.595 734.36 816.399C726.005 828.388 721.974 830.759 719.4 831.908C708.681 836.693 697.188 831.908 693.631 830.429C678.44 824.106 670.209 810.665 662.901 796.497C646.841 765.358 639.175 738.335 633.711 718.538C628.354 699.12 622.195 676.079 615.624 650.006Z" fill="#E6BC9A"/>
<path d="M366.519 446.221C361.967 445.317 357.281 445.326 352.733 446.247C339.823 448.947 329.941 459.201 320.803 475.755C305.762 503.003 302.971 528.922 300.327 547.391C295.813 578.533 288.851 609.27 279.507 639.318C309.751 644.613 338.571 656.115 364.15 673.098C366.536 669.175 368.922 665.253 371.307 661.33C372.143 673.339 373.251 689.376 374.536 708.309C377.836 756.888 378.182 763.885 378.243 773.198C378.419 799.906 376.056 819.567 373.658 839.515C368.701 880.754 363.916 889.77 360.496 925.015C358.731 943.167 357.996 961.405 358.296 979.64C417.681 1015.33 487.576 1029.39 556.14 1019.44C617.36 1010.32 662.84 982.423 687.769 964.145L689.812 827.987C686.141 825.782 682.719 823.186 679.607 820.244C675.094 815.944 671.267 810.978 668.26 805.517C659.488 789.859 651.975 773.529 645.79 756.68C635.19 726.399 628.545 703.353 627.349 699.18C621.622 679.211 617.329 662.395 614.378 650.29C625.253 640.124 637.345 631.344 650.378 624.151C672.06 612.254 695.933 604.883 720.548 602.487C712.814 585.087 707.633 570.599 704.339 560.618C697.761 540.684 694.332 525.46 683.495 499.991C683.037 498.914 681.665 495.822 678.922 489.639C662.001 451.492 657.36 442.776 652.442 434.762C644.701 422.149 640.742 415.756 634.558 412.751C623.111 407.194 607.917 409.577 598.328 414.251C596.017 415.379 594.91 416.211 578.151 425.333C575.627 426.707 573.551 427.833 572.192 428.567L556.6 449.89L518.1 473.756C507.486 487.885 496.475 502.17 485.066 516.612C476.093 527.959 467.151 539.041 458.24 549.858L423.427 478.168C401.6 473.695 381.71 462.528 366.527 446.221H366.519Z" fill="#52682E"/>
<path d="M369.844 647.075C384.964 649.875 400.994 652.139 417.879 653.609C493.717 660.209 559.59 648.519 609.905 633.776L616.898 665.188C604.445 670.399 591.698 674.878 578.722 678.601C509.398 698.459 448.709 692.257 410.542 688.001C394.909 686.258 382.152 684.173 373.803 682.68C372.483 670.812 371.163 658.944 369.844 647.075Z" fill="#664422"/>
<path d="M375.232 681.849L374.374 682.538L375.293 719.51C395.733 723.249 416.39 725.681 437.139 726.789C513.977 730.889 578.945 716.071 625.839 700.189C623.259 689.816 620.679 679.443 618.098 669.069L617.126 668.319C606.446 671.596 591.39 676.006 573.18 680.643C561.641 683.581 546.749 687.373 532.807 689.986C484.88 698.97 442.145 695.161 416.349 691.037C402.468 688.818 388.737 685.75 375.232 681.849Z" fill="#D7BA92"/>
<path d="M286.83 654.6C284.051 653 281.887 650.517 280.682 647.545C279.883 645.495 279.579 643.286 279.794 641.096L290.986 642.93L286.83 654.6Z" fill="black"/>
<path d="M701.577 605.035C702.727 609.916 703.877 614.797 705.028 619.678C708.845 618.319 712.223 615.953 714.804 612.83C717.386 609.707 719.074 605.944 719.691 601.94L701.577 605.035Z" fill="black"/>
<path d="M301.82 85.8C302.325 80.7378 303.454 75.7574 305.183 70.9728C307.564 64.3898 309.973 57.7259 316.189 53.0129C319.689 50.3609 323.666 49.3339 331.627 47.2809C340.197 45.0699 341.771 45.8638 350.352 43.5358C356.508 41.8648 360.024 40.9119 364.185 38.4909C370.802 34.6429 372.015 31.1799 378.631 25.1169C383.745 20.5644 389.421 16.6859 395.521 13.5758C408.491 7.14084 420.583 6.90501 426.78 6.85001C439.52 6.73701 449.049 9.66594 457.046 12.1239C471.664 16.6169 471.553 19.39 484.56 22.747C496.06 25.715 498.351 24.1159 511.539 26.9469C517.178 28.1589 527.102 30.292 537.372 35.277C539.953 36.53 563.249 48.1938 576.809 72.1918C579.209 76.4388 582.409 83.0388 589.572 95.2738C595.215 104.919 596.757 106.857 598.056 108.343C606.056 117.498 610.456 115.877 617.086 123.858C622.676 130.589 624.586 137.806 626.028 143.27C627.821 150.052 627.972 155.262 628.168 163.982C628.332 171.245 627.903 172.247 627.404 185.306C626.997 195.962 626.684 204.143 626.793 214.806C626.837 219.196 626.954 224.04 626.487 231.006C626.316 235.349 625.779 239.669 624.882 243.922C623.786 248.744 622.172 253.434 620.067 257.909C618.309 261.765 616.238 265.472 613.876 268.991L617.792 271.44C620.499 267.333 622.887 263.025 624.933 258.552C627.649 252.669 629.742 246.518 631.176 240.199C633.171 231.015 632.018 227.738 632.054 210.37C632.059 207.66 632.366 199.388 632.978 182.845C633.202 176.783 633.623 165.8 633.136 151.826C632.936 146.026 632.597 140.326 629.99 133.641C628.42 129.491 626.146 125.642 623.27 122.264C620.458 119.038 618.186 117.628 615.519 115.571C609.278 110.758 605.543 106.002 600.919 100.11C594.633 92.104 595.902 90.591 588.428 78.226C583.507 69.8487 577.744 61.9956 571.228 54.789C565.683 48.4704 559.398 42.8418 552.508 38.0248C542.878 31.4905 532.214 26.6292 520.965 23.6459C514.565 21.8269 517.348 23.207 493.603 18.257C478.536 15.117 474.703 13.9958 470.666 12.5338C465.226 10.5628 462.791 9.19503 455.826 6.99503C450.991 5.42507 446.062 4.15892 441.069 3.20401C435.046 2.10401 425.156 0.289903 413.261 2.3649C403.986 3.99752 395.169 7.5964 387.4 12.9198C382.4 16.4378 380.518 18.9318 365.87 30.5348C363.072 32.8913 359.96 34.8463 356.622 36.3429C352.592 38.0989 350.922 37.9379 342.712 39.7829C337.039 41.0569 338.852 40.905 327.72 43.727C318.377 46.095 316.853 46.2639 314.357 47.9608C313.457 48.5718 310.104 50.9608 306.788 57.2948C301.148 68.0728 301.252 79.48 301.82 85.8Z" fill="#AA8785"/>
<path d="M596.756 264.972C595.436 245.334 592.832 225.803 588.961 206.505C582.496 174.292 578.479 155.183 565.115 133.363C559.458 124.127 548.077 105.98 526.06 91.4042C511.313 81.6402 498.326 77.8041 486.929 74.4371C474.085 70.6421 450.163 63.8371 419.443 67.6371C406.99 69.1761 388.271 71.687 368.16 83.837C341.95 99.675 328.942 122.482 323.372 134.202C328.459 117.559 337.971 102.609 350.892 90.951C359.987 82.9539 370.401 76.5959 381.67 72.16C396.388 66.277 408.757 65.069 433.493 62.651C440.299 61.986 443.786 61.851 445.963 61.806C457.377 61.6329 468.773 62.7665 479.929 65.1842C490.259 67.3642 505.206 70.6431 522.277 80.3981C532.148 86.1344 541.253 93.0959 549.377 101.117C560.435 112.083 569.658 124.754 576.694 138.647C582.077 148.869 586.429 159.601 589.687 170.685C594.337 185.785 595.894 197.11 598.362 215.7C600.062 228.472 601.9 245.44 602.935 265.664L596.756 264.972Z" fill="#D69B7B"/>
<path opacity="0.75" d="M291.693 196.875C294.877 192.259 306.68 176.357 327.92 171.653C351.052 166.53 376.114 176.74 391.891 197.631C389.785 188.287 385.115 179.715 378.404 172.879C371.694 166.044 363.209 161.216 353.905 158.939C350.105 157.968 337.284 154.871 323.124 160.239C299.526 169.193 292.466 193.985 291.693 196.875Z" fill="#D0C9D1"/>
<path opacity="0.75" d="M431.733 181.971C434.916 177.355 446.72 161.454 467.96 156.75C491.091 151.627 516.153 161.837 531.93 182.727C529.825 173.383 525.154 164.811 518.443 157.976C511.733 151.14 503.248 146.313 493.944 144.036C490.149 143.065 477.324 139.967 463.164 145.336C439.566 154.289 432.505 179.081 431.733 181.971Z" fill="#D0C9D1"/>
<path d="M389.073 234.362C387.128 239.598 381.854 251.468 369.383 259.662C344.811 275.803 316.042 262.073 314.436 261.274C314.727 258.424 315.018 255.574 315.308 252.723C319.313 255.591 323.734 257.828 328.417 259.357C345.438 264.885 360.295 258.987 364.033 257.37C374.691 252.676 383.496 244.586 389.073 234.362Z" fill="#D69B7B"/>
<path d="M431.137 208.186C432.758 218.73 437.658 228.495 445.142 236.097C459.667 250.527 478.342 250.42 483.742 250.389C489.636 250.355 502.701 250.28 514.925 240.989C529.749 229.722 532.561 213.089 533.11 209.261C529.666 217.529 524.639 225.045 518.31 231.383C514.429 235.242 510.126 239.438 503.101 242.274C495.755 245.24 489.445 245.101 483.573 244.911C478.453 244.745 468.229 244.411 457.741 239.179C440.069 230.36 433.033 213.311 431.137 208.186Z" fill="#D69B7B"/>
<path d="M638.792 305.25C636.693 314.116 632.321 322.282 626.105 328.943C611.892 344.024 593.238 345.23 588.923 345.398C587.923 354.731 586.094 363.956 583.458 372.965C578.926 388.446 568.425 424.318 535.614 446.642C515.755 460.154 496.268 462.888 482.42 464.832C460.545 467.907 438.258 466.059 417.188 459.422C403.827 455.041 391.135 448.837 379.471 440.986C360.702 428.352 344.776 411.94 332.71 392.8C336.927 404.288 342.499 415.232 349.31 425.4C356.621 436.811 365.648 447.025 376.073 455.684C390.147 467.06 406.541 475.218 424.103 479.584L433.803 497.621C452.314 507.218 473.632 509.93 493.956 505.274L517.008 474.167C519.388 473.284 522.654 471.977 526.421 470.156C538.018 464.434 548.566 456.797 557.621 447.566C571.698 433.266 578.386 418.748 583.143 408.2C591.617 389.297 596.639 369.029 597.97 348.356C602.622 348.762 607.309 348.321 611.804 347.056C620.14 344.738 627.438 339.651 632.498 332.633C640.889 320.754 639.219 308.007 638.792 305.25Z" fill="#D69B7B"/>
<path d="M369.306 450.272C364.981 449.931 360.63 450.123 356.352 450.845C351.843 451.464 347.467 452.82 343.397 454.858C339.735 456.809 335.482 460.058 329.525 469.074C324.542 476.596 320.571 484.742 317.717 493.301C307.291 525.87 301.392 551.813 300.75 551.692C300.189 551.592 302.615 531.416 309.167 507.403C312.982 494.179 318.099 481.365 324.443 469.15C327.843 462.592 330.429 458.484 334.924 454.72C344.205 446.948 355.415 445.826 358.683 445.61C361.129 445.45 363.583 445.501 366.02 445.763L369.306 450.272Z" fill="#879E5A"/>
<path d="M382.49 506.562C381.518 509.125 380.789 511.773 380.312 514.472C379.903 516.807 379.925 517.854 380.541 518.372C381.386 519.079 382.932 518.44 384.668 517.799C387.449 516.774 390.28 515.894 393.152 515.162C394.699 514.745 395.777 514.549 397.661 514.206C406.21 512.697 414.897 512.12 423.57 512.487C429.054 512.836 434.499 513.641 439.849 514.894C440.592 516.125 441.335 517.356 442.077 518.587C438.156 517.596 434.176 516.853 430.162 516.361C421.346 515.05 412.373 515.216 403.612 516.853C399.887 517.603 395.784 518.923 387.578 521.564C383.078 523.013 379.378 524.308 376.815 525.226C376.119 524.798 375.536 524.209 375.115 523.508C372.952 519.8 376.028 513.051 382.49 506.562Z" fill="#879E5A"/>
<path d="M487.56 514.677C492.27 514.019 497.02 513.688 501.775 513.684C509.346 513.483 516.907 514.332 524.245 516.206C530.891 518.134 537.3 520.8 543.352 524.154C544.747 524.936 551.247 528.654 553.976 530.574C554.685 531.074 555.239 531.417 556.345 532.103C558.063 533.169 558.931 533.703 559.402 533.703C561.402 533.73 563.009 529.623 563.529 528.203C566.689 519.564 565.605 512.203 566.129 512.153C566.59 512.111 567.838 517.799 567.581 524.535C567.299 531.917 565.456 534.094 564.508 534.994C563.364 536.12 561.902 536.871 560.32 537.145C556.677 537.684 553.559 535.028 551.913 533.706C551.913 533.706 549.449 531.726 535.328 524C528.822 520.44 523.297 519.439 515.992 518.115C505.912 516.308 495.595 516.256 485.497 517.962L487.56 514.677Z" fill="#879E5A"/>
<path d="M358.243 544.1C351.666 582.322 345.088 620.544 338.511 658.767L364.15 673.096L370.611 660.011C366.489 621.375 362.366 582.738 358.243 544.1Z" fill="#445622"/>
<path opacity="0.26" d="M463.466 656.241C484.608 653.841 503.248 651.295 518.914 648.941C531.838 647.001 545.506 644.779 562.02 638.624C572.057 634.883 578.088 631.574 583.343 627.847C590.784 622.553 597.272 616.033 602.529 608.566C605.557 618.746 608.585 628.926 611.614 639.105C613.896 648.254 616.178 657.402 618.459 666.55C615.91 661.883 612.216 657.94 607.724 655.094C604.697 653.192 601.36 651.834 597.865 651.082C592.538 650.016 587.032 650.251 581.815 651.769C566.395 655.936 478.706 670.674 413.978 662.393C399.467 660.518 385.146 657.385 371.178 653.03C371.08 651.246 370.982 649.462 370.883 647.677C381.22 649.868 392.347 651.799 404.207 653.277C423.86 655.73 443.667 656.721 463.466 656.241Z" fill="black"/>
<path d="M376.835 816.014C376.75 838.33 375.554 856.479 374.465 869.014C371.98 897.614 368.381 916.208 372.172 944.487C373.691 955.819 374.451 961.487 376.758 966.04C381.389 975.183 391.358 985.428 451.958 1002.73C472.077 1008.47 482.136 1011.34 492.217 1013.06C519.15 1017.46 546.592 1017.77 573.617 1013.98C583.804 1012.59 593.907 1010.64 603.88 1008.14C596.644 1010.55 589.006 1012.78 580.973 1014.73C546.452 1022.98 510.728 1024.98 475.502 1020.61C475.502 1020.61 444.745 1017.03 404.944 1003.43C390.589 998.534 378.344 993.109 365.853 984.034C362.553 981.634 359.953 979.507 358.253 978.064C358.048 952.69 359.753 927.338 363.353 902.22C364.378 895.202 365.253 890.36 368.616 869.165C372.2 846.6 375.005 828.187 376.835 816.014Z" fill="#445622"/>
<path d="M567.1 436.434C576.663 430.83 586.538 425.777 596.678 421.301C603.393 418.345 607.346 416.924 612.613 416.601C615.321 416.435 624.95 415.977 633.707 421.989C637.199 424.389 639.5 427.335 643.796 433.453C648.836 440.567 653.284 448.082 657.096 455.923C661.425 462.823 665.763 470.123 670.05 477.823C677.12 490.516 683.221 502.799 688.495 514.473C687.602 511.873 674.024 472.555 661.681 448.933C657.581 441.092 654.304 436.462 647.745 427.203C643.956 421.854 641.445 418.725 637.399 415.858C632.887 412.712 627.712 410.646 622.274 409.821C612.709 408.421 605.313 411.577 594.129 416.53C586.626 419.859 579.488 423.956 572.829 428.756L567.1 436.434Z" fill="#879E5A"/>
<path d="M348.136 663.2C337.878 708.247 326.67 739.868 318.864 759.347C314.114 771.199 306.964 787.696 293.719 790.224C286.035 791.691 279.119 787.916 274.535 785.024C250.524 769.904 239.467 747.124 207.049 694.074C192.421 670.136 186.721 661.763 178.465 647.453C175.207 641.806 171.557 636.394 168.224 630.792C162.61 621.357 160.834 618.092 156.53 614.131C153.357 611.207 148.794 607.004 142.009 606.106C139.609 605.788 135.709 605.721 127.487 609.239C117.238 613.628 112.487 618.183 104.865 623.608C97.7191 628.693 92.105 631.12 81.554 635.683C68.6959 641.201 55.1701 645.011 41.3221 647.014C43.8068 648.688 46.6277 649.799 49.587 650.267C53.843 650.907 57.0641 649.911 60.7661 648.829C74.9791 644.675 71.4851 646.502 80.0261 643.629C86.4014 641.609 92.6317 639.158 98.674 636.292C105.074 633.192 111.754 629.236 130.468 618.866C133.34 617.274 136.868 615.383 140.862 616.266C145.978 617.398 148.835 622.41 150.54 625.357C156.664 635.945 164.015 645.808 169.882 656.542C174.155 664.36 177.528 670.034 184.274 681.383C188.168 687.934 191.219 692.883 200.64 707.883C227.428 750.542 224.889 745.796 229.978 754.45C235.472 763.793 240.336 772.563 249.085 785.632C254.279 793.391 259.309 800.377 267.885 806.879C273.041 810.788 278.509 814.825 286.67 815.663C292.996 816.24 299.35 814.902 304.906 811.822C309.106 809.535 313.563 805.877 320.906 793.633C326.676 784.008 330.465 775.349 338.22 755.006C342.608 743.495 344.802 737.739 347.069 731.215C352.12 716.672 358.298 697.1 364.153 673.096L348.136 663.2Z" fill="#D69B7B"/>
<path d="M7.88104 626.214C9.42771 627.191 11.0969 627.959 12.845 628.498C14.9536 629.127 17.1447 629.436 19.345 629.415C23.2213 629.405 27.0783 628.867 30.8091 627.815C37.0651 626.235 40.1941 625.444 43.5721 624.299C57.8941 619.447 73.9251 616.246 74.0721 616.733C74.1891 617.133 63.3851 619.341 47.7811 625.981C42.4101 628.266 37.6641 629.924 28.1711 633.239C22.0161 635.388 18.533 636.482 14.897 635.02C10.239 633.147 8.11805 628.2 7.27405 625.752" fill="#D69B7B"/>
<path d="M3.44505 598.92C3.59336 599.786 3.90452 600.616 4.36204 601.366C5.46891 603.004 7.1209 604.195 9.02403 604.729C15.941 607.148 28.903 605.579 29.583 605.493C30.768 605.344 34.3771 604.877 44.0281 603.2C49.4721 602.254 53.974 601.421 57.097 600.831C52.1681 603.771 46.8265 605.955 41.25 607.311C40.281 607.543 35.696 608.083 26.526 609.162C21.8065 609.747 17.0462 609.936 12.295 609.728C8.99502 609.577 6.48604 609.257 4.21904 607.509C3.67704 607.091 0.319039 604.498 1.03404 601.665C1.23192 601.07 1.54728 600.52 1.96141 600.048C2.37553 599.577 2.88003 599.193 3.44505 598.92Z" fill="#D69B7B"/>
<path d="M4.82007 572.782C6.26817 574.279 7.85495 575.635 9.55908 576.833C12.0473 578.545 14.7441 579.932 17.584 580.96C20.784 582.124 28.2911 584.332 50.2191 583.56C53.0381 583.46 55.3371 583.339 56.7911 583.254C50.7064 585.139 44.4239 586.314 38.069 586.754C29.279 587.354 23.786 586.297 16.743 584.939C12.922 584.202 10.0711 583.416 7.84308 580.934C5.92347 578.648 4.85522 575.767 4.82007 572.782Z" fill="#D69B7B"/>
<path d="M21.329 569.457C30.7958 571.068 40.4386 571.377 49.9891 570.374C63.0865 568.49 76.0079 565.538 88.6241 561.547C94.4379 559.485 100.096 557.006 105.554 554.132C92.326 558.168 80.96 560.979 72.23 562.923C61.439 565.323 52.1861 567.353 39.5571 568.54C32.0201 569.249 25.722 569.429 21.329 569.457Z" fill="#F7DECB"/>
<path d="M99.4371 491.746C101.332 499.362 104.17 506.712 107.884 513.626C113.317 523.718 118.453 533.257 128.749 538.962C131.517 540.497 133.444 541.08 143.193 546.07C149.323 549.207 151.613 550.538 154.084 552.49C157.619 555.307 160.677 558.675 163.141 562.464C172.499 576.35 192.195 603.293 218.628 639.504C222.181 644.371 226.897 650.819 233.528 659.279C248.328 678.148 261.498 692.794 270.672 702.557C252.799 678.182 234.941 653.79 217.1 629.38C198.695 604.202 180.308 579.007 161.94 553.795L149.953 543.089C144.436 541.714 139.174 539.469 134.362 536.44C129.837 533.511 125.746 529.961 122.21 525.893C111.417 513.882 105.138 499.415 102.148 491.5L99.4371 491.746Z" fill="#F7DECB"/>
<path d="M104.9 601C106.069 596.863 108.326 593.116 111.435 590.147C120.379 581.747 132.688 583.894 134.21 584.186C129.539 584.367 124.947 585.444 120.682 587.358C114.23 590.31 108.755 595.043 104.9 601Z" fill="#F7DECB"/>
<path d="M275.873 706.894L299.03 643.153L292.519 642.48L270.849 700.917C272.523 702.91 274.198 704.902 275.873 706.894Z" fill="#F7DECB"/>
<path d="M631.471 635.766C641.828 680.107 651.825 713.456 658.778 734.943C658.778 734.943 664.078 751.329 677.694 777.705C693.464 808.258 700.681 812.211 706.125 812.556C714.389 813.08 721.187 805.456 726.302 799.256C754.911 764.577 770.19 726.705 777.089 709.873C783.062 695.297 792.326 673.136 804.522 645.795C805.884 645.97 807.993 646.243 810.564 646.59C826.745 648.777 838.125 650.775 840.6 651.176C862.233 654.683 889.1 647.317 902.622 643.61C922.73 638.097 933.794 631.901 939.651 628.248C942.684 626.356 945.108 624.654 946.734 623.47C947.22 625.444 947.143 627.515 946.509 629.447C944.62 634.819 938.279 636.909 932.298 638.972C908.432 647.204 922.747 643.818 907.776 647.951C885.033 654.228 873.661 657.367 863.988 657.481C855.188 657.581 848.333 656.458 839.225 654.959C829.839 653.416 820.569 651.233 811.481 648.425C808.506 655.988 803.73 668.146 797.862 683.149C779.062 731.212 777.462 735.873 771.777 748.149C764.038 764.884 755.445 781.211 746.034 797.066C740.221 806.843 734.966 814.966 730.901 821.042C728.697 824.795 725.67 827.998 722.047 830.409C717.527 833.508 712.166 835.146 706.686 835.104C704.486 835.047 699.65 834.614 691.171 829.31C683.355 824.358 676.54 817.98 671.081 810.51C665.945 803.581 661.781 796.221 653.999 776.979C650.435 768.171 646.906 758.835 639.977 738.654C632.428 716.67 628.653 705.678 625.384 694.169C622.367 683.548 618.531 668.733 615.037 650.616L631.471 635.766Z" fill="#D69B7B"/>
<path d="M691.8 605.938L714.908 698.892L720.383 688.575L701.283 604.851L691.8 605.938Z" fill="#F7DECB"/>
<path d="M691.222 736.434C726.816 687.234 752.795 650.888 760.695 639.676C763.939 635.199 766.778 630.441 769.178 625.46C773.528 616.36 773.462 612.505 776.745 604.824C780.434 596.192 784.93 590.73 790.502 583.959C799.026 573.603 800.243 575.403 813.889 561.49C821.211 554.024 831.542 543.49 838.189 535.58C838.417 535.309 841.666 532.266 848.163 526.18C849.508 524.709 851.204 523.605 853.093 522.97C856.655 521.946 860.028 523.353 861.784 524.27C861.841 523.015 861.516 521.773 860.851 520.708C858.837 517.627 854.387 517.798 853.436 517.865C848.988 518.181 845.936 521.583 844.036 523.655C838.865 529.307 832.872 534.196 827.928 540.048C825.684 542.706 815.178 552.406 794.166 571.804C793.114 572.776 789.482 576.128 784.995 580.918C782.337 583.571 779.872 586.412 777.62 589.418C774.027 594.563 772.293 599.276 769.862 606.026C768.235 610.543 767.462 613.435 766.881 615.312C763.334 626.849 756.601 634.936 752.723 639.903C740.153 656.003 730.804 674.38 719.634 691.482C712.645 702.191 702.809 717.5 691.222 736.434Z" fill="#F7DECB"/>
<path d="M860.022 583.639C874.562 585.765 885.189 583.811 892.113 581.705C898.625 579.724 904.62 576.769 912.902 572.686C921.724 568.604 930.814 565.132 940.11 562.292C942.129 561.507 944.331 561.321 946.453 561.757C949.633 562.548 951.197 564.82 951.953 564.279C952.674 563.766 952.134 561.098 950.612 559.279C948.134 556.325 943.788 556.512 942.782 556.555C940.373 556.691 938.035 557.426 935.982 558.695C930.133 562.16 923.373 563.83 917.333 566.949C909.699 570.89 901.868 574.436 893.87 577.573C883.045 581.618 871.578 583.673 860.022 583.639Z" fill="#F7DECB"/>
<path d="M870.407 598.213C881.892 600.144 893.568 600.683 905.182 599.818C912.629 599.253 920.445 598.66 930.404 595.768C939.204 593.211 948.054 590.794 956.848 588.201C960.147 587.18 963.6 586.753 967.048 586.94C969.132 587.063 971.197 587.417 973.203 587.996C973.054 586.572 972.365 585.26 971.277 584.329C970.605 583.902 969.854 583.611 969.07 583.474C968.285 583.337 967.481 583.355 966.703 583.529C958.728 584.575 954.741 585.098 953.176 585.679C946.439 588.179 939.202 589.133 932.426 591.526C924.177 594.44 907.525 597.568 870.407 598.213Z" fill="#F7DECB"/>
<path d="M877.859 611.588C877.191 611.451 897.354 613.704 916.494 609.295C922.995 607.761 929.39 605.808 935.639 603.449C935.985 603.299 939.439 601.798 944.12 599.896C947.726 598.696 950.783 597.711 953.129 596.958C955.617 596.158 956.893 595.758 958.68 595.31C960.952 594.608 963.3 594.185 965.673 594.049C967.941 594.007 970.203 594.304 972.383 594.932L971.564 598.132C969.659 597.779 967.726 597.603 965.788 597.606C958.914 597.62 954.118 599.922 947.788 602.65C942.522 604.92 936.2 607.65 930.701 609.45C923.904 611.622 916.87 612.965 909.751 613.45C899.087 614.393 888.341 613.765 877.859 611.588Z" fill="#D69B7B"/>
<path d="M945.307 619.957C949.016 619.627 952.651 618.725 956.083 617.282C959.183 615.973 963.92 613.974 967.7 609.104C969.626 606.607 971.03 603.748 971.828 600.697C972.963 601.905 973.761 603.39 974.141 605.004C974.941 608.627 973.136 611.688 972.133 613.384C966.988 622.093 949.833 624.591 948.728 624.741C947.587 623.147 946.447 621.552 945.307 619.957Z" fill="#D69B7B"/>
<path d="M870.14 623.664C876.183 624.982 882.338 625.723 888.521 625.88C902.303 626.184 916 623.647 928.76 618.429C924.058 620.922 919.165 623.036 914.126 624.749C909.585 626.443 904.867 627.617 900.062 628.249C889.856 629.493 879.505 627.908 870.14 623.664Z" fill="#D69B7B"/>
<path d="M870.063 626.377C881.13 630.56 893.179 631.41 904.724 628.823C908.861 627.88 912.679 626.488 920.315 623.702C924.021 622.293 927.812 621.118 931.665 620.186C933.637 619.716 935.284 619.396 936.403 619.193C934.803 619.899 932.535 620.893 929.792 622.059C926.138 623.61 922.592 625.114 918.825 626.53C915.009 628.052 911.104 629.341 907.131 630.39C901.053 632.065 894.726 632.647 888.445 632.109C881.995 631.453 875.743 629.503 870.063 626.377Z" fill="#F7DECB"/>
<path d="M887.241 615.219C894.406 616.143 901.645 616.354 908.851 615.849C915.424 615.348 921.944 614.293 928.34 612.696C939.198 610.011 949.66 605.926 959.465 600.544C954.057 602.638 948.284 604.668 942.154 606.563C931.775 609.772 921.208 612.337 910.513 614.244" fill="#F7DECB"/>
<path d="M10.4761 595.653C13.8153 596.502 17.2337 597.001 20.6761 597.143C26.4346 597.323 32.1841 596.568 37.701 594.908C44.7507 592.997 51.4743 590.041 57.6481 586.138C42.7851 592.649 26.6978 595.894 10.4731 595.653H10.4761Z" fill="#F7DECB"/>
<path d="M10.5911 622.479C12.4561 622.104 15.318 621.564 18.845 621.046C22.812 620.464 24.5341 620.365 26.9271 620.014C31.1646 619.336 35.3293 618.261 39.3661 616.805C45.9423 614.249 51.8869 610.299 56.7911 605.226C53.6736 607.398 50.3978 609.333 46.9911 611.015C42.3208 613.481 37.3498 615.33 32.2031 616.515C25.3401 618.004 22.6371 617.115 16.4391 619.553C14.4075 620.355 12.4506 621.334 10.5911 622.479Z" fill="#F7DECB"/>
<path d="M42.136 639.465C44.376 638.523 46.257 637.879 47.582 637.459C50.941 636.396 52.96 636.071 56.123 634.536C56.123 634.536 57.157 634.036 58.342 633.345C64.026 630.045 70.991 622.237 72.23 620.836C68.945 623.401 66.03 625.442 63.746 626.969C57.618 631.061 54.5541 633.107 52.1681 633.848C49.5182 634.463 47.0077 635.571 44.7681 637.115C43.8172 637.812 42.9358 638.599 42.136 639.465Z" fill="#F7DECB"/>
<path d="M807.641 607.27C809.129 606.33 810.718 605.561 812.379 604.977C820.13 602.26 827.139 604.47 829.958 605.359C836.254 607.406 841.809 611.26 845.931 616.441C844.407 615.536 842.209 614.269 839.511 612.849C835.706 610.773 831.775 608.937 827.741 607.349C824.4 606.184 817.725 604.629 807.641 607.27Z" fill="#F7DECB"/>
<path d="M896.527 596.608C898.878 595.357 902.841 593.286 907.838 590.876C923.566 583.292 926.06 583.676 934.817 578.495C943.417 573.409 948.932 568.357 949.95 569.395C950.655 570.118 948.6 573.151 948.35 573.522C944.74 578.785 938.843 580.638 937.404 581.108C930.665 583.308 920.672 588.162 906.186 596.387L896.527 596.608Z" fill="#D69B7B"/>
<path d="M649.434 763.3C650.453 838.1 651.473 912.898 652.492 987.693C664.262 980 676.032 972.306 687.801 964.612C688.515 919.468 689.228 874.324 689.941 829.181C685.819 826.007 681.936 822.532 678.324 818.787C659.948 799.715 652.615 777.673 649.434 763.3Z" fill="#445622"/>
<path d="M398.827 282.45C398.309 283.805 396.847 288.15 398.827 292.386C400.538 296.048 403.82 297.593 406.393 298.806C410.148 300.576 413.673 300.838 420.57 301.29C427.187 301.723 429.248 301.301 429.283 301.596C429.383 302.48 410.509 303.474 401.654 302.627C400.327 302.5 397.795 302.195 396.198 300.292C395.467 299.421 394.848 298.117 394.776 295.52C394.622 289.977 397.143 285.125 398.827 282.45Z" fill="#D69B7B"/>
<path d="M402.189 473.827C375.809 510.967 372.928 521.727 375.665 524.327C378.68 527.192 387.685 519.543 404.429 516.706C416.811 514.748 429.48 515.754 441.397 519.643" stroke="black" stroke-width="1.5" stroke-miterlimit="10"/>
<path d="M484.032 518.829C493.774 517.029 508.723 515.653 525.139 520.642C546.845 527.237 555.113 540.093 561.77 537.359C568.288 534.683 572.151 517.518 557.57 449.466" stroke="black" stroke-width="1.5" stroke-miterlimit="10"/>
<path d="M424.708 479.736L457.286 552.601C477.453 526.592 497.619 500.582 517.786 474.572" stroke="black" stroke-width="1.5" stroke-miterlimit="10"/>
<path d="M370.611 660.013L365.332 673.303C364.774 672.931 364.215 672.558 363.632 672.185C338.159 655.578 309.423 644.624 279.359 640.058C284.824 620.992 288.426 605.425 290.599 595.344C295.609 572.096 300.639 542.929 309.623 505.481C312.492 494.066 316.783 483.056 322.396 472.711C331.796 455.302 338.791 451.099 341.396 449.754C350.587 445.034 360.11 445.554 365.968 446.504" stroke="black" stroke-width="1.5" stroke-miterlimit="10"/>
<path d="M689.3 829.161C689.507 840.091 689.638 851.132 689.693 862.282C689.838 897.556 689.183 931.809 687.727 965.041C666.15 980.982 642.49 993.888 617.406 1003.4C542.158 1031.9 475.853 1021.35 451.219 1016.19C422.898 1010.23 395.592 1000.19 370.154 986.384C366.241 984.273 362.287 982.037 358.292 979.636C357.752 960.146 358.631 940.642 360.921 921.28C362.557 907.472 364.021 901.427 368.27 875.034C368.27 875.034 372.224 850.441 375.991 822.95C381.105 785.606 376.882 748.241 374.025 700.028C373.28 687.608 372.348 673.945 371.125 659.144C370.814 655.335 370.483 651.464 370.131 647.51C367.399 616.748 363.486 581.536 357.793 542.68" stroke="black" stroke-width="1.5" stroke-miterlimit="10"/>
<path d="M370.884 647.678C394.172 652.486 417.8 655.467 441.552 656.594C497.975 659.14 554.391 651.414 608.052 633.794" stroke="black" stroke-width="1.5" stroke-miterlimit="10"/>
<path d="M372.9 682.463C394.16 687.628 415.803 691.063 437.617 692.733C513.081 698.496 575.759 681.887 617.085 666.433" stroke="black" stroke-width="1.5" stroke-miterlimit="10"/>
<path d="M375.911 718.3C395.198 722.486 414.746 725.359 434.422 726.9C513.159 733.063 579.43 716.665 625.199 700.1" stroke="black" stroke-width="1.5" stroke-miterlimit="10"/>
<path d="M291.1 644.109C284.627 663.411 278.154 682.713 271.68 702.015" stroke="black" stroke-width="1.5" stroke-miterlimit="10"/>
<path d="M363.505 672.667C355.805 702.767 348.489 725.86 343.183 741.451C342.615 743.119 344.137 741.336 330.283 774.034C325.977 784.198 321.257 794.342 314.383 803.057C310.449 808.066 306.558 811.751 300.451 813.821C294.677 815.818 288.478 816.254 282.482 815.084C262.63 810.799 249.858 788.484 240.149 772.626C223.236 745.011 206.199 717.479 189.742 689.616C179.537 672.33 169.132 655.169 158.525 638.132C155.875 633.868 153.225 629.604 150.535 625.36C148.335 621.86 146.726 617.908 142.358 616.893C135.216 615.237 127.784 621.654 121.988 624.863C113.767 629.405 105.301 633.489 96.6291 637.097C85.0581 641.879 48.9141 656.867 41.3171 647.013C40.6856 646.212 40.2271 645.289 39.9705 644.302C39.7138 643.315 39.6647 642.286 39.8261 641.279C40.8891 636.236 48.6851 635.138 56.9901 630.891C63.2932 627.616 68.9022 623.15 73.5071 617.742C66.9851 620.078 62.7601 621.633 59.9891 622.669C58.9571 623.054 57.1701 623.734 54.7011 624.563C51.2111 625.734 49.1831 626.222 40.3231 629.314C24.2231 634.934 20.5931 634.999 18.6901 634.965C15.3791 634.906 12.1821 634.801 9.99008 632.42C8.91786 631.161 8.22043 629.626 7.97701 627.99C7.7336 626.354 7.95393 624.683 8.61306 623.166C11.1181 618.166 19.5221 618.316 25.8871 617.516C34.2491 616.465 46.0511 612.895 59.9931 601.285C51.8483 604.656 43.3592 607.126 34.6771 608.65C29.4808 609.537 24.2142 609.948 18.9431 609.876C8.54308 610.064 5.35312 608.922 3.41812 606.74C2.86012 606.111 0.518086 603.476 1.12509 600.473C1.40042 599.268 2.04212 598.178 2.96206 597.352C6.45306 594.022 12.6111 594.869 16.5621 595.123C21.6621 595.45 26.6361 594.551 36.5861 592.753C44.6287 591.236 52.3025 588.18 59.1861 583.753C54.0863 584.961 48.9109 585.824 43.6951 586.335C39.6328 586.748 35.55 586.927 31.4671 586.87C22.7131 586.7 15.4811 586.47 9.24209 582.034C6.05909 579.77 4.9011 577.668 4.4111 575.941C4.3191 575.616 3.11106 571.147 5.55306 568.841C6.55652 568.022 7.80257 567.559 9.09707 567.522C13.3971 566.964 17.7331 568.246 22.0101 568.522C26.5151 568.815 31.0521 568.928 35.5661 568.822C55.5071 568.351 73.8301 561.792 93.1141 557.69C100.981 556.016 107.291 554.809 108.185 551.127C108.885 548.227 105.638 546.242 101.291 539.827C96.9365 533.563 94.0821 526.38 92.9491 518.836C92.4641 514.953 92.5315 511.021 93.1491 507.157C93.2981 506.275 95.8271 491.797 100.181 491.565C102.619 491.436 103.641 495.882 108.741 505.628C110.305 508.619 120.463 527.769 130.319 533.761C130.993 534.171 137.119 537.834 137.119 537.834C144.108 541.182 148.171 540.554 156.383 548.024C162.2 553.324 166.899 559.782 176.049 572.348C180.065 577.896 182.881 582.036 184.164 583.899C190.478 593.194 197.516 602.757 211.613 621.927C232.562 650.412 250.922 674.644 271.687 702.018C277.861 710.157 282.921 716.807 286.178 721.084" stroke="black" stroke-width="1.5" stroke-miterlimit="10"/>
<path d="M587.83 559.157L615.037 650.612C621.368 643.998 628.28 637.964 635.688 632.583C667.206 609.707 700.552 603.999 720.543 602.483C717.248 609.665 711.834 615.667 705.028 619.683" stroke="black" stroke-width="1.5" stroke-miterlimit="10"/>
<path d="M570.13 432.242C575.44 427.567 581.268 423.518 587.502 420.173C595.022 416.143 611.384 407.262 625.854 410.339C637.594 412.839 645.712 422.287 656.995 441.807C677.745 477.707 685.807 507.186 697.313 540.801C702.249 555.221 709.895 576.468 720.587 602.101" stroke="black" stroke-width="1.5" stroke-miterlimit="10"/>
<path d="M279.362 640.062C280.196 645.701 282.877 650.903 286.985 654.854" stroke="black" stroke-width="1.5" stroke-miterlimit="10"/>
<path d="M615.037 650.612C622.547 689.084 634.249 726.443 648.737 762.835C658.009 786.135 667.357 814.146 689.088 829.016C698.516 835.467 711.408 837.931 721.075 830.792C730.282 823.992 736.632 813.164 742.575 803.63C764.481 768.481 776.505 737.551 784.123 718.076C789.357 704.696 798.73 680.828 811.166 649.731" stroke="black" stroke-width="1.5" stroke-miterlimit="10"/>
<path d="M804.522 645.8C824.082 653.773 845.124 657.462 866.23 656.618C884.305 655.86 896.108 651.902 919.714 643.985C939.123 637.476 946.796 632.673 947.229 626.865C947.289 625.343 946.974 623.83 946.311 622.459C945.648 621.088 944.659 619.901 943.429 619.003C939.56 616.324 934.279 618.261 926.75 620.751C914.961 624.651 905.488 627.312 903.438 627.851C896.174 629.77 885.355 630.61 870.331 625.228" stroke="black" stroke-width="1.5" stroke-miterlimit="10"/>
<path d="M903.329 596.979H903.35C911.444 593.667 928.791 586.359 942.95 577.955C946.325 575.947 951.5 572.697 952.431 567.255C952.931 564.316 952.245 560.362 949.658 558.355C945.993 555.519 940.032 557.796 934.691 559.908C920.991 565.352 914.155 568.064 905.047 572.452C898.299 575.702 873.354 586.943 851.639 581.312C848.596 580.526 839.715 578.207 838.539 572.784C837.959 570.155 839.429 567.753 840.174 566.553C851.332 548.753 865.636 535.48 863.442 525.917C863.256 525.109 862.366 521.217 859.178 519.354C857.562 518.533 855.743 518.195 853.94 518.381C844.94 519.189 820.715 547.321 806.74 561.315C790.84 577.215 782.582 580.401 774.281 596.383C770.493 603.69 771.963 603.504 767.409 614.413C759.377 633.561 752.214 640.413 732.983 670.14C726.814 679.683 727.973 678.317 719.883 691.11C710.216 706.367 696.139 727.916 677.591 754.062" stroke="black" stroke-width="1.5" stroke-miterlimit="10"/>
<path d="M971 598.863C971.477 598.297 971.9 597.687 972.263 597.041C974.105 593.832 975.263 588.678 973.257 585.883C968.93 579.921 951.169 586.711 938.189 590.483C926.808 593.779 915.133 595.956 903.329 596.983C892.026 598.001 880.661 598.132 869.338 597.376" stroke="black" stroke-width="1.5" stroke-miterlimit="10"/>
<path d="M947.194 625.588C953.168 623.943 958.928 621.602 964.355 618.611C970.214 615.341 972.78 612.877 973.733 609.565C974.623 606.465 974.292 602.009 971.994 599.649C971.697 599.346 971.363 599.082 971 598.863C964.459 594.681 949.016 603.955 931.627 609.172C919.393 612.836 901.921 615.817 878.84 612.772" stroke="black" stroke-width="1.5" stroke-miterlimit="10"/>
<path d="M808.7 608.183C812.8 607.203 823.573 605.238 834.923 610.478C838.8 612.276 842.346 614.713 845.413 617.689" stroke="black" stroke-width="1.5" stroke-miterlimit="10"/>
<path d="M701.283 604.851C707.478 633.606 713.674 662.36 719.869 691.115" stroke="black" stroke-width="1.5" stroke-miterlimit="10"/>
<path d="M106.138 601.313C109.44 595.633 114.401 591.1 120.354 588.321C124.717 586.329 129.475 585.354 134.27 585.47" stroke="black" stroke-width="1.5" stroke-miterlimit="10"/>
<path d="M314.325 252.5C313.661 275.176 314.664 297.871 317.325 320.4C321.01 351.638 323.867 374.077 336.225 401.009C341.897 413.326 349.97 430.425 365.972 446.509C368.85 449.411 371.876 452.161 375.039 454.748C385.226 463.088 396.643 469.798 408.885 474.641C438.239 486.296 463.908 483.791 477.885 482.28C493.385 480.58 513.739 478.368 535.268 465.367C577.043 440.092 589.174 394.736 592.983 380.452C595.867 369.673 597.601 358.62 598.158 347.476" stroke="black" stroke-width="1.5" stroke-miterlimit="10"/>
<path d="M587.677 344.944C590.523 346.038 604.284 350.984 618.527 344.281C633.42 337.272 640.883 321.268 640.42 306.797C639.703 284.39 620.22 272.833 617.531 271.303C608.749 266.421 598.646 264.447 588.672 265.664" stroke="black" stroke-width="1.5" stroke-miterlimit="10"/>
<path d="M617.531 271.3C622.981 263.508 627.127 254.881 629.805 245.757C634.226 230.53 631.017 225.437 632.459 189.697C633.016 175.866 633.759 170.237 633.122 158.184C632.393 144.29 631.957 137.196 628.478 129.984C622.951 118.532 616.423 118.584 604.594 105.105C595.188 94.385 598.166 93.041 586.018 75.25C577.932 63.408 569.791 51.4851 555.832 41.0831C544.698 32.7831 534.716 29.074 525.977 25.824C503.129 17.324 499.252 22.1242 472.902 13.2242C460.262 8.95217 456.691 6.34011 444.702 3.93511C435.676 2.12511 426.848 0.354117 415.842 1.94512C396.797 4.69812 382.865 15.8379 378.358 19.5259C368.295 27.7619 367.058 32.7349 357.128 36.7759C354.336 37.9109 353.52 37.89 337.888 41.42C325.107 44.306 318.681 45.7691 316.988 46.7271C303.171 54.5561 301.017 74.2272 300.734 77.2452C300.434 80.4452 298.503 100.985 313.007 112.407C317.271 115.694 322.291 117.86 327.607 118.707" stroke="black" stroke-width="1.5" stroke-miterlimit="10"/>
<path d="M602.936 265.664C602.471 248.775 600.92 231.932 598.292 215.242C593.457 184.515 590.192 163.742 577.392 139.942C571.126 128.287 557.092 102.728 527.302 83.8821C502.636 68.2821 479.034 64.7609 468.587 63.3149C450.511 60.8149 436.262 62.1309 423.474 63.3149C406.86 64.8529 394.756 66.069 380.019 72.272C367.758 77.5234 356.611 85.0668 347.178 94.4971C322.089 119.75 318.019 151.581 317.122 162.49" stroke="black" stroke-width="1.5" stroke-miterlimit="10"/>
<path d="M349.254 157.979C342.903 156.971 327.267 155.679 312.433 165.609C291.497 179.617 290.133 203.935 290.042 206.245C289.219 226.865 301.173 246.154 319.233 255.339C335.433 263.58 356.12 263.462 372.142 252.685C388.742 241.522 392.702 224.058 393.372 220.84C397.108 202.897 389.972 188.81 387.072 183.854C385.732 181.565 373.767 161.871 349.254 157.979Z" stroke="black" stroke-width="1.5" stroke-miterlimit="10"/>
<path d="M489.305 142.284C482.954 141.276 467.319 139.984 452.485 149.914C431.549 163.922 430.185 188.239 430.093 190.549C429.27 211.169 441.224 230.459 459.285 239.643C475.485 247.885 496.171 247.767 512.194 236.99C528.794 225.827 532.754 208.363 533.424 205.145C537.16 187.202 530.024 173.115 527.124 168.158C525.784 165.87 513.819 146.176 489.305 142.284Z" stroke="black" stroke-width="1.5" stroke-miterlimit="10"/>
<path d="M310.23 230.791C315.016 230.791 318.896 227.153 318.896 222.664C318.896 218.176 315.016 214.537 310.23 214.537C305.444 214.537 301.564 218.176 301.564 222.664C301.564 227.153 305.444 230.791 310.23 230.791Z" fill="black" stroke="black" stroke-miterlimit="10"/>
<path d="M447.619 211.635C452.405 211.635 456.285 207.997 456.285 203.508C456.285 199.02 452.405 195.381 447.619 195.381C442.833 195.381 438.953 199.02 438.953 203.508C438.953 207.997 442.833 211.635 447.619 211.635Z" fill="black" stroke="black" stroke-miterlimit="10"/>
<path d="M411.119 230.792C409.743 243.307 407.075 255.647 403.158 267.613C397.364 285.319 391.477 294.113 395.694 299.706C399.259 304.43 407.806 303.901 423.31 302.941C430.59 302.49 437.825 301.492 444.955 299.955" stroke="black" stroke-width="1.5" stroke-miterlimit="10"/>
<path d="M379.772 362.152C376.447 366.841 374.157 372.184 373.055 377.826C370.418 391.531 375.855 402.459 377.781 405.939" stroke="black" stroke-width="1.5" stroke-miterlimit="10"/>
<path d="M523.074 317.37C529.141 315.023 535.863 315.01 541.939 317.336C548.015 319.661 553.011 324.159 555.96 329.957C557.871 333.535 559.041 337.462 559.398 341.503C559.789 345.79 559.28 350.112 557.905 354.191" stroke="black" stroke-width="1.5" stroke-miterlimit="10"/>
<path d="M447.841 360.467C439.553 361.566 431.211 362.213 422.853 362.406C414.206 362.741 405.281 361.587 397.99 367.256C387.371 375.513 388.12 391.783 394.134 402.615C401.79 416.405 416.502 422.504 430.774 427.086C452.474 434.056 479.974 433.375 500.228 422.151C517.005 412.851 528.789 395.951 532.415 377.171C533.979 369.412 533.784 361.402 531.845 353.728C530.235 347.616 526.306 340.242 520.133 337.728C513.461 335.006 506.969 339.982 501.328 342.808C497.421 344.765 493.406 346.516 489.373 348.194C484.112 350.383 478.788 352.411 473.4 354.278C465.093 357.139 456.536 359.211 447.841 360.467Z" stroke="black" stroke-width="1.5" stroke-miterlimit="10"/>
<path d="M515.745 336.955C516.845 342.627 517.919 348.278 519.016 353.95C515.715 357.958 511.507 361.123 506.741 363.183C503.748 364.458 500.578 365.267 497.341 365.583C494.617 369.021 490.82 371.448 486.556 372.476C483.411 373.189 480.138 373.104 477.034 372.228C473.598 375.658 469.042 377.738 464.199 378.086C460.894 378.257 457.598 377.595 454.615 376.161C451.293 378.54 447.421 380.037 443.362 380.511C439.303 380.986 435.191 380.422 431.409 378.873C428.262 381.233 424.443 382.524 420.51 382.558C416.576 382.591 412.736 381.365 409.549 379.059C408.682 373.822 407.806 368.571 406.92 363.306" stroke="black" stroke-width="1.5" stroke-miterlimit="10"/>
<path d="M431.788 362L431.688 378.572" stroke="black" stroke-width="1.5" stroke-miterlimit="10"/>
<path d="M454.529 359.324C454.502 364.621 454.475 369.918 454.45 375.214" stroke="black" stroke-width="1.5" stroke-miterlimit="10"/>
<path d="M476.476 369.621C476.082 364.259 475.668 358.939 475.276 353.598" stroke="black" stroke-width="1.5" stroke-miterlimit="10"/>
<path d="M497.115 363.39L494.072 346.19" stroke="black" stroke-width="1.5" stroke-miterlimit="10"/>
<path d="M475.146 430.47C474.798 424.814 475.615 419.146 477.546 413.818C482.987 398.968 495.576 391.954 500.6 389.602C509.57 385.485 519.6 384.267 529.294 386.119" stroke="black" stroke-width="1.5" stroke-miterlimit="10"/>
<path d="M320.356 147.069C331.478 137.738 344.59 131.078 358.686 127.602" stroke="black" stroke-width="1.5" stroke-miterlimit="10"/>
<path d="M441.391 113.455C464.004 111.63 486.748 114.597 508.137 122.161" stroke="black" stroke-width="1.5" stroke-miterlimit="10"/>
</svg>
