<svg width="1948" height="1084" viewBox="0 0 1948 1084" fill="none" xmlns="http://www.w3.org/2000/svg">
<path d="M1947.57 0.943115H0.147034V1083.06H1947.57V0.943115Z" fill="#C7E477"/>
<path d="M747.519 1080.8C700.499 1069.76 643.197 1048.03 626.319 1000.99C609.688 954.621 647.985 927.327 642.312 868.308C633 771.358 521.8 763.387 511.372 678.106C502.763 607.687 576.339 594.787 622.324 454.213C652.84 360.926 630.605 335.527 664.305 301.841C717.877 248.291 788.719 297.855 887.705 245.867C955.305 210.367 937.69 178.95 995.658 146.359C1111.39 81.2919 1190.83 201.326 1392.98 174.346C1484.11 162.184 1528.4 129.73 1577.41 161.907C1621.93 191.141 1609.74 233.939 1665.87 289.407C1727.21 350.03 1769.38 326.19 1802.31 374.922C1839.42 429.853 1793.07 470.851 1806.81 592.596C1820.91 717.562 1876.39 733.309 1857.79 805.606C1839.73 875.799 1781.2 885.159 1757.33 973.526C1745.57 1017.07 1748.57 1056.3 1752.83 1082.36L747.519 1080.8Z" fill="#F9FFE9"/>
</svg>
