<svg width="707" height="274" viewBox="0 0 707 274" fill="none" xmlns="http://www.w3.org/2000/svg">
<path d="M137.2 273.078C101.032 273.078 66.3462 258.711 40.7719 233.136C15.1975 207.562 0.830017 172.876 0.830017 136.708C0.830017 100.54 15.1975 65.8541 40.7719 40.2798C66.3462 14.7055 101.032 0.337891 137.2 0.337891H570.876C606.98 0.435658 641.571 14.8466 667.066 40.4104C692.561 65.9742 706.878 100.605 706.878 136.708C706.878 172.812 692.561 207.443 667.066 233.007C641.571 258.57 606.98 272.981 570.876 273.079L137.2 273.078Z" fill="#156D00"/>
<path d="M572.504 17.448H135.571C70.6047 17.448 17.939 70.1136 17.939 135.08V138.338C17.939 203.304 70.6047 255.97 135.571 255.97H572.504C637.47 255.97 690.136 203.304 690.136 138.338V135.08C690.136 70.1136 637.47 17.448 572.504 17.448Z" fill="#81E079"/>
<path d="M567.789 30.71H140.287C81.3566 30.71 33.584 78.4823 33.584 137.412C33.584 196.343 81.3566 244.115 140.287 244.115H567.789C626.719 244.115 674.492 196.343 674.492 137.412C674.492 78.4823 626.719 30.71 567.789 30.71Z" fill="url(#paint0_linear_10_19)"/>
<defs>
<linearGradient id="paint0_linear_10_19" x1="352.115" y1="26.8687" x2="352.329" y2="249.238" gradientUnits="userSpaceOnUse">
<stop stop-color="white"/>
<stop offset="0.025" stop-color="white" stop-opacity="0.925"/>
<stop offset="0.095" stop-color="white" stop-opacity="0.733"/>
<stop offset="0.17" stop-color="white" stop-opacity="0.557"/>
<stop offset="0.249" stop-color="white" stop-opacity="0.408"/>
<stop offset="0.334" stop-color="white" stop-opacity="0.282"/>
<stop offset="0.424" stop-color="white" stop-opacity="0.176"/>
<stop offset="0.523" stop-color="white" stop-opacity="0.098"/>
<stop offset="0.635" stop-color="white" stop-opacity="0.043"/>
<stop offset="0.771" stop-color="white" stop-opacity="0.012"/>
<stop offset="1" stop-color="white" stop-opacity="0"/>
</linearGradient>
</defs>
</svg>
