<svg width="510" height="145" viewBox="0 0 510 145" fill="none" xmlns="http://www.w3.org/2000/svg">
<path d="M507.335 106.16V92.1763L490.408 92.9825C487.9 92.9713 485.398 92.7466 482.929 92.3106C482.946 89.744 482.959 86.7051 482.968 83.1944H509.277L507.388 68.1944C507.259 67.1684 507.207 66.5947 507.188 66.3267L507.307 63.6988L507.453 62.0845C507.779 57.8365 507.806 56.8735 507.806 56.1925C507.806 55.2665 507.757 54.1116 507.112 47.6436L505.912 35.6334H490.229C490.119 35.6334 489.795 35.6336 489.129 35.5836C488.578 35.5476 488.029 35.5303 487.494 35.5303C486.552 35.5304 485.61 35.5849 484.674 35.6934L482.505 35.8497V4.26472L467.198 6.55867C465.823 6.76845 464.435 6.87647 463.045 6.8824C462.508 6.8824 461.245 6.85156 458.725 6.64656L457.677 6.49666L457.332 6.46443C454.59 6.21743 452.245 6.09675 450.162 6.09675C448.079 6.09675 445.731 6.21743 442.991 6.46443L430.925 7.55672L430.775 36.1754L419.86 35.7706L419.851 36.1807C416.141 35.0781 412.329 34.3486 408.474 34.0035C407.034 33.8151 405.582 33.73 404.13 33.7486C402.118 33.7486 400.651 33.7953 399.457 33.9053C397.797 33.8993 396.902 33.8798 396.457 33.8648L395.888 33.7486H394.551C387.538 33.6792 380.558 34.728 373.875 36.8555C373.685 36.9185 373.503 36.9877 373.316 37.0557V35.9556H358.262L349.122 35.5206C348.282 35.4286 346.7 35.2725 343.271 34.9815C339.756 34.6815 336.949 34.5416 334.691 34.5416C331.652 34.4284 328.637 35.1228 325.953 36.5538C323.377 36.2561 320.787 36.1084 318.194 36.1124H317.931C312.385 36.1981 306.925 37.5026 301.939 39.9327L301.511 35.6378H285.832C285.722 35.6378 285.397 35.6375 284.732 35.5885C284.181 35.5515 283.632 35.5347 283.096 35.5347C282.154 35.5348 281.212 35.5893 280.276 35.6978C280.276 35.6978 278.202 35.8476 278.106 35.8536V4.26863L262.8 6.56257C261.426 6.77231 260.038 6.88082 258.648 6.88679C258.11 6.88679 256.848 6.85546 254.327 6.65047L253.278 6.50056L252.935 6.46882C250.192 6.22182 247.847 6.10066 245.765 6.10066C243.683 6.10066 241.334 6.22182 238.593 6.46882L226.527 7.56062L226.377 36.1798L215.462 35.7745L215.425 37.4298C208.115 35.8998 200.547 36.1181 193.338 38.0675C190.016 36.2023 186.257 35.2556 182.448 35.3238C180.786 35.3238 178.648 35.4445 175.905 35.6915L175.725 35.7086L172.772 36.0577C171.604 36.2003 170.428 36.2704 169.251 36.2677C167.176 36.2122 165.106 36.0367 163.051 35.7418L148.4 33.8995L148.318 37.5548C147.492 37.1898 146.65 36.8386 145.774 36.5196C141.402 34.936 136.83 33.9718 132.191 33.6553C130.831 33.4929 129.461 33.4194 128.091 33.4346C126.079 33.4346 124.611 33.4814 123.418 33.5904C121.757 33.5854 120.861 33.5654 120.412 33.5504L119.843 33.4346H118.507C111.738 33.3704 104.999 34.3296 98.517 36.2803C97.1775 32.1372 95.2764 28.1973 92.867 24.5704C87.8396 16.9716 80.951 10.7862 72.857 6.60261C59.6495 -0.304611 44.2583 -1.75118 29.995 2.5738C23.977 4.3438 19.295 6.6217 15.695 9.5367L15.32 9.8365L14.967 10.1666C12.2931 12.7232 9.95602 15.6099 8.01202 18.7574C6.117 21.7425 4.5066 24.8993 3.20203 28.1856C2.19837 30.7591 1.4556 33.4267 0.984985 36.1485C0.484392 38.7821 0.279123 41.4635 0.372986 44.1427L0.226013 50.7847C0.120013 57.1747 0.0670166 65.4948 0.0670166 75.5137C0.0670166 87.7547 0.337004 99.3445 0.867004 109.961L0.883972 110.29L0.916016 110.617C1.34053 116.092 3.09593 121.381 6.02972 126.024C8.96351 130.666 12.9869 134.522 17.75 137.255C28.7761 143.372 41.4791 145.773 53.977 144.105C62.2675 143.738 70.3135 141.185 77.299 136.705C80.3886 134.726 83.254 132.417 85.845 129.819C86.677 130.826 87.5616 131.788 88.495 132.701L88.733 132.931L88.982 133.149C94.9094 138.361 102.141 141.866 109.905 143.29L111.13 143.521H112.376C113.418 143.521 115.454 143.571 119.293 143.813C123.153 144.039 126.133 144.149 128.402 144.149C134.311 144.225 140.202 143.462 145.897 141.882C146.692 141.65 147.465 141.389 148.221 141.109V144.326L162.771 143C164.645 142.828 166.614 142.742 168.625 142.742C170.942 142.742 171.684 142.814 171.706 142.816L172.115 142.861L172.525 142.881C173.582 142.933 174.625 142.961 175.616 142.961C177.182 142.961 178.698 142.895 180.123 142.766C183.031 142.453 185.91 141.913 188.734 141.151L188.841 142.742H208.447C209.634 142.783 210.838 142.804 212.03 142.804C217.232 142.796 222.428 142.414 227.575 141.66L239.554 139.919L239.179 132.112C242.999 135.017 247.31 137.212 251.906 138.594C261.334 141.383 271.13 142.729 280.961 142.585C284.11 142.585 287.255 142.466 290.309 142.231L299.022 141.562L299.922 138.953C304.507 141.474 309.661 142.778 314.893 142.742C319.353 142.713 323.782 142 328.026 140.628C328.217 140.568 328.406 140.506 328.596 140.443C329.802 141.087 331.068 141.61 332.377 142.005L334.277 142.585H357.383L358.533 142.384C362.623 141.798 366.383 139.809 369.169 136.757C374.232 140.236 379.986 142.58 386.039 143.629L387.222 143.845H388.422C389.463 143.845 391.499 143.896 395.338 144.137C399.208 144.364 402.187 144.474 404.446 144.474C410.357 144.55 416.249 143.787 421.946 142.208C428.266 140.486 433.832 136.708 437.765 131.47C438.489 130.565 439.136 129.601 439.7 128.588C444.262 133.323 449.989 136.775 456.306 138.598C465.734 141.387 475.531 142.732 485.362 142.588C488.51 142.588 491.655 142.469 494.709 142.234L503.426 141.566L506.287 133.305C507.748 128.964 508.474 124.41 508.434 119.831C508.395 115.255 508.035 110.687 507.357 106.162L507.335 106.16Z" fill="#6BCC5A"/>
<path d="M41.993 54.7818C41.679 60.9625 41.522 67.2472 41.522 73.6358C41.522 80.1305 41.679 85.5767 41.993 89.9747C42.3224 92.8544 43.1744 95.6498 44.507 98.2237C45.5088 100.505 47.2161 102.405 49.378 103.644C53.0447 103.856 55.8204 102.18 57.705 98.6168H57.547C58.4897 96.6275 58.9613 93.6421 58.962 89.6608C58.9 87.1838 59.1106 84.7073 59.59 82.2765C62.0835 82.6851 64.6054 82.895 67.132 82.9044L74.359 82.7477C77.9578 82.7262 81.5457 83.1467 85.042 83.9996C86.3037 87.6912 86.9411 91.5676 86.928 95.4689C86.9336 101.418 85.3904 107.266 82.45 112.438C79.4946 117.748 75.2542 122.231 70.117 125.478C64.9021 128.821 58.8697 130.668 52.677 130.819C50.4936 131.156 48.2862 131.314 46.077 131.292C38.5352 131.454 31.0925 129.552 24.553 125.792C21.5915 124.117 19.0932 121.733 17.2829 118.852C15.4726 115.972 14.4073 112.686 14.183 109.292C13.6577 98.8189 13.396 87.5592 13.398 75.5118C13.398 65.5618 13.4503 57.3916 13.555 51.0016L13.712 43.9317C13.6223 42.1159 13.7539 40.2959 14.104 38.5118C14.4171 36.6593 14.9173 34.8429 15.597 33.0914C16.5968 30.5709 17.833 28.1508 19.289 25.8634C20.6263 23.6776 22.2366 21.6714 24.081 19.8927C27.0057 17.7632 30.3128 16.2163 33.822 15.3365C44.7461 12.0131 56.5384 13.1134 66.659 18.4005C72.7622 21.5366 77.9562 26.1898 81.742 31.9127C85.449 37.4124 87.4194 43.898 87.398 50.5304C87.3799 54.6095 86.6349 58.6531 85.198 62.4708C81.5892 63.3163 77.9033 63.7897 74.198 63.8844C68.6478 63.7016 63.1254 63.0182 57.698 61.8424L57.226 55.8727C57.0154 51.056 56.413 47.4161 55.419 44.9527C54.425 42.4894 52.304 41.3109 49.056 41.4176C48.9221 41.4237 48.7899 41.4504 48.664 41.4967C48.4337 41.5588 48.1953 41.5852 47.957 41.5748H48.114C44.866 42.0995 43.0853 43.1993 42.772 44.8746C42.5653 45.3 42.3057 48.6025 41.993 54.7818Z" fill="white"/>
<path d="M124.162 46.9255C125.467 46.7893 126.779 46.7371 128.09 46.7687C128.983 46.7454 129.877 46.7976 130.761 46.9255C134.329 47.1169 137.849 47.8316 141.209 49.0466C144.172 50.0465 146.88 51.682 149.144 53.8386C152.18 56.2499 154.17 60.0206 155.114 65.1506C156.121 71.0668 156.594 77.0617 156.528 83.0627V88.2468C156.214 97.1508 155.69 104.64 154.957 110.715C154.224 116.789 152.967 120.874 151.186 122.969C148.967 125.988 145.777 128.152 142.152 129.097C137.674 130.32 133.046 130.902 128.405 130.825C126.414 130.825 123.638 130.719 120.078 130.509C116.724 130.299 114.157 130.194 112.378 130.195C106.955 129.212 101.903 126.768 97.766 123.126C94.456 119.876 92.1167 115.769 91.01 111.264C89.6939 106 89.0604 100.589 89.125 95.1637L88.968 77.2526C88.654 74.4246 88.9943 70.3397 89.989 64.9977C90.9837 59.6557 92.005 56.6186 93.053 55.8859C94.2043 52.9526 97.2156 50.7002 102.087 49.1296C107.403 47.4923 112.943 46.6971 118.505 46.7726C120.386 46.9278 122.275 46.9787 124.162 46.9255ZM114.893 82.8259C114.787 84.6592 114.735 86.0465 114.736 86.9885L114.579 90.1305C114.579 92.7505 114.474 95.6313 114.264 98.7726C114.286 99.8503 114.535 100.911 114.996 101.886C115.456 102.861 116.117 103.727 116.935 104.429C118.478 105.845 120.497 106.63 122.591 106.629C124.763 106.611 126.906 106.13 128.876 105.216C129.504 104.901 130.29 103.172 131.233 100.03L131.39 99.2448C131.907 95.4412 132.222 91.6126 132.332 87.7756C132.355 85.508 132.144 83.2442 131.704 81.0197C131.335 78.6187 130.27 76.3789 128.64 74.5778C127.902 73.8064 127.01 73.198 126.023 72.7922C125.035 72.3864 123.973 72.1923 122.906 72.2219C122.062 72.2714 121.222 72.3763 120.392 72.5358C117.772 73.3745 116.253 74.5265 115.835 75.9919L115.207 78.5055C115.101 79.5549 114.996 80.9945 114.893 82.8259Z" fill="white"/>
<path d="M186.929 55.3315C186.875 55.2795 186.902 55.2534 187.008 55.2534C189.702 53.4957 192.64 52.1453 195.728 51.2456C198.91 50.2696 202.219 49.767 205.547 49.7544C212.46 49.7544 217.802 51.4304 221.573 54.7817C224.506 57.4011 225.973 66.0419 225.973 80.7046C225.973 85.0006 225.868 91.5474 225.659 100.345C225.447 107.886 225.342 113.28 225.345 116.527C225.345 120.089 225.45 124.069 225.659 128.467C220.043 129.297 214.364 129.613 208.691 129.411H201.3C201.089 126.269 200.985 120.194 200.986 111.186V103.33C200.986 98.1996 200.881 94.481 200.672 92.1743L200.515 91.2314V90.1313C200.303 87.2013 200.067 84.8977 199.807 83.2197C199.527 81.5036 198.826 79.8834 197.765 78.5054C197.156 77.7521 196.373 77.1582 195.484 76.7749C194.594 76.3916 193.625 76.2308 192.659 76.3057C191.786 76.3258 190.928 76.5321 190.142 76.9116C189.356 77.2911 188.66 77.8346 188.102 78.5054C186.74 79.972 186.007 82.1721 185.902 85.1055C185.796 86.6761 185.744 89.0852 185.745 92.3325C185.745 94.9525 185.85 98.7761 186.059 103.803C186.268 109.041 186.372 112.968 186.373 115.585C186.399 119.784 186.189 123.98 185.745 128.154C183.505 128.775 181.219 129.222 178.91 129.491C177.003 129.649 175.087 129.675 173.176 129.568C172.233 129.464 170.714 129.412 168.619 129.412C166.209 129.412 163.852 129.516 161.549 129.726C161.549 117.156 161.497 107.834 161.392 101.759C161.181 88.1446 161.077 77.8276 161.078 70.8076C161.078 65.6743 161.183 58.3947 161.392 48.9688C163.996 49.3319 166.619 49.5418 169.248 49.5977C170.981 49.6013 172.713 49.4965 174.433 49.2837L177.103 48.9688C179.406 48.7607 181.186 48.6556 182.445 48.6543C184.959 48.6543 186.321 49.0211 186.53 49.7544C186.775 51.577 186.881 53.4157 186.845 55.2544V55.4116C186.952 55.411 186.98 55.3842 186.929 55.3315Z" fill="white"/>
<path d="M264.936 49.9116C270.381 49.7016 275.199 49.4395 279.39 49.1255L281.59 48.9673C282.345 48.8641 283.108 48.8383 283.868 48.8897C284.653 48.9437 285.306 48.9673 285.832 48.9673H289.445C289.862 53.1586 290.071 55.568 290.073 56.1953C290.073 56.7207 289.968 58.3444 289.759 61.0664L289.602 62.7944L289.445 66.2505C289.483 67.46 289.588 68.6668 289.759 69.8648H265.25C265.25 86.5188 265.198 96.7308 265.093 100.501C266.664 102.493 269.491 103.959 273.576 104.901C277.751 105.854 282.021 106.329 286.303 106.315L289.603 106.159V107.573L289.76 108.201V108.043C290.35 111.945 290.666 115.882 290.704 119.828C290.745 122.923 290.266 126.003 289.289 128.939C286.565 129.149 283.789 129.254 280.962 129.254C272.486 129.403 264.037 128.264 255.903 125.876C248.727 123.624 243.987 119.775 241.684 114.329C240.749 108.737 240.119 103.099 239.798 97.4385C239.484 91.8385 239.327 85.4231 239.327 78.1924V70.3364C238.099 70.4402 236.866 70.4667 235.635 70.4155C234.535 70.3642 233.566 70.3378 232.728 70.3364H228.015L228.486 49.5977C231.314 49.7023 235.032 49.7547 239.641 49.7554L239.798 19.7456C242.101 19.5376 244.091 19.433 245.769 19.4317C247.447 19.4303 249.437 19.535 251.739 19.7456L252.839 19.9024C255.352 20.113 257.29 20.218 258.652 20.2173C260.704 20.2126 262.752 20.0552 264.78 19.7456V48.3403L264.936 49.9116Z" fill="white"/>
<path d="M360.224 51.9535C360.374 53.0998 360.453 54.2544 360.46 55.4105C360.355 58.1339 360.303 62.2184 360.302 67.6644C360.302 74.9978 360.355 80.4978 360.46 84.1644V93.5912L360.617 103.017C360.617 109.199 360.46 115.536 360.146 122.029V123.6C360.209 124.913 359.995 126.225 359.518 127.45C359.098 128.338 357.998 128.94 356.218 129.256H336.264C333.853 128.523 332.648 127.109 332.65 125.014V123.913C329.959 125.624 327.054 126.97 324.01 127.919C321.067 128.882 317.993 129.386 314.897 129.412C312.193 129.431 309.522 128.831 307.085 127.661C304.648 126.49 302.51 124.779 300.835 122.657C296.808 117.762 293.887 112.053 292.273 105.923C290.437 99.6186 289.485 93.0897 289.444 86.5233C289.351 80.0677 290.637 73.6667 293.215 67.7474C295.455 62.4939 299.03 57.9173 303.585 54.4716C307.8 51.2895 312.917 49.5287 318.197 49.4442C321.252 49.4275 324.302 49.6908 327.309 50.2304C330.137 50.755 331.917 51.3836 332.65 52.1156C332.625 51.425 332.52 50.7397 332.336 50.0736C332.22 49.7674 332.174 49.439 332.201 49.1127C332.228 48.7864 332.328 48.4703 332.493 48.1874C333.185 47.8866 333.945 47.7781 334.693 47.8734C336.578 47.8734 339.066 48.0045 342.155 48.2665C345.244 48.5285 347.208 48.7113 348.047 48.8153L357.947 49.2875H359.988C360.019 50.1797 360.098 51.0696 360.224 51.9535ZM316.624 101.208C317.514 102.651 318.764 103.838 320.252 104.65C321.739 105.463 323.413 105.874 325.108 105.844C327.411 105.844 329.087 105.215 330.136 103.958C331.261 102.506 331.943 100.761 332.1 98.9306C332.409 95.7982 332.54 92.6505 332.492 89.5033V85.4184C332.492 80.9164 332.414 77.8528 332.257 76.2274C332.264 75.6092 332.142 74.9964 331.899 74.4281C331.655 73.8598 331.296 73.3488 330.843 72.9276C329.57 72.2374 328.122 71.9369 326.679 72.0643C323.709 71.9333 320.797 72.9133 318.51 74.8134C316.474 76.5489 315.043 78.8877 314.425 81.4906C313.726 84.1557 313.408 86.9063 313.482 89.6605C313.333 93.7397 314.428 97.7675 316.624 101.208Z" fill="white"/>
<path d="M430.3 114.484C429.617 118.78 428.596 121.714 427.237 123.285C425.018 126.304 421.828 128.467 418.202 129.412C413.724 130.636 409.095 131.218 404.454 131.141C402.463 131.141 399.687 131.037 396.128 130.827C392.774 130.615 390.207 130.51 388.428 130.512C382.976 129.617 377.901 127.161 373.816 123.441C370.523 120.222 368.207 116.138 367.138 111.659C365.877 106.465 365.27 101.134 365.331 95.7904V90.9193C365.404 86.5141 365.247 82.1084 364.86 77.7196C364.827 73.8236 365.142 69.932 365.802 66.0922C366.12 63.5615 366.754 61.0808 367.688 58.7074L368.631 56.6654C368.525 56.7714 368.474 56.7714 368.474 56.6654C369.941 53.5234 373.135 51.1405 378.058 49.5165C383.393 47.8307 388.963 47.0086 394.558 47.0814C396.439 47.2381 398.327 47.2903 400.214 47.2381C401.518 47.1015 402.83 47.0494 404.141 47.0814C405.035 47.0577 405.928 47.1099 406.813 47.2381C415.085 47.9715 421.265 50.2238 425.352 53.9945C428.099 56.3066 429.959 59.4993 430.615 63.0292C431.653 68.3345 432.206 73.7236 432.265 79.1293V80.8573L432.422 83.2152C429.734 83.7813 426.999 84.097 424.252 84.1576C419.942 84.0139 415.642 83.6467 411.369 83.0575L407.912 82.5853C407.546 79.9102 406.46 77.3846 404.77 75.2792C404.047 74.3993 403.135 73.6953 402.1 73.2191C401.066 72.743 399.937 72.5071 398.799 72.5301C397.953 72.5561 397.112 72.6616 396.286 72.8446H396.443C395.123 73.2741 393.934 74.0307 392.986 75.0443C392.045 76.0995 391.443 77.4134 391.258 78.8153C390.788 82.6199 390.578 86.4523 390.63 90.2855L390.473 95.6263C390.367 96.7803 390.315 98.1948 390.316 99.8695C390.245 100.903 390.43 101.939 390.855 102.884C391.28 103.83 391.931 104.656 392.751 105.289C394.515 106.538 396.639 107.173 398.799 107.097C399.629 107.326 400.499 107.372 401.349 107.23C402.198 107.089 403.006 106.764 403.717 106.278C404.428 105.791 405.024 105.156 405.463 104.415C405.903 103.675 406.175 102.847 406.262 101.991C406.836 100.271 407.282 98.5115 407.598 96.7264C410.827 97.1499 414.09 97.255 417.339 97.0404H420.795L424.252 96.8832C426.253 96.8296 428.254 96.9877 430.222 97.3544H432.108C431.579 104.482 430.977 110.192 430.3 114.484Z" fill="white"/>
<path d="M469.338 49.9116C474.782 49.7016 479.6 49.4395 483.792 49.1255L485.992 48.9673C486.747 48.8641 487.51 48.8383 488.27 48.8897C489.055 48.9437 489.708 48.9673 490.233 48.9673H493.847C494.265 53.1586 494.474 55.568 494.475 56.1953C494.475 56.7207 494.37 58.3444 494.161 61.0664L494.004 62.7944L493.847 66.2505C493.885 67.46 493.99 68.6668 494.161 69.8648H469.652C469.652 86.5188 469.6 96.7308 469.495 100.501C471.066 102.493 473.894 103.959 477.979 104.901C482.154 105.854 486.423 106.329 490.705 106.315L494.005 106.159V107.573L494.162 108.201V108.043C494.752 111.945 495.067 115.882 495.105 119.828C495.146 122.923 494.668 126.002 493.691 128.939C490.966 129.149 488.191 129.254 485.364 129.254C476.888 129.402 468.438 128.264 460.304 125.876C453.129 123.624 448.39 119.775 446.085 114.329C445.15 108.737 444.521 103.099 444.2 97.4385C443.886 91.8385 443.729 85.4231 443.729 78.1924V70.3364C442.501 70.4402 441.268 70.4667 440.037 70.4155C438.937 70.3642 437.968 70.3378 437.13 70.3364H432.417L432.888 49.5977C435.716 49.7023 439.434 49.7547 444.043 49.7554L444.2 19.7456C446.503 19.5376 448.493 19.433 450.17 19.4317C451.847 19.4303 453.838 19.535 456.141 19.7456L457.241 19.9024C459.756 20.113 461.694 20.218 463.054 20.2173C465.106 20.2127 467.155 20.0552 469.183 19.7456V48.3403L469.338 49.9116Z" fill="white"/>
</svg>
