<svg width="129" height="129" viewBox="0 0 129 129" fill="none" xmlns="http://www.w3.org/2000/svg">
<path d="M64.125 128.619C47.153 128.619 30.8762 121.877 18.8751 109.875C6.87412 97.8736 0.132019 81.5957 0.132019 64.6227C0.132019 47.6497 6.87412 31.3719 18.8751 19.3702C30.8762 7.36847 47.153 0.625977 64.125 0.625977C64.9565 0.625977 65.7877 0.642075 66.6186 0.674273C79.8132 1.16915 92.5279 5.75253 103.004 13.7903C108.118 17.7125 112.619 22.3769 116.355 27.629C124.033 38.435 128.15 51.3671 128.132 64.6237C128.126 67.9215 127.873 71.2143 127.374 74.4742C125.368 87.3778 119.463 99.3587 110.451 108.809C101.439 118.258 89.7514 124.725 76.958 127.34C72.7356 128.194 68.4385 128.625 64.1306 128.626L64.125 128.619Z" fill="white"/>
<path d="M120.778 46.2498C118.92 40.5243 116.202 35.1149 112.716 30.2072C109.236 25.3172 105.046 20.9736 100.284 17.3197C88.047 7.95702 72.655 3.70685 57.3475 5.46354C42.04 7.22023 28.0108 14.8468 18.2122 26.7383C14.3906 31.3785 11.2866 36.5658 9.00402 42.1271C6.67353 47.8352 5.24815 53.872 4.7793 60.0198C4.29408 66.2986 4.80214 72.6148 6.28475 78.7354C9.16241 90.5516 15.5917 101.202 24.7068 109.253C33.8219 117.303 45.1849 122.367 57.2655 123.762C63.5362 124.487 69.882 124.217 76.0683 122.961C82.0228 121.75 87.7551 119.629 93.0638 116.672C103.575 110.812 112.074 101.917 117.448 91.1484C120.171 85.6813 122.031 79.8253 122.961 73.7887C123.426 70.7542 123.663 67.689 123.669 64.619C123.668 58.3828 122.693 52.1849 120.778 46.2498Z" fill="black"/>
<path d="M64.1352 123.337C96.5596 123.337 122.845 97.0499 122.845 64.6237C122.845 32.1974 96.5596 5.91067 64.1352 5.91067C31.7109 5.91067 5.42568 32.1974 5.42568 64.6237C5.42568 97.0499 31.7109 123.337 64.1352 123.337Z" fill="#6BCC5A"/>
<path d="M64.1343 108.918C88.5962 108.918 108.427 89.0861 108.427 64.6227C108.427 40.1594 88.5962 20.3279 64.1343 20.3279C39.6724 20.3279 19.8421 40.1594 19.8421 64.6227C19.8421 89.0861 39.6724 108.918 64.1343 108.918Z" fill="#C7E477"/>
<path d="M107.09 53.7952L120.724 48.947C123.637 59.5372 123.54 70.7297 120.445 81.2681L106.67 76.9958C108.852 69.4361 108.996 61.4339 107.087 53.8007L107.09 53.7952Z" fill="#D1FFC7"/>
<path d="M94.7549 14.7748C94.8747 14.2287 69.9025 0.0780042 43.9654 9.46692C22.2763 17.3197 7.49485 37.6597 5.61978 59.8294C3.38251 86.2751 20.4671 103.981 22.5679 106.082C31.6959 115.095 43.4678 120.951 56.1622 122.794C26.1462 115.029 6.30517 88.4949 7.90999 61.2002C9.23619 38.6488 24.9463 19.9313 42.1387 12.4947C67.3068 1.61233 94.6305 15.3423 94.7549 14.7748Z" fill="#D1FFC7"/>
<path d="M105.194 47.9792C107.599 54.8777 108.449 62.223 107.682 69.4885C107.175 74.1835 105.765 85.6863 96.4851 95.5247C91.018 101.232 84.0507 105.28 76.385 107.202C65.8299 109.884 54.6664 108.747 44.8691 103.991C43.359 103.248 25.9447 94.3182 21.0819 75.0704C20.2234 71.6556 19.8067 68.1437 19.8421 64.6227C20.4459 69.1622 21.7008 73.5918 23.5681 77.7732C25.3159 81.674 31.0489 93.9709 45.1421 100.714C47.6366 101.907 62.6948 108.806 79.6438 101.988C93.6182 96.3662 99.8898 85.0361 101.583 81.8681C109.837 66.4097 106.135 51.4147 105.194 47.9792Z" fill="#95C148"/>
<path d="M122.021 64.6237C122.023 76.5467 118.344 88.1795 111.486 97.9324C104.627 107.685 94.9254 115.083 83.705 119.113C72.4846 123.144 60.2934 123.612 48.7973 120.452C37.3012 117.293 27.0611 110.66 19.4762 101.461C11.889 92.2974 7.32694 81.0077 6.41754 69.1449C5.94311 63.014 6.43958 56.8466 7.88862 50.8705C9.28538 45.1538 11.5479 39.6842 14.5976 34.6514C20.6653 24.6443 29.6116 16.7013 40.2664 11.8613C45.7022 9.39268 51.491 7.79035 57.4225 7.11249C63.5198 6.41212 69.6892 6.67413 75.7051 7.88894C87.286 10.2512 97.8665 16.1015 106.025 24.6539C114.184 33.2062 119.529 44.0509 121.344 55.7307C121.795 58.6732 122.02 61.6459 122.017 64.6227C122.027 64.8345 122.119 65.0342 122.272 65.1805C122.425 65.3267 122.629 65.4084 122.841 65.4084C123.053 65.4084 123.257 65.3267 123.41 65.1805C123.564 65.0342 123.655 64.8345 123.665 64.6227C123.659 56.2076 121.87 47.8893 118.415 40.2163C114.959 32.5433 109.917 25.69 103.62 20.1081C97.3232 14.5263 89.9145 10.3427 81.8827 7.83341C73.8509 5.32408 65.3785 4.54593 57.024 5.55029C48.6696 6.55465 40.6229 9.3187 33.4146 13.6602C26.2063 18.0017 20.0002 23.8219 15.2054 30.7372C10.4106 37.6525 7.13608 45.5057 5.59779 53.779C4.0595 62.0523 4.29236 70.5577 6.28103 78.7344C9.15869 90.5507 15.588 101.201 24.7031 109.252C33.8182 117.302 45.1812 122.366 57.2618 123.761C63.5325 124.486 69.8782 124.216 76.0646 122.961C82.019 121.749 87.7514 119.628 93.06 116.671C103.572 110.811 112.07 101.916 117.444 91.1474C120.169 85.6809 122.03 79.8252 122.961 73.7887C123.426 70.7542 123.663 67.689 123.669 64.619C123.658 64.4073 123.566 64.2078 123.412 64.062C123.259 63.9161 123.055 63.8351 122.843 63.8357C122.631 63.8363 122.427 63.9184 122.274 64.0652C122.121 64.2119 122.03 64.4119 122.021 64.6237Z" fill="black"/>
<path d="M107.604 64.6237C107.605 73.5787 104.84 82.3155 99.6886 89.64C94.5367 96.9644 87.2487 102.519 78.8208 105.545C70.3928 108.57 61.2362 108.919 52.6026 106.543C43.9689 104.168 36.2795 99.1835 30.5855 92.2722C24.8979 85.3965 21.4782 76.9286 20.7959 68.0313C20.4385 63.4242 20.8105 58.7896 21.8983 54.2986C22.9492 50.005 24.6501 45.8973 26.9421 42.1178C31.5029 34.5984 38.2272 28.6312 46.2352 24.9968C50.3036 23.1482 54.6361 21.9473 59.0756 21.4378C63.6575 20.9101 68.2937 21.1054 72.815 22.0164C82.6448 24.0024 91.4829 29.3328 97.8259 37.1009C104.169 44.8689 107.625 54.5947 107.606 64.6237C107.616 64.8354 107.707 65.0351 107.86 65.1814C108.014 65.3277 108.217 65.4093 108.429 65.4093C108.641 65.4093 108.845 65.3277 108.998 65.1814C109.152 65.0351 109.243 64.8354 109.253 64.6237C109.268 55.2836 106.369 46.1714 100.961 38.5569C98.3151 34.8399 95.1295 31.5389 91.5091 28.763C82.2388 21.676 70.582 18.4594 58.9893 19.7894C47.3966 21.1195 36.7711 26.8926 29.3466 35.895C26.4407 39.4232 24.0814 43.3681 22.3478 47.5975C20.5843 51.9213 19.5064 56.4938 19.153 61.1501C18.7866 65.9054 19.1721 70.6887 20.2953 75.324C21.9241 81.9687 25.0395 88.1571 29.4068 93.423C33.7742 98.6889 39.2794 102.895 45.508 105.724C54.1803 109.644 63.8669 110.731 73.1921 108.831C77.7005 107.913 82.0407 106.306 86.0603 104.067C94.021 99.6286 100.458 92.8923 104.53 84.738C106.593 80.5998 108.003 76.1668 108.709 71.5969C109.064 69.2896 109.244 66.959 109.249 64.6246C109.235 64.4159 109.143 64.2203 108.99 64.0773C108.837 63.9344 108.636 63.8548 108.427 63.8547C108.218 63.8546 108.016 63.9339 107.864 64.0767C107.711 64.2195 107.618 64.415 107.604 64.6237Z" fill="black"/>
<path d="M37.6168 72.4885C36.1546 70.9736 35.1238 69.0956 34.6309 67.0487C34.3387 65.1097 34.2484 63.1457 34.3616 61.1882C34.3728 58.8272 34.4888 58.7966 34.4071 57.4127C34.2372 54.5122 33.7059 54.3227 33.8248 52.4614C33.949 50.8725 34.4153 49.3292 35.1919 47.9374C36.0101 46.3827 36.7196 46.4635 37.6873 44.6551C38.1516 43.7503 38.5321 42.8049 38.8241 41.8308C39.4417 39.9296 39.1696 39.9426 39.5977 38.8977C40.3902 37.4727 41.3478 36.1459 42.4507 34.9449C43.2364 33.9725 43.6292 33.4858 43.919 33.2016C44.9761 32.1862 46.2103 31.3731 47.5605 30.8026C50.3151 29.571 51.527 29.5775 54.1971 28.6868C58.7171 27.1785 58.7311 25.9934 62.3503 25.255C64.1701 24.7896 66.0701 24.7312 67.9151 25.0842C71.0421 25.7491 73.6239 27.6968 74.1858 28.5457C74.3202 28.7555 74.4932 28.938 74.6956 29.0834C75.1564 29.3775 75.7026 29.5083 76.2466 29.4549C78.2359 29.3621 78.7421 28.8977 79.7934 29.1057C80.4011 29.2931 80.9667 29.5969 81.4585 30.0001C83.4088 31.3143 84.3877 31.971 84.9477 32.9629C85.9526 34.7406 85.4492 36.7318 85.139 38.0024C84.7036 39.7455 83.8003 41.3365 82.5266 42.6035L37.6168 72.4885Z" fill="#705654"/>
<path d="M40.4633 70.8111C39.7942 66.432 39.7077 61.9836 40.206 57.5817C40.4555 54.4594 41.133 51.3861 42.2195 48.4482C43.3339 45.544 45.2601 40.5454 50.3048 37.0337C52.6259 35.4398 55.2553 34.3502 58.0234 33.835C59.9511 33.5142 61.9099 33.4207 63.8594 33.5564C66.509 33.5004 69.1526 33.8305 71.707 34.5362C79.9902 37.1693 83.5825 45.1539 83.8398 45.7474C84.2413 46.6727 84.5671 47.6291 84.814 48.6071C85.4864 53.4218 86.1591 58.2368 86.8321 63.0522C87.9064 68.4643 88.0602 74.0188 87.2871 79.4821C86.4764 85.1309 85.7241 90.3719 81.5505 95.1736C78.8616 98.2184 75.4101 100.492 71.551 101.76C68.7032 102.685 65.6991 103.033 62.7152 102.781C57.9672 102.397 53.477 100.463 49.9361 97.2764C48.4788 95.8823 47.2189 94.2955 46.1916 92.5601C44.4326 89.7627 43.1672 86.684 42.4507 83.4581C40.8437 83.5751 39.2514 83.0838 37.9896 82.0817C36.7278 81.0796 35.8887 79.6399 35.6385 78.048C35.3884 76.4562 35.7456 74.8285 36.6393 73.4877C37.5329 72.1469 38.8978 71.1909 40.4633 70.8093V70.8111Z" fill="#E6BC9A"/>
<path d="M59.0942 64.1509C57.0232 64.2934 54.9733 63.66 53.3436 62.3742C52.1997 61.4575 51.3254 60.2481 50.8132 58.8746C50.3011 57.501 50.1704 56.0144 50.4349 54.5725C51.4286 50.0448 56.9665 47.3281 61.4689 48.5801C64.4965 49.4244 67.4758 52.1819 67.6625 55.6889C67.9086 60.3095 63.1824 63.8509 59.0942 64.1509Z" fill="white"/>
<path d="M81.5821 64.4165C77.0072 64.3051 73.6304 59.7309 74.1876 55.3601C74.4253 53.4533 75.3462 51.6972 76.7796 50.4176C78.2131 49.1379 80.0619 48.4214 81.9833 48.4009C86.2043 48.5086 89.3898 52.3017 89.4362 56.2954C89.4854 60.5807 85.9154 64.5234 81.5821 64.4165Z" fill="white"/>
<path d="M43.8066 83.1795C44.8341 86.5982 46.6584 89.7241 49.1295 92.3001C51.6006 94.8762 54.6479 96.8288 58.0208 97.9973C61.3937 99.1658 64.9958 99.5169 68.5308 99.0216C72.0658 98.5264 75.4328 97.199 78.3548 95.1486C82.6092 92.0455 85.6578 87.5648 86.9825 82.4681C86.246 86.7425 84.5793 90.8028 82.1003 94.3619C80.7399 96.4931 78.9308 98.3017 76.7992 99.6614C74.9992 100.689 73.0522 101.434 71.0263 101.87C68.8735 102.502 66.6442 102.835 64.4008 102.86C62.2777 102.871 60.1638 102.581 58.1218 102C55.1908 101.216 52.4797 99.7677 50.199 97.7668C47.6831 95.5154 46.4841 93.1777 44.974 90.2279C43.8861 88.1058 42.9945 85.8886 42.3105 83.604C41.584 83.6199 40.8605 83.5054 40.1744 83.2659C38.5249 82.6038 37.1839 81.3466 36.4168 79.7431C35.7667 78.5496 35.3767 77.1769 35.5745 77.0775C35.8178 76.9549 36.663 78.9137 38.3801 80.514C39.9081 81.8866 41.7864 82.8092 43.8066 83.1795Z" fill="#D69B7B"/>
<path d="M50.238 55.87C50.3916 54.6071 50.8114 53.3911 51.4697 52.3024C52.128 51.2137 53.0098 50.2771 54.0568 49.5544C55.8789 48.4039 58.0628 47.9697 60.1864 48.3359C63.1582 48.7947 66.353 50.824 67.343 54.0013C67.6175 54.894 67.7153 55.8316 67.6309 56.7616C66.7022 54.8759 65.2254 53.3149 63.3941 52.2831C61.9181 51.4533 60.2549 51.0134 58.5617 51.0051C56.8684 50.9968 55.201 51.4204 53.7169 52.2358C52.2501 53.1104 51.0478 54.3663 50.238 55.87Z" fill="#D0C9D1"/>
<path d="M73.9842 57.2074C73.9647 53.1394 76.5039 49.6974 79.9215 48.8151C80.9475 48.5477 82.0183 48.4988 83.0644 48.6718C84.1105 48.8448 85.1086 49.2356 85.994 49.8191C86.8793 50.4026 87.6322 51.1656 88.2037 52.0587C88.7753 52.9518 89.1528 53.9551 89.3117 55.0035C88.4588 53.5886 87.2078 52.4566 85.7152 51.7489C84.2225 51.0411 82.5543 50.7891 80.9191 51.0243C79.284 51.2594 77.7544 51.9714 76.5217 53.0711C75.2889 54.1709 74.4076 55.6096 73.988 57.2074H73.9842Z" fill="#D0C9D1"/>
<path d="M84.644 39.0203C85.1037 38.2144 85.3826 37.3181 85.4612 36.3936C85.5399 35.4692 85.4166 34.5386 85.0998 33.6666C84.7829 32.7946 84.2802 32.0019 83.6264 31.3436C82.9726 30.6853 82.1834 30.1771 81.3137 29.8543C79.9053 29.2416 78.3398 29.0879 76.8391 29.415C76.561 29.5168 76.2678 29.5711 75.9717 29.5757C74.6436 29.5599 73.7149 28.3302 73.2441 27.7943C71.2297 25.5021 67.7127 24.6801 65.6388 24.6904C64.3637 24.6959 63.1991 25.1074 60.8708 25.9293C59.5153 26.4234 58.1886 26.993 56.8968 27.6355C50.9206 30.38 49.4216 29.1503 45.9928 31.6078C44.6028 32.7233 43.3207 33.9672 42.1637 35.3229C40.9328 36.4548 39.9644 37.8423 39.3265 39.3881C39.0479 40.1971 38.8733 40.9577 38.8733 40.9577C38.5743 42.258 38.6616 42.6639 38.4034 43.4245C38.1274 44.1407 37.7127 44.7953 37.183 45.3508C36.1446 46.6361 35.2854 48.0565 34.6291 49.573C34.0003 51.1602 34.0403 52.4828 34.1192 55.0741C34.1879 57.3421 34.4628 57.1489 34.5724 59.5229C34.721 62.7234 34.227 63.2045 34.6049 65.7503C34.7749 66.9645 35.0866 68.1546 35.5337 69.2963C35.9959 70.4427 36.6016 71.526 37.3363 72.52L37.8638 72.1699C37.248 71.1694 36.7465 70.1031 36.3686 68.9907C35.9827 67.8379 35.724 66.6463 35.5968 65.4373C35.4724 64.4156 35.5244 64.2131 35.4566 61.1129C35.4148 59.195 35.3934 58.2337 35.3396 57.2121C35.1921 55.9556 35.1301 54.6905 35.1538 53.4255C35.2743 52.1231 35.6141 50.8504 36.1587 49.6612C36.8617 48.138 37.2731 48.1687 38.7767 45.5236C39.2093 44.8134 39.5695 44.0617 39.8522 43.2796C40.1404 42.3598 40.3273 41.4111 40.4094 40.4506C40.7279 38.5364 41.9195 37.2566 43.4946 35.5653C44.9862 33.9827 46.7524 32.6837 48.7075 31.7313C51.4787 30.3688 51.8567 31.0366 55.697 29.5107C58.6874 28.3228 58.8211 27.7739 61.3537 27.0559C63.0708 26.4919 64.88 26.2617 66.6836 26.3779C68.4733 26.5228 70.1635 26.6566 71.5696 27.851C72.3029 28.5824 73.094 29.2536 73.935 29.858C74.474 30.2927 75.1195 30.5752 75.8045 30.6763C76.4001 30.6771 76.992 30.583 77.5579 30.3976C78.4869 30.2692 79.4321 30.3251 80.3394 30.562C81.8763 31.0475 83.1774 32.0878 83.9893 33.4802C84.4633 34.3129 84.7655 35.2323 84.878 36.1839C84.9904 37.1355 84.9109 38.1 84.644 39.0203Z" fill="#AA8785"/>
<path d="M59.018 89.7719C58.9196 89.8323 58.3057 89.2453 57.9964 88.4568C57.7211 87.6664 57.7326 86.8043 58.029 86.0215C58.0791 86.6803 58.1974 87.332 58.3819 87.9664C58.7041 89.0707 59.1128 89.7143 59.018 89.7719Z" fill="#D69B7B"/>
<path d="M79.4191 85.0036C79.6374 85.2787 79.795 85.5968 79.8816 85.9371C79.9682 86.2774 79.9818 86.6322 79.9215 86.9782C79.887 87.3778 79.7668 87.7653 79.5692 88.1143C79.3717 88.4634 79.1013 88.7658 78.7764 89.001C78.6947 88.9546 79.1275 88.3602 79.3336 87.2475C79.4142 86.5024 79.4427 85.7527 79.4191 85.0036Z" fill="#D69B7B"/>
<path d="M60.894 87.02C63.4298 85.6536 66.2554 84.9129 69.1354 84.8597C72.1171 84.6699 75.1004 85.2053 77.8301 86.42C75.0963 85.6978 72.2765 85.354 69.4493 85.3983C66.5362 85.5398 63.6569 86.0856 60.894 87.02Z" fill="#D69B7B"/>
<path d="M41.7746 70.5566C41.3248 66.849 41.2381 63.1062 41.5155 59.3817C41.8786 54.5047 42.1396 51.0014 44.0871 46.9455C45.9982 42.6002 49.2833 39.0027 53.4374 36.7058C57.4234 34.7322 61.9121 34.0071 66.3168 34.6254C69.3034 34.8442 72.2182 35.6463 74.8962 36.9863C78.0613 38.6013 80.8013 40.9393 82.8943 43.8109C82.0018 42.2977 80.9236 40.9021 79.6847 39.6565C78.677 38.646 74.7894 34.839 69.2469 33.9455C67.4911 33.7154 65.7237 33.5855 63.9532 33.5564C62.8237 33.4916 61.6917 33.4851 60.5615 33.5369C58.1692 33.6974 55.8254 34.288 53.6426 35.2802C51.3933 36.3314 49.363 37.7986 47.6589 39.6045C44.6187 42.7996 42.4668 46.7344 41.417 51.0181C40.5376 54.214 40.4484 56.8332 40.2719 62.0705C40.1493 65.7001 40.2459 68.7205 40.3648 70.8371L41.7746 70.5566Z" fill="#D69B7B"/>
<path d="M68.9646 72.8135C69.7961 72.7894 70.6492 72.7504 71.5241 72.6965C72.9673 72.6036 74.3511 72.4755 75.6717 72.3176C75.976 72.0472 76.1881 71.6883 76.2782 71.2913C76.3322 70.9943 76.3206 70.6892 76.2443 70.3972C76.1679 70.1052 76.0286 69.8334 75.8361 69.6009C75.6526 69.9953 75.4011 70.3544 75.0931 70.6616C74.4448 71.2439 73.6445 71.6304 72.7853 71.7761C71.8436 72.0185 70.6381 72.3427 68.9646 72.8135Z" fill="#D69B7B"/>
<path d="M67.1322 58.909C66.9901 58.8449 66.4682 60.0643 65.7094 61.0646C64.8517 62.1811 63.7466 63.0831 62.481 63.6997C61.2154 64.3164 59.824 64.6307 58.4162 64.6181C57.2139 64.5596 56.0355 64.2605 54.9507 63.7385C53.866 63.2165 52.897 62.4822 52.101 61.5792C51.3801 60.7282 50.8037 59.7646 50.3949 58.7269C50.7493 60.8343 51.8633 62.7387 53.5265 64.0803C55.0838 65.188 56.9718 65.7324 58.8797 65.6239C60.4037 65.5991 61.8963 65.1869 63.2172 64.4262C64.538 63.6655 65.6437 62.5812 66.4301 61.2755C66.8628 60.5597 67.1046 59.7449 67.1322 58.909Z" fill="#D69B7B"/>
<path d="M74.3529 58.5189C74.8015 60.1912 75.7689 61.6783 77.1159 62.7661C78.2476 63.6128 79.5901 64.1323 80.997 64.2679C82.5737 64.4338 84.1638 64.1205 85.5597 63.3689C85.9625 63.146 86.3433 62.8857 86.6974 62.5915L86.8321 63.7673C85.4619 64.6191 83.8935 65.0993 82.2814 65.1605C80.7731 65.2195 79.2776 64.8629 77.9582 64.1296C74.9808 62.3426 74.3251 58.5309 74.3529 58.5189Z" fill="#D69B7B"/>
<path d="M43.6738 83.1303C42.311 83.4151 40.893 83.2603 39.6237 82.6882C38.3545 82.1161 37.2993 81.1562 36.61 79.9465C36.0059 78.7729 35.7992 77.4349 36.0211 76.1337C36.2431 74.8326 36.8816 73.6387 37.8406 72.7318C38.958 71.6374 40.4288 70.9768 41.9891 70.8687C42.4108 70.8399 42.4136 70.1805 41.9891 70.2102C40.498 70.3128 39.0744 70.8714 37.9115 71.8105C36.7486 72.7495 35.9026 74.0234 35.4881 75.4596C35.0936 76.8951 35.2047 78.4226 35.803 79.7858C36.4178 81.1453 37.4536 82.2709 38.7572 82.9966C40.3062 83.8639 42.1181 84.1373 43.854 83.7656C44.2691 83.6783 44.0936 83.043 43.6785 83.1303H43.6738Z" fill="black"/>
<path d="M42.1052 83.6903C42.9898 86.6882 44.1902 89.5836 45.6863 92.3279C46.8464 94.5767 48.4268 96.5821 50.342 98.2358C52.5554 100.083 55.1236 101.458 57.8884 102.275C60.6531 103.093 63.5559 103.335 66.418 102.988C67.6764 102.845 68.9255 102.617 70.1709 102.386C71.6827 102.124 73.1641 101.711 74.5926 101.151C76.2339 100.48 77.7551 99.5459 79.0968 98.3862C80.2819 97.343 81.3225 96.1464 82.1913 94.8281C83.0085 93.585 83.7557 92.2973 84.4295 90.971C85.1729 89.5411 85.8024 88.0548 86.312 86.5259C86.7846 85.1361 87.1293 83.706 87.3419 82.2535C87.6723 79.6229 87.8123 76.9718 87.7608 74.3209C87.7459 71.3092 87.597 68.3022 87.3141 65.2998C87.2286 64.3952 87.132 63.4915 87.0243 62.5887C87.0215 62.5023 86.9859 62.4201 86.9246 62.359C86.8633 62.2979 86.7811 62.2625 86.6946 62.2599C86.6074 62.2602 86.5238 62.2949 86.4621 62.3565C86.4003 62.418 86.3654 62.5015 86.3649 62.5887C86.7513 65.8159 86.9869 69.0564 87.0717 72.3101C87.1693 75.1055 87.1004 77.9042 86.8655 80.6914C86.7549 81.9794 86.5397 83.2564 86.2219 84.5095C85.9032 85.7268 85.5068 86.9224 85.035 88.089C84.4117 89.5819 83.69 91.0318 82.8748 92.4291C82.1859 93.693 81.3859 94.893 80.4843 96.0151C79.41 97.3129 78.1352 98.4307 76.7082 99.3262C75.312 100.185 73.7963 100.832 72.2104 101.247C70.8963 101.601 69.5515 101.833 68.2114 102.06C65.348 102.608 62.4057 102.594 59.5474 102.021C56.7469 101.402 54.1042 100.211 51.7843 98.5246C50.0494 97.2596 48.5575 95.6914 47.3803 93.8956C46.5592 92.6036 45.8282 91.2565 45.1923 89.8639C44.474 88.3825 43.8421 86.8608 43.2996 85.3064C43.0983 84.7132 42.9126 84.1151 42.7423 83.512C42.7149 83.4325 42.6582 83.3664 42.5838 83.3272C42.5094 83.2881 42.4229 83.2787 42.3418 83.3011C42.2608 83.3234 42.1913 83.3759 42.1475 83.4477C42.1037 83.5195 42.0889 83.6052 42.1062 83.6876L42.1052 83.6903Z" fill="black"/>
<path d="M71.6337 60.3495C72.1568 61.7891 72.7163 63.215 73.3119 64.6274C73.9276 66.0874 74.6 67.5214 75.2259 68.9768C75.4356 69.4476 75.6198 69.9294 75.7776 70.4201C75.8948 70.7407 75.9521 71.08 75.9466 71.4213C75.9466 71.439 75.9373 71.5253 75.942 71.4835C75.9466 71.4417 75.9318 71.5411 75.9281 71.5532C75.9216 71.5811 75.9141 71.6089 75.9067 71.6368C75.8993 71.6647 75.8965 71.6674 75.8909 71.6823C75.9123 71.6414 75.8668 71.7566 75.8909 71.6823C75.8657 71.7358 75.8365 71.7873 75.8036 71.8365C75.7822 71.869 75.8342 71.8086 75.7795 71.8643C75.7544 71.8903 75.7293 71.9164 75.7024 71.9405C75.6754 71.9646 75.7497 71.9071 75.7107 71.9331C75.6968 71.9414 75.6838 71.9516 75.6689 71.9591C75.6541 71.9665 75.6151 71.9888 75.5872 72.0009C75.6485 71.9739 75.5464 72.012 75.5259 72.0185C75.4748 72.0343 75.4228 72.0464 75.3708 72.0575C75.0946 72.1085 74.8154 72.1423 74.535 72.1588C72.6776 72.3176 70.8201 72.4188 68.9627 72.4848C68.5392 72.4996 68.5374 73.159 68.9627 73.1442C70.6883 73.0823 72.4119 72.9844 74.1338 72.8507C75.004 72.7829 76.2002 72.8423 76.5326 71.8365C76.6653 71.0268 76.5262 70.196 76.137 69.4737C75.5891 68.0805 74.9297 66.7292 74.3335 65.3565C73.5905 63.6512 72.9017 61.924 72.2671 60.1749C72.124 59.7792 71.4869 59.9501 71.6318 60.3504L71.6337 60.3495Z" fill="black"/>
<path d="M61.1494 87.1101C62.1155 86.5518 63.1443 86.1097 64.2142 85.7931C65.226 85.5081 66.2657 85.334 67.3152 85.2739C68.5346 85.1912 69.7605 85.1532 70.9817 85.1374C72.0397 85.1067 73.098 85.1867 74.1393 85.3761C75.3392 85.6156 76.5036 86.0073 77.6044 86.5417C77.9851 86.7274 78.3195 86.1571 77.9368 85.9723C75.907 84.987 73.6801 84.4754 71.4238 84.4761C70.1654 84.4761 68.9014 84.5225 67.6458 84.594C66.5451 84.6392 65.4518 84.7948 64.3823 85.0584C63.1345 85.3933 61.9361 85.8908 60.8179 86.5379C60.7441 86.5829 60.6909 86.655 60.6697 86.7387C60.6485 86.8225 60.661 86.9112 60.7046 86.9859C60.7482 87.0605 60.8193 87.115 60.9027 87.1377C60.986 87.1604 61.075 87.1495 61.1504 87.1073L61.1494 87.1101Z" fill="black"/>
<path d="M78.6232 84.8364C78.6427 84.8494 78.7383 84.9237 78.6649 84.8652C78.7086 84.9005 78.7522 84.9367 78.795 84.9748C78.9268 85.0912 79.0474 85.2196 79.1553 85.3584C79.4609 85.7538 79.637 86.2338 79.6596 86.733C79.6674 87.0989 79.5969 87.4622 79.4527 87.7986C79.3086 88.135 79.0941 88.4367 78.8238 88.6834C78.5089 88.9694 78.9761 89.4338 79.2881 89.1478C79.6387 88.8325 79.9129 88.4415 80.0899 88.0045C80.267 87.5675 80.3423 87.0959 80.3101 86.6255C80.2778 86.1551 80.139 85.6982 79.904 85.2894C79.669 84.8807 79.3441 84.5307 78.9538 84.2662C78.6055 84.0219 78.2758 84.5931 78.6204 84.8355L78.6232 84.8364Z" fill="black"/>
<path d="M58.341 84.3349C57.7616 85.4237 57.4406 86.6314 57.403 87.8642C57.4322 88.2963 57.5609 88.7158 57.7791 89.0899C57.9972 89.464 58.2988 89.7826 58.6605 90.0208C59.0032 90.2716 59.3319 89.6995 58.993 89.4515C58.6702 89.2177 58.4082 88.9101 58.2286 88.5543C58.1619 88.4137 58.1123 88.2656 58.081 88.1131C58.081 88.0955 58.068 88.0203 58.081 88.0973C58.081 88.0713 58.0754 88.0444 58.0735 88.0175C58.0679 87.9367 58.0652 87.8559 58.0661 87.7741C58.1217 86.6899 58.411 85.6304 58.914 84.6683C59.0997 84.2885 58.5314 83.9541 58.3447 84.3358L58.341 84.3349Z" fill="black"/>
<path d="M59.044 64.0571C57.7441 64.1607 56.4376 63.9702 55.2214 63.4999C54.2897 63.1234 53.4454 62.5593 52.7408 61.8427C52.0362 61.1261 51.4865 60.2723 51.1258 59.3343C50.7086 58.2518 50.5189 57.095 50.5686 55.936C50.5732 55.8366 50.5816 55.7381 50.5909 55.6388C50.5955 55.5988 50.5992 55.5589 50.6039 55.5189C50.6039 55.4967 50.6234 55.3685 50.6122 55.453C50.6271 55.3416 50.6447 55.2301 50.6642 55.1186C50.7757 54.487 50.9522 53.8685 51.1908 53.2732C51.88 51.4958 53.2465 50.0647 54.9902 49.2943C56.6916 48.6972 58.5111 48.5157 60.2969 48.765C61.2429 48.8221 62.173 49.0352 63.0496 49.3956C64.0271 49.8219 64.8922 50.4696 65.5766 51.2875C66.2226 52.061 66.709 52.9548 67.0077 53.9173C67.3064 54.8799 67.4115 55.892 67.317 56.8954C66.9511 60.5408 63.6133 63.1757 60.2114 63.8946C59.828 63.9759 59.4395 64.0314 59.0487 64.0608C58.628 64.0915 58.6242 64.7509 59.0487 64.7193C62.7329 64.4481 66.51 62.0473 67.6653 58.4251C67.9692 57.4092 68.0696 56.3433 67.9608 55.2885C67.8519 54.2338 67.5359 53.2109 67.031 52.2785C66.5126 51.2914 65.7866 50.4282 64.903 49.7485C64.0193 49.0687 62.9989 48.5883 61.9119 48.3405C61.0427 48.1603 60.1582 48.0645 59.2706 48.0544C58.3491 48.0048 57.425 48.0455 56.5114 48.1761C55.428 48.3558 54.3958 48.766 53.4846 49.379C52.5734 49.9921 51.8045 50.7937 51.2298 51.7296C50.0013 53.7197 49.6125 56.116 50.1488 58.3926C50.6058 60.4049 51.8063 62.1701 53.5098 63.3345C54.9877 64.2969 56.7228 64.7882 58.4859 64.7435C58.6716 64.7435 58.8574 64.7314 59.0431 64.7184C59.4647 64.6868 59.4675 64.0265 59.044 64.0571Z" fill="black"/>
<path d="M81.7827 64.0906C80.1643 64.0695 78.5979 63.5166 77.3248 62.5172C77.0323 62.2956 76.7575 62.0516 76.5029 61.7872C76.437 61.7176 76.3729 61.6451 76.3107 61.5727C76.1667 61.4027 76.1045 61.321 75.9782 61.1454C75.0975 59.9556 74.5626 58.5456 74.4328 57.0709C74.3415 55.3811 74.7999 53.7072 75.7395 52.2998C76.6199 50.9038 77.915 49.8181 79.4432 49.195C81.0525 48.5756 82.8358 48.5846 84.4388 49.22C85.9653 49.8577 87.2568 50.9527 88.1356 52.3544C89.0143 53.7562 89.4372 55.3958 89.3461 57.0477C89.1711 58.7327 88.458 60.3165 87.3122 61.5644C86.1665 62.8122 84.6493 63.6576 82.9853 63.9754C82.587 64.0491 82.183 64.0876 81.778 64.0906C81.6937 64.095 81.6144 64.1317 81.5563 64.1929C81.4982 64.2542 81.4658 64.3354 81.4658 64.4198C81.4658 64.5042 81.4982 64.5854 81.5563 64.6467C81.6144 64.7079 81.6937 64.7446 81.778 64.749C83.6024 64.7311 85.3704 64.1148 86.8107 62.9949C88.251 61.8749 89.2839 60.3131 89.7509 58.5494C90.2179 56.7856 90.0931 54.9173 89.3957 53.2313C88.6983 51.5453 87.4668 50.1348 85.8904 49.2163C84.3202 48.2464 82.4515 47.8791 80.631 48.1826C78.8544 48.5179 77.2423 49.4415 76.0543 50.8045C74.8795 52.1038 74.1094 53.7177 73.8384 55.4484C73.5975 57.2654 73.9708 59.1108 74.899 60.6913C75.2835 61.3891 75.7748 62.0225 76.3552 62.5683C77.453 63.5825 78.8019 64.2848 80.2623 64.6023C80.7612 64.7037 81.269 64.7544 81.778 64.7537C81.8659 64.7543 81.9505 64.72 82.0131 64.6582C82.0757 64.5965 82.1113 64.5124 82.1119 64.4244C82.1125 64.3365 82.0782 64.2519 82.0164 64.1893C81.9547 64.1267 81.8706 64.0912 81.7827 64.0906Z" fill="black"/>
<path d="M40.7929 70.8111C40.4916 68.195 40.3699 65.5614 40.4289 62.9287C40.4651 61.3498 40.5793 59.7709 40.7029 58.1919C40.8171 56.7366 40.9536 55.2821 41.1821 53.8397C41.6169 51.0079 42.4984 48.263 43.7936 45.7074C44.5515 44.1801 45.4375 42.7198 46.4423 41.3422C47.8347 39.4461 49.5667 37.8246 51.5502 36.56C54.0976 35.0081 56.9904 34.1129 59.969 33.9548C61.3677 33.8619 62.7709 33.874 64.1724 33.8861C65.4963 33.8783 66.8195 33.944 68.1361 34.083C71.0684 34.4461 73.8737 35.4962 76.3237 37.1479C79.0178 38.954 81.2273 41.3941 82.7578 44.2539C83.3668 45.3873 83.8645 46.577 84.2437 47.8065C84.3812 48.2529 84.505 48.7036 84.6152 49.1587C84.7081 49.5711 85.348 49.3965 85.2505 48.9832C84.2142 44.5562 81.7366 40.5989 78.2071 37.733C75.9529 35.8826 73.317 34.5543 70.4886 33.8434C67.7486 33.293 64.9512 33.0833 62.1599 33.2192C60.6763 33.2142 59.1946 33.3245 57.728 33.5489C56.1402 33.8073 54.5945 34.2787 53.1328 34.9505C50.8166 36.0391 48.7521 37.5975 47.0701 39.5265C45.7781 41.0133 44.661 42.6434 43.7407 44.3849C42.5159 46.5941 41.589 48.9557 40.9843 51.4082C40.3781 54.3404 40.0109 57.317 39.8865 60.3086C39.6843 63.2594 39.7107 66.2214 39.9655 69.1681C40.0125 69.7167 40.0676 70.2644 40.1308 70.8111C40.1333 70.8977 40.1689 70.9801 40.2302 71.0414C40.2915 71.1027 40.3738 71.1383 40.4605 71.1408C40.5478 71.1403 40.6313 71.1054 40.6931 71.0437C40.7548 70.982 40.7897 70.8984 40.7902 70.8111H40.7929Z" fill="black"/>
<path d="M82.5414 43.0605C83.7291 41.8535 84.6407 40.4031 85.2133 38.8095C85.6013 37.8986 85.7995 36.9182 85.796 35.9282C85.7925 34.9382 85.5873 33.9592 85.1929 33.0511C84.5382 31.7341 83.4954 30.6495 82.2052 29.9435C80.9265 29.1309 79.4303 28.7278 77.9164 28.7881C77.4361 28.8651 76.96 28.9665 76.4899 29.0918C75.9969 29.1973 75.4825 29.1294 75.0337 28.8995C74.7208 28.731 74.4382 28.5112 74.1979 28.2494C73.8926 27.9289 73.5662 27.6291 73.2208 27.3522C72.0012 26.4055 70.6421 25.6535 69.1921 25.1232C67.3645 24.479 65.4 24.3253 63.4944 24.6774C62.5026 24.8211 61.5396 25.1197 60.6405 25.5625C59.3727 26.2325 58.0669 26.828 56.7297 27.3457C55.7174 27.7265 54.6763 28.0135 53.6473 28.3432C51.7834 28.9404 49.9194 29.559 48.0871 30.2462C46.9762 30.6165 45.926 31.1485 44.9703 31.8251C43.6961 32.8817 42.5743 34.1098 41.6372 35.4743C40.9871 36.338 40.3295 37.199 39.7222 38.0925C39.2784 38.6967 38.9312 39.3663 38.6931 40.0773C38.5759 40.733 38.4983 41.3951 38.461 42.0602C38.307 42.9241 37.9548 43.7405 37.4319 44.4453C36.1778 45.9852 35.1277 47.6806 34.3078 49.4894C33.7223 51.0561 33.4904 52.733 33.6289 54.3998C33.6957 55.2422 33.9168 56.066 34.0217 56.9075C34.1255 57.739 34.1594 58.5779 34.1229 59.4151C34.0895 60.1814 34.0301 60.9457 34.0199 61.7129C34.0096 62.6863 34.0663 63.6633 34.1499 64.633C34.3015 66.7388 34.866 68.7942 35.8113 70.682C36.2009 71.4344 36.6526 72.153 37.1617 72.8303C37.4124 73.1665 37.9855 72.8377 37.731 72.4978C36.5543 70.9426 35.7033 69.166 35.229 67.2744C34.8061 65.4134 34.6216 63.5062 34.6802 61.5987C34.6913 60.8501 34.7545 60.1034 34.7842 59.3557C34.8169 58.5385 34.7821 57.7199 34.6802 56.9084C34.5789 56.0929 34.3653 55.2877 34.2938 54.4694C34.2415 53.8496 34.2393 53.2265 34.2873 52.6063C34.3618 51.6168 34.577 50.6429 34.9263 49.7141C35.2701 48.8609 35.7071 48.0483 36.2293 47.291C36.7939 46.4347 37.4059 45.6109 38.0059 44.7833C38.5188 44.0873 38.8787 43.2906 39.0618 42.4456C39.2002 41.7815 39.1278 41.0924 39.2857 40.4358C39.4782 39.7701 39.7852 39.1431 40.193 38.5829C40.767 37.72 41.4003 36.8953 42.0216 36.065C42.5603 35.3433 43.1008 34.6217 43.6933 33.9437C44.4985 32.9753 45.4862 32.1747 46.6002 31.5874C47.9147 30.9852 49.2673 30.4702 50.6494 30.0456C52.2282 29.5088 53.807 28.9831 55.397 28.4983C56.6792 28.1037 57.9333 27.6231 59.1508 27.0596C60.0536 26.6454 60.946 26.0649 61.8497 25.7529C63.0438 25.3565 64.2943 25.1567 65.5525 25.1612C66.5867 25.1526 67.6159 25.3065 68.6024 25.6173C69.2408 25.829 69.8619 26.0902 70.4598 26.3984C71.2247 26.7704 71.9529 27.2135 72.6348 27.7219C73.0005 27.9996 73.344 28.3055 73.662 28.6367C73.8834 28.8762 74.129 29.0922 74.3947 29.2813C74.7744 29.5421 75.2098 29.7103 75.6662 29.7726C76.1525 29.8184 76.6431 29.7653 77.1084 29.6165C78.0586 29.3577 79.0635 29.3813 80.0005 29.6843C81.0636 30.0055 82.0552 30.528 82.9213 31.2233C83.6316 31.7911 84.2026 32.5141 84.5902 33.3368C84.9779 34.1594 85.172 35.06 85.1576 35.9693C85.117 36.861 84.9287 37.7398 84.6004 38.5699C84.3129 39.3663 83.9418 40.13 83.4934 40.8481C83.0872 41.4801 82.6118 42.0648 82.0761 42.5914C82.0234 42.6546 81.9963 42.7353 82 42.8175C82.0037 42.8997 82.038 42.9775 82.0962 43.0357C82.1544 43.0939 82.2323 43.1283 82.3145 43.132C82.3967 43.1357 82.4773 43.1085 82.5405 43.0558L82.5414 43.0605Z" fill="black"/>
<path d="M83.9791 45.2923C83.2351 44.642 82.3665 44.1502 81.4261 43.8468C80.4858 43.5434 79.4935 43.4348 78.5099 43.5276C76.6241 43.7858 74.9036 44.7415 73.688 46.2062C73.3682 46.5639 73.0833 46.9514 72.8373 47.3634C72.7951 47.4388 72.7842 47.5278 72.8069 47.6112C72.8296 47.6945 72.8841 47.7656 72.9587 47.8092C73.0333 47.8528 73.122 47.8653 73.2058 47.8442C73.2896 47.823 73.3617 47.7697 73.4066 47.6959C73.5776 47.4061 73.7714 47.1303 73.9861 46.8712C74.4375 46.31 74.9605 45.8104 75.5417 45.3852C76.379 44.7689 77.3558 44.3695 78.385 44.2226C79.4142 44.0758 80.4638 44.1861 81.44 44.5437C82.1951 44.8263 82.8962 45.2363 83.5128 45.7557C83.8342 46.0297 84.3022 45.5653 83.9772 45.2914L83.9791 45.2923Z" fill="black"/>
<path d="M66.4997 47.2316C64.7881 45.5021 62.5535 44.3859 60.1427 44.0561C58.2493 43.8743 56.3406 44.1743 54.5943 44.9283C52.848 45.6822 51.3206 46.8656 50.1544 48.3684C50.1109 48.444 50.0989 48.5338 50.1209 48.6182C50.143 48.7027 50.1974 48.775 50.2723 48.8197C50.3483 48.8617 50.4375 48.8728 50.5214 48.8506C50.6053 48.8285 50.6774 48.7748 50.7228 48.7009C50.7748 48.634 50.6698 48.7668 50.7367 48.6832L50.8296 48.5718C50.9162 48.4659 51.0051 48.3619 51.0961 48.2597C51.3623 47.9627 51.6438 47.6796 51.9394 47.4117C52.8149 46.6116 53.8117 45.9551 54.8927 45.4669C56.3071 44.8479 57.8472 44.5706 59.3887 44.6572C60.9301 44.7439 62.4295 45.1921 63.7656 45.9656C64.5983 46.4363 65.3623 47.0191 66.0363 47.6978C66.3344 48.0006 66.8007 47.5343 66.5007 47.2334L66.4997 47.2316Z" fill="black"/>
<path d="M61.1504 59.1356C60.7291 59.1057 60.3352 58.916 60.0493 58.6052C59.7634 58.2944 59.6071 57.8861 59.6124 57.4638C59.6259 57.2292 59.6882 57 59.7954 56.7909C59.9025 56.5818 60.0522 56.3974 60.2347 56.2495C60.4172 56.1015 60.6287 55.9934 60.8554 55.9319C61.0822 55.8704 61.3193 55.8569 61.5516 55.8923C61.8982 55.964 62.2122 56.1462 62.4466 56.4114C62.681 56.6766 62.8232 57.0107 62.8518 57.3635C62.8641 57.5935 62.8291 57.8236 62.7489 58.0395C62.6687 58.2554 62.545 58.4525 62.3855 58.6187C62.226 58.7848 62.034 58.9164 61.8216 59.0053C61.6091 59.0942 61.3807 59.1386 61.1504 59.1356Z" fill="black"/>
<path d="M83.4311 58.557C83.01 58.5269 82.6162 58.3371 82.3303 58.0264C82.0444 57.7156 81.8881 57.3074 81.8932 56.8852C81.9068 56.6506 81.9692 56.4215 82.0764 56.2125C82.1836 56.0035 82.3332 55.8191 82.5157 55.6712C82.6982 55.5233 82.9096 55.4151 83.1363 55.3535C83.363 55.292 83.6001 55.2784 83.8323 55.3137C84.1789 55.3856 84.4928 55.5677 84.7272 55.8329C84.9616 56.0981 85.1038 56.4321 85.1325 56.7849C85.1447 57.0148 85.1096 57.2449 85.0294 57.4607C84.9491 57.6766 84.8254 57.8736 84.6659 58.0397C84.5064 58.2059 84.3146 58.3375 84.1022 58.4264C83.8898 58.5154 83.6614 58.5598 83.4311 58.557Z" fill="black"/>
</svg>
