<svg width="116" height="162" viewBox="0 0 116 162" fill="none" xmlns="http://www.w3.org/2000/svg">
<path d="M8.16997 98.9051C5.17196 95.8 3.05896 91.9498 2.04997 87.7532C1.44997 85.0912 1.46697 81.9745 1.49597 75.7405C1.51897 70.9005 1.75796 70.8402 1.59596 68.0013C1.24596 62.0553 0.158963 61.6654 0.395963 57.8504C0.649399 54.5939 1.6046 51.4309 3.19597 48.5784C4.87197 45.3904 6.32596 45.5544 8.30997 41.8484C9.2623 39.9937 10.0426 38.0556 10.641 36.0584C11.907 32.1584 11.35 32.1892 12.226 30.0462C12.926 28.3462 14.65 26.1871 18.076 21.9461C19.686 19.9531 20.491 18.9563 21.085 18.3743C23.2517 16.2919 25.7819 14.6244 28.55 13.4544C34.197 10.9304 36.682 10.9444 42.15 9.11844C51.417 6.02744 51.445 3.60426 58.864 2.08426C62.5951 1.12903 66.4911 1.00911 70.274 1.73318C76.683 3.09718 81.974 7.08828 83.129 8.83328C83.4041 9.26315 83.7588 9.63661 84.174 9.93338C85.1174 10.5379 86.2368 10.8075 87.352 10.6985C91.43 10.4985 92.469 9.55918 94.624 9.98318C95.8697 10.3674 97.0291 10.9895 98.038 11.8152C102.038 14.5102 104.038 15.8574 105.19 17.8894C107.25 21.5344 106.219 25.6165 105.583 28.2215C104.69 31.794 102.838 35.0543 100.227 37.6512L8.16997 98.9051Z" fill="#705654"/>
<path d="M14.005 95.4632C12.6335 86.4867 12.4567 77.3685 13.479 68.3456C14.116 62.7326 14.824 56.8454 17.605 49.6224C19.896 43.6684 23.839 33.4225 34.181 26.2225C38.9383 22.9568 44.3271 20.7236 50 19.6673C53.9517 19.0076 57.967 18.8132 61.964 19.0882C68.251 19.2932 72.855 19.4436 78.053 21.0956C95.033 26.4956 102.397 42.8625 102.925 44.0775C103.75 45.9743 104.418 47.9349 104.925 49.9403C106.305 59.8116 107.684 69.6818 109.063 79.5511C111.265 90.6451 111.581 102.031 109.997 113.23C108.335 124.81 106.797 135.555 98.237 145.397C92.724 151.638 85.6481 156.298 77.737 158.897C71.8992 160.797 65.7406 161.512 59.623 160.997C55.166 160.61 43.269 158.908 33.423 149.713C30.4352 146.856 27.8519 143.603 25.745 140.046C22.1404 134.313 19.5465 128.003 18.076 121.392C14.782 121.631 11.5186 120.623 8.93269 118.569C6.34677 116.514 4.62708 113.564 4.11448 110.301C3.60188 107.039 4.33377 103.702 6.16511 100.954C7.99644 98.2056 10.7935 96.2454 14.002 95.4622L14.005 95.4632Z" fill="#E6BC9A"/>
<path d="M52.2 81.8115C47.9544 82.1031 43.7523 80.8048 40.411 78.1695C35.767 74.4025 33.167 68.0157 34.448 62.1807C36.485 52.8997 47.837 47.3235 57.069 49.8975C63.274 51.6275 69.382 57.2798 69.769 64.4688C70.269 73.9378 60.58 81.1995 52.2 81.8115Z" fill="white"/>
<path d="M98.3 82.3563C88.919 82.1273 82 72.7564 83.14 63.7904C84.105 56.2214 90.775 49.3133 99.121 49.5253C107.775 49.7463 114.304 57.5253 114.399 65.7093C114.5 74.4933 107.185 82.5733 98.3 82.3563Z" fill="white"/>
<path d="M20.859 120.818C22.9655 127.826 26.7055 134.234 31.7715 139.515C36.8375 144.796 43.0846 148.798 49.9992 151.194C56.9138 153.589 64.2982 154.309 71.5452 153.293C78.7922 152.278 85.6947 149.558 91.685 145.354C100.408 138.992 106.658 129.805 109.372 119.354C107.863 128.117 104.446 136.44 99.363 143.735C96.957 147.135 93.954 151.281 88.496 154.6C84.464 157.052 80.758 158.036 76.662 159.126C72.2484 160.421 67.6782 161.104 63.079 161.157C58.7266 161.179 54.393 160.584 50.207 159.393C44.1983 157.787 38.6404 154.818 33.965 150.716C28.809 146.1 26.353 141.309 23.255 135.262C21.0253 130.911 19.197 126.366 17.793 121.684C16.3052 121.716 14.8238 121.481 13.419 120.99C8.76499 119.348 6.57198 115.337 5.71898 113.77C4.38098 111.322 3.58599 108.51 3.99099 108.305C4.49099 108.054 6.22299 112.069 9.74399 115.351C12.8734 118.164 16.7204 120.056 20.859 120.818Z" fill="#D69B7B"/>
<path opacity="0.75" d="M34.0439 64.8353C34.1689 63.7453 35.1559 56.2711 41.8719 51.8841C45.6075 49.5242 50.0856 48.6334 54.4399 49.3841C60.5399 50.3251 67.0809 54.4842 69.1119 60.9842C69.6736 62.8137 69.8736 64.7354 69.7009 66.6414C67.7975 62.7757 64.7701 59.5753 61.0159 57.4603C55.3789 54.3603 47.5859 53.6162 41.1769 57.3602C38.1661 59.1597 35.7007 61.7435 34.0439 64.8353Z" fill="#D0C9D1"/>
<path opacity="0.75" d="M82.724 67.5785C82.684 59.2385 87.889 52.1783 94.896 50.3783C96.9993 49.8301 99.1943 49.7303 101.339 50.0848C103.483 50.4393 105.529 51.2404 107.344 52.4364C109.159 53.6323 110.703 55.1965 111.874 57.0272C113.046 58.8579 113.82 60.9143 114.146 63.0633C112.398 60.1607 109.833 57.8379 106.772 56.3856C103.711 54.9332 100.29 54.4161 96.9361 54.8983C93.5825 55.3805 90.4455 56.8406 87.9176 59.0965C85.3897 61.3525 83.5832 64.304 82.724 67.5814V67.5785Z" fill="#D0C9D1"/>
<path d="M104.576 30.2995C105.518 28.6475 106.09 26.8107 106.251 24.9157C106.413 23.0207 106.16 21.1134 105.511 19.3259C104.861 17.5383 103.831 15.9131 102.491 14.5637C101.15 13.2142 99.5329 12.1728 97.7499 11.5109C97.1419 11.2569 92.7199 9.41053 88.576 10.6105C88.0059 10.819 87.4049 10.9306 86.798 10.9406C84.075 10.9076 82.1719 8.38575 81.2069 7.28875C77.0779 2.58875 69.867 0.904492 65.617 0.924492C63.0019 0.937492 60.617 1.77953 55.841 3.46453C53.0625 4.47926 50.3426 5.64773 47.6939 6.96453C35.4429 12.5915 32.3699 10.0706 25.3409 15.1076C23.1649 16.6676 21.2739 18.6858 17.4909 22.7228C14.2539 26.1768 12.5909 28.3869 11.6749 31.0549C11.1049 32.7139 10.7459 34.2726 10.7459 34.2726C10.1329 36.9286 10.312 37.7727 9.78295 39.3307C9.21713 40.7979 8.3676 42.139 7.28295 43.2775C5.15396 45.9126 3.39316 48.8252 2.04894 51.9347C0.757941 55.1867 0.840944 57.8986 1.00194 63.2096C1.14294 67.8587 1.70694 67.4628 1.93294 72.3298C2.23294 78.8898 1.22495 79.8759 1.99795 85.0949C2.34932 87.5849 2.99205 90.025 3.91294 92.3649C4.8603 94.7147 6.10151 96.935 7.60694 98.9728L8.68995 98.2555C7.42678 96.2046 6.398 94.0181 5.62295 91.7375C4.83238 89.3742 4.30191 86.9321 4.04095 84.4538C3.78595 82.3598 3.89294 81.9436 3.75394 75.5886C3.66794 71.6566 3.62495 69.6886 3.51395 67.5886C3.22995 62.1676 2.93794 61.9659 3.13094 59.8259C3.37836 57.1566 4.07482 54.5479 5.19094 52.1105C6.63394 48.9875 7.47195 49.0496 10.559 43.6286C11.4443 42.1727 12.1814 40.6316 12.7589 39.0285C13.3528 37.1429 13.7384 35.1982 13.9089 33.2287C14.5619 29.3037 17.0089 26.6806 20.2349 23.2136C23.2921 19.9689 26.9128 17.3062 30.9209 15.3547C36.6009 12.5617 37.3769 13.9294 45.2489 10.8014C51.3789 8.36645 51.6489 7.24071 56.8489 5.76971C60.3689 4.61337 64.0777 4.14172 67.7749 4.38055C71.4439 4.68055 74.9089 4.95859 77.7899 7.39959C79.2905 8.90046 80.909 10.2786 82.63 11.5207C83.7359 12.411 85.0594 12.9902 86.464 13.1979C87.8709 13.3359 88.5229 12.8977 90.0579 12.6227C91.9616 12.36 93.8983 12.4741 95.7579 12.9587C100.197 14.1367 102.671 18.0099 103.233 18.9489C104.204 20.6551 104.824 22.5383 105.054 24.488C105.285 26.4376 105.122 28.4138 104.576 30.2995Z" fill="#AA8785"/>
<path d="M52.043 134.333C51.843 134.457 50.582 133.253 49.958 131.632C49.3927 130.012 49.4164 128.244 50.025 126.64C50.1283 127.99 50.371 129.326 50.749 130.626C51.408 132.893 52.238 134.214 52.043 134.333Z" fill="#D69B7B"/>
<path d="M93.866 124.557C94.118 124.507 95.152 126.435 94.896 128.605C94.606 131.071 92.764 132.872 92.548 132.751C92.38 132.656 93.268 131.438 93.698 129.157C94.209 126.446 93.625 124.6 93.866 124.557Z" fill="#D69B7B"/>
<path d="M55.889 128.689C55.814 128.44 63.078 124.671 72.783 124.263C82.827 123.84 90.662 127.22 90.607 127.462C90.552 127.704 83.507 125.062 73.428 125.378C63.069 125.705 55.962 128.934 55.889 128.689Z" fill="#D69B7B"/>
<path d="M16.694 94.9425C15.7723 87.3423 15.5941 79.6706 16.162 72.0358C16.907 62.0358 17.441 54.8556 21.434 46.5416C23.493 42.2536 28.688 31.8119 40.602 25.5529C51.473 19.8409 61.854 20.8077 67.002 21.2877C73.1243 21.7359 79.0994 23.3801 84.589 26.1276C91.0796 29.4361 96.6984 34.2291 100.989 40.1168C99.1597 37.0144 96.9488 34.1533 94.408 31.6007C92.344 29.5287 84.373 21.7257 73.008 19.8937C69.412 19.4226 65.7922 19.1557 62.166 19.0939C59.8499 18.9604 57.5284 18.9473 55.211 19.0548C50.3069 19.3832 45.5023 20.5934 41.028 22.6276C36.4164 24.7828 32.2539 27.7909 28.76 31.4928C20.107 40.3018 17.231 50.2927 15.965 54.8927C14.165 61.4437 13.98 66.8125 13.618 77.5485C13.366 84.9885 13.564 91.1807 13.801 95.5197L16.694 94.9425Z" fill="#D69B7B"/>
<path d="M72.433 99.5684C74.1383 99.5204 75.8877 99.4406 77.681 99.3286C80.64 99.1416 83.476 98.8757 86.181 98.5527C86.8041 97.9992 87.2389 97.265 87.425 96.4526C87.535 95.8441 87.511 95.2189 87.3545 94.6206C87.198 94.0223 86.9129 93.465 86.519 92.9883C86.1433 93.7959 85.6288 94.5317 84.999 95.1616C83.6694 96.353 82.0293 97.143 80.269 97.4404C78.336 97.9394 75.865 98.5994 72.433 99.5684Z" fill="#D69B7B"/>
<path d="M68.676 71.0654C68.386 70.9344 67.315 73.4334 65.76 75.4854C64.1758 77.6537 62.1212 79.4353 59.7503 80.6963C57.3793 81.9573 54.7537 82.6652 52.0702 82.7666C49.3867 82.868 46.7151 82.3602 44.2558 81.2817C41.7965 80.2033 39.6133 78.5821 37.87 76.5396C36.3919 74.7951 35.2096 72.8201 34.37 70.6934C34.195 70.7754 35.527 77.6525 40.792 81.6675C43.9842 83.9376 47.8542 85.0532 51.765 84.8306C58.214 84.6306 64.565 81.0505 67.244 75.9165C68.342 73.8185 68.963 71.1944 68.676 71.0654Z" fill="#D69B7B"/>
<path d="M83.48 70.2656C84.3991 73.6939 86.3818 76.7424 89.143 78.9727C91.4632 80.7091 94.2162 81.7735 97.101 82.0503C100.333 82.3909 103.592 81.7491 106.453 80.2085C107.279 79.7516 108.06 79.2185 108.786 78.6157L109.061 81.0254C106.252 82.7667 103.039 83.7477 99.736 83.8716C96.6436 83.9952 93.5768 83.266 90.871 81.7637C84.767 78.0997 83.423 70.2906 83.48 70.2656Z" fill="#D69B7B"/>
<path d="M20.61 120.8C17.7927 121.39 14.8608 121.069 12.2378 119.883C9.61484 118.698 7.43668 116.709 6.01798 114.205C4.70619 111.79 4.27388 108.995 4.79497 106.297C5.32676 103.65 6.6457 101.225 8.57897 99.3405C10.8839 97.0855 13.917 95.7259 17.134 95.5056C17.893 95.4536 17.898 94.2656 17.134 94.3176C13.9972 94.5231 11.0063 95.7178 8.59098 97.7297C6.3118 99.6329 4.66501 102.184 3.86898 105.045C3.07331 107.954 3.29848 111.048 4.50698 113.812C5.76047 116.591 7.87503 118.892 10.538 120.377C13.6949 122.144 17.3871 122.701 20.925 121.945C21.673 121.788 21.356 120.645 20.61 120.8Z" fill="black"/>
<path d="M17.451 121.844C19.2661 127.994 21.7313 133.932 24.805 139.56C27.1741 144.144 30.3988 148.232 34.305 151.604C38.8451 155.396 44.1151 158.214 49.7887 159.886C55.4622 161.558 61.4186 162.048 67.289 161.325C69.862 161.025 72.418 160.568 74.962 160.085C78.0131 159.554 81.0036 158.72 83.889 157.595C87.2509 156.225 90.3679 154.318 93.118 151.949C95.5322 149.831 97.6532 147.402 99.425 144.724C101.104 142.186 102.639 139.557 104.025 136.849C105.564 133.901 106.866 130.836 107.919 127.682C108.886 124.844 109.594 121.924 110.032 118.958C110.711 113.574 111 108.148 110.895 102.723C110.867 96.5353 110.562 90.3578 109.98 84.1904C109.806 82.3298 109.606 80.4717 109.38 78.6157C109.375 78.4598 109.311 78.3115 109.2 78.2012C109.09 78.0908 108.942 78.0265 108.786 78.0215C108.629 78.023 108.479 78.0862 108.368 78.1973C108.257 78.3083 108.194 78.4587 108.192 78.6157C108.986 85.2497 109.469 91.9109 109.642 98.5996C109.84 104.317 109.699 110.041 109.217 115.742C108.985 118.407 108.537 121.049 107.877 123.642C107.217 126.149 106.396 128.611 105.421 131.013C104.137 134.071 102.654 137.042 100.98 139.905C99.5579 142.505 97.9049 144.971 96.041 147.274C93.8426 149.913 91.2388 152.186 88.327 154.007C85.479 155.755 82.3892 157.074 79.157 157.922C76.473 158.648 73.726 159.122 70.987 159.591C65.0718 160.726 58.9926 160.701 53.087 159.518C47.3416 158.243 41.9205 155.798 37.162 152.335C33.6141 149.746 30.5609 146.54 28.148 142.87C26.4604 140.223 24.9595 137.461 23.656 134.605C22.1758 131.555 20.8736 128.421 19.756 125.22C19.3387 123.998 18.953 122.764 18.599 121.52C18.5549 121.37 18.4539 121.244 18.3178 121.168C18.1817 121.093 18.0214 121.074 17.8713 121.115C17.7213 121.157 17.5935 121.255 17.5154 121.39C17.4374 121.525 17.4153 121.685 17.454 121.835L17.451 121.844Z" fill="black"/>
<path d="M77.984 73.9993C79.0633 76.9693 80.2177 79.9105 81.447 82.8225C82.708 85.8085 84.086 88.7424 85.364 91.7224C85.7915 92.684 86.1664 93.6679 86.487 94.6702C86.6098 95.0615 86.7073 95.4607 86.779 95.8645C86.8032 95.9797 86.8176 96.0964 86.822 96.2141C86.835 96.3848 86.837 96.5564 86.828 96.7273C86.828 96.7913 86.819 96.8542 86.811 96.9182C86.83 96.7612 86.799 96.9711 86.789 97.0081C86.773 97.0731 86.758 97.1374 86.738 97.2014C86.723 97.2474 86.638 97.442 86.705 97.301C86.6529 97.4095 86.5931 97.5146 86.526 97.6145C86.452 97.7255 86.587 97.5604 86.471 97.6804C86.42 97.7334 86.371 97.7862 86.314 97.8342C86.235 97.9042 86.314 97.8345 86.331 97.8225C86.3013 97.8452 86.2698 97.8652 86.237 97.8831C86.173 97.9161 86.113 97.9532 86.047 97.9832C86.163 97.9332 85.963 98.0084 85.936 98.0164C85.836 98.0474 85.736 98.0735 85.631 98.0955C85.0798 98.2019 84.5223 98.2723 83.962 98.3064C80.128 98.6414 76.279 98.8472 72.433 98.9832C71.671 99.0102 71.667 100.197 72.433 100.17C75.9663 100.046 79.4967 99.8454 83.024 99.5701C83.791 99.5101 84.559 99.4514 85.324 99.3464C85.7796 99.3004 86.2258 99.1864 86.648 99.009C86.9455 98.8591 87.209 98.6497 87.4218 98.3933C87.6347 98.137 87.7923 97.8394 87.885 97.5193C88.377 95.9663 87.607 94.1284 87.045 92.7024C85.922 89.8554 84.579 87.0943 83.358 84.2883C81.84 80.8003 80.431 77.2669 79.131 73.6882C78.873 72.9752 77.725 73.2832 77.986 74.0032L77.984 73.9993Z" fill="black"/>
<path d="M56.371 128.805C58.3337 127.671 60.4218 126.769 62.593 126.118C64.6764 125.524 66.819 125.16 68.982 125.034C71.505 124.859 74.044 124.781 76.572 124.749C78.7357 124.687 80.9 124.85 83.03 125.235C85.5078 125.726 87.9124 126.533 90.185 127.636C90.87 127.968 91.473 126.943 90.785 126.61C86.6638 124.608 82.1436 123.564 77.562 123.554C74.97 123.543 72.367 123.646 69.78 123.793C67.5222 123.885 65.2793 124.204 63.085 124.743C60.5242 125.427 58.0652 126.446 55.772 127.775C55.6399 127.857 55.5448 127.986 55.5072 128.137C55.4697 128.288 55.4925 128.447 55.5709 128.581C55.6494 128.715 55.7771 128.813 55.9268 128.854C56.0765 128.895 56.2363 128.875 56.372 128.8L56.371 128.805Z" fill="black"/>
<path d="M92.276 124.144C92.353 124.198 92.441 124.267 92.376 124.214C92.476 124.293 92.576 124.375 92.668 124.461C92.9371 124.701 93.1831 124.966 93.403 125.253C94.0404 126.084 94.4038 127.093 94.443 128.14C94.4541 128.894 94.3051 129.642 94.0056 130.335C93.7062 131.027 93.2632 131.648 92.706 132.157C92.139 132.672 92.981 133.509 93.546 132.997C94.2561 132.36 94.8117 131.569 95.1708 130.685C95.5299 129.801 95.683 128.847 95.6186 127.895C95.5541 126.943 95.2737 126.018 94.7987 125.191C94.3237 124.363 93.6665 123.655 92.877 123.119C92.25 122.679 91.655 123.708 92.276 124.144Z" fill="black"/>
<path d="M50.726 123.228C49.5542 125.436 48.9003 127.881 48.814 130.379C48.8662 131.258 49.1226 132.112 49.5629 132.874C50.0031 133.636 50.615 134.284 51.35 134.768C51.968 135.22 52.561 134.19 51.95 133.743C51.249 133.239 50.6858 132.566 50.312 131.787C50.0691 131.299 49.962 130.755 50.002 130.211C50.1203 127.982 50.7171 125.805 51.752 123.827C52.085 123.143 51.062 122.541 50.726 123.228Z" fill="black"/>
<path d="M52.1 81.6999C49.405 81.9132 46.6967 81.5108 44.1799 80.5236C42.2761 79.7452 40.5512 78.5864 39.1106 77.1183C37.67 75.6503 36.5442 73.9037 35.802 71.9855C34.9295 69.7447 34.5324 67.347 34.636 64.9445C34.646 64.7335 34.663 64.5227 34.685 64.3117C34.693 64.2307 34.702 64.1495 34.712 64.0695C34.717 64.0245 34.723 63.9798 34.729 63.9348C34.749 63.7748 34.71 64.0656 34.729 63.8996C34.761 63.6776 34.7963 63.4565 34.835 63.2365C35.0654 61.943 35.4283 60.6769 35.918 59.4577C36.6264 57.6374 37.6876 55.9749 39.0406 54.5661C40.3936 53.1573 42.0117 52.03 43.802 51.2487C47.215 49.8197 51.057 49.8978 54.683 50.1828C56.6387 50.3035 58.5609 50.7481 60.371 51.4987C62.3845 52.3849 64.1647 53.7268 65.571 55.4186C66.9082 57.03 67.9101 58.8923 68.5178 60.8962C69.1255 62.9 69.3269 65.0049 69.11 67.0876C68.282 74.5256 61.452 79.8876 54.492 81.3586C53.7005 81.5257 52.8987 81.6399 52.092 81.6999C51.334 81.7549 51.328 82.9429 52.092 82.8869C55.861 82.5877 59.4849 81.3013 62.599 79.1569C65.8844 76.998 68.366 73.8153 69.659 70.1027C70.2867 68.0376 70.501 65.8689 70.2894 63.7209C70.0778 61.5729 69.4446 59.4876 68.4259 57.5847C67.3785 55.5617 65.9047 53.7902 64.1063 52.3918C62.3079 50.9934 60.2277 50.0013 58.009 49.4846C56.2096 49.1062 54.3775 48.9052 52.539 48.8845C50.6242 48.7801 48.7037 48.8696 46.807 49.1515C44.6117 49.5311 42.5229 50.3754 40.6803 51.6276C38.8378 52.8799 37.284 54.5114 36.123 56.4128C34.6852 58.7944 33.7891 61.463 33.498 64.2297C33.323 66.1306 33.465 68.0472 33.918 69.9015C34.8346 74.0173 37.2737 77.6342 40.746 80.0265C43.7706 82.0117 47.3292 83.0262 50.946 82.9338C51.327 82.9278 51.708 82.9085 52.088 82.8815C52.854 82.8345 52.86 81.6469 52.1 81.6999Z" fill="black"/>
<path d="M98.711 81.7685C95.387 81.7258 92.1689 80.593 89.551 78.5443C88.9395 78.0826 88.3654 77.5734 87.834 77.0214C87.4396 76.6036 87.0757 76.1581 86.745 75.6884C84.9243 73.2261 83.8231 70.3066 83.564 67.2553C83.3872 63.7904 84.3319 60.3611 86.258 57.4755C88.0887 54.5741 90.7882 52.3241 93.972 51.0463C97.2437 49.8084 100.858 49.8272 104.117 51.0985C107.278 52.3998 109.956 54.6513 111.781 57.5414C113.606 60.4315 114.488 63.8171 114.305 67.2304C113.805 74.3034 108.005 80.2903 101.113 81.5463C100.321 81.6887 99.5179 81.7631 98.713 81.7685C98.5554 81.7685 98.4044 81.8309 98.293 81.9423C98.1816 82.0537 98.119 82.2047 98.119 82.3622C98.119 82.5198 98.1816 82.6712 98.293 82.7826C98.4044 82.894 98.5554 82.9565 98.713 82.9565C102.442 82.8373 106.035 81.5303 108.968 79.226C111.902 76.9217 114.023 73.7406 115.022 70.1464C116.895 62.9324 113.342 55.0603 107.044 51.2323C103.842 49.2731 100.04 48.5384 96.339 49.1635C92.6887 49.8636 89.3829 51.779 86.96 54.5976C84.5894 57.2528 83.0416 60.5397 82.505 64.0585C82.0341 67.7509 82.8064 71.495 84.7 74.6996C85.482 76.1118 86.479 77.3936 87.655 78.4994C89.9165 80.592 92.703 82.0324 95.718 82.6674C96.7062 82.8615 97.7109 82.9587 98.718 82.9574C98.8757 82.9565 99.0265 82.8928 99.1373 82.7807C99.2482 82.6685 99.3099 82.517 99.309 82.3593C99.3081 82.2016 99.2445 82.0507 99.1324 81.9398C99.0202 81.829 98.8687 81.7675 98.711 81.7685Z" fill="black"/>
<path d="M14.6 95.4632C13.9815 90.0919 13.7325 84.6844 13.855 79.2791C13.929 76.0301 14.166 72.7881 14.42 69.5481C14.653 66.5861 14.933 63.6252 15.397 60.6892C16.2874 54.8708 18.0966 49.2309 20.757 43.9803C22.3094 40.8498 24.1232 37.8556 26.179 35.0301C29.0336 31.135 32.5844 27.8023 36.652 25.1995C41.9025 21.9959 47.8678 20.1493 54.01 19.8265C56.865 19.6345 59.727 19.6633 62.587 19.6873C65.3067 19.6692 68.0252 19.8026 70.73 20.0872C76.7501 20.8323 82.5097 22.9867 87.541 26.3753C95.3384 31.5919 101.098 39.3387 103.847 48.3084C104.126 49.2164 104.374 50.1331 104.591 51.0584C104.766 51.8014 105.911 51.4875 105.736 50.7425C103.618 41.6734 98.5425 33.5668 91.31 27.6995C86.6947 23.9168 81.2988 21.2031 75.51 19.7542C69.957 18.4022 64.174 18.4431 58.493 18.4861C55.4737 18.4763 52.4581 18.699 49.473 19.1521C46.1869 19.682 42.9884 20.6581 39.966 22.0525C35.234 24.2877 31.0171 27.4803 27.582 31.4285C24.9457 34.4698 22.6662 37.8024 20.788 41.3621C18.2864 45.8756 16.3936 50.7007 15.159 55.7112C13.9251 61.6837 13.1756 67.746 12.918 73.8391C12.4964 79.9233 12.5486 86.0311 13.074 92.1072C13.1713 93.2285 13.2843 94.3475 13.413 95.4641C13.499 96.2151 14.687 96.2222 14.6 95.4632Z" fill="black"/>
<path d="M100.209 38.5206C102.634 36.0568 104.495 33.0957 105.664 29.8423C106.457 27.9849 106.864 25.9852 106.858 23.9654C106.852 21.9456 106.434 19.9486 105.63 18.0958C104.294 15.4077 102.165 13.1943 99.53 11.7554C96.903 10.2704 93.843 9.08851 90.779 9.39751C89.8024 9.55453 88.8344 9.76159 87.879 10.0176C86.8469 10.238 85.7703 10.0969 84.83 9.61773C84.1831 9.26914 83.5988 8.815 83.101 8.27447C82.4764 7.61689 81.8082 7.00232 81.101 6.43462C78.6115 4.50466 75.8379 2.97218 72.879 1.89165C69.1466 0.574931 65.1341 0.260039 61.242 0.978567C59.2157 1.27093 57.248 1.88021 55.411 2.78374C52.8061 4.16075 50.1228 5.38423 47.375 6.4478C45.3 7.22781 43.165 7.81673 41.055 8.49273C37.235 9.71573 33.413 10.9856 29.655 12.3926C27.3844 13.1491 25.2382 14.2372 23.286 15.6216C20.6861 17.7793 18.3976 20.287 16.486 23.0728C15.157 24.8438 13.806 26.6065 12.561 28.4385C11.6552 29.6718 10.9468 31.0388 10.461 32.4898C10.2207 33.834 10.0618 35.1914 9.98499 36.5547C9.66813 38.3319 8.94386 40.0112 7.869 41.4615C5.508 44.7315 2.93099 47.9818 1.46899 51.7828C0.270206 54.9872 -0.204141 58.4172 0.0799938 61.8267C0.215994 63.5537 0.668997 65.2435 0.879997 66.9615C1.09371 68.6656 1.16328 70.3848 1.08799 72.1006C1.01999 73.6716 0.887999 75.2376 0.875999 76.8106C0.856999 78.8106 0.975989 80.8105 1.14399 82.7955C1.45498 87.0984 2.61031 91.2978 4.544 95.1544C5.34175 96.6958 6.26732 98.168 7.311 99.5547C7.764 100.155 8.79599 99.5676 8.33599 98.9546C5.92131 95.7598 4.1743 92.1117 3.199 88.2276C2.3311 84.4057 1.95206 80.4888 2.07099 76.5713C2.09399 75.0353 2.22399 73.5067 2.28599 71.9717C2.35262 70.2967 2.28138 68.6189 2.07299 66.9556C1.86499 65.2836 1.42699 63.6326 1.27999 61.9556C1.17216 60.6847 1.16782 59.4074 1.26699 58.1358C1.41894 56.0997 1.86108 54.0956 2.57999 52.1846C3.28418 50.4309 4.17959 48.7602 5.24999 47.2027C6.40599 45.4467 7.66099 43.7588 8.89199 42.0538C9.93888 40.6328 10.6736 39.0066 11.048 37.2818C11.331 35.9208 11.183 34.5076 11.507 33.1626C11.9017 31.7906 12.5339 30.4985 13.375 29.3448C14.552 27.5748 15.853 25.8847 17.125 24.1817C18.232 22.6977 19.345 21.2115 20.565 19.8165C22.221 17.8266 24.2518 16.1817 26.542 14.9747C29.2425 13.7371 32.0215 12.6785 34.861 11.8057C38.092 10.7057 41.328 9.62735 44.594 8.63335C47.2152 7.82617 49.7793 6.84402 52.269 5.69341C54.128 4.84041 55.901 3.66942 57.823 3.00542C60.2773 2.19024 62.8479 1.77973 65.434 1.7896C67.5616 1.77217 69.6787 2.089 71.708 2.72857C73.0204 3.16661 74.2974 3.70408 75.528 4.33648C77.0987 5.10058 78.594 6.01117 79.994 7.05572C80.7493 7.62893 81.4585 8.26021 82.115 8.94439C82.5636 9.43049 83.0616 9.86866 83.601 10.2515C84.3659 10.7811 85.2445 11.1236 86.166 11.2515C87.1562 11.3452 88.1551 11.2368 89.102 10.9327C91.0638 10.3993 93.1384 10.4481 95.073 11.0728C97.2662 11.7351 99.3114 12.8131 101.097 14.2486C102.561 15.42 103.737 16.9107 104.536 18.607C105.335 20.3032 105.735 22.1601 105.705 24.0347C105.626 25.8727 105.242 27.6845 104.569 29.3965C103.977 31.0353 103.213 32.6068 102.29 34.0845C101.453 35.3863 100.474 36.5905 99.371 37.6753C99.2615 37.7871 99.2004 37.9378 99.2012 38.0943C99.202 38.2508 99.2645 38.4006 99.3752 38.5113C99.4859 38.6219 99.6357 38.6843 99.7922 38.6851C99.9487 38.6859 100.099 38.6252 100.211 38.5157L100.209 38.5206Z" fill="black"/>
<path d="M103.155 43.2115C101.64 41.8889 99.871 40.8884 97.9567 40.271C96.0424 39.6537 94.0225 39.4326 92.02 39.6206C88.1701 40.144 84.6572 42.0939 82.177 45.0845C81.5251 45.8137 80.9444 46.6036 80.443 47.4434C80.3878 47.5773 80.3829 47.7266 80.4292 47.8638C80.4755 48.001 80.5698 48.1169 80.6948 48.19C80.8198 48.2631 80.967 48.2887 81.1093 48.2618C81.2516 48.2348 81.3794 48.1572 81.469 48.0435C81.583 47.8435 81.709 47.6495 81.838 47.4585C81.967 47.2675 82.082 47.1057 82.209 46.9317C82.393 46.6817 82.449 46.6084 82.651 46.3604C83.5888 45.1917 84.6773 44.1525 85.888 43.2696C87.4544 42.126 89.2487 41.3331 91.149 40.9454C93.4583 40.5121 95.8422 40.7197 98.042 41.5455C99.0176 41.91 99.9507 42.3794 100.825 42.9454C101.348 43.2755 101.846 43.6432 102.316 44.0455C102.895 44.5375 103.738 43.7016 103.155 43.2056V43.2115Z" fill="black"/>
<path d="M67.3229 47.1863C63.8061 43.6317 59.2086 41.3455 54.2519 40.6863C50.3992 40.3337 46.5196 40.956 42.9704 42.4959C39.4212 44.0358 36.3165 46.4439 33.942 49.4983C33.8642 49.6346 33.843 49.7958 33.8828 49.9475C33.9226 50.0993 34.0203 50.2297 34.1549 50.3103C34.2918 50.3863 34.4527 50.4067 34.6042 50.367C34.7556 50.3273 34.8859 50.2308 34.968 50.0975C35.079 49.9515 34.882 50.2031 35.003 50.0511C35.066 49.9731 35.1279 49.8952 35.1909 49.8182C35.3683 49.6015 35.5499 49.3891 35.7359 49.1805C36.2837 48.5688 36.8628 47.9859 37.4709 47.4344C39.2728 45.7882 41.3243 44.4381 43.5489 43.4344C46.4615 42.1611 49.6328 41.5907 52.8065 41.7698C55.9801 41.9489 59.0671 42.8722 61.8179 44.4651C63.5285 45.4328 65.0981 46.6307 66.483 48.0252C67.02 48.5702 67.8599 47.7313 67.3229 47.1863Z" fill="black"/>
<path d="M56.415 71.5318C55.5517 71.4692 54.7448 71.0794 54.1587 70.4424C53.5727 69.8055 53.2516 68.9691 53.261 68.1036C53.2891 67.6228 53.4171 67.1532 53.637 66.7247C53.8568 66.2962 54.1637 65.918 54.5378 65.6148C54.912 65.3116 55.3453 65.0897 55.8101 64.9634C56.2748 64.8371 56.7608 64.8092 57.237 64.8814C57.949 65.0272 58.5945 65.4001 59.0766 65.9439C59.5588 66.4877 59.8516 67.1732 59.911 67.8975C59.9361 68.3697 59.864 68.8421 59.699 69.2852C59.534 69.7283 59.2797 70.1329 58.9519 70.4737C58.6241 70.8144 58.2297 71.0841 57.7933 71.2662C57.3569 71.4482 56.8878 71.5386 56.415 71.5318Z" fill="black"/>
<path d="M102.091 70.3423C101.228 70.2798 100.421 69.8907 99.835 69.254C99.249 68.6172 98.9278 67.7809 98.937 66.9156C98.965 66.4348 99.0931 65.9652 99.3129 65.5367C99.5328 65.1082 99.8396 64.73 100.214 64.4268C100.588 64.1236 101.021 63.9017 101.486 63.7754C101.951 63.6492 102.437 63.6212 102.913 63.6934C103.625 63.8392 104.27 64.2121 104.753 64.7559C105.235 65.2997 105.528 65.9852 105.587 66.7095C105.612 67.1817 105.54 67.6541 105.375 68.0972C105.21 68.5403 104.956 68.945 104.628 69.2857C104.3 69.6264 103.906 69.8958 103.469 70.0777C103.033 70.2595 102.564 70.3495 102.091 70.3423Z" fill="black"/>
</svg>
