<svg width="726" height="248" viewBox="0 0 726 248" fill="none" xmlns="http://www.w3.org/2000/svg">
<path d="M699.775 14.969C694.082 14.1131 688.331 13.7039 682.575 13.745C672.495 13.7631 662.441 14.775 652.559 16.766L641.341 19.011L640.69 20.311L638.525 19.09C631.412 15.077 622.998 13.044 613.514 13.044C609.068 13.1291 604.631 13.4793 600.226 14.093C595.009 14.612 592.199 14.724 590.759 14.724L590.023 14.709L558.466 13.032L558.82 14.453C552.888 12.2379 546.714 10.7318 540.428 9.96602C533.634 9.15786 526.796 8.78245 519.955 8.84202C512.923 8.8385 505.896 9.1916 498.9 9.90001C492.654 10.544 484.721 11.5 474.773 12.829L468.473 13.762L444.935 17.485C436.953 13.6033 428.385 11.0636 419.577 9.968C412.783 9.15984 405.945 8.78442 399.104 8.84401C392.071 8.83972 385.043 9.19217 378.046 9.90001C371.799 10.544 363.867 11.5 353.919 12.829L347.619 13.762L344.105 14.317C334.754 13.66 325.128 13.277 315.346 13.277C302.976 13.277 284.918 13.753 261.818 14.691L252.85 14.998V9.74302L165.05 10.743V36.27C164.586 50.822 164.35 65.388 164.35 79.575C164.35 88.468 164.427 98.4 164.578 109.293C157.933 108.379 151.236 107.895 144.529 107.843C147.642 102.953 149.283 97.2714 149.256 91.475V90.075C149.313 85.1733 149.048 80.2731 148.463 75.406C147.636 69.7572 145.938 64.2709 143.428 59.143C139.476 51.2793 133.968 44.2997 127.239 38.627C124.666 36.3814 121.881 34.3898 118.925 32.68V22.627L116.17 17.468C113.258 12.02 105.933 2.65602 89.541 1.13002C84.627 0.676017 78.882 0.445019 72.462 0.445019H68.5C63.2492 0.318929 58.0019 0.812999 52.867 1.917C46.7941 3.28069 41.3715 6.68335 37.502 11.5585C33.6325 16.4336 31.5495 22.4871 31.6 28.711V29.339L31.862 34.196C27.1041 36.84 22.7238 40.1124 18.839 43.925C13.704 48.9226 9.62626 54.9016 6.84808 61.5065C4.06991 68.1115 2.64804 75.2076 2.66699 82.373C2.77634 91.2033 4.69946 99.917 8.31699 107.973C10.6888 113.474 13.6426 118.706 17.128 123.578C13.5801 125.324 10.4368 127.793 7.90033 130.827C5.36383 133.86 3.49022 137.391 2.39998 141.192C1.29998 145.057 0.807983 149.655 0.807983 156.101C0.807983 166.055 1.57798 174.224 3.15898 181.066C5.32007 190.392 10.0509 198.926 16.815 205.7C21.4037 210.287 26.7395 214.061 32.594 216.858C33.118 227.106 37.277 233.806 40.799 237.697C49.975 247.828 63.215 247.828 67.568 247.828H75.068L77.868 247.594H83.9C108.583 247.594 119.63 232.109 119.63 216.761V213.2C121.214 212.252 122.737 211.207 124.191 210.07C131.064 216.662 139.419 221.508 148.554 224.2L149.507 224.488L150.477 224.688C158.045 226.271 165.757 227.064 173.489 227.056C174.972 227.056 176.438 227.026 177.889 226.967C181.768 226.731 185.633 226.297 189.468 225.667C193.268 225.041 196.768 224.267 199.945 223.433C201.245 223.045 202.598 222.6 204.005 222.088C205.334 221.606 206.638 221.088 207.917 220.535L209.235 220.056C212.241 218.948 215.167 217.632 217.99 216.118L217.8 222.226L240.281 223.741C254.594 224.708 269.095 225.195 283.381 225.195H283.469L314.493 224.956C327.626 224.648 337.554 224.495 344.276 224.496H350.355C352.34 224.957 354.37 225.191 356.407 225.196H368.283L374.373 225.43C389.182 225.43 400.114 223.804 408.514 220.33L410.06 223.85L428 224.9C433.037 225.26 436.679 225.428 439.466 225.428C443.744 225.428 449.22 225.266 456.217 224.935C462.169 224.647 465.996 224.5 467.697 224.495H471.206C473.191 224.956 475.221 225.19 477.258 225.195H489.135L495.224 225.429C510.033 225.429 520.966 223.803 529.365 220.329L530.911 223.849L548.852 224.904C553.889 225.264 557.531 225.432 560.318 225.432C564.596 225.432 570.073 225.27 577.069 224.939C579.569 224.818 581.605 224.727 583.354 224.655L584.696 224.81C589.28 225.365 593.892 225.648 598.509 225.66C598.564 225.66 608.469 225.426 608.469 225.426L609.722 225.361C612.999 225.107 615.586 224.961 617.477 224.961C620.095 224.972 622.71 225.146 625.306 225.48L644.393 227.874L650.406 209.599C654.054 198.507 658.27 187.452 662.936 176.739C667.722 165.739 673.851 152.6 681.27 137.449C690.688 117.672 698.298 100.886 703.888 87.555C709.798 73.4099 714.74 58.8794 718.68 44.064L725.357 19.038L699.775 14.969ZM584.784 140.747C584.876 140.674 584.957 140.59 585.048 140.517L584.892 140.924C584.828 140.818 584.784 140.747 584.784 140.747Z" fill="#F9FFE9"/>
<path d="M72.468 83.192C70.9641 84.9913 70.1386 87.2609 70.135 89.606C70.135 94.43 72.507 99.0966 77.251 103.606C83.3888 109.202 89.9834 114.274 96.966 118.772L101.632 121.806L104.432 123.906C110.798 128.589 115.923 134.755 119.364 141.869C123.097 149.336 124.964 156.491 124.964 163.335C124.964 173.757 119.986 183.09 110.03 191.335H110.264C108.594 192.639 106.796 193.772 104.899 194.717C101.941 196.352 99.141 197.869 96.499 199.267V201.367L96.265 207.667V216.767C96.265 221.744 92.1436 224.233 83.901 224.234H76.901L74.101 224.468H67.57C62.7473 224.468 59.5973 223.651 58.12 222.018C56.6426 220.385 55.904 217.935 55.904 214.668L56.138 208.368C56.214 206.296 55.8563 204.23 55.088 202.304C54.7331 201.529 54.1988 200.85 53.5293 200.322C52.8599 199.794 52.0744 199.434 51.238 199.27C43.3046 196.629 37.3936 193.324 33.505 189.355C29.7589 185.644 27.1319 180.954 25.924 175.821C24.6209 169.333 24.0338 162.723 24.173 156.107C24.0616 153.25 24.2967 150.39 24.873 147.59C25.1367 146.752 25.6055 145.992 26.237 145.381C26.8684 144.77 27.6425 144.326 28.489 144.09C30.435 143.391 33.741 143.042 38.407 143.041C40.7477 143.052 43.0855 143.208 45.407 143.508H45.173L46.34 143.742H47.974C49.4443 143.92 50.9251 143.999 52.406 143.976C57.3813 143.976 61.075 144.443 63.487 145.376C65.899 146.309 67.1033 148.717 67.1 152.6V158.2L67.334 159.834C67.334 165.901 69.434 168.934 73.634 168.934C75.4746 168.881 77.2263 168.13 78.534 166.834C79.2753 166.201 79.8686 165.414 80.2717 164.527C80.6749 163.639 80.8781 162.674 80.867 161.7C80.9071 155.586 78.66 149.679 74.567 145.137C70.367 140.316 64.2233 134.794 56.136 128.571C50.2728 124.239 44.7359 119.482 39.57 114.338C35.5176 109.663 32.2119 104.39 29.77 98.705C27.4196 93.5743 26.1486 88.0153 26.036 82.3729C26.012 78.2739 26.8278 74.2134 28.4329 70.4416C30.038 66.6698 32.3985 63.2667 35.369 60.4419C38.145 57.7902 41.2878 55.5513 44.701 53.7939C48.519 51.7245 52.4988 49.9684 56.601 48.5429L56.367 47.6099C56.3579 47.4114 56.3195 47.2153 56.253 47.028C56.159 46.6856 56.1195 46.3306 56.136 45.976C56.1266 45.7772 56.0872 45.5809 56.019 45.394C55.9267 45.052 55.8872 44.6979 55.902 44.3439C55.7405 43.1844 55.6623 42.0147 55.668 40.8439C55.672 39.6732 55.5938 38.5037 55.434 37.3439L54.969 28.7099C54.969 26.5339 56.0966 25.1736 58.352 24.6289C61.6945 23.9857 65.0975 23.711 68.5 23.8099H72.468C78.2206 23.8099 83.1976 24.0049 87.399 24.3949C91.6003 24.7849 94.3223 26.1453 95.565 28.476V47.1409C95.565 48.5409 95.485 49.2409 95.331 49.2409C101.476 49.6737 107.303 52.136 111.897 56.2409C116.243 59.8416 119.815 64.2853 122.397 69.304C123.837 72.2086 124.821 75.3182 125.312 78.523C125.753 82.3559 125.949 86.2131 125.897 90.0709V91.4709C125.897 94.1149 124.924 95.9816 122.979 97.0709C121.034 98.1603 118.196 98.704 114.465 98.702H110.732L107.466 98.9359H104.666C102.338 99.1351 100.002 99.2132 97.666 99.1699C91.442 99.1699 87.3973 98.1973 85.532 96.252C83.6667 94.3066 82.5 91.4686 82.032 87.7379C81.8727 85.7929 81.4812 83.8739 80.866 82.0219C80.3993 80.8559 79.3106 80.2723 77.6 80.2709C75.7333 80.2729 74.0226 81.2466 72.468 83.192Z" fill="#25B107"/>
<path d="M229.484 46.2101C229.484 53.2101 229.64 64.0201 229.952 78.6401L230.183 87.7401C230.493 97.0734 230.649 104.695 230.65 110.604C230.651 116.513 230.573 120.947 230.416 123.904C230.26 125.926 230.182 129.115 230.183 133.47C230.011 142.989 229.31 152.492 228.083 161.933C226.995 169.553 224.333 176.863 220.268 183.399C216.144 190.087 209.805 194.987 201.252 198.099V197.865C193.631 201.753 184.376 203.697 173.489 203.698C167.374 203.709 161.275 203.084 155.289 201.833C143.932 198.413 135.882 190.908 131.139 179.317C126.396 167.726 124.024 154.778 124.023 140.472L124.257 136.972V133C128.766 131.757 134.833 131.136 142.457 131.135C150.834 131.09 159.196 131.871 167.42 133.468V135.333C168.663 151.822 172.397 160.299 178.62 160.764C181.572 161.389 183.866 160.184 185.502 157.147C187.295 153.54 188.365 149.617 188.651 145.599C188.026 119.466 187.715 97.4567 187.718 79.5721C187.718 65.4187 187.951 51.1081 188.418 36.6401V33.8401L229.482 33.3721L229.484 46.2101Z" fill="#25B107"/>
<path d="M344.275 201.132C337.43 201.132 327.319 201.287 313.944 201.597L283.38 201.831C269.535 201.831 255.692 201.364 241.851 200.431C242.005 195.457 241.772 176.092 241.151 142.337C240.684 123.204 240.451 108.504 240.451 98.2371C240.451 76.9284 240.996 57.0968 242.085 38.7421L262.615 38.0421C285.633 37.1088 303.21 36.6421 315.345 36.6421C325.764 36.6421 335.874 37.0311 345.675 37.8091C346.338 41.5834 346.651 45.4111 346.608 49.2431C346.608 51.5764 346.453 55.3871 346.143 60.6751C345.829 65.6551 345.673 69.5438 345.675 72.3411C335.391 74.4575 324.911 75.4739 314.412 75.3731L284.081 75.6071C283.38 81.6497 282.991 87.7244 282.915 93.8071C282.853 97.1277 283.326 100.437 284.315 103.607L299.715 101.742C301.891 101.742 305.158 101.897 309.515 102.207L312.547 102.441C313.351 107.454 313.74 112.524 313.71 117.6L313.245 136.265C308.265 137.665 301.577 138.365 293.18 138.365L287.113 138.134C286.38 138.041 285.638 138.206 285.013 138.599L284.08 150.733C284.011 156.037 284.323 161.338 285.013 166.597C293.099 166.597 300.954 166.83 308.578 167.297C311.222 167.454 314.489 167.609 318.378 167.762C322.267 167.915 326.856 167.993 332.145 167.996L346.375 167.529C346.686 174.685 346.842 178.807 346.843 179.896C346.939 187.058 346.075 194.2 344.275 201.132Z" fill="#25B107"/>
<path d="M461.981 181.3C465.692 187.628 468.854 194.263 471.431 201.132H467.7C465.833 201.132 461.633 201.287 455.1 201.597C448.567 201.907 443.357 202.063 439.47 202.065C437.291 202.065 434.024 201.909 429.67 201.597L425.706 201.363C415.592 178.345 406.57 161.08 398.641 149.569V155.636C398.641 165.279 399.185 177.723 400.272 192.966V192.732C400.464 194.592 400.542 196.462 400.506 198.332C395.218 200.819 386.508 202.063 374.377 202.066L368.777 201.832H356.406C354.691 201.832 353.835 187.755 353.839 159.601C353.839 134.094 353.606 108.547 353.139 82.9591C352.672 57.3711 351.972 42.0108 351.039 36.8781L357.339 35.9451C366.672 34.7018 374.372 33.7684 380.439 33.1451C386.641 32.5177 392.871 32.2063 399.104 32.2121C404.951 32.1578 410.796 32.4694 416.604 33.1451C425.653 34.2466 434.322 37.4417 441.921 42.4771C449.506 47.3451 455.953 53.7917 460.821 61.3771C465.375 68.2276 467.847 76.2512 467.937 84.4771C467.937 92.0984 465.448 100.419 460.47 109.44C457.428 114.96 453.205 119.74 448.103 123.44C442.666 127.288 436.306 129.622 429.671 130.205C433.871 137.672 438.771 145.449 444.371 153.537C445.083 154.874 445.943 156.126 446.935 157.27C453.153 166.757 458.168 174.767 461.981 181.3ZM418.467 93.1061C419.772 90.3373 420.412 87.3013 420.333 84.2411C420.333 77.8638 418.778 73.7415 415.667 71.8741C413.786 70.685 411.683 69.8912 409.486 69.5411C407.128 69.2149 404.749 69.0594 402.369 69.0761L392.335 70.7081C392.646 75.3748 392.802 79.3414 392.803 82.6081C392.803 91.0081 393.036 96.1414 393.503 98.0081C396.758 98.352 400.03 98.5082 403.303 98.4761C406.659 98.4925 410.012 98.2585 413.334 97.7761C414.475 97.4125 415.524 96.8071 416.41 96.0012C417.296 95.1953 417.997 94.2078 418.467 93.1061Z" fill="#25B107"/>
<path d="M582.834 181.3C586.545 187.629 589.706 194.264 592.283 201.132H588.549C586.682 201.132 582.482 201.287 575.949 201.597C569.416 201.907 564.206 202.063 560.319 202.065C558.14 202.065 554.873 201.909 550.519 201.597L546.554 201.363C536.44 178.345 527.418 161.08 519.489 149.569V155.636C519.489 165.279 520.033 177.723 521.121 192.966V192.732C521.313 194.592 521.39 196.462 521.354 198.332C516.066 200.819 507.356 202.063 495.225 202.066L489.625 201.832H477.258C475.544 201.832 474.688 187.755 474.691 159.601C474.691 134.094 474.458 108.547 473.991 82.9591C473.524 57.3711 472.824 42.0107 471.891 36.8781L478.191 35.9451C487.524 34.7018 495.224 33.7684 501.291 33.1451C507.493 32.5177 513.723 32.2064 519.956 32.2121C525.803 32.1578 531.648 32.4694 537.456 33.1451C546.505 34.2467 555.173 37.4419 562.772 42.4771C570.357 47.3451 576.804 53.7916 581.672 61.3771C586.226 68.2276 588.698 76.2512 588.788 84.4771C588.788 92.0984 586.299 100.419 581.321 109.44C578.279 114.96 574.056 119.74 568.954 123.44C563.518 127.288 557.157 129.622 550.523 130.205C554.723 137.672 559.623 145.449 565.223 153.537C565.935 154.874 566.795 156.126 567.787 157.27C574.004 166.757 579.02 174.767 582.834 181.3ZM539.32 93.1061C540.625 90.337 541.263 87.3011 541.185 84.2411C541.185 77.8638 539.63 73.7414 536.519 71.8741C534.638 70.6848 532.535 69.891 530.338 69.5411C527.98 69.2149 525.602 69.0595 523.222 69.0761L513.188 70.7081C513.498 75.3748 513.654 79.3414 513.655 82.6081C513.655 91.0081 513.888 96.1414 514.355 98.0081C517.61 98.352 520.882 98.5082 524.155 98.4761C527.512 98.4924 530.865 98.2584 534.187 97.7761C535.328 97.4122 536.377 96.8067 537.263 96.0008C538.149 95.1949 538.85 94.2076 539.32 93.1061Z" fill="#25B107"/>
<path d="M617.477 201.6C615.144 201.6 611.956 201.756 607.913 202.068L598.113 202.301C594.525 202.272 590.941 202.038 587.38 201.601C591.113 190.401 598.269 171.114 608.846 143.74L618.412 119.476C616.855 113.254 614.908 107.136 612.58 101.159C610.247 95.175 607.291 88.0587 603.712 79.81C599.512 69.394 596.362 61.384 594.262 55.78C592.098 49.9786 590.268 44.0583 588.78 38.048C593.379 38.1308 597.978 37.8969 602.545 37.348C606.181 36.8349 609.842 36.5235 613.512 36.415C618.954 36.415 623.464 37.4257 627.043 39.447C628.443 45.203 630.582 52.3584 633.461 60.913C636.34 69.4677 639.101 77.089 641.744 83.777C642.519 82.225 645.007 75.1477 649.208 62.545C653.875 48.545 656.519 40.9237 657.14 39.681C665.512 37.9883 674.031 37.1284 682.573 37.114C687.101 37.0724 691.625 37.3843 696.105 38.047C692.442 51.838 687.843 65.3634 682.34 78.529C676.892 91.5184 669.504 107.811 660.175 127.407C652.708 142.653 646.487 155.99 641.51 167.419C636.533 178.848 632.1 190.475 628.21 202.3C624.65 201.844 621.066 201.611 617.477 201.6Z" fill="#25B107"/>
</svg>
