<svg width="139" height="139" viewBox="0 0 139 139" fill="none" xmlns="http://www.w3.org/2000/svg">
<path d="M69.1245 138.619C50.8265 138.619 33.278 131.35 20.3394 118.41C7.40085 105.471 0.132019 87.9215 0.132019 69.6225C0.132019 51.3235 7.40085 33.7739 20.3394 20.8346C33.278 7.89523 50.8265 0.625977 69.1245 0.625977C70.021 0.625977 70.9171 0.643333 71.8129 0.678046C86.0383 1.21159 99.7463 6.15304 111.041 14.8188C116.555 19.0474 121.407 24.0762 125.435 29.7386C133.713 41.3888 138.152 55.3313 138.132 69.6235C138.126 73.179 137.853 76.729 137.315 80.2436C135.152 94.1552 128.785 107.072 119.069 117.26C109.353 127.449 96.7529 134.42 82.96 137.239C78.4077 138.16 73.775 138.624 69.1305 138.626L69.1245 138.619Z" fill="white"/>
<path d="M130.204 49.8142C128.201 43.6414 125.27 37.8093 121.512 32.5183C117.76 27.2462 113.242 22.5632 108.109 18.6238C94.9154 8.52976 78.3208 3.94755 61.8175 5.84148C45.3141 7.73541 30.1889 15.9578 19.6247 28.7783C15.5045 33.781 12.1581 39.3736 9.69714 45.3693C7.18459 51.5234 5.64784 58.0319 5.14237 64.6599C4.61924 71.4293 5.16699 78.2389 6.76543 84.8377C9.86791 97.577 16.7995 109.06 26.6267 117.739C36.4539 126.419 48.7047 131.878 61.7291 133.382C68.4896 134.164 75.3312 133.872 82.0008 132.519C88.4205 131.213 94.6007 128.926 100.324 125.738C111.657 119.421 120.819 109.83 126.613 98.2204C129.549 92.3263 131.554 86.0128 132.557 79.5046C133.059 76.233 133.314 72.9283 133.32 69.6185C133.319 62.895 132.268 56.2129 130.204 49.8142Z" fill="black"/>
<path d="M69.1355 132.923C104.093 132.923 132.432 104.583 132.432 69.6235C132.432 34.6639 104.093 6.32353 69.1355 6.32353C34.1779 6.32353 5.83925 34.6639 5.83925 69.6235C5.83925 104.583 34.1779 132.923 69.1355 132.923Z" fill="#6BCC5A"/>
<path d="M69.1345 117.378C95.5075 117.378 116.887 95.997 116.887 69.6225C116.887 43.2479 95.5075 21.8671 69.1345 21.8671C42.7615 21.8671 21.382 43.2479 21.382 69.6225C21.382 95.997 42.7615 117.378 69.1345 117.378Z" fill="#C7E477"/>
<path d="M115.446 57.949L130.145 52.7221C133.285 64.1396 133.181 76.2066 129.844 87.5683L114.994 82.9622C117.346 74.8119 117.501 66.1845 115.443 57.955L115.446 57.949Z" fill="#D1FFC7"/>
<path d="M102.147 15.8802C102.277 15.2914 75.3534 0.0351938 47.3899 10.1576C24.0063 18.6238 8.07007 40.5529 6.04851 64.4546C3.63645 92.9664 22.0558 112.056 24.3207 114.321C34.1618 124.038 46.8534 130.352 60.5396 132.339C28.1786 123.967 6.78745 95.3596 8.51764 65.9326C9.94745 41.6193 26.8849 21.4396 45.4204 13.4219C72.5548 1.68939 102.013 16.492 102.147 15.8802Z" fill="#D1FFC7"/>
<path d="M113.402 51.6787C115.995 59.1161 116.911 67.0353 116.084 74.8684C115.537 79.9301 114.017 92.3316 104.013 102.939C98.1185 109.092 90.6069 113.456 82.3422 115.528C70.9626 118.42 58.9269 117.194 48.3642 112.067C46.7361 111.266 27.9613 101.638 22.7186 80.8864C21.793 77.2048 21.3438 73.4185 21.382 69.6225C22.0329 74.5165 23.3859 79.2922 25.399 83.8003C27.2834 88.0059 33.4643 101.263 48.6585 108.533C51.3479 109.82 67.5825 117.258 85.8557 109.907C100.922 103.846 107.683 91.6307 109.509 88.2151C118.408 71.549 114.417 55.3826 113.402 51.6787Z" fill="#95C148"/>
<path d="M131.544 69.6235C131.546 82.478 127.579 95.0196 120.185 105.534C112.791 116.049 102.331 124.025 90.2341 128.37C78.1372 132.716 64.9935 133.22 52.5993 129.814C40.2051 126.407 29.1649 119.257 20.9874 109.339C12.8075 99.4592 7.88905 87.2875 6.90859 74.4979C6.3971 67.888 6.93236 61.2388 8.4946 54.7958C10.0005 48.6325 12.4397 42.7357 15.7278 37.3096C22.2695 26.5207 31.9147 17.9572 43.4019 12.739C49.2624 10.0776 55.5035 8.35007 61.8983 7.61925C68.4719 6.86416 75.1234 7.14664 81.6093 8.45636C94.0949 11.0032 105.502 17.3106 114.298 26.5311C123.094 35.7516 128.857 47.4434 130.814 60.0358C131.3 63.2082 131.542 66.4131 131.54 69.6225C131.55 69.8507 131.649 70.0661 131.814 70.2238C131.979 70.3815 132.199 70.4695 132.428 70.4695C132.656 70.4695 132.876 70.3815 133.041 70.2238C133.207 70.0661 133.305 69.8507 133.316 69.6225C133.31 60.55 131.38 51.5818 127.655 43.3093C123.93 35.0369 118.494 27.6481 111.705 21.6302C104.916 15.6122 96.9288 11.1019 88.2695 8.39649C79.6102 5.69112 70.4759 4.85218 61.4687 5.93501C52.4616 7.01783 43.7862 9.99782 36.0148 14.6785C28.2434 19.3591 21.5524 25.6341 16.383 33.0897C11.2136 40.5452 7.68327 49.0119 6.0248 57.9316C4.36633 66.8512 4.61739 76.0211 6.76142 84.8367C9.8639 97.576 16.7955 109.059 26.6227 117.738C36.4499 126.418 48.7007 131.877 61.7251 133.381C68.4856 134.163 75.3272 133.871 81.9968 132.518C88.4165 131.212 94.5967 128.925 100.32 125.737C111.653 119.42 120.815 109.829 126.609 98.2194C129.547 92.3258 131.553 86.0126 132.557 79.5046C133.059 76.233 133.314 72.9283 133.32 69.6185C133.308 69.3902 133.209 69.1752 133.044 69.0179C132.878 68.8606 132.658 68.7733 132.429 68.7739C132.201 68.7746 131.981 68.8632 131.816 69.0214C131.651 69.1796 131.554 69.3952 131.544 69.6235Z" fill="black"/>
<path d="M116 69.6235C116.001 79.2781 113.021 88.6975 107.466 96.5942C101.912 104.491 94.0547 110.479 84.9683 113.741C75.8819 117.003 66.01 117.379 56.7018 114.818C47.3937 112.257 39.1035 106.883 32.9646 99.432C26.8328 92.0192 23.1459 82.8897 22.4103 73.2974C22.0249 68.3303 22.426 63.3336 23.5988 58.4917C24.7317 53.8627 26.5656 49.4341 29.0367 45.3593C33.9537 37.2525 41.2034 30.8191 49.837 26.9008C54.2232 24.9077 58.8942 23.6131 63.6806 23.0637C68.6204 22.4948 73.6189 22.7053 78.4934 23.6876C89.0911 25.8287 98.6197 31.5756 105.458 39.9505C112.297 48.3254 116.023 58.811 116.002 69.6235C116.013 69.8517 116.111 70.0671 116.276 70.2248C116.442 70.3825 116.662 70.4705 116.89 70.4705C117.119 70.4705 117.338 70.3825 117.504 70.2248C117.669 70.0671 117.767 69.8517 117.778 69.6235C117.794 59.5537 114.669 49.7296 108.838 41.5202C105.986 37.5129 102.551 33.954 98.6479 30.9612C88.6533 23.3205 76.0859 19.8526 63.5875 21.2866C51.0892 22.7205 39.6336 28.9446 31.629 38.6504C28.496 42.4543 25.9524 46.7073 24.0834 51.2671C22.1822 55.9287 21.0201 60.8585 20.639 65.8785C20.244 71.0053 20.6596 76.1624 21.8706 81.1598C23.6266 88.3236 26.9854 94.9955 31.6939 100.673C36.4024 106.35 42.3378 110.885 49.053 113.935C58.4029 118.161 68.8462 119.332 78.8999 117.285C83.7605 116.294 88.4399 114.562 92.7735 112.148C101.356 107.363 108.296 100.101 112.686 91.3092C114.91 86.8477 116.43 82.0684 117.191 77.1415C117.574 74.654 117.769 72.1412 117.774 69.6245C117.759 69.3995 117.659 69.1886 117.495 69.0345C117.33 68.8804 117.113 68.7946 116.888 68.7944C116.662 68.7943 116.445 68.8799 116.28 69.0338C116.115 69.1877 116.015 69.3985 116 69.6235Z" fill="black"/>
<path d="M40.5452 78.1027C38.9689 76.4695 37.8575 74.4448 37.3262 72.2379C37.0111 70.1475 36.9137 68.0301 37.0358 65.9196C37.0478 63.3742 37.173 63.3412 37.0849 61.8492C36.9016 58.722 36.3289 58.5178 36.4571 56.5111C36.5909 54.798 37.0937 53.1342 37.9309 51.6336C38.813 49.9574 39.578 50.0445 40.6213 48.0949C41.1219 47.1194 41.5321 46.1002 41.8469 45.0499C42.5127 43.0002 42.2194 43.0142 42.681 41.8877C43.5354 40.3513 44.5678 38.9209 45.7569 37.626C46.6039 36.5777 47.0275 36.053 47.3399 35.7466C48.4796 34.6518 49.8102 33.7752 51.2658 33.1601C54.2356 31.8324 55.5423 31.8394 58.4209 30.8791C63.2941 29.2529 63.3091 27.9752 67.2111 27.1792C69.1731 26.6774 71.2216 26.6145 73.2107 26.9949C76.5819 27.7119 79.3655 29.8117 79.9712 30.7269C80.1162 30.9532 80.3027 31.1499 80.5209 31.3067C81.0177 31.6237 81.6066 31.7647 82.1931 31.7072C84.3378 31.6071 84.8835 31.1064 86.0169 31.3307C86.6722 31.5327 87.2819 31.8602 87.8122 32.295C89.9148 33.7119 90.9702 34.4198 91.5739 35.4892C92.6573 37.4058 92.1146 39.5526 91.7802 40.9224C91.3108 42.8017 90.3369 44.517 88.9636 45.883L40.5452 78.1027Z" fill="#705654"/>
<path d="M43.6141 76.2943C42.8928 71.5731 42.7995 66.7771 43.3368 62.0314C43.6058 58.6651 44.3362 55.3517 45.5075 52.1844C46.7091 49.0532 48.7857 43.6641 54.2246 39.878C56.727 38.1596 59.5618 36.9849 62.5461 36.4295C64.6245 36.0836 66.7363 35.9827 68.8381 36.1291C71.6947 36.0687 74.5448 36.4246 77.2988 37.1855C86.2292 40.0242 90.1021 48.6326 90.3794 49.2725C90.8123 50.2701 91.1636 51.3012 91.4298 52.3556C92.1547 57.5465 92.8799 62.7377 93.6055 67.9292C94.7637 73.7642 94.9296 79.7526 94.0961 85.6427C93.222 91.7328 92.411 97.3833 87.9113 102.56C85.0124 105.843 81.2912 108.294 77.1306 109.661C74.0604 110.659 70.8216 111.033 67.6045 110.762C62.4855 110.348 57.6445 108.263 53.8271 104.827C52.2559 103.324 50.8976 101.613 49.79 99.7424C47.8936 96.7265 46.5294 93.4073 45.7569 89.9294C44.0243 90.0555 42.3076 89.5258 40.9472 88.4454C39.5869 87.365 38.6821 85.8128 38.4125 84.0966C38.1428 82.3804 38.5279 80.6256 39.4914 79.18C40.4549 77.7344 41.9264 76.7037 43.6141 76.2923V76.2943Z" fill="#E6BC9A"/>
<path d="M63.7006 69.1138C61.4678 69.2674 59.2578 68.5846 57.5007 67.1983C56.2675 66.2099 55.3248 64.9061 54.7727 63.4252C54.2206 61.9444 54.0796 60.3416 54.3648 58.7871C55.4361 53.9056 61.4067 50.9768 66.2609 52.3265C69.525 53.2368 72.7371 56.2097 72.9383 59.9907C73.2036 64.9723 68.1082 68.7904 63.7006 69.1138Z" fill="white"/>
<path d="M87.9453 69.4002C83.0131 69.28 79.3725 64.3485 79.9732 59.6362C80.2294 57.5804 81.2223 55.6872 82.7677 54.3076C84.3132 52.9279 86.3064 52.1554 88.3779 52.1333C92.9287 52.2494 96.363 56.3389 96.4131 60.6446C96.4661 65.2647 92.6173 69.5153 87.9453 69.4002Z" fill="white"/>
<path d="M47.2187 89.629C48.3264 93.3148 50.2933 96.6849 52.9574 99.4622C55.6216 102.239 58.907 104.345 62.5434 105.604C66.1798 106.864 70.0633 107.243 73.8745 106.709C77.6857 106.175 81.3157 104.744 84.4659 102.533C89.0527 99.1876 92.3396 94.3569 93.7677 88.862C92.9736 93.4703 91.1767 97.8479 88.504 101.685C87.0374 103.983 85.0869 105.933 82.7888 107.399C80.8482 108.506 78.7491 109.309 76.5649 109.78C74.2439 110.461 71.8405 110.82 69.4218 110.847C67.1329 110.859 64.8538 110.547 62.6523 109.92C59.4922 109.075 56.5694 107.513 54.1104 105.356C51.398 102.929 50.1054 100.408 48.4773 97.2281C47.3043 94.9401 46.3431 92.5497 45.6057 90.0866C44.8224 90.1038 44.0424 89.9804 43.3027 89.7221C41.5243 89.0083 40.0786 87.6529 39.2516 85.9241C38.5507 84.6374 38.1302 83.1574 38.3435 83.0503C38.6058 82.9181 39.5169 85.0299 41.3683 86.7552C43.0156 88.2351 45.0406 89.2298 47.2187 89.629Z" fill="#D69B7B"/>
<path d="M54.1525 60.186C54.3181 58.8243 54.7707 57.5134 55.4805 56.3396C56.1902 55.1659 57.1409 54.1561 58.2697 53.3769C60.2341 52.1365 62.5886 51.6685 64.8781 52.0632C68.0822 52.5579 71.5265 54.7458 72.5939 58.1713C72.8898 59.1337 72.9952 60.1445 72.9043 61.1472C71.903 59.1142 70.3108 57.4312 68.3365 56.3188C66.7452 55.4242 64.952 54.9499 63.1265 54.941C61.3009 54.9321 59.5033 55.3887 57.9033 56.2678C56.3218 57.2107 55.0255 58.5648 54.1525 60.186Z" fill="#D0C9D1"/>
<path d="M79.754 61.6279C79.7329 57.2421 82.4704 53.5311 86.1551 52.5799C87.2613 52.2915 88.4157 52.2389 89.5435 52.4254C90.6713 52.6118 91.7474 53.0333 92.7019 53.6623C93.6564 54.2914 94.4681 55.114 95.0843 56.0769C95.7005 57.0398 96.1075 58.1214 96.2789 59.2517C95.3594 57.7264 94.0107 56.5059 92.4013 55.7428C90.792 54.9798 88.9935 54.7081 87.2306 54.9616C85.4677 55.2152 83.8187 55.9828 82.4896 57.1684C81.1605 58.3541 80.2104 59.9052 79.758 61.6279H79.754Z" fill="#D0C9D1"/>
<path d="M91.2465 42.0199C91.7421 41.151 92.0428 40.1847 92.1276 39.188C92.2124 38.1913 92.0795 37.1881 91.7379 36.2479C91.3963 35.3078 90.8542 34.4532 90.1494 33.7434C89.4445 33.0337 88.5937 32.4858 87.656 32.1378C86.1376 31.4772 84.4497 31.3115 82.8319 31.6641C82.5321 31.7739 82.2159 31.8325 81.8967 31.8374C80.4649 31.8203 79.4636 30.4946 78.9559 29.9168C76.7842 27.4455 72.9924 26.5594 70.7566 26.5704C69.3818 26.5764 68.1262 27.02 65.616 27.9062C64.1547 28.4388 62.7243 29.0529 61.3316 29.7456C54.8884 32.7045 53.2724 31.3788 49.5757 34.0283C48.077 35.2309 46.6949 36.5719 45.4475 38.0336C44.1204 39.2539 43.0763 40.7498 42.3886 42.4164C42.0882 43.2886 41.9 44.1086 41.9 44.1086C41.5776 45.5105 41.6717 45.9481 41.3933 46.7682C41.0958 47.5403 40.6486 48.246 40.0776 48.8449C38.9581 50.2307 38.0318 51.762 37.3242 53.397C36.6463 55.1082 36.6894 56.5341 36.7745 59.3278C36.8486 61.7731 37.1449 61.5648 37.2631 64.1242C37.4233 67.5748 36.8906 68.0935 37.2981 70.8381C37.4814 72.1472 37.8174 73.4303 38.2994 74.6612C38.7978 75.8972 39.4508 77.065 40.2429 78.1368L40.8116 77.7593C40.1477 76.6807 39.607 75.5309 39.1995 74.3317C38.7836 73.0888 38.5046 71.8041 38.3675 70.5006C38.2333 69.3992 38.2894 69.1809 38.2163 65.8385C38.1712 63.7707 38.1482 62.7343 38.0901 61.6329C37.9312 60.2782 37.8643 58.9142 37.8899 57.5505C38.0198 56.1463 38.3861 54.7742 38.9733 53.4921C39.7312 51.8499 40.1748 51.883 41.7958 49.0312C42.2622 48.2655 42.6506 47.4551 42.9553 46.612C43.2661 45.6202 43.4675 44.5975 43.5561 43.5619C43.8995 41.4982 45.1841 40.1183 46.8823 38.2949C48.4904 36.5887 50.3946 35.1882 52.5024 34.1614C55.4902 32.6925 55.8977 33.4125 60.038 31.7673C63.2621 30.4866 63.4062 29.8948 66.1367 29.1208C67.9879 28.5126 69.9385 28.2645 71.883 28.3898C73.8124 28.546 75.6347 28.6902 77.1506 29.9779C77.9413 30.7665 78.7941 31.4901 79.7009 32.1418C80.282 32.6104 80.9779 32.915 81.7164 33.0239C82.3585 33.0248 82.9967 32.9234 83.6068 32.7235C84.6084 32.5851 85.6274 32.6453 86.6056 32.9008C88.2626 33.4242 89.6653 34.5458 90.5406 36.047C91.0517 36.9447 91.3775 37.9359 91.4988 38.9619C91.62 39.9878 91.5342 41.0277 91.2465 42.0199Z" fill="#AA8785"/>
<path d="M63.6185 96.7364C63.5124 96.8015 62.8505 96.1687 62.5171 95.3186C62.2202 94.4664 62.2326 93.537 62.5522 92.6931C62.6062 93.4033 62.7337 94.1059 62.9326 94.7899C63.2801 95.9804 63.7206 96.6744 63.6185 96.7364Z" fill="#D69B7B"/>
<path d="M85.6134 91.5956C85.8487 91.8922 86.0186 92.2352 86.112 92.6021C86.2054 92.969 86.2201 93.3515 86.1551 93.7244C86.1178 94.1553 85.9883 94.573 85.7753 94.9494C85.5623 95.3257 85.2707 95.6517 84.9205 95.9053C84.8324 95.8553 85.299 95.2144 85.5213 94.0148C85.6081 93.2115 85.6389 92.4032 85.6134 91.5956Z" fill="#D69B7B"/>
<path d="M65.6411 93.7695C68.375 92.2963 71.4213 91.4978 74.5263 91.4404C77.741 91.2359 80.9573 91.8131 83.9002 93.1226C80.9529 92.344 77.9128 91.9734 74.8648 92.0212C71.724 92.1737 68.6198 92.7621 65.6411 93.7695Z" fill="#D69B7B"/>
<path d="M45.0279 76.02C44.543 72.0226 44.4495 67.9875 44.7486 63.972C45.1401 58.714 45.4214 54.937 47.5211 50.5642C49.5815 45.8794 53.1232 42.0009 57.6019 39.5246C61.8993 37.3968 66.7387 36.6151 71.4875 37.2816C74.7074 37.5174 77.8499 38.3822 80.7372 39.827C84.1495 41.5681 87.1036 44.0888 89.3601 47.1847C88.3979 45.5533 87.2354 44.0486 85.8997 42.7058C84.8134 41.6163 80.622 37.5119 74.6465 36.5486C72.7536 36.3005 70.8481 36.1605 68.9392 36.1291C67.7215 36.0592 66.501 36.0522 65.2826 36.108C62.7034 36.2811 60.1765 36.9178 57.8231 37.9875C55.398 39.1209 53.2092 40.7028 51.372 42.6497C48.0942 46.0944 45.7743 50.3366 44.6424 54.955C43.6942 58.4006 43.5981 61.2243 43.4079 66.8708C43.2757 70.784 43.3798 74.0403 43.508 76.3224L45.0279 76.02Z" fill="#D69B7B"/>
<path d="M74.3421 78.4532C75.2386 78.4272 76.1584 78.3851 77.1016 78.327C78.6576 78.2269 80.1495 78.0887 81.5733 77.9185C81.9013 77.6269 82.13 77.24 82.2271 76.812C82.2854 76.4919 82.2729 76.1629 82.1905 75.848C82.1082 75.5332 81.958 75.2402 81.7505 74.9896C81.5526 75.4148 81.2815 75.8019 80.9495 76.1331C80.2504 76.761 79.3877 77.1776 78.4613 77.3347C77.446 77.5961 76.1464 77.9455 74.3421 78.4532Z" fill="#D69B7B"/>
<path d="M72.3666 63.4623C72.2134 63.3932 71.6507 64.708 70.8326 65.7864C69.908 66.99 68.7165 67.9626 67.352 68.6274C65.9876 69.2922 64.4874 69.6311 62.9697 69.6175C61.6734 69.5544 60.4029 69.2319 59.2334 68.6691C58.064 68.1064 57.0192 67.3148 56.161 66.3411C55.3838 65.4237 54.7624 64.3848 54.3217 63.2661C54.7037 65.538 55.9048 67.5913 57.698 69.0377C59.3769 70.2319 61.4124 70.8188 63.4693 70.7019C65.1124 70.6751 66.7217 70.2307 68.1457 69.4106C69.5698 68.5904 70.7618 67.4215 71.6096 66.0137C72.0762 65.2421 72.3368 64.3636 72.3666 63.4623Z" fill="#D69B7B"/>
<path d="M80.1515 63.0418C80.6351 64.8448 81.678 66.448 83.1302 67.6208C84.3504 68.5337 85.7978 69.0938 87.3145 69.24C89.0144 69.4188 90.7287 69.081 92.2338 68.2707C92.668 68.0303 93.0786 67.7497 93.4603 67.4326L93.6055 68.7003C92.1283 69.6186 90.4374 70.1363 88.6993 70.2023C87.0732 70.2659 85.4608 69.8814 84.0384 69.0908C80.8283 67.1642 80.1214 63.0548 80.1515 63.0418Z" fill="#D69B7B"/>
<path d="M47.0755 89.5759C45.6063 89.883 44.0775 89.7161 42.709 89.0993C41.3406 88.4825 40.203 87.4476 39.4599 86.1434C38.8085 84.8782 38.5857 83.4356 38.825 82.0328C39.0642 80.63 39.7526 79.3428 40.7866 78.3651C41.9913 77.1851 43.577 76.473 45.2592 76.3564C45.7138 76.3254 45.7168 75.6144 45.2592 75.6465C43.6516 75.757 42.1168 76.3594 40.8631 77.3718C39.6093 78.3841 38.6972 79.7576 38.2503 81.306C37.8249 82.8536 37.9448 84.5005 38.5898 85.9702C39.2527 87.4358 40.3693 88.6494 41.7748 89.4318C43.4448 90.3669 45.3982 90.6616 47.2698 90.2609C47.7174 90.1667 47.5281 89.4818 47.0805 89.5759H47.0755Z" fill="black"/>
<path d="M45.3844 90.1797C46.3381 93.4118 47.6323 96.5334 49.2453 99.4921C50.496 101.917 52.1998 104.079 54.2646 105.862C56.651 107.853 59.4198 109.335 62.4006 110.217C65.3814 111.098 68.5109 111.359 71.5966 110.985C72.9533 110.831 74.3 110.585 75.6427 110.335C77.2726 110.054 78.8698 109.608 80.4098 109.005C82.1793 108.281 83.8194 107.274 85.2659 106.024C86.5436 104.899 87.6655 103.609 88.6022 102.188C89.4832 100.847 90.2888 99.4591 91.0152 98.0292C91.8167 96.4876 92.4954 94.8851 93.0448 93.2368C93.5543 91.7384 93.926 90.1966 94.1552 88.6307C94.5114 85.7945 94.6623 82.9363 94.6068 80.0783C94.5908 76.8314 94.4302 73.5894 94.1252 70.3525C94.0331 69.3772 93.9289 68.4029 93.8128 67.4296C93.8098 67.3364 93.7713 67.2478 93.7053 67.1819C93.6392 67.1161 93.5506 67.0779 93.4573 67.0751C93.3633 67.0754 93.2732 67.1128 93.2066 67.1792C93.1401 67.2455 93.1024 67.3356 93.1019 67.4296C93.5184 70.9089 93.7724 74.4025 93.8638 77.9105C93.9691 80.9242 93.8948 83.9415 93.6416 86.9465C93.5223 88.3352 93.2903 89.7119 92.9477 91.0629C92.6041 92.3753 92.1767 93.6643 91.6681 94.922C90.996 96.5315 90.218 98.0947 89.3391 99.6012C88.5963 100.964 87.7338 102.258 86.7618 103.467C85.6036 104.867 84.2292 106.072 82.6907 107.037C81.1854 107.963 79.5513 108.661 77.8415 109.108C76.4247 109.489 74.9749 109.74 73.5301 109.985C70.443 110.575 67.2709 110.561 64.1892 109.943C61.17 109.275 58.3208 107.991 55.8196 106.173C53.9492 104.809 52.3407 103.118 51.0716 101.182C50.1864 99.7893 49.3982 98.337 48.7126 96.8356C47.9383 95.2384 47.2569 93.5979 46.672 91.9221C46.4551 91.2825 46.2548 90.6377 46.0713 89.9875C46.0417 89.9018 45.9806 89.8305 45.9004 89.7883C45.8202 89.746 45.7269 89.7359 45.6395 89.7601C45.5521 89.7842 45.4771 89.8407 45.4299 89.9181C45.3827 89.9955 45.3668 90.088 45.3854 90.1767L45.3844 90.1797Z" fill="black"/>
<path d="M77.2197 65.0154C77.7838 66.5674 78.3869 68.1048 79.029 69.6275C79.6929 71.2016 80.4178 72.7476 81.0927 74.3167C81.3187 74.8243 81.5173 75.3438 81.6874 75.8728C81.8138 76.2184 81.8755 76.5843 81.8697 76.9522C81.8697 76.9712 81.8596 77.0644 81.8646 77.0193C81.8696 76.9742 81.8536 77.0814 81.8496 77.0944C81.8426 77.1244 81.8346 77.1545 81.8266 77.1845C81.8186 77.2146 81.8156 77.2176 81.8096 77.2336C81.8326 77.1895 81.7835 77.3137 81.8096 77.2336C81.7823 77.2912 81.7509 77.3468 81.7154 77.3998C81.6924 77.4348 81.7485 77.3698 81.6894 77.4298C81.6624 77.4579 81.6354 77.4859 81.6063 77.5119C81.5773 77.538 81.6574 77.4759 81.6153 77.5039C81.6003 77.5129 81.5863 77.524 81.5703 77.532C81.5542 77.54 81.5122 77.564 81.4822 77.577C81.5482 77.548 81.4381 77.5891 81.4161 77.5961C81.361 77.6131 81.3049 77.6261 81.2489 77.6381C80.951 77.6931 80.6501 77.7295 80.3477 77.7473C78.3452 77.9185 76.3426 78.0276 74.3401 78.0987C73.8835 78.1147 73.8815 78.8257 74.3401 78.8097C76.2005 78.7429 78.0588 78.6374 79.9152 78.4932C80.8534 78.4201 82.143 78.4842 82.5014 77.3998C82.6444 76.5269 82.4945 75.6311 82.0749 74.8524C81.4841 73.3504 80.7733 71.8935 80.1304 70.4135C79.3294 68.5751 78.5868 66.713 77.9026 64.8271C77.7484 64.4006 77.0615 64.5848 77.2177 65.0164L77.2197 65.0154Z" fill="black"/>
<path d="M65.9164 93.8666C66.958 93.2648 68.0671 92.7881 69.2206 92.4467C70.3114 92.1395 71.4324 91.9518 72.5638 91.887C73.8785 91.7979 75.2002 91.7568 76.5168 91.7398C77.6575 91.7068 78.7985 91.793 79.9212 91.9972C81.2148 92.2554 82.4702 92.6777 83.6569 93.2538C84.0674 93.4541 84.4279 92.8393 84.0154 92.64C81.827 91.5777 79.426 91.0262 76.9935 91.0269C75.6367 91.0269 74.274 91.0769 72.9203 91.154C71.7337 91.2028 70.5549 91.3705 69.4018 91.6547C68.0565 92.0158 66.7645 92.5521 65.559 93.2498C65.4794 93.2983 65.422 93.376 65.3992 93.4663C65.3763 93.5566 65.3899 93.6523 65.4368 93.7327C65.4838 93.8132 65.5605 93.872 65.6504 93.8964C65.7402 93.9209 65.8361 93.9091 65.9174 93.8636L65.9164 93.8666Z" fill="black"/>
<path d="M84.7553 91.4154C84.7763 91.4294 84.8794 91.5095 84.8003 91.4464C84.8474 91.4845 84.8945 91.5235 84.9405 91.5646C85.0826 91.69 85.2127 91.8285 85.329 91.9781C85.6585 92.4044 85.8484 92.9219 85.8727 93.4601C85.8811 93.8546 85.8051 94.2463 85.6497 94.609C85.4942 94.9717 85.263 95.2969 84.9716 95.5629C84.6321 95.8713 85.1358 96.3719 85.4722 96.0635C85.8501 95.7236 86.1458 95.3021 86.3367 94.831C86.5276 94.3598 86.6087 93.8514 86.574 93.3442C86.5392 92.8371 86.3895 92.3445 86.1362 91.9038C85.8828 91.4631 85.5325 91.0858 85.1117 90.8006C84.7363 90.5372 84.3808 91.153 84.7523 91.4144L84.7553 91.4154Z" fill="black"/>
<path d="M62.8886 90.8747C62.2639 92.0486 61.9178 93.3505 61.8773 94.6797C61.9088 95.1455 62.0476 95.5978 62.2827 96.0011C62.5179 96.4044 62.8431 96.7479 63.233 97.0048C63.6025 97.2752 63.9569 96.6583 63.5915 96.391C63.2436 96.1389 62.961 95.8073 62.7674 95.4237C62.6955 95.2721 62.642 95.1124 62.6082 94.9481C62.6082 94.929 62.5942 94.8479 62.6082 94.931C62.6082 94.903 62.6022 94.874 62.6002 94.8449C62.5942 94.7578 62.5912 94.6707 62.5922 94.5826C62.6522 93.4136 62.964 92.2714 63.5064 91.2341C63.7066 90.8246 63.0938 90.4641 62.8926 90.8757L62.8886 90.8747Z" fill="black"/>
<path d="M63.6465 69.0127C62.2451 69.1243 60.8365 68.919 59.5253 68.4119C58.5208 68.006 57.6105 67.3978 56.8509 66.6253C56.0913 65.8527 55.4986 64.9322 55.1097 63.9209C54.6599 62.7539 54.4554 61.5067 54.5089 60.2571C54.514 60.1499 54.523 60.0438 54.533 59.9366C54.538 59.8936 54.542 59.8505 54.547 59.8075C54.547 59.7834 54.568 59.6452 54.556 59.7364C54.572 59.6162 54.591 59.496 54.6121 59.3759C54.7322 58.6949 54.9225 58.0281 55.1798 57.3863C55.9228 55.47 57.3961 53.9271 59.276 53.0966C61.1103 52.4528 63.0719 52.2571 64.9972 52.5258C66.0172 52.5874 67.0199 52.8172 67.965 53.2057C69.0189 53.6654 69.9516 54.3636 70.6895 55.2454C71.3859 56.0794 71.9103 57.043 72.2324 58.0807C72.5544 59.1184 72.6677 60.2097 72.5658 61.2914C72.1713 65.2216 68.5728 68.0624 64.9051 68.8374C64.4917 68.9251 64.0729 68.985 63.6515 69.0167C63.198 69.0497 63.194 69.7607 63.6515 69.7266C67.6236 69.4342 71.6957 66.8458 72.9413 62.9406C73.269 61.8454 73.3772 60.6962 73.2599 59.5591C73.1425 58.4219 72.8019 57.3191 72.2574 56.3138C71.6986 55.2496 70.9159 54.3191 69.9632 53.5862C69.0105 52.8533 67.9104 52.3354 66.7385 52.0682C65.8014 51.874 64.8478 51.7707 63.8908 51.7598C62.8973 51.7062 61.901 51.7502 60.9161 51.891C59.748 52.0847 58.6352 52.5269 57.6528 53.1879C56.6704 53.8488 55.8414 54.713 55.2218 55.722C53.8973 57.8677 53.4782 60.4512 54.0564 62.9056C54.5491 65.0751 55.8434 66.9782 57.68 68.2336C59.2733 69.2712 61.144 69.8009 63.0448 69.7527C63.245 69.7527 63.4453 69.7396 63.6455 69.7256C64.1001 69.6916 64.1031 68.9796 63.6465 69.0127Z" fill="black"/>
<path d="M88.1616 69.0487C86.4169 69.026 84.728 68.43 83.3555 67.3525C83.0401 67.1136 82.7438 66.8504 82.4694 66.5654C82.3983 66.4903 82.3292 66.4122 82.2621 66.3341C82.1069 66.1509 82.0398 66.0628 81.9037 65.8735C80.9541 64.5908 80.3775 63.0705 80.2376 61.4807C80.1391 59.6589 80.6334 57.8542 81.6463 56.3369C82.5955 54.8317 83.9917 53.6613 85.6394 52.9894C87.3744 52.3217 89.2971 52.3313 91.0252 53.0165C92.671 53.7039 94.0634 54.8845 95.0109 56.3957C95.9583 57.907 96.4142 59.6747 96.3159 61.4557C96.1273 63.2723 95.3584 64.9799 94.1232 66.3252C92.888 67.6705 91.2522 68.582 89.4583 68.9246C89.0288 69.004 88.5933 69.0456 88.1566 69.0487C88.0657 69.0535 87.9802 69.0931 87.9175 69.1591C87.8549 69.2251 87.82 69.3127 87.82 69.4037C87.82 69.4947 87.8549 69.5822 87.9175 69.6483C87.9802 69.7143 88.0657 69.7538 88.1566 69.7587C90.1235 69.7393 92.0297 69.0749 93.5825 67.8674C95.1353 66.66 96.2489 64.9762 96.7524 63.0746C97.2558 61.173 97.1213 59.1588 96.3694 57.341C95.6175 55.5233 94.2898 54.0026 92.5902 53.0125C90.8974 51.9667 88.8827 51.5707 86.92 51.898C85.0046 52.2595 83.2665 53.2552 81.9858 54.7247C80.7191 56.1255 79.8888 57.8655 79.5967 59.7314C79.337 61.6903 79.7394 63.6799 80.7402 65.3839C81.1547 66.1362 81.6844 66.8191 82.3102 67.4076C83.4937 68.501 84.948 69.2581 86.5225 69.6005C87.0603 69.7098 87.6078 69.7645 88.1566 69.7637C88.2514 69.7643 88.3426 69.7273 88.4101 69.6607C88.4776 69.5942 88.5159 69.5035 88.5166 69.4087C88.5172 69.3139 88.4802 69.2227 88.4136 69.1552C88.3471 69.0877 88.2564 69.0494 88.1616 69.0487Z" fill="black"/>
<path d="M43.9696 76.2943C43.6446 73.4739 43.5135 70.6345 43.5771 67.7961C43.6161 66.0938 43.7393 64.3915 43.8725 62.6893C43.9956 61.1202 44.1428 59.5521 44.3891 57.9971C44.8579 54.944 45.8082 51.9846 47.2047 49.2294C48.0218 47.5827 48.977 46.0084 50.0603 44.5232C51.5615 42.479 53.4287 40.7308 55.5673 39.3674C58.3136 37.6942 61.4324 36.7291 64.6438 36.5586C66.1517 36.4585 67.6646 36.4715 69.1755 36.4845C70.6028 36.4761 72.0295 36.547 73.449 36.6968C76.6104 37.0883 79.6347 38.2205 82.2761 40.0012C85.1808 41.9484 87.5628 44.5791 89.2129 47.6624C89.8695 48.8842 90.4061 50.1669 90.815 51.4924C90.9632 51.9737 91.0967 52.4597 91.2155 52.9504C91.3156 53.395 92.0055 53.2067 91.9003 52.7611C90.7831 47.9883 88.112 43.7218 84.3067 40.632C81.8764 38.6371 79.0345 37.2049 75.9852 36.4385C73.0312 35.8451 70.0152 35.6191 67.0058 35.7656C65.4063 35.7602 63.8088 35.879 62.2277 36.1211C60.5159 36.3996 58.8494 36.9078 57.2735 37.6321C54.7764 38.8058 52.5505 40.4859 50.7372 42.5656C49.3442 44.1685 48.1398 45.926 47.1476 47.8036C45.8271 50.1853 44.8279 52.7315 44.1758 55.3756C43.5223 58.5369 43.1265 61.746 42.9923 64.9713C42.7744 68.1526 42.8028 71.3461 43.0774 74.523C43.1282 75.1144 43.1876 75.7049 43.2557 76.2943C43.2584 76.3877 43.2968 76.4765 43.3629 76.5426C43.4289 76.6087 43.5177 76.647 43.6111 76.6498C43.7052 76.6493 43.7953 76.6117 43.8619 76.5451C43.9284 76.4786 43.966 76.3884 43.9666 76.2943H43.9696Z" fill="black"/>
<path d="M88.9797 46.3757C90.2601 45.0744 91.243 43.5107 91.8603 41.7926C92.2785 40.8105 92.4923 39.7536 92.4885 38.6862C92.4847 37.6188 92.2635 36.5634 91.8383 35.5843C91.1324 34.1644 90.0082 32.9951 88.6172 32.2339C87.2386 31.3578 85.6255 30.9233 83.9933 30.9882C83.4755 31.0713 82.9622 31.1806 82.4554 31.3157C81.9238 31.4294 81.3693 31.3562 80.8854 31.1084C80.548 30.9267 80.2434 30.6898 79.9842 30.4075C79.6551 30.0619 79.3032 29.7387 78.9309 29.4402C77.6159 28.4195 76.1507 27.6088 74.5874 27.037C72.617 26.3426 70.499 26.1768 68.4446 26.5564C67.3753 26.7113 66.337 27.0333 65.3677 27.5106C64.0009 28.2331 62.5931 28.875 61.1514 29.4332C60.06 29.8437 58.9376 30.1531 57.8282 30.5086C55.8186 31.1525 53.8091 31.8193 51.8336 32.5603C50.6359 32.9595 49.5036 33.5331 48.4733 34.2626C47.0995 35.4017 45.8901 36.7257 44.8797 38.1968C44.1789 39.128 43.47 40.0563 42.8151 41.0195C42.3367 41.671 41.9624 42.3929 41.7057 43.1594C41.5793 43.8663 41.4957 44.5802 41.4554 45.2972C41.2895 46.2286 40.9097 47.1088 40.346 47.8686C38.9939 49.5288 37.8618 51.3567 36.9777 53.3068C36.3465 54.996 36.0966 56.8038 36.2458 58.6009C36.3179 59.5091 36.5562 60.3972 36.6693 61.3044C36.7813 62.201 36.8178 63.1054 36.7785 64.008C36.7424 64.8341 36.6784 65.6582 36.6673 66.4853C36.6563 67.5347 36.7174 68.5881 36.8075 69.6335C36.971 71.9039 37.5796 74.1198 38.5988 76.1551C39.0188 76.9663 39.5058 77.741 40.0546 78.4712C40.325 78.8337 40.9428 78.4792 40.6684 78.1127C39.3998 76.4361 38.4823 74.5207 37.971 72.4813C37.515 70.4749 37.3161 68.4187 37.3792 66.3622C37.3913 65.5551 37.4593 64.75 37.4914 63.944C37.5267 63.0629 37.4892 62.1804 37.3792 61.3055C37.2701 60.4263 37.0398 59.5581 36.9627 58.676C36.9063 58.0077 36.904 57.336 36.9557 56.6673C37.036 55.6005 37.268 54.5505 37.6446 53.5492C38.0153 52.6293 38.4864 51.7532 39.0494 50.9367C39.6581 50.0135 40.318 49.1253 40.9648 48.2331C41.5178 47.4827 41.9057 46.6238 42.1032 45.7128C42.2524 44.9968 42.1743 44.2538 42.3445 43.5459C42.5521 42.8282 42.8831 42.1522 43.3228 41.5482C43.9416 40.618 44.6244 39.7288 45.2943 38.8337C45.875 38.0556 46.4578 37.2776 47.0966 36.5466C47.9646 35.5026 49.0295 34.6394 50.2305 34.0062C51.6477 33.3571 53.106 32.8018 54.5961 32.344C56.2982 31.7653 58.0004 31.1985 59.7146 30.6758C61.0969 30.2504 62.449 29.7322 63.7617 29.1248C64.7349 28.6782 65.6971 28.0524 66.6714 27.7159C67.9588 27.2886 69.307 27.0731 70.6634 27.0781C71.7785 27.0687 72.8881 27.2346 73.9516 27.5697C74.64 27.798 75.3095 28.0795 75.9541 28.4118C76.7788 28.8129 77.5639 29.2906 78.2991 29.8387C78.6934 30.1381 79.0636 30.4679 79.4065 30.825C79.6453 31.0832 79.91 31.3161 80.1965 31.5199C80.6058 31.8011 81.0753 31.9825 81.5673 32.0497C82.0916 32.099 82.6206 32.0418 83.1222 31.8814C84.1466 31.6024 85.23 31.6278 86.2402 31.9545C87.3864 32.3008 88.4555 32.8641 89.3892 33.6137C90.1551 34.2259 90.7706 35.0053 91.1885 35.8923C91.6065 36.7792 91.8157 37.7501 91.8002 38.7305C91.7565 39.6919 91.5535 40.6393 91.1995 41.5342C90.8895 42.3929 90.4895 43.2162 90.006 43.9905C89.5681 44.6718 89.0556 45.3022 88.478 45.87C88.4212 45.9381 88.3919 46.0251 88.3959 46.1137C88.3999 46.2023 88.4369 46.2863 88.4997 46.349C88.5624 46.4117 88.6463 46.4487 88.735 46.4528C88.8236 46.4568 88.9105 46.4275 88.9787 46.3707L88.9797 46.3757Z" fill="black"/>
<path d="M90.5296 48.7818C89.7275 48.0808 88.791 47.5505 87.7772 47.2234C86.7635 46.8963 85.6937 46.7792 84.6331 46.8793C82.6 47.1576 80.7451 48.188 79.4345 49.7672C79.0897 50.1528 78.7826 50.5706 78.5174 51.0148C78.4719 51.0961 78.4601 51.192 78.4846 51.2819C78.5091 51.3718 78.5678 51.4484 78.6483 51.4954C78.7287 51.5424 78.8244 51.5559 78.9147 51.5331C79.005 51.5102 79.0827 51.4529 79.1312 51.3733C79.3156 51.0608 79.5245 50.7635 79.756 50.4841C80.2426 49.8791 80.8064 49.3404 81.4331 48.882C82.3358 48.2175 83.3889 47.7869 84.4985 47.6286C85.6081 47.4703 86.7397 47.5892 87.7921 47.9748C88.6063 48.2795 89.3621 48.7215 90.027 49.2815C90.3734 49.5769 90.8781 49.0762 90.5276 48.7808L90.5296 48.7818Z" fill="black"/>
<path d="M71.6847 50.8726C69.8393 49.008 67.4302 47.8046 64.831 47.4491C62.7897 47.2531 60.7319 47.5766 58.8492 48.3894C56.9664 49.2023 55.3197 50.4781 54.0624 52.0982C54.0155 52.1798 54.0025 52.2766 54.0263 52.3676C54.0501 52.4587 54.1087 52.5367 54.1896 52.5849C54.2714 52.6301 54.3676 52.6421 54.4581 52.6182C54.5485 52.5943 54.6263 52.5365 54.6752 52.4567C54.7312 52.3846 54.6181 52.5278 54.6902 52.4377L54.7903 52.3175C54.8838 52.2034 54.9795 52.0912 55.0777 51.9811C55.3647 51.6608 55.6682 51.3557 55.9868 51.0669C56.9308 50.2042 58.0054 49.4965 59.1709 48.9701C60.6957 48.3028 62.3562 48.0037 64.0181 48.0972C65.68 48.1906 67.2965 48.6738 68.737 49.5078C69.6347 50.0153 70.4584 50.6436 71.1851 51.3753C71.5065 51.7017 72.0091 51.199 71.6857 50.8746L71.6847 50.8726Z" fill="black"/>
<path d="M65.9174 63.7066C65.4633 63.6745 65.0386 63.4699 64.7303 63.1348C64.4221 62.7998 64.2536 62.3595 64.2593 61.9042C64.2738 61.6513 64.341 61.4043 64.4566 61.1788C64.5721 60.9534 64.7334 60.7545 64.9302 60.595C65.127 60.4356 65.355 60.3189 65.5995 60.2526C65.8439 60.1863 66.0996 60.1718 66.35 60.21C66.7237 60.2873 67.0622 60.4837 67.3149 60.7696C67.5677 61.0556 67.7209 61.4157 67.7517 61.7961C67.7651 62.0441 67.7273 62.2921 67.6408 62.5249C67.5544 62.7577 67.421 62.9702 67.249 63.1493C67.0771 63.3285 66.8701 63.4704 66.6411 63.5662C66.412 63.6621 66.1657 63.7099 65.9174 63.7066Z" fill="black"/>
<path d="M89.9389 63.0828C89.4848 63.0504 89.0603 62.8458 88.7521 62.5108C88.4439 62.1757 88.2753 61.7356 88.2808 61.2804C88.2954 61.0276 88.3627 60.7806 88.4783 60.5552C88.5939 60.3298 88.7552 60.1311 88.952 59.9716C89.1487 59.8121 89.3766 59.6955 89.621 59.6291C89.8654 59.5628 90.121 59.5481 90.3714 59.5862C90.745 59.6637 91.0835 59.86 91.3362 60.146C91.5889 60.4319 91.7422 60.792 91.7732 61.1723C91.7864 61.4202 91.7485 61.6682 91.662 61.9009C91.5755 62.1336 91.4421 62.3461 91.2701 62.5252C91.0982 62.7043 90.8913 62.8462 90.6623 62.9421C90.4333 63.038 90.1871 63.0859 89.9389 63.0828Z" fill="black"/>
</svg>
