<svg width="780" height="161" viewBox="0 0 780 161" fill="none" xmlns="http://www.w3.org/2000/svg">
<path d="M779.166 81.0439C779.314 72.6915 777.484 64.4225 773.827 56.9119C769.835 48.9255 763.051 42.6821 754.761 39.366L753.731 38.936L752.646 38.6799C744.172 36.7608 735.504 35.83 726.816 35.906C717.593 35.906 710.497 36.6299 705.053 38.1409C698.696 39.862 692.843 43.0765 687.979 47.5168C681.414 41.8798 672.379 38.4589 661.056 37.3789C659.518 37.178 657.968 37.0875 656.418 37.1079C654.218 37.1079 652.633 37.1588 651.351 37.2778C649.407 37.2718 648.399 37.248 647.915 37.23L647.315 37.1079H645.948C638.375 37.0317 630.839 38.1633 623.622 40.46C623.447 40.518 623.281 40.5809 623.109 40.6399L622.732 28.6169L622.708 28.303C622.429 24.678 622.408 23.465 622.408 23.179V22.793L622.387 22.408C622.287 20.638 622.237 18.2979 622.237 15.4509V1.98096L566.711 0.980957L566.311 14.53C566.186 18.747 566.246 23.602 566.49 28.957L566.671 31.884C566.883 35.499 566.992 38.4059 566.992 40.5229V42.541C561.961 40.806 556.668 39.9561 551.347 40.0291C546.316 40.0323 541.314 40.7855 536.506 42.2639C534.58 42.8523 532.689 43.549 530.841 44.3508C525.253 41.4788 518.61 40.0291 510.995 40.0291C506.459 40.0416 501.945 40.6634 497.574 41.8779C493.72 39.3499 489 38.8269 485.754 38.8269C483.954 38.8269 481.634 38.9571 478.674 39.2271L478.495 39.2429L475.282 39.6199C473.971 39.7817 472.651 39.8609 471.33 39.8569C469.027 39.7967 466.729 39.603 464.449 39.2769L449.371 37.3879L449.276 41.6399C448.085 41.0766 446.844 40.5589 445.552 40.0869C440.84 38.38 435.913 37.3425 430.913 37.0049C429.453 36.8284 427.983 36.7486 426.513 36.7659C424.313 36.7659 422.726 36.818 421.442 36.937C419.502 36.931 418.495 36.9069 418.012 36.8889L417.404 36.7659H416.038C408.529 36.6872 401.054 37.7797 393.882 40.0039C389.187 41.3956 384.856 43.8049 381.198 47.0601C374.819 42.3951 366.688 40.0291 356.97 40.0291C352.432 40.0418 347.917 40.6635 343.545 41.8779C340.879 40.0979 337.096 38.8269 331.729 38.8269C329.929 38.8269 327.61 38.9571 324.649 39.2271L324.47 39.2439L321.256 39.6208C319.945 39.7826 318.626 39.8618 317.305 39.8579C315.002 39.7977 312.705 39.604 310.425 39.2778L295.349 37.3889L295.222 43.0168C291.046 40.7748 286.555 39.1759 281.902 38.2739C272.722 36.1851 263.206 36.0437 253.968 37.8589L237.038 36.469C235.252 36.323 233.031 36.252 230.25 36.252C226.614 36.252 224.661 36.3379 223.492 36.4229H222.803L222.397 36.448C217.945 36.711 215.712 36.7668 214.624 36.7668C213.046 36.7618 211.477 36.526 209.967 36.0669V11.134L204.644 20.0339V1.09106L187.496 0.375L181.108 0L176.241 0.187988H171.782L171.353 0.213867C170.307 0.279867 167.91 0.35791 162.424 0.35791H148.701V14.074C148.701 22.33 148.655 31.5489 148.564 41.6169C147.385 41.0609 146.157 40.5494 144.88 40.082C140.168 38.3751 135.241 37.3377 130.241 37C128.781 36.8235 127.311 36.7437 125.841 36.761C123.641 36.761 122.054 36.8129 120.771 36.9319C118.831 36.9259 117.824 36.902 117.341 36.884L116.733 36.761H115.367C112.037 36.7593 108.71 36.962 105.405 37.3679C105.505 35.1059 105.558 32.7819 105.558 30.3879C105.558 26.7199 105.434 22.752 105.19 18.595L104.433 5.68188H90.052C75.9267 4.28688 61.7364 3.65638 47.543 3.79297L37.464 3.96484H27.792L21.092 4.13696H0.772034L0.186035 17.2371C0.0610352 20.0271 0 24.2719 0 30.2129C0 34.4059 0.127981 38.2699 0.380981 41.7129C0.786981 47.1339 1.38099 49.957 2.65399 52.498L5.19299 57.5669L10.57 59.3669C14.3852 60.4964 18.3533 61.0231 22.331 60.928C22.895 76.563 23.18 92.6089 23.181 108.786L23.01 124.162V132.262C22.8857 134.489 22.9355 136.723 23.159 138.942C23.3193 142.185 24.228 145.348 25.814 148.182L30.614 156.206L39.839 154.669C44.3178 153.962 48.8469 153.623 53.381 153.655H58.36C63.048 153.696 67.7311 153.342 72.36 152.599L83.966 150.605L83.853 144.398C90.1821 149.909 97.8767 153.618 106.131 155.134L107.391 155.372H108.674C109.828 155.372 112.074 155.426 116.287 155.692C120.495 155.939 123.734 156.058 126.187 156.058C132.565 156.14 138.922 155.318 145.069 153.616C146.651 153.15 148.199 152.577 149.703 151.901L160.168 153.64C163.405 154.198 166.683 154.49 169.968 154.513C172.455 154.513 175.414 154.4 179 154.169C186.914 154.169 188.654 154.269 188.913 154.293L201.113 155.315L201.459 153.579L201.653 153.626C206.426 154.581 211.292 154.994 216.158 154.856C219.007 154.856 222.732 154.74 227.544 154.502L246.599 153.866C249.187 154.778 251.863 155.417 254.583 155.773L255.458 155.886H256.341C260.391 155.886 262.498 155.965 263.605 156.035C267.805 156.281 271.05 156.402 273.512 156.402C279.828 156.482 286.127 155.705 292.234 154.091C293.242 153.809 294.215 153.483 295.165 153.129V156.166L310.128 154.799C312.204 154.609 314.384 154.513 316.607 154.513C319.165 154.513 319.972 154.59 320.05 154.599L320.48 154.647L320.912 154.668C322.051 154.724 323.172 154.753 324.243 154.753C325.931 154.753 327.564 154.682 329.097 154.542C332.361 154.186 335.591 153.571 338.757 152.703L339.367 152.545L339.499 154.513H360.145C361.433 154.558 362.74 154.581 364.033 154.581C369.681 154.572 375.321 154.158 380.909 153.341L393.236 151.551L393.179 150.351C397.445 152.629 402.034 154.242 406.787 155.132L408.047 155.37H409.33C410.484 155.37 412.73 155.424 416.943 155.69C421.153 155.937 424.391 156.056 426.843 156.056C433.221 156.138 439.579 155.316 445.726 153.614C446.926 153.262 448.069 152.841 449.187 152.389V156.164L464.15 154.797C466.227 154.607 468.407 154.511 470.63 154.511C473.187 154.511 473.994 154.588 474.074 154.597L474.503 154.645L474.934 154.666C476.074 154.722 477.194 154.751 478.265 154.751C479.954 154.751 481.587 154.68 483.12 154.54C486.384 154.184 489.614 153.569 492.78 152.701L493.388 152.543L493.521 154.511H514.168C515.455 154.556 516.762 154.579 518.055 154.579C523.323 154.571 528.585 154.21 533.805 153.497L533.873 154.511H554.519C555.807 154.556 557.119 154.579 558.407 154.579C560.507 154.579 562.639 154.499 564.776 154.379L564.336 160.289L583.395 154.631C584.969 154.227 586.592 154.048 588.216 154.098C588.775 154.098 589.351 154.112 589.946 154.141C591.146 154.231 593.316 154.341 598.208 154.341C601.382 154.387 604.554 154.184 607.696 153.735C611.915 153.199 615.827 151.25 618.796 148.205C624.202 151.891 630.335 154.376 636.782 155.493L638.001 155.715H639.239C640.39 155.715 642.639 155.77 646.847 156.035C651.047 156.281 654.291 156.402 656.753 156.402C663.13 156.484 669.487 155.662 675.634 153.96C680.854 152.505 685.621 149.753 689.491 145.96C689.812 146.21 690.123 146.467 690.454 146.71C699.742 153.519 711.6 156.97 725.695 156.97C726.675 156.97 727.669 156.954 728.678 156.921H729.467C738.058 157.042 746.577 155.347 754.467 151.945C763.059 148.274 770.017 141.594 774.035 133.159L774.348 132.504L774.59 131.82C776.789 126.072 777.986 119.989 778.129 113.837C778.06 106.588 776.103 99.4822 772.449 93.2209L779.159 91.1208L779.166 81.0439Z" fill="#6BCC5A"/>
<path d="M91.844 30.386C91.8897 36.3599 91.4886 42.3288 90.644 48.2429C87.7018 47.6476 84.7144 47.303 81.714 47.2129L73.644 47.041C70.666 47.041 69.178 47.2126 69.18 47.5559C68.877 50.9239 68.7622 54.3062 68.836 57.687C68.836 67.7617 69.236 94.8916 70.036 139.077C66.175 139.69 62.2692 139.978 58.36 139.936H53.383C48.0923 139.901 42.8077 140.302 37.583 141.136C37.1084 140.021 36.8465 138.827 36.811 137.616C36.6407 135.991 36.6119 134.353 36.725 132.723V124.309L36.897 108.855C36.897 88.0216 36.439 67.7026 35.523 47.8979C33.8261 47.2505 32.0144 46.9586 30.2 47.04L23.332 47.2119C20.5005 47.3352 17.6662 47.046 14.918 46.353C14.574 45.667 14.2877 43.7783 14.059 40.687C13.8304 37.5957 13.716 34.1042 13.716 30.2129C13.716 24.4902 13.7733 20.3692 13.888 17.8499H21.271L27.971 17.678H37.583L47.543 17.5059C64.5977 17.5059 78.506 18.1357 89.268 19.395H91.5C91.728 23.289 91.8427 26.9527 91.844 30.386Z" fill="white"/>
<path d="M121.55 50.644C122.976 50.4943 124.41 50.4368 125.843 50.4719C126.819 50.4459 127.796 50.5035 128.762 50.644C132.661 50.8534 136.509 51.6343 140.181 52.9619C143.419 54.0546 146.378 55.8421 148.852 58.199C152.171 60.8343 154.346 64.9553 155.377 70.562C156.477 77.0276 156.994 83.5788 156.922 90.1369V95.8039C156.579 105.537 156.006 113.722 155.205 120.358C154.404 126.994 153.03 131.459 151.083 133.754C148.659 137.055 145.173 139.421 141.21 140.454C136.317 141.791 131.258 142.427 126.186 142.343C124.01 142.343 120.977 142.229 117.086 142C113.419 141.769 110.615 141.655 108.672 141.657C102.745 140.581 97.2244 137.91 92.703 133.93C89.0859 130.378 86.5294 125.888 85.32 120.965C83.8806 115.211 83.1882 109.296 83.26 103.365L83.088 83.79C82.744 80.6987 83.116 76.2346 84.204 70.3979C85.292 64.5613 86.408 61.2413 87.552 60.438C88.81 57.234 92.101 54.7726 97.425 53.0539C103.236 51.2658 109.29 50.3971 115.369 50.479C117.425 50.6476 119.488 50.7027 121.55 50.644ZM111.42 89.8799C111.304 91.8799 111.247 93.3966 111.248 94.4299L111.076 97.864C111.076 100.726 110.962 103.874 110.733 107.308C110.756 108.486 111.029 109.645 111.532 110.71C112.035 111.776 112.757 112.723 113.652 113.489C115.339 115.036 117.545 115.892 119.833 115.889C122.207 115.87 124.549 115.344 126.702 114.344C127.389 114 128.248 112.111 129.277 108.677L129.449 107.819C130.015 103.662 130.359 99.4776 130.479 95.2839C130.504 92.8056 130.274 90.3312 129.793 87.8999C129.389 85.2764 128.224 82.8288 126.444 80.8598C125.637 80.0169 124.663 79.3524 123.583 78.9089C122.504 78.4654 121.343 78.2528 120.177 78.2849C119.255 78.3392 118.337 78.4538 117.429 78.6279C114.567 79.5466 112.907 80.806 112.45 82.406L111.763 85.1528C111.647 86.3021 111.533 87.879 111.42 89.883V89.8799Z" fill="white"/>
<path d="M237.283 140.45L226.983 140.794C222.403 141.022 218.797 141.136 216.165 141.137C212.368 141.252 208.569 140.964 204.833 140.279C204.146 139.136 202.315 135.759 199.338 130.148L197.106 125.855C196.362 124.719 195.729 123.513 195.217 122.255L191.096 114.184V118.82L191.268 124.32C191.38 129.783 190.978 135.244 190.068 140.632C188.694 140.517 184.859 140.46 178.563 140.46C175.129 140.688 172.267 140.803 169.978 140.804C167.445 140.781 164.918 140.552 162.422 140.117C161.964 128.213 161.735 114.763 161.736 99.7659C161.736 90.9519 161.85 77.8445 162.079 60.4438C162.308 42.8172 162.423 27.3634 162.422 14.082C167.115 14.082 170.377 14.0252 172.21 13.9119H176.503L180.967 13.74L186.805 14.082L190.926 14.2539V56.4949L190.755 60.616C190.639 62.4493 190.582 65.0825 190.583 68.5159L190.411 70.5769C191.494 69.4482 192.418 68.1771 193.158 66.7988C193.73 65.6562 194.188 64.7407 194.532 64.052C194.826 63.5857 195.085 63.0977 195.305 62.592C195.586 61.9747 195.901 61.3737 196.249 60.792V60.9639C198.706 56.6709 201.521 52.5926 204.663 48.772C207.863 49.897 211.23 50.4774 214.622 50.489C216.452 50.489 219.314 50.3744 223.208 50.145H224.066C225.209 50.033 227.27 49.9759 230.248 49.9739C232.648 49.9739 234.537 50.031 235.914 50.145C232.936 54.725 229.359 59.8476 225.182 65.5129C221.005 71.1783 218.458 74.584 217.541 75.73C217.426 75.846 216.682 76.762 215.309 78.478L213.076 81.397L206.895 89.467C207.434 90.4485 208.036 91.3948 208.695 92.3C209.323 93.1581 209.867 93.9306 210.327 94.6179C211.406 96.581 212.608 98.4735 213.927 100.284C222.419 113.249 230.215 126.657 237.283 140.45Z" fill="white"/>
<path d="M258.662 109.8C259.038 111.802 259.827 113.703 260.98 115.382C261.804 116.999 263.05 118.364 264.586 119.331C265.971 120.218 267.578 120.694 269.222 120.704C271.626 120.704 273.572 119.416 275.06 116.84C276.548 114.264 277.178 110.458 276.949 105.422C280.478 105.888 284.044 106.003 287.595 105.765L303.736 106.624C303.73 111.852 303.356 117.074 302.619 122.25C301.873 127.517 300.471 131.523 298.412 134.269C295.997 137.561 292.503 139.901 288.539 140.88C283.635 142.157 278.581 142.763 273.515 142.68C271.339 142.68 268.306 142.565 264.415 142.336C262.583 142.221 259.893 142.164 256.345 142.164C252.579 141.63 248.959 140.346 245.699 138.387C240.204 134.038 236.141 127.857 233.508 119.842C230.809 111.408 229.475 102.597 229.558 93.742C229.46 84.5356 230.851 75.3741 233.679 66.6121C235.968 61.4601 240.204 57.4535 246.385 54.5921C252.855 51.6708 259.887 50.2051 266.985 50.2989C271.031 50.2909 275.065 50.752 279.005 51.6729C287.819 53.3903 294.258 57.5399 298.322 64.1219C302.386 70.7039 304.419 78.574 304.422 87.732C304.422 89.2214 304.308 91.7971 304.079 95.4591C301.903 96.0331 296.923 96.5766 289.14 97.0899C281.357 97.6033 274.088 97.8611 267.333 97.8631H258.061V101.463C258.097 104.251 258.298 107.035 258.662 109.8ZM270.252 69.0201C266.244 69.0201 263.382 69.9356 261.667 71.7669C259.811 73.9304 258.724 76.6476 258.576 79.494C258.455 79.9999 258.398 80.519 258.404 81.0391C258.39 81.1861 258.406 81.3341 258.451 81.4747C258.496 81.6153 258.568 81.7455 258.665 81.8575C258.761 81.9695 258.878 82.0607 259.01 82.1263C259.143 82.1919 259.287 82.2303 259.434 82.2391C261.149 82.3654 262.871 82.3654 264.586 82.2391H272.141L277.292 82.411H279.524C279.868 82.526 280.096 82.526 280.211 82.411C280.35 82.2106 280.411 81.9663 280.383 81.724V81.0369C280.428 78.8502 279.988 76.6805 279.095 74.6839C278.384 73.0185 277.148 71.6315 275.575 70.7349L274.888 70.5631C273.509 69.6415 271.908 69.1085 270.252 69.0201Z" fill="white"/>
<path d="M336.615 59.833C336.555 59.777 336.585 59.748 336.7 59.748C339.644 57.8272 342.855 56.3514 346.23 55.3689C349.708 54.3015 353.324 53.7521 356.962 53.738C364.517 53.738 370.355 55.5693 374.476 59.2319C377.68 62.0953 379.283 71.5396 379.284 87.5649C379.284 92.2589 379.17 99.4132 378.941 109.028C378.71 117.27 378.596 123.165 378.597 126.714C378.597 130.607 378.712 134.957 378.941 139.764C372.803 140.67 366.596 141.014 360.396 140.794H352.326C352.095 137.36 351.981 130.72 351.982 120.875V112.291C351.982 106.683 351.868 102.619 351.639 100.1L351.467 99.0688V97.8689C351.237 94.6689 350.98 92.1506 350.695 90.314C350.389 88.4382 349.621 86.6678 348.462 85.1619C347.796 84.3393 346.94 83.6911 345.968 83.2729C344.996 82.8548 343.937 82.6795 342.882 82.762C341.929 82.7835 340.991 83.0089 340.133 83.4229C339.274 83.8368 338.514 84.4296 337.903 85.1619C336.414 86.7659 335.612 89.17 335.498 92.374C335.383 94.0914 335.326 96.7246 335.327 100.274C335.327 103.137 335.441 107.316 335.67 112.809C335.898 118.534 336.012 122.827 336.013 125.688C336.041 130.276 335.812 134.862 335.327 139.424C332.878 140.102 330.381 140.59 327.857 140.884C325.773 141.058 323.679 141.087 321.59 140.97C320.56 140.854 318.9 140.797 316.61 140.798C313.976 140.798 311.4 140.912 308.883 141.141C308.883 127.408 308.826 117.22 308.712 110.577C308.481 95.6976 308.366 84.422 308.368 76.75C308.368 71.144 308.483 63.1887 308.712 52.884C311.558 53.2798 314.424 53.5087 317.297 53.5698C319.191 53.5737 321.084 53.4588 322.964 53.2258L325.883 52.884C328.399 52.6547 330.345 52.54 331.721 52.54C334.468 52.54 335.956 52.94 336.185 53.74C336.453 55.7316 336.568 57.7408 336.529 59.75V59.9209C336.641 59.9189 336.671 59.893 336.615 59.833Z" fill="white"/>
<path d="M422.212 50.6441C423.638 50.4943 425.072 50.4367 426.505 50.472C427.481 50.446 428.457 50.5036 429.423 50.6441C433.322 50.8532 437.169 51.6341 440.841 52.9619C444.079 54.0541 447.038 55.8417 449.512 58.199C452.832 60.8343 455.007 64.9554 456.037 70.562C457.139 77.0298 457.656 83.5836 457.583 90.1441V95.8111C457.242 105.544 456.67 113.729 455.867 120.365C455.064 127.001 453.691 131.465 451.746 133.758C449.322 137.059 445.836 139.425 441.874 140.458C436.98 141.795 431.92 142.431 426.847 142.347C424.673 142.347 421.64 142.233 417.747 142.004C414.08 141.773 411.276 141.659 409.333 141.661C403.406 140.585 397.885 137.914 393.364 133.934C389.747 130.382 387.19 125.893 385.981 120.969C384.541 115.215 383.849 109.3 383.92 103.369L383.749 83.794C383.405 80.7026 383.777 76.2386 384.865 70.4019C385.953 64.5652 387.069 61.2453 388.213 60.4419C389.471 57.2379 392.762 54.7766 398.086 53.0579C403.897 51.2697 409.951 50.4009 416.03 50.4829C418.086 50.6502 420.15 50.7041 422.212 50.6441ZM412.083 89.8831C411.967 91.8831 411.91 93.3996 411.911 94.4329L411.739 97.867C411.739 100.729 411.625 103.877 411.396 107.311C411.419 108.489 411.692 109.648 412.195 110.714C412.698 111.779 413.42 112.726 414.315 113.492C416.002 115.039 418.208 115.895 420.497 115.892C422.87 115.874 425.212 115.347 427.364 114.347C428.052 114.003 428.911 112.114 429.94 108.68L430.112 107.822C430.678 103.665 431.022 99.4806 431.141 95.2869C431.166 92.8086 430.936 90.3343 430.456 87.9029C430.053 85.2791 428.888 82.8315 427.107 80.8631C426.3 80.02 425.325 79.3551 424.246 78.9116C423.166 78.4682 422.006 78.2557 420.839 78.2879C419.917 78.3422 419 78.4568 418.093 78.6309C415.23 79.5496 413.57 80.809 413.113 82.409L412.426 85.156C412.309 86.3034 412.194 87.8791 412.083 89.8831Z" fill="white"/>
<path d="M490.637 59.833C490.577 59.777 490.608 59.748 490.723 59.748C493.666 57.8266 496.878 56.3508 500.253 55.3689C503.731 54.3014 507.346 53.752 510.984 53.738C518.54 53.738 524.378 55.5693 528.498 59.2319C528.498 59.3479 528.842 59.7479 529.529 60.4319C529.641 60.4319 529.641 60.4621 529.529 60.5181C529.417 60.5741 529.414 60.6629 529.529 60.7759L531.075 59.7458C533.994 57.8352 537.175 56.3601 540.519 55.3669C544.023 54.2866 547.669 53.7368 551.336 53.7358C558.892 53.7358 564.73 55.5673 568.85 59.23C572.054 62.0933 573.657 71.5377 573.658 87.563C573.658 92.257 573.544 99.4112 573.315 109.026C573.084 117.268 572.969 123.163 572.971 126.712C572.971 130.605 573.086 134.955 573.315 139.762C567.177 140.668 560.97 141.012 554.77 140.792H546.7C546.469 137.358 546.355 130.718 546.356 120.873V112.289C546.356 105.878 546.184 101.07 545.841 97.865C545.267 91.9143 544.467 87.9076 543.441 85.845C542.967 84.8547 542.205 84.0301 541.256 83.4788C540.306 82.9274 539.212 82.6749 538.117 82.7539C537.567 82.747 537.021 82.8586 536.518 83.0808C536.015 83.303 535.565 83.6308 535.199 84.042C534.399 84.9 533.769 86.6457 533.31 89.2791C533.31 94.0871 533.195 101.527 532.966 111.601C532.735 119.157 532.621 124.594 532.622 127.913C532.622 131.463 532.737 135.413 532.966 139.762C526.829 140.668 520.621 141.012 514.421 140.792H506.351C506.12 137.358 506.006 130.718 506.007 120.873V112.289C506.007 106.681 505.893 102.617 505.665 100.098C505.652 99.8959 505.624 99.6954 505.579 99.498C505.505 98.9577 505.476 98.4121 505.493 97.8669C505.345 94.7534 504.972 91.6547 504.377 88.595C503.861 86.1896 502.917 84.5297 501.544 83.615C500.331 82.9731 498.964 82.6759 497.594 82.7559C495.541 82.7536 493.569 83.5549 492.1 84.988C490.494 86.4774 489.635 88.9385 489.523 92.3718C489.408 94.0892 489.352 96.7226 489.353 100.272C489.353 103.135 489.467 107.314 489.695 112.807C489.923 118.532 490.038 122.825 490.039 125.686C490.067 130.274 489.838 134.86 489.353 139.422C486.904 140.1 484.407 140.588 481.883 140.882C479.798 141.056 477.704 141.085 475.615 140.968C474.585 140.852 472.925 140.795 470.636 140.796C468.001 140.796 465.425 140.91 462.909 141.139C462.909 127.406 462.852 117.218 462.737 110.575C462.507 95.6956 462.393 84.42 462.394 76.748C462.394 71.142 462.508 63.1865 462.737 52.8818C465.583 53.2776 468.449 53.5067 471.322 53.5679C473.216 53.5718 475.109 53.457 476.989 53.2239L479.908 52.8818C482.424 52.6525 484.37 52.5378 485.746 52.5378C488.493 52.5378 489.981 52.938 490.211 53.738C490.478 55.7297 490.593 57.7389 490.554 59.748V59.9189C490.663 59.9189 490.693 59.893 490.637 59.833Z" fill="white"/>
<path d="M608.856 79.322L608.685 88.937C608.454 99.4703 608.339 107.37 608.342 112.637C608.342 122.485 608.571 131.128 609.028 138.566C608.454 139.366 607.281 139.91 605.509 140.197C603.09 140.523 600.65 140.667 598.209 140.626C594.659 140.626 592.198 140.569 590.825 140.454C587.016 140.159 583.185 140.508 579.492 141.485C580.064 133.818 580.35 126.091 580.351 118.304C580.351 113.496 580.237 106.399 580.008 97.0129C579.777 89.2289 579.663 82.4747 579.664 76.75C579.664 68.2833 580.008 60.0987 580.695 52.196C582.059 51.9867 583.436 51.8721 584.816 51.853C585.62 51.8369 586.423 51.894 587.216 52.0239C594.312 52.3679 599.864 52.4826 603.871 52.3679L609.194 53.2258C609.198 59.1772 609.085 67.876 608.856 79.322ZM608.685 23.1738C608.685 24.3192 608.799 26.3796 609.028 29.355L609.372 40.345C609.021 40.7117 608.591 40.9946 608.116 41.1729C607.64 41.3511 607.131 41.4203 606.625 41.375C605.533 41.3533 604.444 41.2671 603.362 41.1169C602.224 40.9619 601.077 40.8757 599.928 40.8589C598.555 40.8589 596.381 40.7445 593.404 40.5159C592.257 40.4039 590.31 40.347 587.565 40.345C584.587 40.345 582.298 40.4019 580.697 40.5159C580.697 38.1119 580.582 34.964 580.353 31.072L580.181 28.325C579.951 23.289 579.894 18.8246 580.01 14.9319L608.51 15.446C608.513 18.5367 608.57 21.1125 608.683 23.1738H608.685Z" fill="white"/>
<path d="M685.007 124.482C684.262 129.177 683.146 132.382 681.659 134.097C679.235 137.398 675.749 139.763 671.786 140.797C666.892 142.134 661.833 142.77 656.761 142.686C654.585 142.686 651.552 142.571 647.661 142.342C643.994 142.112 641.19 141.998 639.248 141.999C633.291 141.02 627.744 138.336 623.279 134.272C619.68 130.754 617.149 126.289 615.979 121.394C614.601 115.718 613.937 109.892 614.004 104.052V98.7279C614.083 93.9146 613.911 89.1003 613.49 84.3048C613.453 80.0469 613.798 75.7942 614.52 71.5978C614.866 68.8321 615.559 66.1208 616.581 63.5277L617.611 61.2948C617.495 61.4108 617.439 61.4108 617.439 61.2948C619.039 57.8615 622.53 55.2575 627.913 53.4828C633.742 51.6408 639.829 50.7425 645.942 50.8219C647.998 50.9923 650.062 51.0492 652.124 50.9928C653.55 50.8441 654.984 50.7871 656.417 50.8219C657.393 50.7962 658.37 50.8534 659.336 50.9928C668.377 51.7928 675.131 54.2539 679.597 58.3759C682.599 60.9028 684.632 64.3923 685.35 68.2499C686.483 74.0497 687.086 79.9406 687.15 85.8498V87.7389L687.322 90.3148C684.384 90.9336 681.394 91.2784 678.392 91.3449C673.681 91.189 668.981 90.7885 664.312 90.1449L660.535 89.6298C660.135 86.7062 658.948 83.9466 657.1 81.6459C656.311 80.6838 655.313 79.9134 654.183 79.3927C653.053 78.872 651.819 78.6145 650.575 78.6398C649.651 78.6687 648.731 78.7838 647.828 78.9838H648C646.558 79.4518 645.259 80.2777 644.223 81.3839C643.194 82.5366 642.535 83.9725 642.334 85.5048C641.819 89.6625 641.589 93.8508 641.646 98.0399L641.475 103.878C641.36 105.138 641.303 106.684 641.304 108.513C641.227 109.643 641.429 110.775 641.893 111.808C642.357 112.842 643.069 113.745 643.965 114.438C645.892 115.803 648.215 116.496 650.575 116.413C651.482 116.663 652.433 116.713 653.361 116.558C654.29 116.404 655.173 116.048 655.95 115.517C656.726 114.986 657.378 114.291 657.858 113.482C658.339 112.672 658.637 111.768 658.732 110.832C659.358 108.953 659.846 107.03 660.191 105.08C663.72 105.542 667.286 105.657 670.837 105.423H674.615L678.392 105.252C680.579 105.193 682.766 105.365 684.917 105.766H686.978C686.407 113.551 685.75 119.79 685.007 124.482Z" fill="white"/>
<path d="M753.083 82.5851C747.197 82.5329 741.331 81.8997 735.57 80.6949C735.707 79.9596 735.764 79.2116 735.74 78.464C735.809 76.2463 735.009 74.0893 733.509 72.454C732.02 70.854 729.845 70.1675 726.984 70.3942C725.34 70.9181 723.881 71.9011 722.777 73.2272C721.726 74.4435 721.147 75.9973 721.146 77.6051C721.149 79.5003 721.724 81.3506 722.797 82.9132C723.869 84.4758 725.389 85.678 727.156 86.3622H726.984C734.02 87.2823 740.968 88.7755 747.761 90.827C753.028 92.5444 757.034 95.1778 759.78 98.7272C762.709 103.231 764.316 108.466 764.416 113.838C764.256 118.425 763.327 122.952 761.669 127.231C759.04 132.723 754.489 137.06 748.877 139.422C742.452 142.154 735.506 143.444 728.529 143.199C716.051 143.656 706.063 141.138 698.566 135.645C691.069 130.152 687.32 122.31 687.319 112.121C691.99 111.543 696.692 111.256 701.399 111.262L717.883 111.605C717.91 112.903 718.216 114.18 718.779 115.35C719.342 116.521 720.149 117.556 721.146 118.388C723.027 120.094 725.474 121.042 728.014 121.049C728.921 121.049 729.818 120.858 730.647 120.488C731.475 120.118 732.216 119.578 732.822 118.903C733.523 118.131 734.054 117.22 734.379 116.228C734.705 115.237 734.817 114.189 734.71 113.151C735.054 110.175 734.138 108.086 731.963 106.884C728.865 105.372 725.571 104.303 722.176 103.707L719.6 103.192C715.968 102.478 712.405 101.444 708.955 100.102C703.187 98.0771 698.102 94.4782 694.273 89.713C690.973 85.7205 689.127 80.7259 689.036 75.547C689.078 70.1623 690.956 64.9532 694.359 60.7801C698.002 56.1366 703.07 52.8184 708.783 51.3361C712.904 50.1927 718.913 49.6204 726.812 49.619C734.435 49.5385 742.041 50.344 749.478 52.0192C754.736 54.0971 759.044 58.0404 761.578 63.0951C764.264 68.6872 765.588 74.8359 765.441 81.038L762.694 81.8971C759.513 82.3786 756.3 82.6086 753.083 82.5851Z" fill="white"/>
<path d="M779.163 91.124L772.453 93.2239C776.107 99.4829 778.065 106.587 778.133 113.834C777.994 119.986 776.797 126.068 774.593 131.814L774.353 132.504L774.043 133.154C770.028 141.593 763.068 148.275 754.473 151.944C746.583 155.346 738.064 157.043 729.473 156.924C729.213 156.924 728.953 156.914 728.683 156.914C727.673 156.954 726.683 156.964 725.703 156.964C711.603 156.964 699.753 153.514 690.463 146.704C690.133 146.464 689.823 146.204 689.503 145.954C685.634 149.75 680.865 152.502 675.643 153.954C669.497 155.655 663.14 156.477 656.763 156.394C654.303 156.394 651.063 156.274 646.853 156.034C642.643 155.764 640.403 155.714 639.243 155.714H638.013L636.793 155.494C630.346 154.373 624.212 151.887 618.803 148.204C615.833 151.248 611.921 153.197 607.703 153.734C604.56 154.181 601.387 154.382 598.213 154.334C593.323 154.334 591.143 154.234 589.953 154.144C589.353 154.114 588.773 154.094 588.223 154.094C586.595 154.041 584.969 154.223 583.393 154.634L564.343 160.284L564.783 154.374C562.643 154.494 560.513 154.574 558.413 154.574C557.113 154.574 555.813 154.554 554.523 154.514H533.873L533.813 153.494C528.593 154.207 523.331 154.568 518.063 154.574C516.763 154.574 515.453 154.554 514.173 154.514H493.523L493.393 152.544L492.783 152.704C489.616 153.569 486.386 154.184 483.123 154.544C481.593 154.674 479.953 154.754 478.263 154.754C477.193 154.754 476.073 154.724 474.933 154.664L474.503 154.644L474.073 154.594C473.993 154.584 473.193 154.514 470.633 154.514C468.413 154.514 466.233 154.604 464.153 154.794L449.193 156.164V152.384C448.062 152.855 446.907 153.266 445.733 153.614C439.583 155.315 433.223 156.137 426.843 156.054C424.393 156.054 421.153 155.934 416.943 155.684C412.733 155.434 410.483 155.364 409.333 155.364H408.053L407.233 155.214V37.2239C410.156 36.9117 413.094 36.7582 416.033 36.7639H417.393L418.003 36.884C418.483 36.904 419.493 36.9238 421.433 36.9338C422.713 36.8138 424.303 36.7639 426.503 36.7639C427.973 36.7462 429.443 36.823 430.903 36.9939C435.904 37.333 440.832 38.3733 445.543 40.084C446.833 40.554 448.073 41.074 449.263 41.634L449.363 37.384L464.443 39.2739C466.723 39.5982 469.02 39.7919 471.323 39.854C472.643 39.858 473.963 39.7779 475.273 39.614L478.483 39.2339L478.663 39.2239C481.623 38.9539 483.943 38.824 485.743 38.824C488.993 38.824 493.713 39.344 497.563 41.874C501.933 40.6586 506.447 40.0363 510.983 40.0239C518.603 40.0239 525.243 41.474 530.833 44.344C532.678 43.5399 534.568 42.842 536.493 42.2539C541.302 40.78 546.303 40.0285 551.333 40.0239C556.655 39.953 561.95 40.8021 566.983 42.5339V40.5139C566.983 38.3939 566.873 35.494 566.663 31.874L566.483 28.9539C566.233 23.5939 566.173 18.7439 566.303 14.5239L566.703 0.973877L622.233 1.97388V15.4438C622.233 18.2938 622.283 20.6341 622.383 22.4041L622.403 22.7839V23.1738C622.403 23.4638 622.423 24.6739 622.703 28.2939L622.723 28.614L623.103 40.634L623.613 40.4539C630.832 38.1606 638.369 37.03 645.943 37.104H647.313L647.913 37.2239C648.403 37.2439 649.403 37.2639 651.353 37.2739C652.633 37.1539 654.223 37.104 656.413 37.104C657.964 37.081 659.515 37.1713 661.053 37.374C672.383 38.454 681.413 41.8739 687.983 47.5139C692.844 43.0713 698.697 39.8554 705.053 38.134C710.493 36.624 717.593 35.9041 726.813 35.9041C735.501 35.8273 744.169 36.7566 752.643 38.6738L753.733 38.9338L754.763 39.364C763.052 42.6759 769.835 48.9182 773.823 56.9041C777.484 64.4164 779.313 72.6886 779.163 81.0439V91.124Z" fill="#6BCC5A"/>
<path d="M456.033 70.564C455.013 64.954 452.84 60.8338 449.513 58.2038C447.039 55.8468 444.08 54.0585 440.843 52.9639C437.17 51.6371 433.323 50.8556 429.423 50.644C428.456 50.506 427.479 50.449 426.503 50.4739C425.071 50.4399 423.638 50.4969 422.213 50.644C420.151 50.7035 418.088 50.6466 416.033 50.4739C413.09 50.4625 410.15 50.6497 407.233 51.0339V141.184C407.923 141.364 408.623 141.524 409.333 141.654C411.283 141.654 414.086 141.767 417.743 141.994C421.643 142.224 424.676 142.341 426.843 142.344C431.917 142.424 436.977 141.788 441.873 140.454C445.835 139.42 449.32 137.054 451.743 133.754C453.693 131.464 455.066 127.001 455.863 120.364C456.66 113.727 457.233 105.541 457.583 95.8039V90.144C457.659 83.5839 457.14 77.0304 456.033 70.564ZM430.113 107.824L429.943 108.684C428.903 112.114 428.053 114.004 427.363 114.354C425.209 115.352 422.867 115.877 420.493 115.894C418.205 115.895 416 115.039 414.313 113.494C413.418 112.728 412.696 111.781 412.192 110.716C411.689 109.651 411.417 108.492 411.393 107.314C411.623 103.874 411.733 100.734 411.733 97.864L411.913 94.4338C411.913 93.4038 411.963 91.884 412.083 89.884C412.203 87.884 412.313 86.3041 412.423 85.1641L413.113 82.4141C413.563 80.8141 415.223 79.554 418.093 78.634C418.998 78.4598 419.913 78.3461 420.833 78.2939C421.999 78.2619 423.16 78.4739 424.24 78.9165C425.319 79.3591 426.295 80.0225 427.103 80.864C428.885 82.8318 430.05 85.2799 430.453 87.904C430.938 90.337 431.169 92.8134 431.143 95.2939C431.019 99.4857 430.675 103.668 430.113 107.824Z" fill="white"/>
<path d="M573.653 87.564C573.653 71.544 572.053 62.1006 568.853 59.2339C564.733 55.5739 558.893 53.7406 551.333 53.7339C547.669 53.7373 544.025 54.2868 540.523 55.364C537.177 56.3587 533.994 57.834 531.073 59.7439L529.533 60.7739C529.413 60.6639 529.413 60.5839 529.533 60.5239C529.653 60.4639 529.643 60.4338 529.533 60.4338C529.125 60.0944 528.777 59.6888 528.503 59.2339C524.37 55.5739 518.53 53.7406 510.983 53.7339C507.346 53.7508 503.731 54.3001 500.253 55.364C496.878 56.3469 493.667 57.8227 490.723 59.7439C490.603 59.7439 490.573 59.774 490.633 59.834C490.693 59.894 490.663 59.9238 490.553 59.9238V59.7439C490.591 57.7345 490.474 55.7252 490.203 53.7339C489.973 52.9339 488.493 52.5339 485.743 52.5339C484.373 52.5339 482.426 52.6507 479.903 52.884L476.983 53.2239C475.105 53.455 473.215 53.5686 471.323 53.564C468.449 53.5014 465.581 53.2745 462.733 52.884C462.503 63.184 462.39 71.1372 462.393 76.7439C462.393 84.4139 462.506 95.6906 462.733 110.574C462.843 117.214 462.9 127.401 462.903 141.134C465.423 140.904 467.993 140.794 470.633 140.794C472.923 140.794 474.583 140.854 475.613 140.964C477.702 141.08 479.797 141.054 481.883 140.884C484.406 140.587 486.903 140.098 489.353 139.424C489.833 134.86 490.06 130.273 490.033 125.684C490.033 122.824 489.92 118.531 489.693 112.804C489.463 107.314 489.35 103.137 489.353 100.274C489.353 96.7239 489.403 94.084 489.523 92.374C489.633 88.934 490.49 86.4706 492.093 84.9839C493.567 83.5546 495.54 82.7549 497.593 82.7539C498.963 82.6746 500.329 82.9721 501.543 83.614C502.913 84.534 503.863 86.194 504.373 88.594C504.974 91.6523 505.348 94.7507 505.493 97.864C505.474 98.4086 505.501 98.9537 505.573 99.4939C505.621 99.6942 505.651 99.8984 505.663 100.104C505.893 102.614 506.006 106.677 506.003 112.294V120.874C506.003 130.724 506.12 137.364 506.353 140.794H514.423C520.621 141.013 526.827 140.668 532.963 139.764C532.733 135.414 532.62 131.464 532.623 127.914C532.623 124.594 532.736 119.157 532.963 111.604C533.193 101.534 533.306 94.0939 533.303 89.2839C533.763 86.6539 534.393 84.9073 535.193 84.0439C535.559 83.6325 536.009 83.3046 536.513 83.082C537.017 82.8595 537.562 82.7475 538.113 82.7539C539.208 82.6744 540.301 82.9268 541.25 83.478C542.199 84.0293 542.96 84.8538 543.433 85.844C544.463 87.904 545.266 91.9107 545.843 97.864C546.183 101.074 546.353 105.884 546.353 112.294V120.874C546.353 130.724 546.47 137.364 546.703 140.794H554.773C560.971 141.013 567.177 140.668 573.313 139.764C573.083 134.954 572.97 130.604 572.973 126.714C572.973 123.164 573.086 117.267 573.313 109.024C573.543 99.4139 573.656 92.2606 573.653 87.564Z" fill="white"/>
<path d="M608.683 88.9338L608.853 79.324C609.083 67.874 609.2 59.1739 609.203 53.2239L603.873 52.364C599.873 52.474 594.313 52.3639 587.223 52.0239C586.427 51.8905 585.62 51.8337 584.813 51.854C583.433 51.8715 582.057 51.985 580.693 52.1938C580.013 60.0938 579.67 68.2772 579.663 76.7439C579.663 82.4739 579.78 89.2272 580.013 97.0039C580.233 106.394 580.346 113.494 580.353 118.304C580.353 126.084 580.066 133.811 579.493 141.484C583.185 140.507 587.015 140.158 590.823 140.454C592.203 140.564 594.666 140.621 598.213 140.624C600.654 140.662 603.094 140.518 605.513 140.194C607.283 139.904 608.453 139.364 609.033 138.564C608.573 131.124 608.343 122.481 608.343 112.634C608.343 107.374 608.456 99.4738 608.683 88.9338ZM609.033 29.354C608.803 26.384 608.686 24.3238 608.683 23.1738C608.573 21.1138 608.516 18.5372 608.513 15.4438L580.013 14.9338C579.893 18.8238 579.95 23.2873 580.183 28.324L580.353 31.074C580.583 34.964 580.696 38.1106 580.693 40.5139C582.303 40.4039 584.583 40.344 587.563 40.344C590.313 40.344 592.253 40.4039 593.403 40.5139C596.383 40.7439 598.556 40.8607 599.923 40.864C601.074 40.8782 602.222 40.9617 603.363 41.114C604.444 41.2636 605.532 41.3504 606.623 41.374C607.129 41.4208 607.64 41.3524 608.116 41.1741C608.592 40.9957 609.022 40.7119 609.373 40.344L609.033 29.354Z" fill="white"/>
<path d="M678.393 105.254L674.623 105.424H670.843C667.29 105.656 663.723 105.539 660.193 105.074C659.85 107.028 659.362 108.953 658.733 110.834C658.639 111.77 658.341 112.674 657.861 113.483C657.381 114.292 656.73 114.986 655.954 115.517C655.178 116.049 654.295 116.404 653.368 116.559C652.44 116.714 651.49 116.665 650.583 116.414C648.222 116.499 645.899 115.803 643.973 114.434C643.075 113.743 642.361 112.842 641.896 111.809C641.43 110.776 641.226 109.644 641.303 108.514C641.303 106.684 641.363 105.134 641.483 103.874L641.653 98.0441C641.596 93.8532 641.827 89.6634 642.343 85.504C642.544 83.9737 643.199 82.5388 644.223 81.3842C645.262 80.2782 646.562 79.4496 648.003 78.974H647.833C648.738 78.7786 649.658 78.665 650.583 78.6342C651.827 78.6084 653.06 78.8658 654.19 79.3873C655.32 79.9088 656.316 80.6807 657.103 81.6442C658.952 83.943 660.141 86.7014 660.543 89.6241L664.313 90.1442C668.982 90.7866 673.682 91.1871 678.393 91.3441C681.395 91.2749 684.384 90.9301 687.323 90.3141L687.153 87.734V85.8441C687.088 79.935 686.486 74.0439 685.353 68.244C684.629 64.3903 682.599 60.9043 679.603 58.3741C675.136 54.2541 668.38 51.794 659.333 50.994C658.367 50.8506 657.389 50.7938 656.413 50.8241C654.981 50.7853 653.548 50.842 652.123 50.994C650.061 51.0476 647.998 50.9909 645.943 50.8241C639.829 50.7415 633.742 51.6394 627.913 53.484C622.533 55.254 619.043 57.8574 617.443 61.2941C617.443 61.4041 617.493 61.4041 617.613 61.2941L616.583 63.524C615.56 66.1169 614.868 68.8283 614.523 71.5941C613.8 75.7914 613.455 80.0451 613.493 84.3041C613.911 89.0987 614.082 93.9118 614.003 98.724V104.044C613.936 109.887 614.601 115.716 615.983 121.394C617.151 126.286 619.678 130.747 623.273 134.264C627.737 138.33 633.284 141.015 639.243 141.994C641.193 141.994 643.993 142.114 647.663 142.344C651.553 142.564 654.583 142.684 656.763 142.684C661.834 142.769 666.891 142.132 671.783 140.794C675.748 139.761 679.236 137.395 681.663 134.094C683.143 132.384 684.256 129.181 685.003 124.484C685.75 119.787 686.41 113.547 686.983 105.764H684.923C682.77 105.367 680.582 105.196 678.393 105.254Z" fill="white"/>
<path d="M747.763 90.8239C740.969 88.7771 734.019 87.2856 726.983 86.364H727.163C725.395 85.6802 723.874 84.4776 722.802 82.9143C721.729 81.3509 721.154 79.4999 721.153 77.604C721.154 75.9959 721.733 74.4415 722.783 73.2238C723.886 71.9014 725.343 70.9201 726.983 70.394C729.843 70.164 732.02 70.8505 733.513 72.4538C735.014 74.0885 735.814 76.246 735.743 78.4638C735.766 79.2111 735.709 79.9587 735.573 80.6938C741.333 81.8976 747.198 82.5308 753.083 82.5839C756.303 82.6084 759.52 82.3777 762.703 81.894L765.453 81.0439C765.599 74.8388 764.273 68.6874 761.583 63.094C759.05 58.0403 754.742 54.0986 749.483 52.0239C742.046 50.3413 734.438 49.5326 726.813 49.614C718.913 49.614 712.903 50.1873 708.783 51.3339C703.075 52.8228 698.011 56.138 694.363 60.7739C690.961 64.9484 689.084 70.1586 689.043 75.5439C689.133 80.723 690.976 85.7184 694.273 89.7138C698.106 94.4778 703.194 98.0764 708.963 100.104C712.412 101.446 715.972 102.48 719.603 103.194L722.183 103.704C725.575 104.302 728.868 105.373 731.963 106.884C734.143 108.084 735.053 110.174 734.713 113.154C734.821 114.191 734.708 115.24 734.382 116.231C734.056 117.222 733.525 118.133 732.823 118.904C732.218 119.577 731.477 120.116 730.651 120.484C729.824 120.853 728.928 121.044 728.023 121.044C725.482 121.04 723.034 120.092 721.153 118.384C720.156 117.553 719.348 116.517 718.784 115.348C718.22 114.178 717.913 112.902 717.883 111.604L701.403 111.264C696.697 111.256 691.994 111.54 687.323 112.114C687.323 122.304 691.073 130.147 698.573 135.644C706.063 141.134 716.05 143.65 728.533 143.194C735.511 143.443 742.458 142.156 748.883 139.424C754.494 137.057 759.044 132.717 761.673 127.224C763.333 122.946 764.262 118.42 764.423 113.834C764.32 108.462 762.712 103.227 759.783 98.7238C757.033 95.1738 753.026 92.5406 747.763 90.8239Z" fill="white"/>
</svg>
