<svg width="685" height="689" viewBox="0 0 685 689" fill="none" xmlns="http://www.w3.org/2000/svg">
<path d="M662.455 494.457C657.346 515.233 653.508 531.095 643.57 550.406C634.828 567.399 628.338 580.006 616.296 585.375C610.409 587.636 605.053 591.089 600.563 595.517C597.264 598.892 594.545 602.789 592.516 607.05C585.554 620.799 569.849 631.757 559.642 638.877C537.522 654.312 515.754 658.725 496.351 662.656C477.161 666.54 476.104 664.232 452.992 668.951C432.17 673.197 424.299 676.858 408.937 680.836C408.937 680.836 375.915 689.393 340.399 688.883C327.438 688.683 323.359 687.372 248.785 667.894C221.613 660.802 194.867 652.124 167.657 645.171C150.785 640.851 135.525 637.236 118.003 625.934C104.756 617.396 94.984 607.56 89.681 602.155C79.539 591.837 72.336 582.167 61.702 567.891C57.67 562.476 53.8591 557.34 49.1131 550.054C43.5387 541.464 38.405 532.596 33.732 523.484C22.051 500.409 16.285 478.993 13.448 468.23C6.38405 441.447 4.49304 420.95 2.61104 400.396C0.821041 381.021 -0.754949 362.943 0.858051 338.848C2.09205 320.455 4.63205 306.938 7.50605 291.642C14.245 255.708 19.085 250.081 22.543 220.303C23.952 208.094 23.702 204.203 26.038 194.781C28.615 184.351 32.7501 173.634 44.5701 153.517C58.1331 130.417 64.919 118.863 74.987 108.406C86.787 96.168 100.574 88.473 128.146 73.093C144.091 64.193 160.946 54.793 184.79 45.467C210.757 35.315 212.453 37.9849 248.433 25.8869C289.401 12.1109 289.688 7.80905 312.42 3.50705C343.875 -2.45395 368.183 1.0599 374.663 2.1069C376.286 2.3669 377.863 2.64489 379.41 2.95089C378.77 8.22623 378.13 13.5042 377.491 18.7849C376.777 24.6909 376.063 30.5936 375.349 36.4929C375.183 37.8739 375.016 39.2549 374.858 40.6269C374.311 45.1049 373.768 49.583 373.227 54.061L372.698 58.4609C371.586 67.6856 370.47 76.91 369.351 86.134C368.359 94.3673 367.364 102.597 366.366 110.822C365.05 121.715 363.737 132.602 362.426 143.483C361.62 150.112 360.82 156.737 360.026 163.359C359.562 167.114 359.117 170.869 358.663 174.623C358.463 176.283 358.263 177.933 358.063 179.583C357.543 183.839 357.03 188.094 356.524 192.349C356.004 196.616 355.488 200.874 354.975 205.124C354.651 207.822 354.327 210.52 354.002 213.217C353.269 219.217 352.546 225.209 351.833 231.193C350.989 238.126 350.151 245.06 349.32 251.993C348.783 256.359 348.255 260.722 347.735 265.083C346.873 272.203 346.014 279.32 345.158 286.434C344.388 292.767 343.621 299.102 342.858 305.439C341.848 313.819 340.835 322.197 339.818 330.572C338.789 339.101 337.76 347.626 336.731 356.149C342.052 349.141 347.376 342.129 352.704 335.114C357.423 328.903 362.135 322.694 366.842 316.489H366.851L382.899 295.352L401.899 270.352C404.912 266.375 407.934 262.394 410.965 258.411C415.424 252.524 419.892 246.641 424.371 240.76C428.199 235.707 432.037 230.655 435.885 225.602C445.629 212.762 455.382 199.919 465.143 187.073L472.736 177.061C480.31 167.095 487.881 157.128 495.449 147.161C502.208 138.252 508.972 129.343 515.743 120.434C521.852 112.387 527.964 104.34 534.081 96.2929C537.492 91.7969 540.91 87.2969 544.334 82.7929C548.401 85.6849 552.576 88.7442 556.859 91.9709C602.888 126.643 625.898 143.98 642.882 174.49C651.382 189.768 644.198 182.444 670.156 251.77C676.006 267.401 682.134 283.161 683.089 305.27C683.608 317.182 682.199 321.225 681.689 337.439C680.836 364.602 684.062 376.139 684.841 393.045C685.381 404.967 684.1 406.311 662.455 494.457Z" fill="#74DC3B"/>
<path d="M668.527 408.221C668.045 414.905 662.167 432.612 650.427 467.748C632.285 522.102 642.278 488.718 632.727 517.189C630.084 525.05 627.785 532.17 622.492 541.052C616.66 550.842 609.902 558.221 604.924 563.607C597.683 571.441 596.339 571.552 589.191 579.08C579.336 589.454 577.037 594.359 570.307 602.424C561.727 612.676 551.595 621.523 540.279 628.642C535.226 631.742 527.105 635.993 486.907 642.288C460.374 646.441 449.602 646.831 438.014 648.379C431.346 649.275 424.73 650.523 418.193 652.115C416.95 652.415 415.782 652.699 414.679 652.968C395.73 657.724 395.822 660.079 378.597 663.129C367.704 665.057 346.53 668.635 320.767 664.705C300.567 661.627 299.908 657.344 268.313 649.76C248.713 645.051 251.19 647.229 225.955 641.89C179.455 632.044 160.955 622.495 154.227 618.815C146.847 614.755 139.751 610.198 132.988 605.177C114.66 591.883 91.205 574.871 78.569 547.087C74.434 537.987 73.683 532.625 66.897 520.73C59.416 507.612 56.236 506.945 49.978 496.469C43.266 485.205 40.605 474.145 35.293 452.016C30.927 433.827 28.804 419.816 28.35 416.741C25.513 397.708 22.055 373.567 24.539 343.441C25.17 335.858 26.885 325.447 30.315 304.625C36.239 268.663 37.259 271.89 38.965 255.981C41.848 229.207 38.765 222.013 45.129 204.315C48.329 195.434 48.346 199.365 56.412 181.63C66.665 159.065 68.297 149.08 79.097 133.635C82.167 129.138 85.6328 124.925 89.453 121.046C97.694 112.841 105.102 108.975 113.445 104.266C134.203 92.557 128.965 93.613 149.509 82.099C163.424 74.299 173.603 68.599 187.409 62.955C205.589 55.52 207.517 57.4019 232.521 49.1879C258.831 40.5389 258.497 37.8498 284.576 29.3878C301.393 23.9278 313.992 19.9128 331.782 17.8458C342.536 16.6038 355.951 15.139 373.093 17.976C374.595 18.226 376.06 18.4976 377.487 18.7909C376.773 24.6969 376.059 30.5996 375.345 36.4989C375.179 37.8799 375.012 39.261 374.854 40.633C374.307 45.111 373.764 49.5888 373.223 54.0668L372.694 58.4669C371.582 67.6916 370.466 76.9158 369.347 86.1398C368.355 94.3731 367.36 102.602 366.362 110.828C365.046 121.721 363.733 132.608 362.422 143.489C361.616 150.118 360.816 156.743 360.022 163.365C359.558 167.12 359.113 170.875 358.659 174.629C358.459 176.289 358.259 177.939 358.059 179.589C357.539 183.845 357.026 188.1 356.52 192.355C356 196.622 355.484 200.88 354.971 205.13C354.647 207.828 354.323 210.525 353.998 213.223C353.265 219.223 352.542 225.215 351.829 231.199C350.985 238.132 350.147 245.066 349.316 251.999C348.779 256.365 348.251 260.728 347.731 265.089C346.869 272.209 346.01 279.326 345.154 286.44C344.384 292.773 343.617 299.108 342.854 305.445C341.844 313.825 340.831 322.202 339.814 330.578C338.785 339.106 337.756 347.632 336.727 356.155C342.048 349.147 347.372 342.135 352.7 335.12C357.419 328.909 362.131 322.7 366.838 316.495H366.847L382.895 295.358L401.895 270.358C404.908 266.38 407.93 262.4 410.961 258.417C415.42 252.53 419.888 246.647 424.367 240.766C428.195 235.713 432.033 230.66 435.881 225.608C445.625 212.768 455.378 199.925 465.139 187.079L472.732 177.067C480.306 167.101 487.877 157.134 495.445 147.167C502.204 138.258 508.968 129.349 515.739 120.44C521.848 112.393 527.96 104.346 534.077 96.299C537.777 99.117 541.966 102.149 548.289 106.358C564.846 117.371 569.324 118.658 585.918 130.749C597.97 139.519 603.663 144.711 608.734 150.412C612.488 154.64 618.162 161.667 625.523 175.462C631.994 187.597 635.915 197.711 650.832 244.306C655.959 260.335 658.545 268.419 659.482 272.106C664.245 290.643 667.057 309.628 667.872 328.75C668.382 341.878 667.306 339.85 667.352 362.85C667.405 394.769 669.472 395.251 668.527 408.221Z" fill="#CAF301"/>
<path d="M628.894 383C628.867 386.421 628.755 389.953 628.533 393.55C628.366 396.406 628.125 399.298 627.81 402.209V402.218C627.291 407.011 626.577 411.832 625.65 416.57C625.539 417.154 625.399 417.793 625.242 418.479C624.556 421.603 623.508 425.609 622.665 428.427C621.513 432.24 620.164 435.99 618.623 439.663C618.613 439.681 618.604 439.691 618.595 439.709C614.618 448.498 610.427 456.017 606.487 465.287C605.708 467.104 603.928 471.471 603.048 473.918C598.477 486.489 595.372 498.977 591.048 511.937C590.297 514.181 588.035 520.652 587.294 522.608C580.174 541.196 573.258 558.699 562.17 574.774C562.105 574.867 562.087 574.886 562.07 574.914C560.809 576.675 558.798 579.391 557.602 580.875C554.32 584.944 550.75 589.135 547.478 592.602C534.527 606.295 522.549 618.069 505.908 627.33C500.151 630.32 494.04 632.571 487.719 634.03C482.212 635.384 477.113 635.866 471.319 637.145C468.306 637.812 463.773 638.962 460.619 639.861C452.193 642.281 445.99 645.526 438.019 648.381C436.387 648.965 434.681 649.53 432.864 650.068C426.92 651.656 420.828 652.628 414.684 652.968C411.402 653.218 408.148 653.339 405.098 653.385C400.76 653.441 389.635 653.153 386.093 653.126C382.617 653.098 377.156 652.82 371.501 652.467H371.492C369.183 652.319 366.847 652.161 364.592 652.004C358.131 651.531 352.42 651.049 350.362 650.804C322.429 647.411 304.685 645.464 278.848 636.888C272.339 634.719 255.365 625.958 248.236 622.12C235.924 615.51 219.988 605.006 209.966 599.694C193.112 590.748 181.566 588.18 167.766 577.294C160.84 571.843 158.513 566.725 151.097 559.707C141.937 551.03 126.242 536.438 118.167 526.5C117.926 526.2 117.685 525.906 117.453 525.61C116.453 524.34 115.453 522.931 114.496 521.51C111.965 517.737 109.814 513.964 109.277 512.99C107.698 510.089 106.347 507.07 105.235 503.96C104.465 501.903 103.788 499.826 103.186 497.833C101.943 493.754 101.007 489.999 100.312 487.264C96.412 472.097 93.34 464.421 88.927 450.264C85.942 440.687 81.687 427.94 79.327 417.788C78.427 413.913 77.807 410.335 77.306 406.858C76.917 404.158 76.606 401.527 76.286 398.876C76.286 398.876 76.296 398.876 76.286 398.867C75.971 396.187 75.656 393.499 75.257 390.69V390.681C74.896 388.066 74.469 385.368 73.913 382.495C73.792 381.873 73.663 381.243 73.533 380.603C70.483 365.918 65.375 353.375 61.657 336.447C59.657 327.334 57.05 315.56 56.076 303.573C55.965 302.284 55.876 300.986 55.817 299.698C55.761 298.613 55.717 297.528 55.696 296.453C55.641 293.7 55.659 290.325 55.807 286.672C55.854 285.384 55.918 284.067 56.007 282.723C56.3328 275.915 57.3378 269.158 59.007 262.55C61.8503 253.297 65.447 244.293 69.761 235.628C73.942 227.34 77.335 221.675 81.238 213.897C87.19 202.003 89.738 191.814 96.785 179.262C100.438 172.772 107.873 163.103 113.407 156.076C117.598 150.754 121.751 145.535 125.988 140.334C126.516 139.676 127.054 139.027 127.588 138.369C129.497 136.023 131.435 133.696 133.4 131.36L133.41 131.351C136.626 127.54 139.91 123.739 143.338 119.883C143.515 119.67 143.709 119.466 143.895 119.252C146.277 116.582 148.495 113.852 150.69 111.122C151.69 109.861 152.683 108.61 153.69 107.349H153.699C159.308 100.321 165.093 93.3868 173.205 87.4628C182.447 80.7138 188.371 75.217 201.712 69.496C211.595 65.26 217.797 62.8119 235.281 59.2059C242.081 57.8059 252.599 56.3879 263.881 55.2379C265.624 55.0529 267.395 54.8859 269.166 54.7189C273.82 54.2919 278.529 53.9118 283.072 53.6058C284.889 53.4858 286.672 53.3748 288.421 53.2728C294.289 52.9478 299.732 52.7628 304.283 52.7728C306.721 52.7728 310.513 52.726 314.416 52.652C320.961 52.552 327.822 52.4018 329.185 52.4388C330.779 52.4858 332.457 52.5688 334.2 52.6898C340.727 53.1248 348.069 54.0429 355.013 55.1459C361.595 56.1839 367.825 57.38 372.692 58.465C371.58 67.6896 370.464 76.9138 369.345 86.1378C368.353 94.3712 367.358 102.6 366.36 110.826C365.044 121.719 363.731 132.606 362.42 143.487C361.614 150.116 360.814 156.741 360.02 163.363C359.556 167.118 359.111 170.873 358.657 174.627C358.457 176.287 358.257 177.937 358.057 179.587C357.537 183.843 357.024 188.098 356.518 192.353C355.998 196.62 355.482 200.878 354.969 205.128C354.645 207.826 354.321 210.523 353.996 213.221C353.263 219.221 352.54 225.213 351.827 231.197C350.983 238.13 350.145 245.064 349.314 251.997C348.777 256.363 348.249 260.726 347.729 265.087C346.867 272.207 346.008 279.324 345.152 286.438C344.382 292.771 343.615 299.106 342.852 305.443C341.842 313.823 340.829 322.2 339.812 330.576C338.783 339.104 337.754 347.63 336.725 356.153C342.046 349.145 347.37 342.133 352.698 335.118C357.417 328.906 362.129 322.698 366.836 316.493H366.845L382.893 295.356L401.893 270.356C404.906 266.378 407.928 262.398 410.959 258.415C415.418 252.528 419.886 246.644 424.365 240.764C428.193 235.711 432.031 230.659 435.879 225.606C445.623 212.766 455.376 199.923 465.137 187.077L472.73 177.065C480.304 167.099 487.875 157.132 495.443 147.165C502.202 138.256 508.966 129.347 515.737 120.438C522.115 124.183 528.475 127.873 536.437 132.258C540.878 134.706 550.594 140.389 555.47 144.588C558.354 147.153 561.102 149.868 563.703 152.719C566.187 155.398 568.579 158.133 570.433 160.395C571.157 161.275 571.796 162.082 572.324 162.787C577.368 169.452 579.936 173.615 583.904 179.087C585.82 181.672 587.894 184.137 590.115 186.466C592.59 189.108 595.115 191.602 597.476 194.161C598.922 195.727 600.313 197.322 601.583 198.982C610.399 210.468 614.822 215.15 620.709 230.094C625.668 242.684 624.973 261.438 624.809 278.432C624.642 295.212 622.677 321.732 624.132 338.654C625.189 350.817 627.053 358.299 628.11 367.968C628.41 370.62 628.638 373.447 628.777 376.568C628.823 377.615 628.87 378.737 628.877 380.239C628.877 380.498 628.886 380.758 628.886 381.008C628.894 381.614 628.894 382.263 628.894 383Z" fill="#A3EB01"/>
<path d="M321.579 62.2371C322.135 63.5071 330.646 59.0481 347.695 56.2581C349.895 55.8961 352.339 55.5071 355.019 55.1451C361.051 54.3107 367.139 53.9482 373.227 54.0611L372.698 58.461C371.586 67.6857 370.47 76.9101 369.351 86.1341C367.469 86.1251 365.726 86.1071 364.086 86.0691C362.927 86.0511 361.814 86.0231 360.767 85.9861C356.391 85.8381 352.849 85.606 349.697 85.386C348.557 85.312 347.463 85.2291 346.406 85.1641H346.4C339.554 84.5845 332.663 84.7957 325.865 85.794C317.334 87.0605 308.916 88.9918 300.686 91.5701C278.093 98.1241 277.741 102.018 261.87 105.47C245.395 109.048 242.494 105.563 226.863 110.457C218.463 113.081 212.744 116.14 205.485 120.025C198.059 124.002 187.166 129.917 175.958 139.975C174.484 141.292 173 142.683 171.526 144.156C164.193 151.443 165.899 151.666 159.066 157.924C158.844 158.124 158.612 158.331 158.399 158.524C147.979 167.888 142.199 168.917 136.251 176.936C133.006 181.312 133.303 182.906 128.779 195.162C123.216 210.199 122.345 208.92 111.6 234.628C103.859 253.15 102.459 258.24 101.505 262.56C98.8251 274.64 99.3721 281.639 98.2231 281.704C96.0621 281.834 87.7651 257.341 92.0581 230.304C96.1581 204.504 106.983 206.126 115.401 172.084C117.823 161.32 121.478 150.871 126.294 140.944C126.712 140.091 127.147 139.229 127.602 138.367C127.648 138.283 127.685 138.2 127.731 138.116C129.63 134.481 131.764 130.973 134.119 127.616C134.852 126.559 135.65 125.471 136.511 124.352C137.104 123.583 137.707 122.823 138.319 122.072C141.579 118.053 145.143 114.29 148.98 110.817C150.401 109.468 151.987 108.303 153.699 107.35H153.708C154.208 107.127 154.57 107.081 154.756 107.229C155.219 107.619 154.338 109.056 152.938 111.661C152.058 113.283 150.973 115.369 149.888 117.928C149.638 118.512 149.397 119.105 149.165 119.698C144.558 131.509 143.714 143.663 145.522 144.238C146.977 144.702 149.471 137.387 155.368 128.07C155.738 127.47 156.795 125.836 158.455 123.536C159.789 121.692 161.523 119.42 163.618 116.917C168.472 111.071 173.937 105.76 179.918 101.073C195.234 89.244 210.845 85.155 230.249 80.066C240.336 77.424 251.414 75.4771 251.414 75.4771C259.072 74.1331 263.874 73.623 266.637 73.233C269.691 72.8012 272.707 72.1325 275.657 71.233C280.642 69.632 285.48 67.6066 290.119 65.179C294.059 63.214 298.37 60.9241 303.46 58.3001C307.409 56.2611 311.053 54.3881 314.427 52.6541C332.996 43.1711 343.519 38.2291 352.28 36.8541C359.92 35.6897 367.682 35.5682 375.354 36.493C375.188 37.874 375.021 39.255 374.863 40.627C370.081 41.0127 365.333 41.7316 360.651 42.7781C351.436 44.8912 342.544 48.2242 334.211 52.689C326.029 57.074 321.134 61.2181 321.579 62.2371Z" fill="#15B900"/>
<path d="M249.175 571.414C257.908 582.705 265.352 587.952 264.388 589.38C263.628 590.492 258.381 588.38 239.079 578.626C220.296 569.142 210.636 564.238 197.379 556.339C188.136 550.832 181.953 547.139 173.637 541.126C165.768 535.351 158.196 529.181 150.951 522.64C138.214 511.469 124.474 498.314 124.993 497.72C125.364 497.303 132.623 503.654 146.502 513.981C160.89 524.689 168.084 530.038 176.131 534.442C192.466 543.351 208.448 546.985 215.661 547.884C218.146 548.19 219.592 548.172 219.661 547.94C219.73 547.708 218.354 547.226 215.777 546.327C207.217 543.391 198.875 539.856 190.811 535.749C180.265 530.351 170.217 524.031 160.783 516.864C152.142 510.31 147.822 507.028 143.083 501.521C133.905 490.86 135.759 487.021 126.034 474.121C116.81 461.884 113.528 463.191 109.254 454.449C102.533 440.719 104.294 424.504 107.678 423.633C110.227 422.975 113.815 431.049 115.02 430.456C116.309 429.816 112.712 420.342 108.726 408.556C108.457 407.756 103.877 394.223 101.902 387.177C96.8501 369.146 100.846 365.243 97.5821 342.335C95.8761 330.394 95.1531 334 89.8411 308.107C84.7141 283.085 84.4081 274.918 84.3341 271.525C83.9821 254.458 87.1531 240.385 87.7461 240.45C88.2461 240.496 86.736 250.805 87.218 264.702C88.118 290.344 95.3111 313.438 98.1011 313.095C100.187 312.835 97.7401 299.773 102.171 277.82C104.234 266.71 107.714 255.911 112.527 245.687C117.338 235.687 118.427 237.121 139.801 207.399C144.418 200.984 147.57 196.46 150.045 193.03C154.032 187.495 156.257 184.77 159.983 181.46H160C160.296 181.193 160.602 180.924 160.917 180.653C166.424 175.935 170.253 173.932 179.672 165.7C188.405 158.079 188.943 156.466 193.972 152.192C204.865 142.94 215.656 139.192 228.848 134.624C244.395 129.238 244.367 131.63 263.076 125.187C271.59 122.343 279.951 119.06 288.125 115.35C300.307 109.779 300.566 108.434 306.871 106.692C316.985 103.91 325.56 104.81 334.803 105.774C346.512 107.007 346.243 108.657 358.666 110.103C360.372 110.303 363.005 110.603 366.366 110.826C365.05 121.719 363.737 132.606 362.426 143.487C361.62 150.116 360.82 156.741 360.026 163.363C359.562 167.118 359.117 170.873 358.663 174.627C352.001 173.909 345.296 173.686 338.601 173.96C333.001 174.201 331.861 174.646 300.054 181.302C300.054 181.302 288.447 183.731 255.341 191.138C242.441 194.022 239.293 194.763 234.352 196.914C218.462 203.83 209.33 214.38 208.264 213.305C207.597 212.628 211.147 208.558 217.442 199.927C229.123 183.889 228.178 182.443 233.833 177.242C239.706 171.999 246.452 167.826 253.765 164.912C258.689 163.292 263.507 161.366 268.19 159.145C271.361 157.588 277.971 154.345 277.628 153.379C277.053 151.72 256.296 156.93 238.162 163.079C210.841 172.34 195.09 181.843 191.475 184.059C184.438 188.379 178.746 191.911 173.842 195.981C171.657 197.782 169.609 199.744 167.714 201.849C167.195 202.424 166.685 203.017 166.184 203.629C165.461 204.491 164.766 205.4 164.071 206.355C163.895 206.587 162.986 208.061 161.289 210.823C159.342 214.012 156.357 218.923 152.269 225.629C149.775 229.545 147.625 233.671 145.844 237.959C143.592 243.493 141.344 250.959 142.433 251.466C143.221 251.828 145.242 248.305 149.117 242.937C154.605 235.375 160.798 228.35 167.612 221.957C174.602 215.607 182.269 210.564 182.825 211.203C183.381 211.842 176.901 218.193 161.707 235.335C153.697 244.374 149.682 249.167 148.728 256.445C148.283 259.856 148.913 260.718 148.199 267.328C147.754 271.556 147.04 275.428 146.234 282.801C145.668 288.011 145.622 289.745 146.104 289.884C146.623 290.032 147.485 288.271 149.775 283.984C152.992 277.958 154.615 274.945 155.022 275.065C155.949 275.334 153.567 283.865 152.139 295.786C150.952 305.686 150.1 312.751 151.611 321.486C153.437 332.018 156.385 331.647 157.118 340.37C157.896 349.641 154.744 352.116 153.576 364.363C153.276 367.506 153.641 373.532 154.364 385.473C155.486 403.829 156.042 413.007 157.247 419.7C159.435 431.78 162.142 438.5 160.789 439.1C158.165 440.286 145.889 415.877 143.221 417.072C141.793 417.712 143.921 425.286 145.446 430.71C148.505 441.482 153.029 456.974 164.46 475.163C169.466 483.117 171.96 487.094 176.26 491.424C180.728 495.924 185.085 500.518 189.507 505.061C192.595 508.241 194.124 509.835 193.707 510.568C192.873 511.986 185.252 509.568 179.407 506.507C170.307 501.723 165.232 495.234 158.687 486.835C153.366 480.047 148.794 472.704 145.049 464.935C141.953 458.941 139.576 452.603 137.966 446.051C135.195 433.961 137.809 430.29 136.789 415.105C135.732 399.317 131.755 386.134 130.889 386.254C130.212 386.354 131.612 394.691 131.945 409.988C132.363 429.743 130.36 431.57 131.945 444.215C133.206 454.367 134.226 462.525 139.807 470.701C142.292 474.336 144.062 475.624 149.514 483.291C155.178 491.273 155.067 492.423 158.033 495.881C162.539 501.137 166.868 503.223 176.26 508.211C185.642 513.18 195.36 518.529 199.733 521.06C206.629 524.862 213.28 529.091 219.647 533.724C221.89 535.424 224.097 537.238 226.22 539.203C233.091 545.434 238.645 552.977 242.555 561.388C244.001 564.091 245.643 566.684 247.468 569.147C247.988 569.865 248.554 570.616 249.175 571.414Z" fill="#15B900"/>
<path d="M337.553 215C337.08 213.5 345.192 209.067 354.972 205.127C354.648 207.825 354.324 210.523 353.999 213.22C344.58 214.639 337.961 216.308 337.553 215Z" fill="#15B900"/>
<path d="M356.521 192.352C349.642 194.67 339.092 198.461 321.421 205.173C315.932 207.259 302.926 212.21 285.886 219.2C259.807 229.9 254.686 232.874 249.304 237.426C236.566 248.199 231.652 259.945 230.03 259.064C228.43 258.202 231.902 246.131 238.679 234.932C247.904 219.701 260.002 211.432 273.296 202.55C289.186 191.935 298.568 185.659 313.16 182.618C319.77 181.236 331.377 180.736 354.601 179.734C355.815 179.679 356.965 179.634 358.059 179.586C357.54 183.842 357.027 188.097 356.521 192.352Z" fill="#15B900"/>
<path d="M593.647 302.989C590.718 304.333 584.033 285.996 561.913 268.372C545.755 255.495 527.649 248.013 525.73 250.672C523.33 253.982 550.251 267.285 564.667 299.972C571.8 316.286 575.676 333.837 576.079 351.638C575.94 360.315 574.716 370.531 576.079 370.782C578.137 371.162 582.735 348.133 585.127 348.495C587.227 348.81 587.009 367.018 584.08 384.159C582.277 395.87 578.925 407.29 574.114 418.118C569.886 427.491 567.643 429.437 563.369 436.567C562.349 438.245 561.237 440.219 559.948 442.639C558.465 445.429 557.102 448.192 555.848 450.881V450.89C554.819 453.124 553.855 455.29 552.975 457.398C546.754 472.298 544.306 483.653 544.733 483.82C545.168 483.968 548.645 473.112 556.674 456.462V456.453C556.933 455.915 557.193 455.377 557.462 454.839C559.562 450.556 561.949 445.902 564.387 441.369V441.36C571.312 428.501 578.608 416.66 580.407 417.469C582.836 418.544 574.344 442.444 572.407 447.886C566.715 463.894 559.652 479.381 551.297 494.175C548.127 499.793 544.808 505.652 540.154 512.448C538.903 514.283 537.554 516.193 536.084 518.177C534.49 520.318 532.948 522.311 531.458 524.156C521.678 536.292 514.258 542.156 512.221 543.746C512.147 543.801 512.073 543.866 511.999 543.922C508.246 546.809 504.304 549.441 500.199 551.802C499.884 551.978 499.606 552.136 499.374 552.265C479.359 563.372 455.329 567.024 453.864 563.279C452.817 560.579 464.764 557.346 478.784 543.087C482.841 539.06 486.356 534.522 489.241 529.587V529.578C493.052 523.107 495.777 516.673 504.612 505.978C507.904 502.001 511.401 498.198 515.088 494.584C524.405 485.452 531.256 481.067 530.58 480.149C529.652 478.879 515.505 485.638 502.517 497.198C492.328 506.256 491.198 510.845 479.173 523.944C471.775 532.257 463.609 539.853 454.782 546.63C449.619 550.579 444.208 554.193 438.582 557.449C437.136 558.283 435.625 559.114 434.049 559.943C430.581 561.76 426.771 563.568 422.649 565.243C421.119 565.874 419.534 566.486 417.911 567.07C414.444 568.331 410.782 569.489 406.926 570.49C386.567 575.784 370.232 574.384 370.204 576.136C370.204 577.508 380.254 578.955 388.829 579.536C399.757 580.242 410.728 579.832 421.573 578.312C424.54 577.886 427.256 577.422 429.657 576.94H429.676C430.714 576.74 431.688 576.532 432.605 576.34H432.615C435.379 575.773 438.099 575.008 440.754 574.051H440.764C441.375 573.8 441.691 573.615 441.672 573.513C441.654 573.429 441.422 573.392 440.995 573.402C439.995 573.42 437.964 573.68 435.405 574.032C432.596 574.421 429.166 574.932 425.745 575.404C423.798 575.664 421.87 575.914 420.053 576.127H420.044C414.889 576.702 410.801 576.906 410.597 575.997C410.411 575.172 413.536 573.411 418.347 571.724C419.682 571.251 421.147 570.787 422.704 570.352C426.217 569.362 429.795 568.622 433.412 568.136C434.895 567.936 436.221 567.811 437.454 567.736C439.076 567.625 440.523 567.616 441.932 567.644C444.769 567.708 447.476 567.95 451.11 568.005C474.861 568.385 488.526 560.44 489.796 563.147C491.104 565.956 477.207 576.033 463.44 582.82C453.704 587.477 443.446 590.953 432.884 593.175C423.26 595.298 401.734 599.831 374.923 595.275C364.436 593.41 354.16 590.509 344.246 586.616C323.86 578.967 310.167 569.799 308.971 571.532C307.571 573.562 326.085 586.232 324.045 590.032C321.792 594.223 296.113 584.266 287.991 581.114C272.602 575.153 262.877 571.287 253.662 563.694C252.559 562.786 251.456 561.819 250.352 560.794C249.166 559.682 248.201 558.708 247.367 557.8C243.242 553.294 242.389 550.458 234.62 541.511C232.543 539.119 230.606 537.034 228.77 535.161C226.582 532.917 224.533 530.989 222.57 529.237C216.822 524.101 211.742 520.448 205.642 514.895C180.351 491.857 167.761 463.595 169.449 462.311C170.283 461.681 174.594 467.67 185.839 476.477C194.201 483.022 197.817 484.413 205.113 489.326C209.86 492.516 224.823 502.741 237.245 518.965C237.366 519.122 237.486 519.28 237.607 519.438C240.296 522.989 242.687 526.585 244.783 529.932C248.389 535.689 251.105 540.695 252.904 543.421V543.43C253.914 544.96 254.647 545.776 255.073 545.581C256.232 545.062 253.302 538.063 255.342 536.793C256.51 536.06 258.707 537.627 261.349 539.893C263.482 541.729 265.901 544.028 268.321 545.965C274.338 550.786 279.826 553.002 297.69 558.296C316.037 563.728 348.782 572.814 349.227 571.275C349.616 569.94 325.076 562.968 325.753 559.875C326.217 557.733 338.204 559.541 352.638 559.346C376.047 559.031 393.689 553.598 404.563 550.168C404.563 550.168 429.873 542.177 457.675 520.01C458.528 519.324 460.188 517.971 459.9 517.387C458.936 515.394 436.733 524.943 424.495 529.187C377.734 545.387 331.139 534.369 331.13 532.329C331.13 530.976 351.776 533.423 382.268 524.987C396.568 521.038 406.844 516.402 426.461 507.549C439.004 501.894 449.591 496.396 470.261 485.649C501.522 469.388 517.133 461.221 516.42 459.422C515.437 456.929 491.72 463.613 474.59 469.522C452.016 477.31 445.999 481.982 411.253 496.537C381.104 509.164 373.521 510.712 370.081 511.352C354.183 514.266 337.901 514.401 321.957 511.752C294.72 506.959 278.236 495.074 275.668 498.894C273.619 501.935 282.733 511.394 284.587 513.319C298.168 527.429 313.168 530.544 312.649 532.333C312.13 534.104 296.583 533.983 280.649 526.038C271.777 521.616 270.386 518.548 252.855 504.011C233.998 488.372 225.145 483.245 226.23 481.066C227.43 478.656 238.63 484.033 260.856 487.621C268.921 488.928 278.294 489.493 297.049 490.634C319.373 491.996 337.914 493.081 338.22 491.034C338.42 489.708 330.868 488.318 315.664 481.986C308.35 478.936 297.132 474.264 297.564 472.808C298.315 470.286 333.516 478.361 340.71 480.021C356.053 483.544 356.099 484.137 364.044 485.398C375.994 487.27 387.749 489.022 402.471 486.047C410.833 484.298 418.91 481.387 426.464 477.397C430.886 475.172 439.174 471.01 438.664 469.526C437.987 467.588 423.025 472.317 397.094 476.609C375.929 480.109 359.566 481.318 343.065 475.951C341.312 475.385 331.847 472.224 332.181 470.314C332.449 468.814 338.475 469.739 346.476 468.479C357.925 466.671 366.668 461.423 378.738 454.179C387.787 448.746 392.617 444.788 393.553 445.789C394.619 446.929 390.021 453.845 385.682 458.638C383.049 461.558 381.343 462.764 381.621 463.227C382.298 464.377 394.155 459.232 401.943 454.578C420.419 443.527 429.579 427.127 434.205 419.562C459.996 377.343 504.672 347.844 509.075 351.506C510.735 352.887 507.314 359.488 501.993 369.732C492.778 387.495 483.433 399.287 478.751 406.073C476.276 409.642 475.098 411.812 475.905 412.739C477.119 414.13 482.153 411.932 487.067 409.272H487.076C491.683 406.778 496.161 403.885 497.276 403.172C510.7 394.514 516.911 386.912 518.255 387.959C520.768 389.916 500.808 417.588 502.393 418.775C503.524 419.628 516.679 407.675 526.126 389.795C529.909 382.629 537.437 367.972 537.539 347.576C537.566 340.391 537.464 325.465 528.75 309.807C517.328 289.291 496.71 277.527 494.65 279.52C493.464 280.669 498.182 286.797 497.533 287.251C496.384 288.076 482.533 267.477 462.267 247.651C451.328 236.962 445.858 231.613 437.478 226.542C436.949 226.217 436.421 225.911 435.878 225.605C445.622 212.765 455.375 199.922 465.136 187.076L472.729 177.064C480.303 167.098 487.874 157.131 495.442 147.164C502.896 149.325 505.9 149.871 510.642 151.8C527.385 158.595 537.166 170.981 545.519 181.568C554.947 193.5 559.805 204.198 565.719 218.41C568.672 225.513 599.636 300.272 593.647 302.989Z" fill="#15B900"/>
<path d="M334.855 269.772C338.568 268 342.426 266.551 346.388 265.442C346.833 265.322 347.288 265.201 347.732 265.09C346.87 272.21 346.011 279.327 345.155 286.441C327.781 287.541 314.455 293.7 312.818 289.75C311.956 287.701 314.608 283.761 319.54 279.525C320.495 278.709 321.54 277.874 322.664 277.04C325.439 274.99 328.361 273.147 331.406 271.524C332.528 270.912 333.678 270.328 334.855 269.772Z" fill="#15B900"/>
<path d="M298.124 462.844C296.038 468.644 259.632 466.608 228.538 448.15C207.994 435.959 194.838 419.596 193.226 421.05C190.992 423.071 216.426 454.24 213.677 456.724C211.477 458.708 194.07 439.74 188.155 443.606C183.612 446.582 189.184 460.831 187.107 461.619C184.938 462.426 175.973 448.158 168.742 428.569C157.126 397.069 153.557 361.384 159.657 359.511C161.539 358.937 163.057 361.968 183.257 388.705C193.51 402.287 197.636 407.497 204.757 413.013C215.427 421.273 227.405 426.02 228.357 424.546C229.729 422.46 206.784 411.066 188.15 385.562C178.228 371.615 170.939 355.971 166.642 339.403C156.323 300.16 165.316 265.933 166.818 265.97C167.618 265.988 166.911 275.565 171.361 290.101C172.946 295.256 176.645 305.852 178.536 305.482C181.354 304.935 172.621 281.331 180.103 257.923C189.754 227.784 222.211 210.823 223.814 212.468C224.584 213.268 218.094 218.133 210.706 231.353C203.79 243.701 201.834 253.084 198.292 269.993C196.327 279.366 196.419 281.962 197.94 283.102C200.86 285.29 206.849 280.402 221.191 272.088C233.651 264.867 230.981 267.481 249.346 257.227C270.632 245.342 268.026 245.287 276.092 241.495C300.817 229.879 326.757 229.712 327.322 232.048C327.6 233.216 321.611 235.048 321.899 236.072C322.316 237.564 334.961 233.572 351.825 231.195C350.981 238.128 350.143 245.062 349.312 251.995C335.082 253.154 311.942 256.083 302.847 268.413C302.226 269.248 298.629 274.254 297.424 273.66C295.709 272.808 300.771 261.673 298.824 260.542C297.081 259.532 291.25 267.421 282.211 277.332C269.352 291.423 268.453 289.384 263.159 296.392C249.671 314.229 251.914 332.233 246.722 332.409C242.013 332.557 237.804 317.891 237.099 315.444C233.085 301.454 235.799 292.313 233.428 291.664C230.647 290.904 223.722 302.631 220.672 315.444C217.863 327.217 218.994 337.081 219.967 344.99C219.967 344.99 221.691 358.923 226.267 370.697C229.382 378.707 234.574 385.91 240.757 392.307C245.253 396.904 250.111 401.133 255.284 404.953C274.92 419.684 296.057 428.361 294.805 431.541C293.146 435.741 255.275 422.762 253.198 427.518C250.751 433.1 300.748 455.576 298.124 462.844Z" fill="#15B900"/>
<path d="M476.984 295C475.863 295.965 461.184 279.12 458.452 281.187C455.736 283.245 471.283 299.087 471.746 322.275C471.987 334.688 467.816 344.525 463.004 355.844C458.314 366.651 452.26 376.814 444.991 386.085C434.775 399.385 416.409 423.307 383.791 435.396C368.077 441.218 354.829 442.155 341.656 443.091C326.313 444.166 307.465 443.647 307.039 440.468C306.439 435.99 342.712 430.075 342.184 423.854C341.884 420.322 330.002 420.118 314.205 415.807C290.815 409.429 271.652 397.525 264.69 390.952C262.613 388.996 261.621 387.513 261.927 386.79C262.127 386.308 262.891 386.224 264.217 386.41C268.853 387.049 280.404 390.999 299.177 392.556C311.405 393.576 324.616 394.568 340.432 390.461C350.565 387.838 363.896 384.38 374.532 373.672C393.453 354.63 391.84 324.722 397.263 325.066C400.656 325.288 402.325 337.099 404.253 336.784C405.616 336.561 406.053 330.47 405.653 326.284C404.453 313.926 394.353 302.514 382.893 295.357L401.893 270.357C427.072 278.172 440.561 288.898 442.193 286.599C443.918 284.18 431.393 268.836 413.176 259.499C412.434 259.119 411.702 258.757 410.96 258.414C415.419 252.527 419.887 246.644 424.366 240.763C426.795 241.922 429.243 243.214 431.708 244.638C463.672 263.19 478.356 293.82 476.984 295Z" fill="#15B900"/>
<path d="M342.67 305.39C342.735 305.408 342.8 305.427 342.855 305.446C341.845 313.826 340.832 322.204 339.815 330.579C337.034 329.726 334.115 328.91 331.128 328.205C317.88 325.072 308.461 322.837 299.793 327.946C298.634 328.632 289.215 334.352 288.909 342.769C288.344 358.437 319.985 367.884 318.279 372.797C316.842 376.923 291.774 378.211 276.709 362.831C266.502 352.402 260.596 333.99 268.059 321.131C273.371 311.962 283.291 309.366 297.959 305.531C312.598 301.608 328.006 301.56 342.67 305.39Z" fill="#15B900"/>
<path d="M379.123 345.782C376.453 347.627 372.466 344.225 362.213 339.228C362.213 339.228 358.505 337.42 352.701 335.121C357.42 328.91 362.132 322.701 366.839 316.496H366.848C370.788 318.916 373.579 321.085 375.98 324.534C381.171 332.016 382.905 343.168 379.123 345.782Z" fill="#15B900"/>
<path d="M619.068 435.5C616.815 440.96 614.182 446.736 611.224 452.521C610.27 454.384 609.361 456.099 608.48 457.694C608.471 457.712 608.453 457.731 608.443 457.749C602.149 469.162 597.569 474.288 592.359 481.139C587.22 487.905 582.652 495.087 578.703 502.61C573.157 513.1 568.168 523.875 563.758 534.891C560.532 542.791 557.445 550.827 554.311 558.991C547.511 576.726 540.767 596.231 536.743 595.443C533.643 594.843 535.001 582.807 530.968 581.806C530.836 581.778 530.702 581.76 530.568 581.751C528.862 581.667 527.194 583.79 524.978 587.09C520.213 591.42 516.152 594.572 512.991 597.029C500.485 606.707 485.309 618.453 466.582 625.202C471.847 617.489 478.661 608.502 476.946 606.726C474.777 604.482 461.974 616.794 437.87 628.753C435.998 629.68 434.162 630.561 432.363 631.377C422.639 635.75 412.654 639.515 402.463 642.65C382.188 649.223 366.317 655.35 364.694 652.356C363.894 650.882 366.854 647.721 371.008 644.031C379.073 636.893 391.654 627.77 390.133 625.082C388.65 622.482 376.19 630.134 357.88 631.636C332.794 633.704 309.608 623.163 310.146 619.575C310.47 617.424 320.937 617.239 341.879 616.951C388.548 616.321 391.179 620.808 409.537 616.951C411.502 616.544 426.317 610.731 455.965 599.124C481.932 588.945 483.508 588.147 486.122 586.534C500.422 577.699 509.179 567.001 524.939 547.458C530.891 540.069 534.933 534.479 542.766 523.586C554.123 507.826 564.979 492.752 572.666 480.32C596.204 442.245 604.066 406.246 605.187 406.62C606.263 406.982 595.193 438.512 598.887 440.19C603.105 442.099 622.487 403.672 627.237 402.17C627.315 402.134 627.4 402.115 627.486 402.114C627.572 402.112 627.658 402.128 627.737 402.161C629.784 403.113 626.419 417.658 619.068 435.5Z" fill="#15B900"/>
<path d="M149.82 553.845C150.256 552.245 160.092 552.714 170.101 555.245C186.194 559.312 193.31 566.319 211.713 577.799C223.13 584.921 234.16 591.799 248.429 597.381C273.368 607.133 291.185 606.258 291.09 608.396C290.983 610.816 268.021 614.917 243.01 609.97C230.86 607.57 206.124 602.67 188.81 584.093C183.775 578.693 180.134 572.952 170.802 566.26C159.45 558.119 149.366 555.513 149.82 553.845Z" fill="#15B900"/>
<path d="M566.288 196.3C563.43 198.467 577.799 214.015 589.368 247.441C601.73 283.161 604.054 318.251 604.054 318.251C604.954 331.851 605.272 353.484 607.988 353.656C609.373 353.744 610.003 348.156 611.922 348.149C615.077 348.133 618.71 363.213 619.003 377.784C619.159 385.551 618.303 390.044 618.741 390.11C619.589 390.238 624.882 373.61 624.773 354.705C624.708 343.561 622.823 341.571 616.905 314.317C614.08 301.31 615.263 305.234 607.463 266.324C601.818 238.161 601.114 235.684 599.333 231.705C589.192 209.041 569.339 193.985 566.288 196.3Z" fill="#15B900"/>
<path d="M362.426 143.486C361.62 150.115 360.82 156.74 360.026 163.362C355.882 161.138 354.881 159.385 348.726 157.411C334.903 152.97 329.22 158.338 313.933 153.387C308.139 151.514 301.325 148.27 301.696 146.74C302.224 144.561 316.918 148.24 336.665 147.621C349.187 147.222 352.08 145.461 362.426 143.486Z" fill="#A2EE00"/>
<path d="M537.467 222.278C536.967 224.049 529.577 224.308 523.125 222.621C510.22 219.246 503.684 208.734 500.925 210.56C498.802 211.969 502.125 218.579 499.878 219.997C499.405 220.303 497.278 221.258 488.336 213.007C483.59 208.641 479.26 203.843 475.403 198.675C472.32 194.522 468.886 190.641 465.14 187.075L472.733 177.063C472.807 177.1 472.881 177.128 472.956 177.163C484.841 182.494 483.385 185.897 499.702 196.743C525.595 213.95 531.352 217.204 531.352 217.204C533.74 218.551 537.865 220.841 537.467 222.278Z" fill="#A2EE00"/>
<path d="M606.446 186.911C613.268 176.553 608.477 161.359 595.744 152.972C583.012 144.586 567.161 146.183 560.339 156.541C553.516 166.898 558.307 182.092 571.04 190.479C583.772 198.865 599.623 197.268 606.446 186.911Z" fill="#FFFF00"/>
<path d="M597.847 181.252C602.124 174.759 599.12 165.233 591.138 159.975C583.156 154.718 573.218 155.719 568.941 162.212C564.664 168.705 567.668 178.231 575.65 183.489C583.632 188.747 593.57 187.745 597.847 181.252Z" fill="white"/>
<path d="M500.124 444.617C506.946 434.259 502.155 419.065 489.422 410.678C476.69 402.292 460.839 403.89 454.017 414.247C447.194 424.604 451.985 439.798 464.718 448.185C477.45 456.571 493.301 454.974 500.124 444.617Z" fill="#FFFF00"/>
<path d="M491.525 438.958C495.802 432.465 492.798 422.939 484.816 417.681C476.834 412.424 466.896 413.425 462.619 419.918C458.342 426.411 461.346 435.937 469.328 441.195C477.31 446.453 487.248 445.451 491.525 438.958Z" fill="white"/>
<path d="M172.852 149.826C179.674 139.468 174.883 124.274 162.15 115.887C149.418 107.501 133.567 109.099 126.744 119.456C119.922 129.813 124.713 145.007 137.446 153.394C150.178 161.78 166.029 160.183 172.852 149.826Z" fill="#FFFF00"/>
<path d="M164.253 144.167C168.53 137.674 165.526 128.148 157.544 122.89C149.562 117.633 139.624 118.634 135.347 125.127C131.07 131.62 134.074 141.146 142.056 146.404C150.038 151.662 159.976 150.66 164.253 144.167Z" fill="white"/>
<path d="M110.064 531.697C117.741 530.458 122.729 521.802 121.204 512.365C119.68 502.928 112.222 496.282 104.545 497.522C96.8682 498.762 91.8805 507.417 93.4046 516.855C94.9288 526.292 102.387 532.937 110.064 531.697Z" fill="#FFFF00"/>
<path d="M109.035 525.323C113.849 524.545 116.976 519.119 116.02 513.202C115.065 507.285 110.388 503.119 105.575 503.896C100.762 504.674 97.6346 510.1 98.5902 516.017C99.5457 521.934 104.222 526.1 109.035 525.323Z" fill="white"/>
<path d="M259.576 553.335C264.592 539.054 259.24 524.169 247.622 520.089C236.005 516.009 222.521 524.279 217.506 538.56C212.49 552.842 217.842 567.727 229.46 571.807C241.077 575.887 254.561 567.617 259.576 553.335Z" fill="#FFFF00"/>
<path d="M251.729 550.579C254.874 541.625 251.518 532.293 244.235 529.735C236.951 527.177 228.497 532.362 225.353 541.316C222.208 550.27 225.564 559.602 232.847 562.16C240.131 564.718 248.585 559.533 251.729 550.579Z" fill="white"/>
<path d="M539.099 533.218C544.791 517.011 538.717 500.12 525.533 495.49C512.349 490.859 497.048 500.244 491.356 516.451C485.664 532.658 491.738 549.549 504.922 554.179C518.106 558.81 533.407 549.425 539.099 533.218Z" fill="#FFFF00"/>
<path d="M530.193 530.09C533.761 519.93 529.954 509.34 521.688 506.437C513.423 503.534 503.829 509.418 500.261 519.579C496.693 529.739 500.501 540.329 508.766 543.232C517.031 546.135 526.625 540.251 530.193 530.09Z" fill="white"/>
<path d="M64.6958 295.98C66.6605 290.386 64.5642 284.555 60.0135 282.957C55.4629 281.359 50.1812 284.598 48.2165 290.192C46.2518 295.787 48.3481 301.618 52.8987 303.216C57.4493 304.814 62.7311 301.574 64.6958 295.98Z" fill="#FFFF00"/>
<path d="M61.6218 294.9C62.8536 291.392 61.5394 287.737 58.6864 286.735C55.8335 285.733 52.5222 287.764 51.2904 291.271C50.0586 294.779 51.3728 298.434 54.2258 299.436C57.0787 300.438 60.39 298.407 61.6218 294.9Z" fill="white"/>
<path d="M73.4207 198.957C75.3854 193.363 73.2891 187.532 68.7385 185.934C64.1879 184.336 58.9062 187.575 56.9415 193.17C54.9767 198.764 57.073 204.595 61.6237 206.193C66.1743 207.791 71.456 204.551 73.4207 198.957Z" fill="#FFFF00"/>
<path d="M70.3478 197.878C71.5795 194.37 70.2653 190.715 67.4124 189.713C64.5595 188.711 61.2481 190.742 60.0164 194.249C58.7846 197.757 60.0988 201.412 62.9517 202.414C65.8046 203.416 69.116 201.385 70.3478 197.878Z" fill="white"/>
<path d="M340.148 633.319C342.112 627.724 340.016 621.894 335.466 620.296C330.915 618.697 325.633 621.937 323.669 627.531C321.704 633.126 323.8 638.956 328.351 640.555C332.901 642.153 338.183 638.913 340.148 633.319Z" fill="#FFFF00"/>
<path d="M337.075 632.239C338.307 628.732 336.992 625.076 334.139 624.075C331.287 623.073 327.975 625.104 326.743 628.611C325.512 632.119 326.826 635.774 329.679 636.776C332.532 637.778 335.843 635.747 337.075 632.239Z" fill="white"/>
<path d="M334.114 274.063C336.078 268.469 333.982 262.638 329.432 261.04C324.881 259.442 319.599 262.681 317.634 268.275C315.67 273.87 317.766 279.701 322.317 281.299C326.867 282.897 332.149 279.657 334.114 274.063Z" fill="#FFFF00"/>
<path d="M331.04 272.984C332.272 269.476 330.957 265.821 328.104 264.819C325.252 263.817 321.94 265.848 320.708 269.355C319.477 272.863 320.791 276.518 323.644 277.52C326.497 278.522 329.808 276.491 331.04 272.984Z" fill="white"/>
<path d="M532.823 360.293C534.787 354.699 532.691 348.868 528.141 347.27C523.59 345.672 518.308 348.911 516.343 354.505C514.379 360.1 516.475 365.931 521.026 367.529C525.576 369.127 530.858 365.887 532.823 360.293Z" fill="#FFFF00"/>
<path d="M529.749 359.213C530.981 355.705 529.666 352.05 526.813 351.048C523.961 350.046 520.649 352.077 519.417 355.584C518.186 359.092 519.5 362.747 522.353 363.749C525.206 364.751 528.517 362.72 529.749 359.213Z" fill="white"/>
<path d="M363.451 88.7209C365.415 83.1265 363.319 77.2958 358.769 75.6977C354.218 74.0995 348.936 77.3391 346.971 82.9334C345.007 88.5278 347.103 94.3585 351.654 95.9566C356.204 97.5548 361.486 94.3152 363.451 88.7209Z" fill="#FFFF00"/>
<path d="M360.377 87.6415C361.609 84.1341 360.294 80.4786 357.441 79.4766C354.589 78.4747 351.277 80.5058 350.045 84.0132C348.814 87.5206 350.128 91.1762 352.981 92.1781C355.834 93.1801 359.145 91.149 360.377 87.6415Z" fill="white"/>
<path d="M125.586 373.964C130.306 369.297 129.481 360.811 123.745 355.009C118.008 349.208 109.532 348.287 104.813 352.954C100.093 357.62 100.917 366.106 106.654 371.908C112.39 377.71 120.867 378.63 125.586 373.964Z" fill="#FFFF00"/>
<path d="M121.712 370.042C124.671 367.116 124.154 361.796 120.558 358.159C116.961 354.521 111.647 353.944 108.688 356.87C105.73 359.795 106.247 365.116 109.843 368.753C113.439 372.39 118.753 372.967 121.712 370.042Z" fill="white"/>
<path d="M287.711 68.9907C292.431 64.3242 291.606 55.838 285.87 50.0363C280.133 44.2345 271.657 43.3142 266.938 47.9806C262.218 52.6471 263.042 61.1332 268.779 66.935C274.515 72.7368 282.992 73.6571 287.711 68.9907Z" fill="#FFFF00"/>
<path d="M283.838 65.068C286.797 62.1425 286.28 56.8223 282.684 53.1849C279.087 49.5476 273.773 48.9705 270.814 51.896C267.856 54.8216 268.373 60.1418 271.969 63.7791C275.565 67.4165 280.879 67.9935 283.838 65.068Z" fill="white"/>
<path d="M69.1251 410.824C75.763 410.824 81.1441 404.209 81.1441 396.049C81.1441 387.889 75.763 381.274 69.1251 381.274C62.4872 381.274 57.1061 387.889 57.1061 396.049C57.1061 404.209 62.4872 410.824 69.1251 410.824Z" fill="#FFFF00"/>
<path d="M69.1251 405.312C73.2866 405.312 76.6601 401.165 76.6601 396.049C76.6601 390.933 73.2866 386.786 69.1251 386.786C64.9636 386.786 61.5901 390.933 61.5901 396.049C61.5901 401.165 64.9636 405.312 69.1251 405.312Z" fill="white"/>
<path d="M252.683 405.312C259.321 405.312 264.702 398.697 264.702 390.537C264.702 382.377 259.321 375.762 252.683 375.762C246.045 375.762 240.664 382.377 240.664 390.537C240.664 398.697 246.045 405.312 252.683 405.312Z" fill="#FFFF00"/>
<path d="M252.682 399.8C256.844 399.8 260.217 395.653 260.217 390.537C260.217 385.421 256.844 381.274 252.682 381.274C248.521 381.274 245.147 385.421 245.147 390.537C245.147 395.653 248.521 399.8 252.682 399.8Z" fill="white"/>
<path d="M161.824 210.839C168.462 210.839 173.843 204.224 173.843 196.064C173.843 187.904 168.462 181.289 161.824 181.289C155.186 181.289 149.805 187.904 149.805 196.064C149.805 204.224 155.186 210.839 161.824 210.839Z" fill="#FFFF00"/>
<path d="M161.824 205.327C165.986 205.327 169.359 201.18 169.359 196.064C169.359 190.948 165.986 186.801 161.824 186.801C157.663 186.801 154.289 190.948 154.289 196.064C154.289 201.18 157.663 205.327 161.824 205.327Z" fill="white"/>
<path d="M552.416 457.422C559.054 457.422 564.435 450.807 564.435 442.647C564.435 434.487 559.054 427.872 552.416 427.872C545.778 427.872 540.397 434.487 540.397 442.647C540.397 450.807 545.778 457.422 552.416 457.422Z" fill="#FFFF00"/>
<path d="M552.415 451.91C556.577 451.91 559.95 447.763 559.95 442.647C559.95 437.531 556.577 433.384 552.415 433.384C548.254 433.384 544.88 437.531 544.88 442.647C544.88 447.763 548.254 451.91 552.415 451.91Z" fill="white"/>
<path d="M429.916 582.465C436.554 582.465 441.935 575.85 441.935 567.69C441.935 559.53 436.554 552.915 429.916 552.915C423.278 552.915 417.897 559.53 417.897 567.69C417.897 575.85 423.278 582.465 429.916 582.465Z" fill="#FFFF00"/>
<path d="M429.915 576.953C434.077 576.953 437.45 572.806 437.45 567.69C437.45 562.574 434.077 558.427 429.915 558.427C425.754 558.427 422.38 562.574 422.38 567.69C422.38 572.806 425.754 576.953 429.915 576.953Z" fill="white"/>
<path d="M651.324 387.414C657.509 379.195 657.103 368.453 650.417 363.422C643.732 358.39 633.297 360.974 627.112 369.193C620.927 377.412 621.333 388.154 628.019 393.185C634.705 398.217 645.139 395.633 651.324 387.414Z" fill="#FFFF00"/>
<path d="M646.808 384.015C650.686 378.862 650.432 372.128 646.24 368.973C642.048 365.819 635.506 367.439 631.628 372.592C627.751 377.745 628.005 384.479 632.197 387.634C636.389 390.788 642.93 389.168 646.808 384.015Z" fill="white"/>
<path d="M462.908 34.3C461.046 39.1127 459.183 43.9226 457.32 48.73C453.433 58.7733 449.543 68.8193 445.651 78.8679C445.63 78.936 445.604 79.003 445.575 79.0681L445.149 80.175C440.232 92.875 435.315 105.572 430.397 118.265C427.069 126.87 423.737 135.478 420.402 144.09C418.775 148.308 417.142 152.529 415.502 156.752C411.615 166.795 407.725 176.841 403.833 186.89C402.319 190.805 400.806 194.719 399.293 198.634C397.043 204.434 394.799 210.228 392.56 216.015C390.187 222.143 387.817 228.268 385.449 234.389C382.735 241.406 380.018 248.425 377.298 255.448C375.615 259.798 373.932 264.145 372.248 268.489C369.099 276.63 365.947 284.772 362.792 292.915C359.859 300.499 356.925 308.08 353.992 315.657C350.992 323.39 347.998 331.129 345.009 338.872C341.907 346.891 338.802 354.91 335.694 362.929C336.743 354.229 337.793 345.532 338.843 336.839C339.874 328.291 340.908 319.746 341.943 311.203C342.719 304.744 343.501 298.282 344.289 291.817C345.156 284.565 346.032 277.306 346.918 270.039C347.447 265.595 347.986 261.144 348.535 256.687C349.386 249.614 350.24 242.541 351.097 235.467C351.826 229.358 352.564 223.246 353.31 217.131L354.303 208.876C354.833 204.535 355.359 200.192 355.882 195.845C356.405 191.498 356.928 187.158 357.452 182.823C357.66 181.14 357.859 179.457 358.067 177.764C358.53 173.935 358.984 170.105 359.457 166.275C360.27 159.523 361.086 152.765 361.906 146C363.239 134.899 364.579 123.794 365.925 112.686C366.946 104.298 367.961 95.9036 368.97 87.5029C370.103 78.0943 371.241 68.6852 372.384 59.2759C372.563 57.7819 372.743 56.2879 372.923 54.7839C373.481 50.2173 374.036 45.6507 374.587 41.084C374.748 39.684 374.918 38.2749 375.087 36.8669C375.815 30.8523 376.543 24.8316 377.272 18.8049L379.229 2.65308C393.177 5.39608 404.752 9.94397 425.754 18.199C439.9 23.76 452.45 29.339 462.908 34.3Z" fill="#3B54DC"/>
<path d="M457.32 48.7339C453.433 58.7772 449.543 68.8234 445.651 78.8721C445.63 78.9402 445.604 79.0069 445.575 79.072L445.149 80.179C440.232 92.879 435.315 105.576 430.397 118.269C427.069 126.874 423.737 135.482 420.402 144.094C418.775 148.312 417.142 152.533 415.502 156.756C411.615 166.799 407.725 176.845 403.833 186.894C402.319 190.809 400.806 194.723 399.293 198.638C397.043 204.438 394.799 210.232 392.56 216.019C390.187 222.147 387.817 228.272 385.449 234.393C382.735 241.41 380.018 248.429 377.298 255.452C375.615 259.802 373.932 264.149 372.248 268.493C369.099 276.634 365.947 284.776 362.792 292.919C359.859 300.503 356.925 308.084 353.992 315.661C350.992 323.394 347.998 331.133 345.009 338.876C341.907 346.895 338.802 354.914 335.694 362.933C336.743 354.233 337.793 345.536 338.843 336.843C339.874 328.295 340.908 319.75 341.943 311.207C342.719 304.748 343.501 298.286 344.289 291.821C345.156 284.569 346.032 277.31 346.918 270.043C347.447 265.599 347.986 261.148 348.535 256.691C349.386 249.618 350.24 242.545 351.097 235.471C351.826 229.362 352.564 223.25 353.31 217.135L354.303 208.88C354.833 204.539 355.359 200.196 355.882 195.849C356.405 191.502 356.928 187.162 357.452 182.827C357.66 181.144 357.859 179.461 358.067 177.768C358.53 173.939 358.984 170.109 359.457 166.279C360.27 159.527 361.086 152.769 361.906 146.004C363.239 134.903 364.579 123.798 365.925 112.69C366.946 104.302 367.961 95.9077 368.97 87.5071C370.103 78.0984 371.241 68.6894 372.384 59.28C372.563 57.786 372.743 56.2921 372.923 54.7881C373.481 50.2214 374.036 45.6546 374.587 41.0879C374.748 39.6879 374.918 38.2791 375.087 36.8711C375.815 30.8564 376.543 24.8357 377.272 18.8091C388.666 21.1161 398 24.6529 407.56 28.2839C419.854 32.9369 419.513 33.854 434.984 40.322C445.329 44.64 451.939 46.9189 457.32 48.7339Z" fill="#019EF3"/>
<path d="M445.149 80.177C440.232 92.877 435.315 105.574 430.397 118.267C427.069 126.872 423.737 135.48 420.402 144.092C418.775 148.31 417.142 152.531 415.502 156.754C411.615 166.797 407.725 176.843 403.833 186.892C402.319 190.807 400.806 194.721 399.293 198.636C397.043 204.436 394.799 210.23 392.56 216.017C390.187 222.145 387.817 228.27 385.449 234.391C382.735 241.408 380.018 248.427 377.298 255.45C375.615 259.8 373.932 264.147 372.248 268.491C369.099 276.632 365.947 284.774 362.792 292.917C359.859 300.501 356.925 308.082 353.992 315.659C350.992 323.392 347.998 331.131 345.009 338.874C341.907 346.893 338.802 354.912 335.694 362.931C336.743 354.231 337.793 345.534 338.843 336.841C339.874 328.293 340.908 319.748 341.943 311.205C342.719 304.746 343.501 298.284 344.289 291.819C345.156 284.567 346.032 277.308 346.918 270.041C347.447 265.597 347.986 261.146 348.535 256.689C349.386 249.616 350.24 242.543 351.097 235.469C351.826 229.36 352.564 223.248 353.31 217.133L354.303 208.878C354.833 204.537 355.359 200.194 355.882 195.847C356.405 191.5 356.928 187.16 357.452 182.825C357.66 181.142 357.859 179.459 358.067 177.766C358.53 173.937 358.984 170.107 359.457 166.277C360.27 159.525 361.086 152.767 361.906 146.002C363.239 134.901 364.579 123.796 365.925 112.688C366.946 104.3 367.961 95.9055 368.97 87.5049C370.103 78.0962 371.241 68.6874 372.384 59.2781C374.559 59.7701 376.469 60.2329 378.02 60.6589C387.987 63.3589 392.951 65.1591 398.256 67.0701C401.292 68.1581 404.45 69.292 408.724 70.645C408.81 70.673 408.895 70.701 408.97 70.72C415.187 72.6217 421.5 74.1936 427.883 75.429H427.892C429.614 75.798 431.353 76.1859 433.192 76.6399C435.112 77.1029 437.126 77.6399 439.32 78.2949C441.121 78.8339 443.05 79.458 445.149 80.177Z" fill="#0172EB"/>
<path d="M387.475 40.1189C387.447 40.8099 382.444 40.432 374.586 41.084C374.747 39.684 374.917 38.2749 375.086 36.8669C382.615 37.7739 387.5 39.4389 387.475 40.1189Z" fill="#0100B9"/>
<path d="M445.651 78.8721C445.63 78.9402 445.604 79.0069 445.575 79.072C443.485 78.2831 441.33 77.6759 439.135 77.2571C437.173 76.885 435.184 76.6793 433.187 76.6421C432.127 76.6142 431.067 76.6425 430.01 76.7271C429.537 76.7651 429.074 76.8121 428.62 76.8601C420.931 77.7861 416.27 81.1901 410.076 83.8191C406.475 85.2493 402.684 86.1415 398.823 86.467C396.08 86.767 392.988 86.9591 389.395 87.1011C385.707 87.2521 381.508 87.3369 376.638 87.4319C373.867 87.4879 371.314 87.5071 368.969 87.5071C370.102 78.0984 371.24 68.6894 372.383 59.28C372.562 57.786 372.742 56.2921 372.922 54.7881C378.084 54.9058 383.228 55.4306 388.307 56.3579C394.037 57.4737 399.648 59.1329 405.064 61.313C409.083 62.836 413.688 64.7129 419.39 67.0339C426.766 70.0409 433.263 72.9539 438.738 75.5259H438.747C441.272 76.7249 443.579 77.8501 445.651 78.8721Z" fill="#0100B9"/>
<path d="M399.295 198.636C397.045 204.436 394.801 210.23 392.562 216.017C382.072 214.945 371.498 214.986 361.016 216.14C358.302 216.414 355.716 216.764 353.309 217.133L354.302 208.878C357.202 207.705 360.26 206.578 363.286 205.578C374.953 201.773 387.05 199.441 399.295 198.636Z" fill="#0100B9"/>
<path d="M430.4 118.267C427.072 126.872 423.74 135.48 420.405 144.092C418.778 148.31 417.145 152.531 415.505 156.754C411.618 166.797 407.728 176.843 403.836 186.892C395.467 186.201 385.301 187.383 367.703 192.206C365.003 192.944 361.755 193.87 355.882 195.847C356.402 191.506 356.925 187.166 357.452 182.825C370.369 182.305 375.003 182.334 375.06 181.634C375.116 180.783 368.176 178.863 358.067 177.766C358.53 173.937 358.984 170.107 359.457 166.277C360.27 159.525 361.086 152.767 361.906 146.002C363.239 134.901 364.579 123.796 365.925 112.688C372.35 113.134 378.797 113.156 385.225 112.754C390.525 112.413 394.152 111.884 397.452 111.524C401.475 111.023 405.545 111.029 409.566 111.543C413.723 111.987 417.82 112.881 421.784 114.21C422.512 114.456 423.259 114.721 424.015 115.023C426.255 115.868 428.396 116.956 430.4 118.267Z" fill="#0100B9"/>
<path d="M372.25 268.491C369.101 276.632 365.949 284.774 362.794 292.917C356.7 291.74 350.478 291.37 344.288 291.817C345.155 284.565 346.031 277.306 346.917 270.039C355.195 267.977 363.782 267.452 372.25 268.491Z" fill="#0100B9"/>
<path d="M385.451 234.391C382.737 241.408 380.02 248.427 377.3 255.45C369.319 255.322 361.336 255.613 353.385 256.32C351.928 256.42 350.302 256.538 348.534 256.689C349.385 249.616 350.239 242.543 351.096 235.469C358.882 234.326 366.745 233.782 374.614 233.842C377.092 233.88 380.808 233.956 385.451 234.391Z" fill="#0100B9"/>
<path d="M353.99 315.659C350.99 323.392 347.996 331.131 345.007 338.874C343.058 338.184 340.988 337.503 338.841 336.841C339.872 328.293 340.906 319.748 341.941 311.205C346.071 312.362 350.1 313.852 353.99 315.659Z" fill="#0100B9"/>
<path d="M420.4 144.092C418.773 148.31 417.14 152.531 415.5 156.754C411.273 156.631 404.729 157.444 375.386 157.889C373.674 157.908 369.665 157.974 369.324 159.308C368.483 162.683 391.924 169.851 391.263 172.329C390.8 174.069 378.535 173.454 366.118 169.123C363.825 168.35 361.596 167.399 359.452 166.277C360.265 159.525 361.081 152.767 361.901 146.002C365.107 145.402 369.022 144.764 374.137 144.149C393.5 141.822 407.078 140.319 420.4 144.092Z" fill="#006FEE"/>
<path d="M437.624 95.3331C443.153 79.5901 437.253 63.1819 424.446 58.6842C411.64 54.1866 396.776 63.3028 391.247 79.0458C385.718 94.7887 391.618 111.197 404.425 115.695C417.231 120.192 432.095 111.076 437.624 95.3331Z" fill="#00D9FF"/>
<path d="M428.972 92.2951C432.439 82.4252 428.74 72.1383 420.711 69.3186C412.682 66.4989 403.363 72.2142 399.897 82.0841C396.431 91.9539 400.13 102.241 408.159 105.061C416.187 107.88 425.506 102.165 428.972 92.2951Z" fill="white"/>
<path d="M545.754 82.8511C542.333 87.3471 538.915 91.8471 535.5 96.3511C529.382 104.398 523.27 112.445 517.163 120.492C510.395 129.401 503.63 138.31 496.869 147.219C489.295 157.185 481.724 167.152 474.156 177.119L466.563 187.132C456.801 199.972 447.048 212.815 437.305 225.661C433.457 230.714 429.619 235.766 425.791 240.819C421.313 246.706 416.844 252.589 412.385 258.47C409.354 262.447 406.331 266.428 403.318 270.411C396.985 278.744 390.653 287.078 384.323 295.411L368.275 316.548H368.266C363.556 322.76 358.843 328.968 354.128 335.173L338.154 356.208C341.195 348.347 344.239 340.485 347.286 332.624C350.225 325.04 353.16 317.453 356.093 309.864C358.967 302.429 361.844 294.995 364.724 287.564C367.811 279.582 370.901 271.6 373.995 263.618C375.645 259.351 377.295 255.09 378.946 250.833C381.606 243.955 384.27 237.073 386.937 230.187C389.264 224.18 391.587 218.176 393.908 212.174C396.108 206.491 398.308 200.811 400.508 195.135L404.958 183.621C408.778 173.775 412.591 163.926 416.398 154.075C418.002 149.942 419.602 145.804 421.198 141.661C424.47 133.225 427.737 124.786 430.998 116.343C435.819 103.892 440.64 91.4447 445.46 79L445.877 77.916C445.906 77.8528 445.931 77.7875 445.951 77.7209C449.762 67.8749 453.576 58.0264 457.392 48.175C459.218 43.457 461.044 38.7414 462.87 34.0281C476.183 40.3511 486.047 45.672 491.48 48.667C510.219 58.9992 528.341 70.4133 545.754 82.8511Z" fill="#DC3D3B"/>
<path d="M535.5 96.3491C529.382 104.396 523.27 112.443 517.163 120.49C510.395 129.399 503.63 138.308 496.869 147.217C489.295 157.183 481.724 167.15 474.156 177.117L466.563 187.13C456.801 199.97 447.048 212.813 437.305 225.659C433.457 230.712 429.619 235.764 425.791 240.817C421.313 246.704 416.844 252.587 412.385 258.468C409.354 262.445 406.331 266.426 403.318 270.409C396.985 278.742 390.653 287.076 384.323 295.409L368.275 316.546H368.266C363.556 322.758 358.843 328.966 354.128 335.171L338.154 356.206C341.195 348.345 344.239 340.483 347.286 332.622C350.225 325.038 353.16 317.451 356.093 309.862C358.967 302.427 361.844 294.993 364.724 287.562C367.811 279.58 370.901 271.598 373.995 263.616C375.645 259.349 377.295 255.088 378.946 250.831C381.606 243.953 384.27 237.071 386.937 230.185C389.264 224.178 391.587 218.174 393.908 212.172C396.108 206.489 398.308 200.809 400.508 195.133L404.958 183.619C408.778 173.773 412.591 163.924 416.398 154.073C418.002 149.94 419.602 145.802 421.198 141.659C424.47 133.223 427.737 124.784 430.998 116.341C435.819 103.89 440.64 91.4427 445.46 78.998L445.877 77.9141C445.906 77.8508 445.931 77.7856 445.951 77.719C449.762 67.873 453.576 58.0244 457.392 48.1731C464.101 50.2238 470.633 52.8126 476.925 55.9141C484.277 59.5581 491.397 64.462 505.646 74.27C522.568 85.929 528.065 90.7001 535.5 96.3491Z" fill="#FF31A2"/>
<path d="M517.163 120.49C510.395 129.399 503.63 138.308 496.869 147.217C489.295 157.183 481.724 167.15 474.156 177.117L466.563 187.13C456.801 199.97 447.048 212.813 437.305 225.659C433.457 230.712 429.619 235.764 425.791 240.817C421.313 246.704 416.844 252.587 412.385 258.468C409.354 262.445 406.331 266.426 403.318 270.409C396.985 278.742 390.653 287.076 384.323 295.409L368.275 316.546H368.266C363.556 322.758 358.843 328.966 354.128 335.171L338.154 356.206C341.195 348.345 344.239 340.483 347.286 332.622C350.225 325.038 353.16 317.451 356.093 309.862C358.967 302.427 361.844 294.993 364.724 287.562C367.811 279.58 370.901 271.598 373.995 263.616C375.645 259.349 377.295 255.088 378.946 250.831C381.606 243.953 384.27 237.071 386.937 230.185C389.264 224.178 391.587 218.174 393.908 212.172C396.108 206.489 398.308 200.809 400.508 195.133L404.958 183.619C408.778 173.773 412.591 163.924 416.398 154.073C418.002 149.94 419.602 145.802 421.198 141.659C424.47 133.223 427.737 124.784 430.998 116.341C435.819 103.89 440.64 91.4427 445.46 78.998C446.906 79.508 448.436 80.065 450.06 80.686C459.47 84.273 485.56 101.962 496.025 108.044C504.193 112.795 510.683 116.68 517.163 120.49Z" fill="#EF299F"/>
<path d="M448.207 78.855C447.493 78.54 446.715 78.2249 445.88 77.9189C445.909 77.8557 445.934 77.7907 445.954 77.7241C446.742 78.1131 447.493 78.494 448.207 78.855Z" fill="#B91700"/>
<path d="M496.869 147.217C489.295 157.183 481.724 167.15 474.156 177.117L466.563 187.13C456.801 199.97 447.048 212.813 437.305 225.659C422.676 217.195 407.129 213.57 393.905 212.179C396.105 206.496 398.305 200.816 400.505 195.14C412.919 194.24 422.486 194.899 427.27 194.482C429.337 194.315 430.515 193.935 430.635 193.156C430.793 192.201 429.31 190.956 426.88 189.698C421.868 187.292 416.564 185.547 411.102 184.506C409.071 184.099 407.019 183.805 404.955 183.626C408.775 173.78 412.588 163.931 416.395 154.08C417.999 149.947 419.599 145.809 421.195 141.666C424.467 133.23 427.734 124.791 430.995 116.348C434.035 118.332 436.826 120.816 443.751 125.1C450.156 129.034 456.815 132.54 463.683 135.594C468.875 137.902 473.214 139.506 479.416 141.629C487.293 144.316 492.762 146.012 496.869 147.217Z" fill="#B91700"/>
<path d="M403.318 270.407C396.985 278.74 390.653 287.074 384.323 295.407C382.143 294.031 379.876 292.798 377.536 291.717C373.442 289.837 369.142 288.443 364.724 287.564C367.811 279.582 370.901 271.6 373.995 263.618C382.988 264.618 391.535 266.992 399.74 269.338C400.964 269.693 402.15 270.045 403.318 270.407Z" fill="#B91700"/>
<path d="M425.791 240.815C421.313 246.702 416.844 252.585 412.385 258.466C400.926 253.043 389.774 251.188 378.946 250.836C381.606 243.958 384.27 237.076 386.937 230.19C400.418 231.39 413.576 234.989 425.791 240.815Z" fill="#B91700"/>
<path d="M368.266 316.547C363.556 322.759 358.843 328.967 354.128 335.172C352.088 334.356 349.78 333.494 347.286 332.623C350.225 325.039 353.16 317.452 356.093 309.863C359.477 311.421 362.093 312.922 363.899 313.97C365.5 314.9 366.949 315.731 368.266 316.547Z" fill="#B91700"/>
<path d="M452.082 164.275C450.923 166.157 441.022 158.375 421.137 154.662C419.577 154.332 417.992 154.136 416.399 154.078C418.003 149.945 419.603 145.807 421.199 141.664C423.318 142.257 425.398 142.978 427.429 143.824C442.738 150.165 453.371 162.19 452.082 164.275Z" fill="#EE0052"/>
<path d="M474.156 177.115L466.563 187.128C457.422 178.413 450.191 175.002 451.294 172.842C452.62 170.237 464.394 172.777 474.156 177.115Z" fill="#EE0052"/>
<path d="M438.878 205.377C445.516 205.377 450.897 198.762 450.897 190.602C450.897 182.442 445.516 175.827 438.878 175.827C432.24 175.827 426.859 182.442 426.859 190.602C426.859 198.762 432.24 205.377 438.878 205.377Z" fill="#FF00B3"/>
<path d="M438.877 199.865C443.039 199.865 446.412 195.718 446.412 190.602C446.412 185.486 443.039 181.339 438.877 181.339C434.716 181.339 431.342 185.486 431.342 190.602C431.342 195.718 434.716 199.865 438.877 199.865Z" fill="white"/>
</svg>
